<svg width="32" height="32" xmlns="http://www.w3.org/2000/svg">
    <g fill="none" fill-rule="evenodd">
        <circle fill="#1A56F0" cx="16" cy="16" r="16"/>
        <path d="M12.065 16.662a4.061 4.061 0 1 0 0 8.123 4.061 4.061 0 0 0 0-8.123zm0 6.894a2.833 2.833 0 1 1 0-5.668 2.833 2.833 0 0 1 0 5.669v-.001zM20.739 8a4.061 4.061 0 1 0 0 8.122 4.061 4.061 0 0 0 0-8.122zm0 6.893a2.832 2.832 0 1 1 0-5.664 2.832 2.832 0 0 1 0 5.664zM12.065 8h4.06v1.228h-1.151A4.063 4.063 0 1 1 12.064 8zm2.833 4.06a2.832 2.832 0 1 0-5.664-.002 2.832 2.832 0 0 0 5.664.003z" fill="#FFF" fill-rule="nonzero"/>
    </g>
</svg>
