<svg width="32" height="32" xmlns="http://www.w3.org/2000/svg">
    <g fill="none" fill-rule="evenodd">
        <circle fill="#2D2D31" cx="16" cy="16" r="16"/>
        <path d="M15.462 27.733c-.288-.03-.576-.056-.864-.09a11.605 11.605 0 0 1-4.396-1.455c-.02-.01-.039-.027-.078-.054 2.353-1.76 4.695-3.509 7.05-5.269l.71.69c.394.386.791.768 1.178 1.16.096.096.166.095.278.037a7.626 7.626 0 0 0 2.91-2.55l.114-.168c.033.039.064.07.09.104.817 1.09 1.635 2.18 2.456 3.267.071.094.063.15-.013.234-1.902 2.162-4.266 3.493-7.115 3.948-.358.058-.722.08-1.083.119-.048.005-.096.018-.143.027h-1.094zm1.035-23.466l.597.06c1.681.16 3.254.658 4.718 1.493.022.013.04.027.075.053l-7.166 5.14c-.095-.09-.187-.175-.277-.263-.504-.49-1.01-.98-1.51-1.475-.08-.08-.14-.088-.24-.038a7.623 7.623 0 0 0-2.955 2.586l-.107.16-2.633-3.507c.266-.282.511-.562.777-.822 1.731-1.688 3.787-2.762 6.169-3.194.458-.083.926-.111 1.39-.166.053-.005.105-.018.156-.027H16.497zM5.822 10.17l5.328 6.984-1.075 1.103c-.268.274-.534.552-.807.821-.077.077-.08.136-.033.23a7.61 7.61 0 0 0 2.695 3.03c.006.003.01.014.028.05l-3.478 2.61c-2.08-1.792-3.43-3.999-3.971-6.675-.58-2.865-.11-5.572 1.314-8.153h-.001zm15.12 4.66l.98-1.016c.272-.283.54-.57.82-.847.088-.086.087-.151.036-.253a7.613 7.613 0 0 0-2.614-2.985c-.04-.027-.078-.055-.145-.103l3.498-2.624c1.98 1.696 3.296 3.786 3.9 6.309.754 3.149.082 6.263-1.224 8.456l-5.251-6.936z" fill="#FFF" fill-rule="nonzero"/>
    </g>
</svg>
