<svg width="40" height="40" viewBox="0 0 40 40" fill="none" xmlns="http://www.w3.org/2000/svg">
<path fill-rule="evenodd" clip-rule="evenodd" d="M20 40C31.0457 40 40 31.0457 40 20C40 8.9543 31.0457 0 20 0C8.9543 0 0 8.9543 0 20C0 31.0457 8.9543 40 20 40Z" fill="url(#paint0_linear)"/>
<path fill-rule="evenodd" clip-rule="evenodd" d="M20 38C29.9411 38 38 29.9411 38 20C38 10.0589 29.9411 2 20 2C10.0589 2 2 10.0589 2 20C2 29.9411 10.0589 38 20 38Z" fill="white"/>
<path fill-rule="evenodd" clip-rule="evenodd" d="M20 36C28.8366 36 36 28.8366 36 20C36 11.1634 28.8366 4 20 4C11.1634 4 4 11.1634 4 20C4 28.8366 11.1634 36 20 36Z" fill="url(#paint1_linear)"/>
<path d="M27.1311 25.7218L21.6288 12.424C21.3178 11.7368 20.8585 11.4 20.2499 11.4H19.7632C19.1548 11.4 18.6956 11.7368 18.3843 12.424L15.9908 18.2173H14.1798C13.919 18.2184 13.6691 18.3223 13.4844 18.5065C13.2997 18.6906 13.1949 18.9401 13.1929 19.2009V19.2143C13.1949 19.4751 13.2997 19.7246 13.4844 19.9087C13.6691 20.0929 13.919 20.1967 14.1798 20.1979H15.1532L12.8684 25.7218C12.8252 25.8429 12.8024 25.9704 12.8008 26.099C12.7901 26.3719 12.8872 26.638 13.0711 26.8399C13.1657 26.9363 13.2797 27.0114 13.4056 27.0602C13.5315 27.109 13.6663 27.1303 13.8011 27.1229C14.0054 27.1202 14.2038 27.0543 14.369 26.9342C14.542 26.8063 14.6775 26.6341 14.7611 26.4358L17.2756 20.1978H19.0196C19.2805 20.1968 19.5304 20.0929 19.7153 19.9088C19.9001 19.7247 20.0049 19.4752 20.007 19.2143V19.1874C20.005 18.9266 19.9002 18.6771 19.7155 18.493C19.5308 18.3089 19.2809 18.205 19.0201 18.2038H18.0872L20.007 13.4208L25.2389 26.4351C25.3225 26.6335 25.458 26.8056 25.631 26.9336C25.7963 27.0536 25.9946 27.1195 26.1989 27.1222C26.3337 27.1297 26.4685 27.1084 26.5944 27.0596C26.7203 27.0108 26.8343 26.9357 26.9289 26.8393C27.1128 26.6374 27.2099 26.3713 27.1992 26.0984C27.204 25.9694 27.1808 25.8409 27.1311 25.7218Z" fill="white"/>
<defs>
<linearGradient id="paint0_linear" x1="36.28" y1="9.08" x2="6.52" y2="34.12" gradientUnits="userSpaceOnUse">
<stop stop-color="#B6509E"/>
<stop offset="1" stop-color="#2EBAC6"/>
</linearGradient>
<linearGradient id="paint1_linear" x1="33.024" y1="11.264" x2="9.216" y2="31.296" gradientUnits="userSpaceOnUse">
<stop stop-color="#B6509E"/>
<stop offset="1" stop-color="#2EBAC6"/>
</linearGradient>
</defs>
</svg>
