<svg width="40" height="40" viewBox="0 0 40 40" fill="none" xmlns="http://www.w3.org/2000/svg">
<path fill-rule="evenodd" clip-rule="evenodd" d="M20 40C31.0457 40 40 31.0457 40 20C40 8.9543 31.0457 0 20 0C8.9543 0 0 8.9543 0 20C0 31.0457 8.9543 40 20 40Z" fill="url(#paint0_linear)"/>
<path d="M28.9139 27.1522L22.036 10.53C21.6473 9.671 21.0731 9.25 20.3123 9.25H19.704C18.9435 9.25 18.3696 9.671 17.9803 10.53L14.9886 17.7716H12.7247C12.3987 17.7731 12.0864 17.9029 11.8555 18.1331C11.6246 18.3632 11.4936 18.6751 11.4911 19.0011V19.0179C11.4936 19.3439 11.6246 19.6558 11.8555 19.8859C12.0864 20.1161 12.3987 20.2459 12.7247 20.2474H13.9415L11.0855 27.1522C11.0315 27.3037 11.003 27.463 11.001 27.6237C10.9876 27.9649 11.109 28.2976 11.3389 28.5499C11.4571 28.6704 11.5996 28.7643 11.757 28.8253C11.9144 28.8862 12.0829 28.9129 12.2514 28.9036C12.5067 28.9002 12.7547 28.8179 12.9613 28.6678C13.1775 28.5078 13.3468 28.2926 13.4514 28.0447L16.5945 20.2472H18.7745C19.1006 20.246 19.413 20.1162 19.6441 19.8861C19.8751 19.6559 20.0061 19.344 20.0087 19.0179V18.9842C20.0062 18.6582 19.8753 18.3464 19.6444 18.1162C19.4135 17.8861 19.1011 17.7562 18.7751 17.7548H17.6091L20.0087 11.776L26.5486 28.0439C26.6532 28.2918 26.8225 28.507 27.0387 28.667C27.2453 28.8171 27.4933 28.8994 27.7486 28.9028C27.9171 28.9121 28.0856 28.8854 28.243 28.8245C28.4004 28.7635 28.5429 28.6696 28.6611 28.5491C28.891 28.2968 29.0124 27.9641 28.999 27.6229C29.0051 27.4617 28.976 27.3011 28.9139 27.1522Z" fill="white"/>
<defs>
<linearGradient id="paint0_linear" x1="36.28" y1="9.08" x2="6.52" y2="34.12" gradientUnits="userSpaceOnUse">
<stop stop-color="#B6509E"/>
<stop offset="1" stop-color="#2EBAC6"/>
</linearGradient>
</defs>
</svg>
