<svg width="40" height="40" viewBox="0 0 40 40" fill="none" xmlns="http://www.w3.org/2000/svg">
<path fill-rule="evenodd" clip-rule="evenodd" d="M20 40C31.0457 40 40 31.0457 40 20C40 8.9543 31.0457 0 20 0C8.9543 0 0 8.9543 0 20C0 31.0457 8.9543 40 20 40Z" fill="url(#paint0_linear)"/>
<path fill-rule="evenodd" clip-rule="evenodd" d="M20 38C29.9411 38 38 29.9411 38 20C38 10.0589 29.9411 2 20 2C10.0589 2 2 10.0589 2 20C2 29.9411 10.0589 38 20 38Z" fill="white"/>
<path fill-rule="evenodd" clip-rule="evenodd" d="M20 36C28.8366 36 36 28.8366 36 20C36 11.1634 28.8366 4 20 4C11.1634 4 4 11.1634 4 20C4 28.8366 11.1634 36 20 36Z" fill="#FEBE44"/>
<path d="M29.9249 16.7481H27.9263C26.826 13.694 23.8674 11.6 19.9656 11.6H13.5488V16.7481H11.32V18.5951H13.5488V20.5319H11.32V22.3789H13.5488V27.4653H19.9656C23.8225 27.4653 26.7586 25.3881 27.887 22.3789H29.9249V20.5319H28.3361C28.3754 20.2063 28.3979 19.8695 28.3979 19.5326V19.4877C28.3979 19.1846 28.3811 18.887 28.353 18.5951H29.9305V16.7481H29.9249ZM15.3453 13.2449H19.9656C22.8288 13.2449 24.9565 14.654 25.939 16.7425H15.3453V13.2449ZM19.9656 25.8035H15.3453V22.3733H25.9277C24.9397 24.4281 22.8176 25.8035 19.9656 25.8035ZM26.5397 19.5719C26.5397 19.8975 26.5172 20.2175 26.4723 20.5263H15.3453V18.5895H26.4779C26.5172 18.8926 26.5397 19.207 26.5397 19.527V19.5719Z" fill="white"/>
<defs>
<linearGradient id="paint0_linear" x1="36.28" y1="9.08" x2="6.52" y2="34.12" gradientUnits="userSpaceOnUse">
<stop stop-color="#B6509E"/>
<stop offset="1" stop-color="#2EBAC6"/>
</linearGradient>
</defs>
</svg>
