<svg width="40" height="40" viewBox="0 0 40 40" fill="none" xmlns="http://www.w3.org/2000/svg">
<path fill-rule="evenodd" clip-rule="evenodd" d="M20 40C31.0457 40 40 31.0457 40 20C40 8.9543 31.0457 0 20 0C8.9543 0 0 8.9543 0 20C0 31.0457 8.9543 40 20 40Z" fill="url(#paint0_linear)"/>
<path fill-rule="evenodd" clip-rule="evenodd" d="M20 38C29.9411 38 38 29.9411 38 20C38 10.0589 29.9411 2 20 2C10.0589 2 2 10.0589 2 20C2 29.9411 10.0589 38 20 38Z" fill="white"/>
<path fill-rule="evenodd" clip-rule="evenodd" d="M20 36C28.8366 36 36 28.8366 36 20C36 11.1634 28.8366 4 20 4C11.1634 4 4 11.1634 4 20C4 28.8366 11.1634 36 20 36Z" fill="#7866D5"/>
<path d="M25.7725 13.12C26.2555 13.1757 26.7444 13.206 27.2215 13.2921C28.167 13.471 28.476 13.9208 28.3157 14.833C28.2511 15.2026 28.0126 15.4305 27.6332 15.4921C27.4071 15.5239 27.179 15.5402 26.9507 15.5409C23.8483 15.5478 20.739 15.5537 17.6365 15.5664C17.1672 15.5664 16.7028 15.6094 16.2461 15.6837C14.7071 15.9242 14.1283 16.5344 13.9992 18.0186C13.9406 18.7157 13.9406 18.7157 14.669 18.7157H27.4073C27.6078 18.7216 27.8004 18.7588 27.9676 18.8624C28.5347 19.2085 28.3929 19.7502 28.3606 20.2499C28.3352 20.6507 28.0839 20.8717 27.6527 20.9519C27.4716 20.9796 27.2884 20.992 27.1052 20.989H14.404C13.9347 20.989 13.9415 20.989 13.9797 21.433C14.0119 21.8397 14.0383 22.2406 14.141 22.6346C14.3336 23.3679 14.8039 23.8236 15.5637 24.027C16.4065 24.2548 17.2757 24.3046 18.145 24.3105C21.176 24.3291 24.2022 24.3232 27.2343 24.3232C27.6205 24.3232 27.9803 24.3721 28.2062 24.7114C28.6442 25.3645 28.303 26.2758 27.5364 26.5105C26.8803 26.7139 26.191 26.7627 25.5085 26.7696C22.6632 26.8185 19.8179 26.8253 16.9726 26.7696C16.0951 26.747 15.2212 26.6502 14.36 26.4802C12.3321 26.0793 11.3211 25.0937 10.9799 23.146C10.9027 22.6962 10.8577 22.2406 10.8 21.7898V18.2347C10.8391 17.8827 10.8704 17.5326 10.9163 17.1875C11.1862 14.9807 12.2168 13.8963 14.4822 13.4163C15.287 13.2432 16.1102 13.206 16.9218 13.1259C19.8639 13.12 22.8167 13.12 25.7725 13.12Z" fill="white"/>
<defs>
<linearGradient id="paint0_linear" x1="36.28" y1="9.08" x2="6.52" y2="34.12" gradientUnits="userSpaceOnUse">
<stop stop-color="#B6509E"/>
<stop offset="1" stop-color="#2EBAC6"/>
</linearGradient>
</defs>
</svg>
