<svg width="40" height="40" viewBox="0 0 40 40" fill="none" xmlns="http://www.w3.org/2000/svg">
<path fill-rule="evenodd" clip-rule="evenodd" d="M20 40C31.0457 40 40 31.0457 40 20C40 8.9543 31.0457 0 20 0C8.9543 0 0 8.9543 0 20C0 31.0457 8.9543 40 20 40Z" fill="url(#paint0_linear)"/>
<path fill-rule="evenodd" clip-rule="evenodd" d="M20 38C29.9411 38 38 29.9411 38 20C38 10.0589 29.9411 2 20 2C10.0589 2 2 10.0589 2 20C2 29.9411 10.0589 38 20 38Z" fill="white"/>
<path fill-rule="evenodd" clip-rule="evenodd" d="M20 36C28.8366 36 36 28.8366 36 20C36 11.1634 28.8366 4 20 4C11.1634 4 4 11.1634 4 20C4 28.8366 11.1634 36 20 36Z" fill="#31CB9E"/>
<path fill-rule="evenodd" clip-rule="evenodd" d="M19.2811 8.04668L12.4664 13.2542C12.1706 13.479 11.9979 13.8298 12 14.2013V25.2403C12 25.6086 12.1706 25.9637 12.4664 26.1873L19.2807 31.3884C19.7059 31.7107 20.2935 31.7107 20.7187 31.3884L27.5337 26.1809C27.8294 25.9562 28.0021 25.6055 28.0001 25.2341V14.1944C28.0007 13.8234 27.8282 13.4733 27.5337 13.2477L20.7194 8.04668C20.2965 7.71776 19.7043 7.71776 19.2814 8.04668H19.2811ZM18.0205 20.605L26.779 25.6352L20.1805 30.6718L18.0205 20.6054V20.605ZM26.779 13.7999L20.1873 8.76362L18.0205 18.83L26.779 13.7999ZM18.27 19.7175L27.1075 14.635V24.7933L18.27 19.7175ZM19.1694 9.25656L12.893 14.0498V25.3853L19.1694 30.1785L16.9243 19.7179L19.1694 9.25656Z" fill="white"/>
<defs>
<linearGradient id="paint0_linear" x1="36.28" y1="9.08" x2="6.52" y2="34.12" gradientUnits="userSpaceOnUse">
<stop stop-color="#B6509E"/>
<stop offset="1" stop-color="#2EBAC6"/>
</linearGradient>
</defs>
</svg>
