<svg width="40" height="40" viewBox="0 0 40 40" fill="none" xmlns="http://www.w3.org/2000/svg">
<path fill-rule="evenodd" clip-rule="evenodd" d="M20 40C31.0457 40 40 31.0457 40 20C40 8.9543 31.0457 0 20 0C8.9543 0 0 8.9543 0 20C0 31.0457 8.9543 40 20 40Z" fill="#D9327C"/>
<path fill-rule="evenodd" clip-rule="evenodd" d="M19.2239 10.5979C19.066 10.7163 18.8872 10.9359 18.7445 11.3638C18.6107 11.7654 17.9069 13.8107 17.0275 16.3611H22.9731C22.0936 13.8107 21.3899 11.7654 21.256 11.3638C21.1134 10.9359 20.9346 10.7163 20.7766 10.5979C20.6241 10.4835 20.3922 10.3889 20.0003 10.3889C19.6083 10.3889 19.3764 10.4835 19.2239 10.5979ZM10.4444 16.3611H14.5005C15.5021 13.4574 16.3348 11.0386 16.4782 10.6084C16.7338 9.84186 17.1522 9.16562 17.7905 8.68679C18.4343 8.20401 19.1977 8 20.0003 8C20.8028 8 21.5663 8.20401 22.21 8.68679C22.8484 9.16562 23.2668 9.84186 23.5223 10.6084C23.6657 11.0386 24.4984 13.4574 25.5 16.3611H29.5556C30.2152 16.3611 30.75 16.8959 30.75 17.5556C30.75 18.2152 30.2152 18.75 29.5556 18.75H10.4444C9.78476 18.75 9.25 18.2152 9.25 17.5556C9.25 16.8959 9.78476 16.3611 10.4444 16.3611ZM10.4444 21.1389C9.78476 21.1389 9.25 21.6736 9.25 22.3333C9.25 22.993 9.78476 23.5278 10.4444 23.5278H12.0264L10.5103 27.9151C10.2948 28.5386 10.6255 29.2191 11.2489 29.4344C11.8724 29.65 12.5526 29.3191 12.7681 28.6956L13.6453 26.1574C13.9099 25.3915 14.2198 24.4947 14.5537 23.5278H25.4468C25.7808 24.4947 26.0906 25.3915 26.3553 26.1574L27.2324 28.6956C27.448 29.3191 28.1281 29.65 28.7516 29.4344C29.375 29.2191 29.7059 28.5386 29.4903 27.9151L27.9742 23.5278H29.5556C30.2152 23.5278 30.75 22.993 30.75 22.3333C30.75 21.6736 30.2152 21.1389 29.5556 21.1389H10.4444Z" fill="white"/>
</svg>
