<svg width="40" height="40" viewBox="0 0 40 40" fill="none" xmlns="http://www.w3.org/2000/svg">
<path fill-rule="evenodd" clip-rule="evenodd" d="M20 40C31.0457 40 40 31.0457 40 20C40 8.9543 31.0457 0 20 0C8.9543 0 0 8.9543 0 20C0 31.0457 8.9543 40 20 40Z" fill="#25292E"/>
<path d="M10.0133 28.5978C9.99911 28.314 9.99438 28.0302 10.0086 27.7464C10.1032 27.718 10.1978 27.6991 10.2971 27.6849C10.5809 27.6376 10.8647 27.5667 11.139 27.4863C11.2147 27.4626 11.2903 27.4342 11.366 27.4059C11.7302 27.264 12.0518 27.0275 12.2978 26.7248C12.468 26.512 12.6147 26.2802 12.7424 26.039C12.9221 25.7079 13.0782 25.3626 13.2201 25.0126C13.5038 24.3032 13.7876 23.5984 14.0667 22.889C15.0316 20.4484 15.9964 18.0079 16.9613 15.5673C17.8741 13.245 18.7728 10.9227 19.6525 8.58623C19.6714 8.53893 19.6903 8.49164 19.7093 8.44434C20.0356 8.35447 20.3525 8.25988 20.6836 8.17001C20.7025 8.21731 20.7214 8.25988 20.7356 8.30245C21.1093 9.34299 21.4829 10.3835 21.8518 11.4288C23.1241 14.9808 24.3964 18.5281 25.7018 22.066C26.0613 23.0309 26.4208 24.0005 26.785 24.9653C26.9269 25.3579 27.0971 25.7457 27.291 26.1147C27.3762 26.2755 27.466 26.4268 27.5654 26.5782C27.8681 27.0511 28.3363 27.387 28.8802 27.5288C29.1735 27.6045 29.4667 27.666 29.7694 27.7038L29.9823 27.737C30.0106 27.8315 29.9965 27.9214 29.9965 28.0113C29.9965 28.1011 29.9965 28.2052 29.9965 28.2998C30.0012 28.3944 29.9965 28.4843 29.9917 28.5788C29.9633 28.5836 29.9397 28.5883 29.9113 28.593C29.8782 28.593 29.8451 28.593 29.812 28.593H22.4289C22.4194 28.5788 22.4147 28.5599 22.4099 28.541C22.4099 28.2856 22.4099 28.0302 22.4099 27.7748C22.4099 27.7653 22.4147 27.7511 22.4194 27.7417C22.4809 27.7228 22.5424 27.7133 22.6086 27.7038C22.916 27.6613 23.2187 27.6045 23.5214 27.5241C23.6397 27.491 23.7627 27.4484 23.8762 27.4011C23.9329 27.3775 23.9897 27.3491 24.0464 27.316C24.3444 27.1505 24.4627 26.8903 24.4343 26.5592C24.4201 26.4079 24.3964 26.2613 24.3539 26.1147C24.2924 25.8876 24.212 25.6653 24.1363 25.4478C22.5849 21.12 21.0525 16.7876 19.5343 12.4457C19.5201 12.3984 19.5106 12.3464 19.4633 12.3038C19.4491 12.3133 19.4255 12.3227 19.416 12.3322C19.4018 12.3558 19.3924 12.3795 19.3876 12.4031C18.6451 14.5362 17.8552 16.6552 17.0701 18.7694C16.4883 20.3349 15.9066 21.9052 15.3674 23.4849C15.1498 24.1187 14.9417 24.7572 14.7383 25.3957C14.6579 25.6417 14.6011 25.8924 14.5633 26.143C14.5349 26.3133 14.5302 26.4836 14.5491 26.6586C14.5728 26.8809 14.691 27.0842 14.8755 27.2167C14.9937 27.3018 15.1261 27.368 15.268 27.4153C15.4903 27.4957 15.7174 27.5525 15.9491 27.5903C16.2045 27.6376 16.4599 27.6755 16.7201 27.7133C16.739 27.718 16.7532 27.718 16.7768 27.7228C16.7816 27.7417 16.7863 27.7606 16.791 27.7795C16.791 28.0255 16.791 28.2761 16.791 28.5221C16.791 28.5363 16.7863 28.5505 16.7816 28.5647C16.7579 28.5694 16.7343 28.5741 16.7106 28.5741C16.6775 28.5741 16.6444 28.5741 16.6113 28.5741L10.0133 28.5978Z" fill="white"/>
</svg>
