<svg width="40" height="40" viewBox="0 0 40 40" fill="none" xmlns="http://www.w3.org/2000/svg">
<path fill-rule="evenodd" clip-rule="evenodd" d="M20 40C31.0457 40 40 31.0457 40 20C40 8.9543 31.0457 0 20 0C8.9543 0 0 8.9543 0 20C0 31.0457 8.9543 40 20 40Z" fill="#06BCE5"/>
<path d="M9.77364 21.9611C9.76536 21.8268 9.76112 21.6922 9.76091 21.5576C9.76091 17.0815 13.2507 13.4427 17.6162 13.2875C17.7205 13.2875 17.8325 13.2875 17.9369 13.2964L16.8958 12.2616C16.8958 12.2616 21.0869 11.5616 26.468 14.7969C26.468 14.7969 26.5469 14.9611 26.468 15.4435C26.468 15.4435 29.0033 16.5304 29.2196 18.6431C29.436 20.7558 28.092 21.9636 27.0064 22.1355C27.0064 22.1355 27.5702 21.2649 26.7035 20.7991C26.5144 20.6969 26.3007 20.6493 26.0862 20.6616C24.4291 20.6616 24.2382 22.5415 24.2382 22.5415C24.2204 22.6356 24.2204 22.7311 24.2204 22.8253C24.2204 22.8253 23.9785 25.2167 27.9393 25.498C28.8444 24.3305 29.6375 23.0803 30.3078 21.7638C31.3659 19.6884 32.1583 17.4879 32.6662 15.2144C30.3587 13.3231 27.6376 11.7016 24.7116 10.3436C23.6145 9.83456 22.5518 9.39292 21.5451 9.01365C21.0319 8.81902 20.5142 8.63655 19.9924 8.46638C19.5825 8.59874 19.0633 8.77947 18.4396 9.01365C17.4342 9.39165 16.3702 9.83456 15.2744 10.3436C12.3509 11.7004 9.62855 13.3218 7.32109 15.2156C7.44582 15.8164 7.63545 16.566 7.90782 17.4366C8.39354 18.9974 9.01797 20.5116 9.77364 21.9611ZM34 14.7116L33.9364 15.068C33.9033 15.3442 33.678 16.3344 33.4005 17.2826C32.8938 19.0171 32.2252 20.7003 31.4036 22.3098C30.2505 24.5575 28.8505 26.5175 27.2444 28.1313C25.2627 30.118 22.9693 31.5855 20.4136 32.4993L20.2711 32.5502L20 32.6546L19.7315 32.5604L19.5813 32.5082C17.0055 31.5832 14.6712 30.0898 12.7518 28.1389C11.138 26.5098 9.73927 24.5536 8.59255 22.3175C7.52365 20.2165 6.71583 17.9926 6.18709 15.6955C6.12345 15.4104 6.05345 15.054 6.06618 15.1049L6 14.7384L6.15273 14.6111L6.26473 14.5156C8.61164 12.5404 11.3875 10.8464 14.3847 9.42219C16.0717 8.61226 17.8092 7.91208 19.5864 7.32601L19.9911 7.20001L20.2673 7.28274L20.4047 7.32728C21.7793 7.76892 23.6056 8.47274 25.6025 9.42219C28.596 10.8438 31.368 12.5353 33.7124 14.5067L34 14.7104V14.7116ZM24.3247 15.6331C24.3947 15.5987 24.62 15.4867 24.8809 15.2195C25.4015 15.2882 25.9131 15.4524 25.9131 15.4524C24.9675 14.8835 23.6731 14.5462 22.2413 14.5551C22.2413 14.5551 22.7885 15.3315 24.3069 15.6496L24.3247 15.6331Z" fill="white"/>
</svg>
