<svg width="40" height="40" viewBox="0 0 40 40" fill="none" xmlns="http://www.w3.org/2000/svg">
<path fill-rule="evenodd" clip-rule="evenodd" d="M20 40C31.0457 40 40 31.0457 40 20C40 8.9543 31.0457 0 20 0C8.9543 0 0 8.9543 0 20C0 31.0457 8.9543 40 20 40Z" fill="url(#paint0_linear)"/>
<path fill-rule="evenodd" clip-rule="evenodd" d="M20 38C29.9411 38 38 29.9411 38 20C38 10.0589 29.9411 2 20 2C10.0589 2 2 10.0589 2 20C2 29.9411 10.0589 38 20 38Z" fill="white"/>
<path fill-rule="evenodd" clip-rule="evenodd" d="M20 36C28.8366 36 36 28.8366 36 20C36 11.1634 28.8366 4 20 4C11.1634 4 4 11.1634 4 20C4 28.8366 11.1634 36 20 36Z" fill="#00224D"/>
<path fill-rule="evenodd" clip-rule="evenodd" d="M13.282 13.516L13.054 13.142L10.256 14.752V14.508L19.999 8.88L20.209 9.01L20.651 9.254L21.089 9.514L15.119 12.962L14.892 12.588L13.282 13.516ZM13.282 17.061L13.054 16.687L10.256 18.297V18.036L23.072 10.653L23.286 10.783L23.724 11.026L24.163 11.286L18.176 14.736L17.966 14.361L13.282 17.061ZM13.054 18.445L13.282 18.833L19.495 15.241L19.705 15.614L25.692 12.167L25.254 11.921L24.812 11.66L24.602 11.53L10.256 19.811V20.069L13.054 18.445ZM13.282 20.591L13.054 20.217L10.256 21.827V21.584L26.131 12.425L26.341 12.54L26.781 12.799L27.221 13.044L21.285 16.477L21.072 16.101L13.282 20.591ZM13.054 21.99L13.282 22.363L22.601 16.981L22.814 17.372L28.751 13.939L28.309 13.679L27.889 13.433L27.66 13.306L10.256 23.356V23.6L13.054 21.99ZM29.415 14.313L29.741 14.508V15.143L22.814 19.127L22.601 18.753L13.282 24.136L13.054 23.762L10.256 25.372V25.129L29.19 14.183L29.415 14.313ZM11.249 26.317L11.459 26.447L13.021 25.552L13.25 25.926L22.553 20.543L22.779 20.932L29.741 16.898V15.647L11.249 26.317ZM22.553 22.316L14.809 26.788L14.583 26.415L12.989 27.342L12.779 27.212L29.741 17.419V18.673L22.779 22.707L22.553 22.316ZM14.305 28.09L14.518 28.22L16.128 27.293L16.338 27.683L22.553 24.088L22.779 24.462L29.741 20.445V19.177L14.305 28.09ZM16.062 29.097L15.834 28.985L29.741 20.949V22.218L22.779 26.234L22.553 25.861L17.868 28.561L17.657 28.187L16.062 29.097ZM29.741 22.722L17.364 29.862L17.592 29.992L19.187 29.065L19.397 29.456L22.553 27.633L22.779 28.01L29.741 23.99V22.722ZM19.121 30.87L18.908 30.757L29.741 24.494V25.763L22.779 29.782L22.553 29.391L20.941 30.333L20.716 29.96L19.121 30.87ZM16.649 13.842L22.634 10.392V10.391L22.195 10.148L21.756 9.886L21.528 9.756L10.256 16.28V16.525L13.054 14.915L13.282 15.288L16.436 13.468L16.649 13.842Z" fill="white"/>
<defs>
<linearGradient id="paint0_linear" x1="36.28" y1="9.08" x2="6.52" y2="34.12" gradientUnits="userSpaceOnUse">
<stop stop-color="#B6509E"/>
<stop offset="1" stop-color="#2EBAC6"/>
</linearGradient>
</defs>
</svg>
