<svg width="40" height="40" viewBox="0 0 40 40" fill="none" xmlns="http://www.w3.org/2000/svg">
<path fill-rule="evenodd" clip-rule="evenodd" d="M20 40C31.0457 40 40 31.0457 40 20C40 8.9543 31.0457 0 20 0C8.9543 0 0 8.9543 0 20C0 31.0457 8.9543 40 20 40Z" fill="url(#paint0_linear)"/>
<path fill-rule="evenodd" clip-rule="evenodd" d="M20 38C29.9411 38 38 29.9411 38 20C38 10.0589 29.9411 2 20 2C10.0589 2 2 10.0589 2 20C2 29.9411 10.0589 38 20 38Z" fill="white"/>
<path fill-rule="evenodd" clip-rule="evenodd" d="M20 36C28.8366 36 36 28.8366 36 20C36 11.1634 28.8366 4 20 4C11.1634 4 4 11.1634 4 20C4 28.8366 11.1634 36 20 36Z" fill="#211580"/>
<path d="M15.494 16.5577C15.3723 16.4197 15.2217 16.3506 15.0436 16.3506H11.3895C11.3573 16.3506 11.3307 16.3404 11.3106 16.3201C11.2904 16.3001 11.28 16.2775 11.28 16.2532V13.8174C11.28 13.7931 11.2904 13.7708 11.3106 13.7505C11.3307 13.7305 11.3573 13.72 11.3895 13.72H15.2507C16.2246 13.72 17.0648 14.114 17.7713 14.9014L18.709 16.0339L16.8828 18.2383L15.494 16.5577ZM22.2407 14.8893C22.9472 14.1098 23.7914 13.72 24.7742 13.72H28.6225C28.6555 13.72 28.6797 13.7282 28.6958 13.7443C28.7119 13.7606 28.72 13.7849 28.72 13.8174V16.2532C28.72 16.2775 28.7119 16.3001 28.6958 16.3201C28.6797 16.3404 28.6555 16.3506 28.6225 16.3506H24.9692C24.7904 16.3506 24.6405 16.4197 24.5189 16.5577L21.8266 19.7973L24.531 23.0612C24.6526 23.1914 24.7984 23.2563 24.9692 23.2563H28.6225C28.6555 23.2563 28.6797 23.2664 28.6958 23.2867C28.7119 23.307 28.72 23.3336 28.72 23.3658V25.8016C28.72 25.8258 28.7119 25.8485 28.6958 25.8685C28.6797 25.8888 28.6555 25.8989 28.6225 25.8989H24.7742C23.7922 25.8989 22.952 25.5052 22.2536 24.7175L20.0125 22.0139L17.7713 24.7175C17.0648 25.5052 16.2206 25.8989 15.2386 25.8989H11.3895C11.3573 25.8989 11.3323 25.8888 11.3162 25.8685C11.3001 25.8482 11.2921 25.8219 11.2921 25.7891V23.3533C11.2921 23.329 11.3001 23.3067 11.3162 23.2864C11.3323 23.2661 11.3573 23.2559 11.3895 23.2559H15.0436C15.2136 23.2559 15.3643 23.1871 15.494 23.0488L18.1371 19.858L22.2407 14.8893Z" fill="#00D1FF"/>
<defs>
<linearGradient id="paint0_linear" x1="36.28" y1="9.08" x2="6.52" y2="34.12" gradientUnits="userSpaceOnUse">
<stop stop-color="#B6509E"/>
<stop offset="1" stop-color="#2EBAC6"/>
</linearGradient>
</defs>
</svg>
