<svg width="40" height="40" viewBox="0 0 40 40" fill="none" xmlns="http://www.w3.org/2000/svg">
<path fill-rule="evenodd" clip-rule="evenodd" d="M20 40C31.0457 40 40 31.0457 40 20C40 8.9543 31.0457 0 20 0C8.9543 0 0 8.9543 0 20C0 31.0457 8.9543 40 20 40Z" fill="url(#paint0_linear)"/>
<path fill-rule="evenodd" clip-rule="evenodd" d="M20 38C29.9411 38 38 29.9411 38 20C38 10.0589 29.9411 2 20 2C10.0589 2 2 10.0589 2 20C2 29.9411 10.0589 38 20 38Z" fill="white"/>
<path fill-rule="evenodd" clip-rule="evenodd" d="M20 36C28.8366 36 36 28.8366 36 20C36 11.1634 28.8366 4 20 4C11.1634 4 4 11.1634 4 20C4 28.8366 11.1634 36 20 36Z" fill="#25292E"/>
<path d="M13.1029 26.1069L11.738 25.1408L20.3226 13.3069L21.6874 14.273L13.1029 26.1069Z" fill="white" fill-opacity="0.5"/>
<path d="M15.4216 20.55C13.311 20.55 11.6 18.8599 11.6 16.775C11.6 14.6901 13.311 13 15.4216 13H21.0418C21.5054 13 21.8813 13.3713 21.8813 13.8293C21.8813 14.2873 21.5054 14.6586 21.0418 14.6586H15.4216C14.2383 14.6586 13.2791 15.6062 13.2791 16.775C13.2791 17.9439 14.2383 18.8914 15.4216 18.8914H15.8804H18.0597C20.1703 18.8914 21.8813 20.5815 21.8813 22.6664C21.8813 24.7513 20.1703 26.4414 18.0597 26.4414H12.4395C11.9759 26.4414 11.6 26.0701 11.6 25.6121C11.6 25.1541 11.9759 24.7828 12.4395 24.7828H18.0597C19.243 24.7828 20.2022 23.8353 20.2022 22.6664C20.2022 21.4976 19.243 20.55 18.0597 20.55H15.8804L15.4216 20.55Z" fill="white"/>
<path fill-rule="evenodd" clip-rule="evenodd" d="M27.3654 20.0489C27.221 20.223 27.0296 20.3191 26.7912 20.3372L26.7774 21.3343C27.0846 21.3298 27.3619 21.2438 27.6095 21.0765C27.8571 20.9092 28.0508 20.6775 28.1906 20.3813C28.3305 20.0851 28.4004 19.7471 28.4004 19.3672C28.4004 19.0145 28.3339 18.6969 28.2009 18.4142C28.068 18.1316 27.8857 17.9112 27.6542 17.7529C27.4227 17.5946 27.1602 17.5155 26.8668 17.5155C26.5642 17.5155 26.3224 17.5822 26.1413 17.7156C25.9602 17.849 25.8249 18.0242 25.7355 18.2413C25.6461 18.4583 25.5716 18.7251 25.512 19.0417C25.4524 19.3537 25.4009 19.5843 25.3573 19.7335C25.3138 19.8827 25.2564 19.998 25.1854 20.0794C25.1143 20.1608 25.0146 20.2015 24.8862 20.2015C24.7074 20.2015 24.5699 20.1337 24.4736 19.998C24.3773 19.8624 24.3292 19.6815 24.3292 19.4554C24.3292 19.2112 24.3922 19.0145 24.5183 18.8653C24.6444 18.7161 24.8106 18.6302 25.0169 18.6076V17.6105C24.7281 17.615 24.469 17.6975 24.2398 17.858C24.0106 18.0186 23.8306 18.2379 23.7 18.516C23.5693 18.7941 23.504 19.1072 23.504 19.4554C23.504 19.7946 23.567 20.0987 23.6931 20.3677C23.8192 20.6368 23.9922 20.847 24.2123 20.9985C24.4324 21.15 24.6822 21.2257 24.9619 21.2257C25.2691 21.2257 25.5155 21.159 25.7012 21.0257C25.8868 20.8923 26.0267 20.7193 26.1207 20.5068C26.2146 20.2942 26.2914 20.032 26.351 19.7199C26.4152 19.4034 26.4691 19.1694 26.5126 19.0179C26.5562 18.8664 26.6158 18.7489 26.6914 18.6652C26.7671 18.5815 26.8691 18.5397 26.9975 18.5397C27.1809 18.5397 27.3241 18.6155 27.4273 18.7669C27.5304 18.9184 27.582 19.114 27.582 19.3537C27.582 19.6431 27.5098 19.8748 27.3654 20.0489ZM26.3373 24.8071H23.5452V25.8246H26.2823C26.97 25.8246 27.4949 25.6595 27.8571 25.3294C28.2193 24.9993 28.4004 24.5155 28.4004 23.8779C28.4004 23.2403 28.2193 22.7553 27.8571 22.4229C27.4949 22.0906 26.97 21.9244 26.2823 21.9244H23.5452V22.9418H26.3373C26.727 22.9418 27.0204 23.0176 27.2175 23.169C27.4147 23.3205 27.5132 23.5568 27.5132 23.8779C27.5132 24.1989 27.4147 24.4341 27.2175 24.5833C27.0204 24.7325 26.727 24.8071 26.3373 24.8071ZM23.5452 16.905V15.2568C23.5452 14.782 23.6472 14.3626 23.8513 13.9986C24.0553 13.6346 24.3395 13.3542 24.704 13.1575C25.0685 12.9608 25.4845 12.8624 25.9522 12.8624C26.4198 12.8624 26.8359 12.9608 27.2003 13.1575C27.5648 13.3542 27.8491 13.6346 28.0531 13.9986C28.2571 14.3626 28.3591 14.782 28.3591 15.2568V16.905H23.5452ZM27.0766 14.2563C27.3585 14.4937 27.4995 14.8272 27.4995 15.2568V15.8876H24.4049V15.2568C24.4049 14.8272 24.5458 14.4937 24.8278 14.2563C25.1097 14.0189 25.4845 13.9002 25.9522 13.9002C26.4198 13.9002 26.7946 14.0189 27.0766 14.2563Z" fill="white"/>
<defs>
<linearGradient id="paint0_linear" x1="36.28" y1="9.08" x2="6.52" y2="34.12" gradientUnits="userSpaceOnUse">
<stop stop-color="#B6509E"/>
<stop offset="1" stop-color="#2EBAC6"/>
</linearGradient>
</defs>
</svg>
