<svg width="40" height="40" viewBox="0 0 40 40" fill="none" xmlns="http://www.w3.org/2000/svg">
<path fill-rule="evenodd" clip-rule="evenodd" d="M20 40C31.0457 40 40 31.0457 40 20C40 8.9543 31.0457 0 20 0C8.9543 0 0 8.9543 0 20C0 31.0457 8.9543 40 20 40Z" fill="url(#paint0_linear)"/>
<path fill-rule="evenodd" clip-rule="evenodd" d="M20 38C29.9411 38 38 29.9411 38 20C38 10.0589 29.9411 2 20 2C10.0589 2 2 10.0589 2 20C2 29.9411 10.0589 38 20 38Z" fill="white"/>
<path fill-rule="evenodd" clip-rule="evenodd" d="M20 36C28.8366 36 36 28.8366 36 20C36 11.1634 28.8366 4 20 4C11.1634 4 4 11.1634 4 20C4 28.8366 11.1634 36 20 36Z" fill="#002868"/>
<path fill-rule="evenodd" clip-rule="evenodd" d="M20.9816 9.44H19.0184C16.4569 9.44 14.9963 9.8113 13.6926 10.5085C12.3889 11.2058 11.3657 12.2289 10.6685 13.5326C9.97128 14.8363 9.59998 16.2969 9.59998 18.8584V20.8216C9.59998 23.3831 9.97128 24.8437 10.6685 26.1474C11.3657 27.4511 12.3889 28.4742 13.6926 29.1715C14.9963 29.8687 16.4569 30.24 19.0184 30.24H20.9816C23.5431 30.24 25.0037 29.8687 26.3074 29.1715C27.6111 28.4742 28.6342 27.4511 29.3314 26.1474C30.0287 24.8437 30.4 23.3831 30.4 20.8216V18.8584C30.4 16.2969 30.0287 14.8363 29.3314 13.5326C28.6342 12.2289 27.6111 11.2058 26.3074 10.5085C25.0037 9.8113 23.5431 9.44 20.9816 9.44ZM14.2585 11.5667C15.4683 10.9197 16.7866 10.64 19.0184 10.64H20.9816C23.2134 10.64 24.5316 10.9197 25.7414 11.5667C26.836 12.1521 27.6879 13.004 28.2733 14.0985C28.9203 15.3084 29.2 16.6266 29.2 18.8584V20.8216C29.2 23.0534 28.9203 24.3716 28.2733 25.5815C27.6879 26.676 26.836 27.5279 25.7414 28.1133C24.5316 28.7603 23.2134 29.04 20.9816 29.04H19.0184C16.7866 29.04 15.4683 28.7603 14.2585 28.1133C13.1639 27.5279 12.3121 26.676 11.7267 25.5815C11.0797 24.3716 10.8 23.0534 10.8 20.8216V18.8584C10.8 16.6266 11.0797 15.3084 11.7267 14.0985C12.3121 13.004 13.1639 12.1521 14.2585 11.5667Z" fill="white"/>
<path d="M24.5678 15.348C24.6955 15.348 24.8 15.4525 24.8 15.5803V17.5932C24.8 17.7209 24.6955 17.8254 24.5678 17.8254H21.3727V24.0964C21.3727 24.2241 21.2681 24.3286 21.1404 24.3286H19.1275C18.9998 24.3286 18.8952 24.2241 18.8952 24.0964V17.8254H15.4323C15.3045 17.8254 15.2 17.7209 15.2 17.5932V15.5803C15.2 15.4525 15.3045 15.348 15.4323 15.348H24.5678Z" fill="white"/>
<defs>
<linearGradient id="paint0_linear" x1="36.28" y1="9.08" x2="6.52" y2="34.12" gradientUnits="userSpaceOnUse">
<stop stop-color="#B6509E"/>
<stop offset="1" stop-color="#2EBAC6"/>
</linearGradient>
</defs>
</svg>
