<svg width="40" height="40" viewBox="0 0 40 40" fill="none" xmlns="http://www.w3.org/2000/svg">
<path fill-rule="evenodd" clip-rule="evenodd" d="M20 40C31.0457 40 40 31.0457 40 20C40 8.9543 31.0457 0 20 0C8.9543 0 0 8.9543 0 20C0 31.0457 8.9543 40 20 40Z" fill="url(#paint0_linear)"/>
<path fill-rule="evenodd" clip-rule="evenodd" d="M20 38C29.9411 38 38 29.9411 38 20C38 10.0589 29.9411 2 20 2C10.0589 2 2 10.0589 2 20C2 29.9411 10.0589 38 20 38Z" fill="white"/>
<path fill-rule="evenodd" clip-rule="evenodd" d="M20 36C28.8366 36 36 28.8366 36 20C36 11.1634 28.8366 4 20 4C11.1634 4 4 11.1634 4 20C4 28.8366 11.1634 36 20 36Z" fill="#2775CA"/>
<path fill-rule="evenodd" clip-rule="evenodd" d="M16.5709 29.3948C12.7411 27.9929 10.0008 24.3103 10.0008 20.0005C10.0008 15.6906 12.7411 12.0106 16.5709 10.6062C16.8097 10.5199 17.0001 10.2303 17.0001 9.97636V9.0443C17.0001 8.66588 16.7055 8.45255 16.3449 8.56683C11.5043 10.116 7.99951 14.6494 7.99951 20.003C7.99951 25.3567 11.5043 29.89 16.3449 31.4367C16.7055 31.551 17.0001 31.3376 17.0001 30.9592V30.0272C17.0001 29.7706 16.8097 29.4837 16.5709 29.3948ZM24.3855 22.3802C24.3855 20.0437 22.9633 19.2564 20.2154 18.8805C18.1887 18.5859 17.7951 18.111 17.7951 17.1637C17.7951 16.2646 18.4808 15.6272 19.8065 15.6272C21.0052 15.6272 21.6935 16.0462 21.9779 17.0087C22.0414 17.2246 22.2344 17.377 22.4579 17.377H23.5093C23.8014 17.377 24.03 17.1078 23.969 16.8208C23.6363 15.297 22.6103 14.3827 21.0001 14.0957V12.5033C21.0001 12.2265 20.7766 12.003 20.4998 12.003H19.4992C19.2224 12.003 18.9989 12.2265 18.9989 12.5033V14.0525C17.0154 14.3345 15.7354 15.6525 15.7354 17.3465C15.7354 19.5383 17.0586 20.3865 19.8547 20.7624C21.7519 21.0722 22.2903 21.4811 22.2903 22.5605C22.2903 23.6399 21.3735 24.3586 20.0833 24.3586C18.3386 24.3586 17.762 23.5941 17.5513 22.6062C17.5005 22.3725 17.2998 22.1999 17.0611 22.1999H15.9208C15.6338 22.1999 15.4078 22.4589 15.4586 22.7408C15.7481 24.4043 16.8173 25.6259 18.9989 25.923V27.5027C18.9989 27.7795 19.2224 28.003 19.4992 28.003H20.4998C20.7766 28.003 21.0001 27.7795 21.0001 27.5027V25.923C23.0649 25.5954 24.3855 24.1579 24.3855 22.3802ZM23.0014 9.04684C23.0014 8.66842 23.296 8.45509 23.6567 8.56938C28.4947 10.116 32.0021 14.6494 32.0021 20.003C32.0021 25.3567 28.4973 29.89 23.6567 31.4367C23.296 31.551 23.0014 31.3376 23.0014 30.9592V30.0271C23.0014 29.7503 23.169 29.4938 23.4306 29.3973C27.2605 27.9929 30.0008 24.3129 30.0008 20.003C30.0008 15.6932 27.2605 12.0106 23.4306 10.6087C23.1919 10.5224 23.0014 10.2329 23.0014 9.9789V9.04684Z" fill="white"/>
<defs>
<linearGradient id="paint0_linear" x1="36.28" y1="9.08" x2="6.52" y2="34.12" gradientUnits="userSpaceOnUse">
<stop stop-color="#B6509E"/>
<stop offset="1" stop-color="#2EBAC6"/>
</linearGradient>
</defs>
</svg>
