<svg width="40" height="40" viewBox="0 0 40 40" fill="none" xmlns="http://www.w3.org/2000/svg">
<path fill-rule="evenodd" clip-rule="evenodd" d="M20 40C31.0457 40 40 31.0457 40 20C40 8.9543 31.0457 0 20 0C8.9543 0 0 8.9543 0 20C0 31.0457 8.9543 40 20 40Z" fill="url(#paint0_linear)"/>
<path fill-rule="evenodd" clip-rule="evenodd" d="M20 38C29.9411 38 38 29.9411 38 20C38 10.0589 29.9411 2 20 2C10.0589 2 2 10.0589 2 20C2 29.9411 10.0589 38 20 38Z" fill="white"/>
<path fill-rule="evenodd" clip-rule="evenodd" d="M20 36C28.8366 36 36 28.8366 36 20C36 11.1634 28.8366 4 20 4C11.1634 4 4 11.1634 4 20C4 28.8366 11.1634 36 20 36Z" fill="#22A079"/>
<path fill-rule="evenodd" clip-rule="evenodd" d="M21.9747 15.488V17.8682L21.976 17.8688C26.392 18.0727 29.7117 18.9482 29.7117 19.9968C29.7117 21.0455 26.392 21.921 21.976 22.1248V29.7495H18.04V22.1255C13.6176 21.921 10.2896 21.0448 10.2896 19.9952C10.2896 18.9456 13.616 18.0695 18.04 17.8663V15.488H12.5965V11.8615H27.4176V15.488H21.9747ZM21.976 21.4771V21.4791L21.9767 21.4775C25.8762 21.3037 28.7882 20.6221 28.7882 19.8106C28.7882 18.9991 25.8775 18.3178 21.9767 18.144V20.8016C21.8647 20.8119 21.2544 20.8624 20.0407 20.8624C19.0301 20.8624 18.2979 20.8192 18.0419 20.8016V18.144C14.1338 18.3175 11.216 18.9971 11.216 19.8115C11.216 20.6259 14.1335 21.3066 18.0419 21.4797V21.4765C18.2938 21.4896 19.0083 21.5184 20.024 21.5184C21.2944 21.5184 21.865 21.4842 21.976 21.4771Z" fill="white"/>
<defs>
<linearGradient id="paint0_linear" x1="36.28" y1="9.08" x2="6.52" y2="34.12" gradientUnits="userSpaceOnUse">
<stop stop-color="#B6509E"/>
<stop offset="1" stop-color="#2EBAC6"/>
</linearGradient>
</defs>
</svg>
