<svg width="40" height="40" viewBox="0 0 40 40" fill="none" xmlns="http://www.w3.org/2000/svg">
<path fill-rule="evenodd" clip-rule="evenodd" d="M20 40C31.0457 40 40 31.0457 40 20C40 8.9543 31.0457 0 20 0C8.9543 0 0 8.9543 0 20C0 31.0457 8.9543 40 20 40Z" fill="url(#paint0_linear)"/>
<path fill-rule="evenodd" clip-rule="evenodd" d="M20 38C29.9411 38 38 29.9411 38 20C38 10.0589 29.9411 2 20 2C10.0589 2 2 10.0589 2 20C2 29.9411 10.0589 38 20 38Z" fill="white"/>
<path fill-rule="evenodd" clip-rule="evenodd" d="M20 36C28.8366 36 36 28.8366 36 20C36 11.1634 28.8366 4 20 4C11.1634 4 4 11.1634 4 20C4 28.8366 11.1634 36 20 36Z" fill="#FF9900"/>
<path fill-rule="evenodd" clip-rule="evenodd" d="M27.0533 17.7205C27.3718 15.5915 25.7508 14.447 23.5343 13.6835L24.2533 10.7995L22.4978 10.362L21.7978 13.17C21.3363 13.055 20.8623 12.9465 20.3913 12.839L21.0963 10.0125L19.3418 9.57498L18.6223 12.458L17.5033 12.1855L15.0823 11.581L14.6153 13.456C14.6153 13.456 15.9178 13.7545 15.8903 13.773C16.6013 13.9505 16.7298 14.421 16.7083 14.794L15.8893 18.0795L15.8863 18.092L14.7383 22.6945C14.6513 22.9105 14.4308 23.2345 13.9338 23.1115C13.9513 23.137 12.6578 22.793 12.6578 22.793L11.7863 24.8025L14.0708 25.372C14.4958 25.4785 14.9123 25.59 15.3223 25.695L14.5958 28.612L16.3493 29.0495L17.0688 26.1635C17.5478 26.2935 18.0128 26.4135 18.4678 26.5265L17.7508 29.399L19.5063 29.8365L20.2328 26.925C23.2263 27.4915 25.4773 27.263 26.4248 24.5555C27.1883 22.3755 26.3868 21.118 24.8118 20.298C25.9588 20.0335 26.8228 19.279 27.0533 17.7205ZM18.6033 20.1865L17.6393 24.051C17.7375 24.0754 17.8527 24.1058 17.9816 24.1398C19.414 24.5182 22.5446 25.345 23.0423 23.345C23.5523 21.3 20.5161 20.6187 19.0346 20.2863C18.8691 20.2491 18.7229 20.2163 18.6033 20.1865ZM19.0443 18.4175C20.0353 18.6645 23.0903 19.672 23.5853 17.689C24.1008 15.6205 20.9093 15.1595 19.9183 14.9125L19.0443 18.4175Z" fill="white"/>
<defs>
<linearGradient id="paint0_linear" x1="36.28" y1="9.08" x2="6.52" y2="34.12" gradientUnits="userSpaceOnUse">
<stop stop-color="#B6509E"/>
<stop offset="1" stop-color="#2EBAC6"/>
</linearGradient>
</defs>
</svg>
