<svg width="40" height="40" viewBox="0 0 40 40" fill="none" xmlns="http://www.w3.org/2000/svg">
<path fill-rule="evenodd" clip-rule="evenodd" d="M20 40C31.0457 40 40 31.0457 40 20C40 8.9543 31.0457 0 20 0C8.9543 0 0 8.9543 0 20C0 31.0457 8.9543 40 20 40Z" fill="url(#paint0_linear)"/>
<path fill-rule="evenodd" clip-rule="evenodd" d="M20 38C29.9411 38 38 29.9411 38 20C38 10.0589 29.9411 2 20 2C10.0589 2 2 10.0589 2 20C2 29.9411 10.0589 38 20 38Z" fill="white"/>
<path fill-rule="evenodd" clip-rule="evenodd" d="M20 36C28.8366 36 36 28.8366 36 20C36 11.1634 28.8366 4 20 4C11.1634 4 4 11.1634 4 20C4 28.8366 11.1634 36 20 36Z" fill="#25292E"/>
<path fill-rule="evenodd" clip-rule="evenodd" d="M28.7132 9.55732C26.3534 7.58619 23.3152 6.39999 20 6.39999C16.6848 6.39999 13.6467 7.58619 11.2868 9.55732C11.1102 9.70483 11.1028 9.97139 11.2655 10.1341L11.5505 10.4191C11.6997 10.5683 11.9386 10.5754 12.1011 10.4409C14.2462 8.66637 16.9986 7.59999 20 7.59999C23.0015 7.59999 25.7538 8.66637 27.8989 10.4409C28.0615 10.5754 28.3004 10.5683 28.4495 10.4191L28.7346 10.1341C28.8972 9.97139 28.8898 9.70483 28.7132 9.55732ZM10.4191 11.5505C10.5683 11.6996 10.5754 11.9386 10.441 12.1011C8.6664 14.2462 7.60002 16.9986 7.60002 20C7.60002 23.0014 8.6664 25.7538 10.441 27.8989C10.5754 28.0614 10.5683 28.3004 10.4191 28.4495L10.1341 28.7346C9.97142 28.8972 9.70486 28.8898 9.55735 28.7132C7.58622 26.3534 6.40002 23.3152 6.40002 20C6.40002 16.6848 7.58622 13.6466 9.55735 11.2868C9.70486 11.1102 9.97142 11.1028 10.1341 11.2655L10.4191 11.5505ZM29.5591 27.8989C29.4247 28.0614 29.4318 28.3004 29.5809 28.4495L29.8659 28.7346C30.0287 28.8972 30.2951 28.8898 30.4427 28.7132C32.4138 26.3534 33.6 23.3152 33.6 20C33.6 16.6848 32.4138 13.6466 30.4427 11.2868C30.2951 11.1102 30.0287 11.1028 29.8659 11.2655L29.5809 11.5505C29.4318 11.6996 29.4247 11.9386 29.5591 12.1011C31.3336 14.2462 32.4 16.9986 32.4 20C32.4 23.0014 31.3336 25.7538 29.5591 27.8989ZM11.2868 30.4426C13.6467 32.4138 16.6848 33.6 20 33.6C23.3152 33.6 26.3534 32.4138 28.7132 30.4426C28.8898 30.2951 28.8972 30.0286 28.7346 29.8659L28.4495 29.5809C28.3004 29.4318 28.0615 29.4246 27.8989 29.559C25.7538 31.3336 23.0015 32.4 20 32.4C16.9986 32.4 14.2462 31.3336 12.1011 29.559C11.9386 29.4246 11.6997 29.4318 11.5505 29.5809L11.2655 29.8659C11.1028 30.0286 11.1102 30.2951 11.2868 30.4426Z" fill="white"/>
<path d="M14.6 20.7347L20 23.9295L25.3989 20.7347L20 28.3453L14.6 20.7347Z" fill="url(#paint1_linear)"/>
<path d="M20 22.7395L14.6 19.5447L20 11.04L25.4 19.5447L20 22.7395Z" fill="white"/>
<defs>
<linearGradient id="paint0_linear" x1="36.28" y1="9.08" x2="6.52" y2="34.12" gradientUnits="userSpaceOnUse">
<stop stop-color="#B6509E"/>
<stop offset="1" stop-color="#2EBAC6"/>
</linearGradient>
<linearGradient id="paint1_linear" x1="19.9995" y1="20.7347" x2="19.9995" y2="28.3453" gradientUnits="userSpaceOnUse">
<stop stop-color="white"/>
<stop offset="1" stop-color="white" stop-opacity="0.9"/>
</linearGradient>
</defs>
</svg>
