<svg width="40" height="40" viewBox="0 0 40 40" fill="none" xmlns="http://www.w3.org/2000/svg">
<path fill-rule="evenodd" clip-rule="evenodd" d="M20 40C31.0457 40 40 31.0457 40 20C40 8.9543 31.0457 0 20 0C8.9543 0 0 8.9543 0 20C0 31.0457 8.9543 40 20 40Z" fill="url(#paint0_linear)"/>
<path fill-rule="evenodd" clip-rule="evenodd" d="M20 38C29.9411 38 38 29.9411 38 20C38 10.0589 29.9411 2 20 2C10.0589 2 2 10.0589 2 20C2 29.9411 10.0589 38 20 38Z" fill="white"/>
<path fill-rule="evenodd" clip-rule="evenodd" d="M20 36C28.8366 36 36 28.8366 36 20C36 11.1634 28.8366 4 20 4C11.1634 4 4 11.1634 4 20C4 28.8366 11.1634 36 20 36Z" fill="url(#paint1_linear)"/>
<path fill-rule="evenodd" clip-rule="evenodd" d="M19.2458 13.5387C19.2458 13.4007 19.3578 13.2887 19.4958 13.2887H20.5042C20.6422 13.2887 20.7542 13.4007 20.7542 13.5387V26.2162C20.7542 26.3543 20.6422 26.4662 20.5042 26.4662H19.4958C19.3578 26.4662 19.2458 26.3543 19.2458 26.2162V13.5387Z" fill="white"/>
<path fill-rule="evenodd" clip-rule="evenodd" d="M18.39 19.4875V17.9127C17.1801 17.3176 16.347 16.0727 16.347 14.6332C16.347 12.6165 17.9828 10.981 20 10.981C22.265 10.981 23.9006 12.6165 23.9006 14.6332C23.9006 15.1415 23.7962 15.6258 23.5453 16.201L22.9751 14.3471C22.9344 14.2147 22.7938 14.1407 22.6616 14.182L21.8381 14.4394C21.7106 14.4793 21.6369 14.6123 21.6709 14.7415L22.6851 18.6024C22.7226 18.745 22.8748 18.8244 23.0132 18.7735L26.9537 17.3239C27.0878 17.2746 27.1533 17.1232 27.0976 16.9917L26.7506 16.1732C26.6995 16.0524 26.5636 15.9918 26.4395 16.0342L25.002 16.5261C25.302 15.8756 25.361 15.3974 25.361 14.6332C25.361 11.8094 23.0718 9.51999 20 9.51999C17.1762 9.51999 14.8868 11.8094 14.8868 14.6332C14.8868 16.8945 16.3552 18.8128 18.39 19.4875ZM21.61 20.2674V21.8422C22.8199 22.4375 23.653 23.6823 23.653 25.1218C23.653 27.1385 22.0172 28.774 20 28.774C17.7348 28.774 16.0995 27.1385 16.0995 25.1218C16.0995 24.6133 16.2038 24.1291 16.4545 23.5539L17.0249 25.4079C17.0656 25.5403 17.2062 25.6143 17.3384 25.573L18.1619 25.3156C18.2894 25.2757 18.3631 25.1426 18.3291 25.0134L17.3149 21.1526C17.2774 21.0099 17.1252 20.9306 16.9868 20.9815L13.0463 22.4314C12.9122 22.4807 12.8467 22.6321 12.9024 22.7636L13.2493 23.5818C13.3005 23.7025 13.4364 23.7632 13.5605 23.7207L14.998 23.2288C14.698 23.8794 14.639 24.3576 14.639 25.1218C14.639 27.9456 16.9282 30.235 20 30.235C22.8238 30.235 25.1132 27.9456 25.1132 25.1218C25.1132 22.8604 23.6447 20.9422 21.61 20.2674Z" fill="white"/>
<defs>
<linearGradient id="paint0_linear" x1="36.28" y1="9.08" x2="6.52" y2="34.12" gradientUnits="userSpaceOnUse">
<stop stop-color="#B6509E"/>
<stop offset="1" stop-color="#2EBAC6"/>
</linearGradient>
<linearGradient id="paint1_linear" x1="-12" y1="20" x2="20" y2="52" gradientUnits="userSpaceOnUse">
<stop stop-color="#0077FC"/>
<stop offset="1" stop-color="#095EB5"/>
</linearGradient>
</defs>
</svg>
