<svg width="40" height="40" viewBox="0 0 40 40" fill="none" xmlns="http://www.w3.org/2000/svg">
<path fill-rule="evenodd" clip-rule="evenodd" d="M20 40C31.0457 40 40 31.0457 40 20C40 8.9543 31.0457 0 20 0C8.9543 0 0 8.9543 0 20C0 31.0457 8.9543 40 20 40Z" fill="url(#paint0_linear)"/>
<path fill-rule="evenodd" clip-rule="evenodd" d="M20 38C29.9411 38 38 29.9411 38 20C38 10.0589 29.9411 2 20 2C10.0589 2 2 10.0589 2 20C2 29.9411 10.0589 38 20 38Z" fill="white"/>
<path fill-rule="evenodd" clip-rule="evenodd" d="M20 36C28.8366 36 36 28.8366 36 20C36 11.1634 28.8366 4 20 4C11.1634 4 4 11.1634 4 20C4 28.8366 11.1634 36 20 36Z" fill="#25292E"/>
<path fill-rule="evenodd" clip-rule="evenodd" d="M20.6494 8.01443L20.5091 8H20.508H19.4804C19.4654 8.0028 19.4504 8.00587 19.4353 8.00895C19.3975 8.01667 19.3593 8.02447 19.3211 8.02836C19.1671 8.04641 19.0127 8.06159 18.8584 8.07677C18.5368 8.10838 18.2154 8.13997 17.8985 8.19746C15.4624 8.6393 13.3601 9.73788 11.5895 11.4649C11.4064 11.6436 11.2327 11.8323 11.0556 12.0245L11.0556 12.0245C10.9701 12.1174 10.8838 12.2111 10.7953 12.3049L13.4878 15.8919L13.5969 15.7283C14.356 14.5981 15.3979 13.6863 16.6188 13.0838C16.7214 13.0325 16.7835 13.0413 16.8654 13.122C17.2593 13.5117 17.6564 13.8982 18.0533 14.2845L18.0535 14.2846L18.4091 14.6308C18.4805 14.7005 18.5525 14.7683 18.6262 14.8376L18.6927 14.9003L26.0217 9.64297C26.0104 9.63478 26.0009 9.62765 25.9924 9.62133L25.9924 9.62132L25.9923 9.62127C25.9737 9.60742 25.9603 9.5974 25.9453 9.58842C24.4475 8.73421 22.8394 8.22474 21.1201 8.06109C20.963 8.04682 20.806 8.0306 20.6494 8.01443ZM19.1859 31.974C19.2742 31.9829 19.3626 31.9917 19.4509 32.0009H20.5691L20.5813 31.9983L20.6103 31.992L20.6103 31.992C20.645 31.9842 20.6802 31.9764 20.7153 31.9725C20.8384 31.9591 20.9617 31.9477 21.0849 31.9363H21.085C21.3321 31.9135 21.5791 31.8907 21.8237 31.8514C24.7377 31.3856 27.1552 30.0241 29.1004 27.8138C29.1778 27.7265 29.1865 27.6698 29.1134 27.5738C28.3893 26.6154 27.6683 25.6546 26.9471 24.6935L26.601 24.2322C26.5842 24.2099 26.5653 24.1889 26.5449 24.1664L26.5448 24.1663C26.5334 24.1537 26.5215 24.1405 26.5094 24.1264L26.3926 24.2988C25.6412 25.4093 24.6162 26.3073 23.4165 26.9061C23.302 26.9651 23.2311 26.9662 23.1329 26.868C22.8362 26.568 22.534 26.2736 22.2313 25.9787C22.13 25.8799 22.0286 25.7812 21.9274 25.6821L21.2019 24.9763L19.1079 26.5409C17.4019 27.8155 15.6991 29.0878 13.9907 30.3655C14.0072 30.3767 14.0201 30.3861 14.031 30.3939L14.0312 30.3941L14.0312 30.3941L14.0312 30.3941C14.0467 30.4054 14.0582 30.4137 14.0704 30.4201C15.4541 31.2132 16.9835 31.7193 18.5672 31.9081C18.7735 31.9326 18.9797 31.9533 19.1859 31.974ZM9.59092 14.0373L9.59155 14.0381C8.13549 16.678 7.65454 19.4465 8.24796 22.3765C8.80216 25.1137 10.1822 27.3709 12.3096 29.2026L15.8671 26.5341C15.8606 26.5218 15.8559 26.5123 15.8522 26.505C15.845 26.4905 15.8421 26.4847 15.8377 26.4818C15.8017 26.4545 15.7635 26.4294 15.7253 26.4054C14.5951 25.6466 13.6836 24.6046 13.082 23.3835C13.034 23.2875 13.0372 23.2275 13.1158 23.1489C13.3217 22.9454 13.5235 22.7377 13.725 22.5303L13.7251 22.5302C13.7969 22.4564 13.8686 22.3825 13.9405 22.3089L15.0402 21.1808L9.59155 14.0381L9.59201 14.0373H9.59092ZM26.0566 17.7651L25.0551 18.8048L30.4259 25.8992C31.7612 23.6562 32.4485 20.4706 31.6772 17.2502C31.0597 14.6701 29.7146 12.5318 27.6887 10.7972L24.1114 13.4809C24.1361 13.4985 24.1569 13.5136 24.1753 13.5269C24.2084 13.5508 24.2339 13.5692 24.2598 13.5868C25.4049 14.3502 26.3271 15.4034 26.9326 16.6392C26.985 16.744 26.9861 16.8105 26.8966 16.8989C26.6851 17.108 26.4795 17.3231 26.2737 17.5384C26.2015 17.614 26.1292 17.6897 26.0566 17.7651Z" fill="white"/>
<defs>
<linearGradient id="paint0_linear" x1="36.28" y1="9.08" x2="6.52" y2="34.12" gradientUnits="userSpaceOnUse">
<stop stop-color="#B6509E"/>
<stop offset="1" stop-color="#2EBAC6"/>
</linearGradient>
</defs>
</svg>
