<svg width="40" height="40" viewBox="0 0 40 40" fill="none" xmlns="http://www.w3.org/2000/svg">
<path fill-rule="evenodd" clip-rule="evenodd" d="M20 40C31.0457 40 40 31.0457 40 20C40 8.9543 31.0457 0 20 0C8.9543 0 0 8.9543 0 20C0 31.0457 8.9543 40 20 40Z" fill="#6067F1"/>
<path fill-rule="evenodd" clip-rule="evenodd" d="M20.0012 22.6896C22.3368 22.6896 24.2309 24.5774 24.2377 26.9087C24.2378 26.9087 24.3479 27.9569 23.6271 29.4503C22.2531 32.2969 19.9461 33.7456 19.9461 33.7456C19.9461 33.7456 17.8182 32.4484 16.4262 29.4503C15.612 27.6966 15.7647 26.9087 15.7647 26.9087C15.7716 24.5774 17.6657 22.6896 20.0012 22.6896ZM29.7047 16.1195C32.5513 17.4935 34 19.8005 34 19.8005C34 19.8005 32.7027 21.9283 29.7047 23.3203C27.951 24.1345 27.1631 23.9819 27.1631 23.9819C24.8318 23.975 22.944 22.0809 22.944 19.7453C22.944 17.4332 24.7942 15.5536 27.0933 15.5096L27.1631 15.5088V15.5088C27.1631 15.5088 28.2113 15.3986 29.7047 16.1195ZM12.8369 15.5088C15.1682 15.5157 17.056 17.4098 17.056 19.7453C17.056 22.0809 15.1682 23.975 12.8369 23.9819C12.8369 23.9819 12.049 24.1345 10.2953 23.3203C7.29726 21.9283 6 19.8005 6 19.8005C6 19.8005 7.44872 17.4935 10.2953 16.1195C11.7887 15.3986 12.8369 15.5088 12.8369 15.5088ZM19.9461 5.75C19.9461 5.75 22.2531 7.19872 23.6271 10.0453C24.3479 11.5387 24.2378 12.5869 24.2378 12.5869C24.2309 14.9182 22.3368 16.806 20.0012 16.806C17.6657 16.806 15.7716 14.9182 15.7647 12.5869C15.7647 12.5869 15.612 11.799 16.4262 10.0453C17.8182 7.04726 19.9461 5.75 19.9461 5.75Z" fill="white"/>
</svg>
