<svg width="40" height="40" viewBox="0 0 40 40" fill="none" xmlns="http://www.w3.org/2000/svg">
<path fill-rule="evenodd" clip-rule="evenodd" d="M20 40C31.0457 40 40 31.0457 40 20C40 8.9543 31.0457 0 20 0C8.9543 0 0 8.9543 0 20C0 31.0457 8.9543 40 20 40Z" fill="#00224D"/>
<path fill-rule="evenodd" clip-rule="evenodd" d="M20.0116 6.75L26.1412 10.238L20.0116 13.726L13.9956 10.238L20.0116 6.75ZM27.4468 19.4092L21.3172 22.8972V15.9212L27.4468 12.4332V19.4092ZM21.3172 25.374L29.49 20.7596V27.7356L21.3172 32.35V25.374ZM12.69 12.4332L18.8196 15.9212V22.8972L12.69 19.41V12.4332ZM12.69 28.862V21.8852L18.8196 25.3732V32.35L12.69 28.862Z" fill="white"/>
</svg>
