<svg width="40" height="40" viewBox="0 0 40 40" fill="none" xmlns="http://www.w3.org/2000/svg">
<path d="M20 40C31.0457 40 40 31.0457 40 20C40 8.95431 31.0457 0 20 0C8.95431 0 0 8.95431 0 20C0 31.0457 8.95431 40 20 40Z" fill="#E74B58"/>
<path fill-rule="evenodd" clip-rule="evenodd" d="M30.1218 11.25V12.4013H29.8339V22.7629H28.6827V23.9142H27.5314V25.0655H26.3801V26.2168H33V27.3681H30.6974V28.5194H10.262V27.3681H7.95941V26.2168H14.8672V25.0655H12.5646V23.9142H11.4133V22.2832H7.57565V21.6116H7V14.7039H8.05535V14.0323H11.4133V12.4013H11.2214V11.25H30.1218ZM11.4133 15.2795H8.05535V21.036H11.4133V15.2795Z" fill="#A52639"/>
<path fill-rule="evenodd" clip-rule="evenodd" d="M33.0001 26.2168V27.3681H17.1698V26.2168H33.0001ZM29.834 12.4013V22.7629H28.6827V23.9142H27.5314V25.0655H19.4724V23.9142H18.3211V22.7629H17.1698V12.4013H29.834Z" fill="#DD3745"/>
<path fill-rule="evenodd" clip-rule="evenodd" d="M29.9299 26.2168V27.3681H28.7786V26.2168H29.9299ZM28.4908 14.9917V19.6928H27.3395V14.9917H28.4908Z" fill="#FFE091"/>
<path d="M30.1217 11.25H11.2214V12.4013H30.1217V11.25Z" fill="#CCE2E1"/>
<path fill-rule="evenodd" clip-rule="evenodd" d="M23.8856 11.25H25.0369V19.309L24.4613 19.5969L23.8856 19.309V11.25Z" fill="#FFAA6E"/>
<path fill-rule="evenodd" clip-rule="evenodd" d="M22.7343 23.9142V20.4603H23.8856V19.3091H25.0369V20.4603H26.1882V23.9142H22.7343Z" fill="#431E66"/>
</svg>
