<svg width="40" height="40" viewBox="0 0 40 40" fill="none" xmlns="http://www.w3.org/2000/svg">
<path d="M20 40C31.0457 40 40 31.0457 40 20C40 8.95431 31.0457 0 20 0C8.95431 0 0 8.95431 0 20C0 31.0457 8.95431 40 20 40Z" fill="#FF607C"/>
<path fill-rule="evenodd" clip-rule="evenodd" d="M29.7325 11.5V12.607H29.4557V22.5701H28.3487V23.6771H27.2417V24.7841H26.1347V25.8911H32.5V26.9982H30.286V28.1052H10.6365V26.9982H8.42251V25.8911H15.0646V24.7841H12.8506V23.6771H11.7435V22.1089H8.05351V21.4631H7.5V14.821H8.51476V14.1753H11.7435V12.607H11.559V11.5H29.7325ZM11.7435 15.3745H8.51476V20.9096H11.7435V15.3745Z" fill="#A52639"/>
<path fill-rule="evenodd" clip-rule="evenodd" d="M32.5 25.8912V26.9982H17.2786V25.8912H32.5ZM29.4557 12.607V22.5701H28.3487V23.6771H27.2417V24.7841H19.4926V23.6771H18.3856V22.5701H17.2786V12.607H29.4557Z" fill="#DD3745"/>
<path fill-rule="evenodd" clip-rule="evenodd" d="M29.548 25.8911V26.9981H28.4409V25.8911H29.548ZM28.1642 15.0978V19.6181H27.0572V15.0978H28.1642Z" fill="#FFE091"/>
<path d="M29.7324 11.5H11.559V12.607H29.7324V11.5Z" fill="#CCE2E1"/>
<path fill-rule="evenodd" clip-rule="evenodd" d="M23.7361 11.5H24.8432V19.2491L24.2897 19.5258L23.7361 19.2491V11.5Z" fill="#FFAA6E"/>
<path fill-rule="evenodd" clip-rule="evenodd" d="M22.6292 23.6771V20.3561H23.7362V19.2491H24.8432V20.3561H25.9502V23.6771H22.6292Z" fill="#431E66"/>
</svg>
