<svg width="40" height="40" viewBox="0 0 40 40" fill="none" xmlns="http://www.w3.org/2000/svg">
<path fill-rule="evenodd" clip-rule="evenodd" d="M20 40C31.0457 40 40 31.0457 40 20C40 8.9543 31.0457 0 20 0C8.9543 0 0 8.9543 0 20C0 31.0457 8.9543 40 20 40Z" fill="#25292E"/>
<path fill-rule="evenodd" clip-rule="evenodd" d="M11.0639 26.2984C10.4658 25.9326 10.1 25.2811 10.1 24.5816V20.6752C10.1 20.5257 10.14 20.3815 10.2148 20.2534C10.4471 19.8529 10.9624 19.7167 11.3629 19.9517L20.1796 25.0915C20.6948 25.3932 21.0126 25.9433 21.0126 26.5414V30.5892C21.0126 30.7734 20.9619 30.9577 20.8657 31.1152C20.5747 31.5905 19.9553 31.74 19.48 31.449L11.0639 26.2984ZM24.206 18.881C24.7213 19.1827 25.0391 19.7327 25.0391 20.3308V28.544C25.0391 28.7869 24.9082 29.0112 24.6973 29.1287L22.7668 30.2154C22.7428 30.2288 22.7161 30.2395 22.6894 30.2474V25.687C22.6894 25.0969 22.3797 24.5496 21.8723 24.2452L14.1291 19.6126V14.4647C14.1291 14.3151 14.1692 14.171 14.2439 14.0428C14.4763 13.6423 14.9916 13.5061 15.3921 13.7411L24.206 18.881ZM28.0643 12.8145C28.5822 13.1136 28.9 13.6689 28.9 14.267V26.2637C28.9 26.5093 28.7638 26.7363 28.5475 26.8538L26.7185 27.8417V19.4897C26.7185 18.8996 26.4088 18.355 25.9042 18.0505L17.9901 13.3031V8.41958C17.9901 8.27006 18.0301 8.12588 18.1022 7.99771C18.3345 7.5972 18.8498 7.46103 19.2504 7.69332L28.0643 12.8145Z" fill="#00D395"/>
</svg>
