<svg width="40" height="40" viewBox="0 0 40 40" fill="none" xmlns="http://www.w3.org/2000/svg">
<path fill-rule="evenodd" clip-rule="evenodd" d="M20 40C31.0457 40 40 31.0457 40 20C40 8.9543 31.0457 0 20 0C8.9543 0 0 8.9543 0 20C0 31.0457 8.9543 40 20 40Z" fill="url(#paint0_linear)"/>
<path fill-rule="evenodd" clip-rule="evenodd" d="M15.7137 31.7435C10.9264 29.9911 7.50098 25.3879 7.50098 20.0006C7.50098 14.6133 10.9264 10.0133 15.7137 8.25775C16.0121 8.14981 16.2502 7.78791 16.2502 7.47045V6.30537C16.2502 5.83235 15.8819 5.56569 15.4311 5.70854C9.38034 7.64505 4.99939 13.3117 4.99939 20.0038C4.99939 26.6958 9.38034 32.3625 15.4311 34.2958C15.8819 34.4387 16.2502 34.172 16.2502 33.699V32.5339C16.2502 32.2133 16.0121 31.8546 15.7137 31.7435ZM25.4819 22.9752C25.4819 20.0546 23.7042 19.0704 20.2692 18.6006C17.7359 18.2324 17.2438 17.6387 17.2438 16.4546C17.2438 15.3308 18.101 14.5339 19.7581 14.5339C21.2565 14.5339 22.1168 15.0578 22.4724 16.2609C22.5518 16.5308 22.793 16.7212 23.0724 16.7212H24.3867C24.7518 16.7212 25.0375 16.3847 24.9613 16.026C24.5454 14.1212 23.2629 12.9784 21.2502 12.6197V10.6292C21.2502 10.2831 20.9708 10.0038 20.6248 10.0038H19.374C19.028 10.0038 18.7486 10.2831 18.7486 10.6292V12.5657C16.2692 12.9181 14.6692 14.5657 14.6692 16.6831C14.6692 19.4228 16.3232 20.4831 19.8184 20.953C22.1899 21.3403 22.8629 21.8514 22.8629 23.2006C22.8629 24.5498 21.7169 25.4482 20.1042 25.4482C17.9232 25.4482 17.2026 24.4927 16.9391 23.2577C16.8756 22.9657 16.6248 22.7498 16.3264 22.7498H14.901C14.5422 22.7498 14.2597 23.0736 14.3232 23.426C14.6851 25.5054 16.0216 27.0324 18.7486 27.4038V29.3784C18.7486 29.7244 19.028 30.0038 19.374 30.0038H20.6248C20.9708 30.0038 21.2502 29.7244 21.2502 29.3784V27.4038C23.8311 26.9943 25.4819 25.1974 25.4819 22.9752ZM23.7518 6.30854C23.7518 5.83553 24.12 5.56886 24.5708 5.71172C30.6184 7.64505 35.0026 13.3117 35.0026 20.0038C35.0026 26.6958 30.6216 32.3625 24.5708 34.2958C24.12 34.4387 23.7518 34.172 23.7518 33.699V32.5339C23.7518 32.1879 23.9613 31.8673 24.2883 31.7466C29.0756 29.9911 32.501 25.3911 32.501 20.0038C32.501 14.6165 29.0756 10.0133 24.2883 8.26092C23.9899 8.15299 23.7518 7.79108 23.7518 7.47362V6.30854Z" fill="white"/>
<defs>
<linearGradient id="paint0_linear" x1="-5.36442e-05" y1="0" x2="-5.36442e-05" y2="40" gradientUnits="userSpaceOnUse">
<stop stop-color="#02D396"/>
<stop offset="1" stop-color="#9669ED"/>
</linearGradient>
</defs>
</svg>
