<svg width="40" height="40" viewBox="0 0 40 40" fill="none" xmlns="http://www.w3.org/2000/svg">
<path fill-rule="evenodd" clip-rule="evenodd" d="M20 40C31.0457 40 40 31.0457 40 20C40 8.9543 31.0457 0 20 0C8.9543 0 0 8.9543 0 20C0 31.0457 8.9543 40 20 40Z" fill="#3AB03E"/>
<path fill-rule="evenodd" clip-rule="evenodd" d="M32.3176 13.3361C29.8703 8.81447 25.1415 5.99805 20 5.99997C12.2797 5.99997 6 12.2796 6 20C6 27.7203 12.2797 34 20 34C25.4441 33.9866 30.391 30.8308 32.6977 25.8995C33.1 25.0341 32.7261 24.0063 31.8617 23.6017C31.4462 23.4073 30.9703 23.3863 30.5393 23.5435C30.1083 23.7007 29.7576 24.023 29.5648 24.4393C27.5052 28.8705 22.6707 31.3059 17.8841 30.3234C13.0974 29.3409 9.61308 25.1982 9.46552 20.3139C9.31796 15.4297 12.5458 11.0841 17.2645 9.81451C21.9831 8.54489 26.9558 10.6839 29.2791 14.9828C29.571 15.5296 30.1336 15.8782 30.7532 15.8962C31.3729 15.9142 31.9547 15.5989 32.278 15.0699C32.6012 14.5409 32.6163 13.8793 32.3176 13.3361ZM22.5867 18.1759C22.7853 16.4186 21.2519 15.0552 19.4791 15.3792C18.3874 15.5837 17.5528 16.47 17.4141 17.5719C17.3085 18.4242 17.6463 19.2712 18.3094 19.8168V24.6664H21.6914V19.8119C22.189 19.4019 22.5096 18.816 22.5867 18.1759Z" fill="white"/>
</svg>
