<svg width="40" height="40" viewBox="0 0 40 40" fill="none" xmlns="http://www.w3.org/2000/svg">
<path fill-rule="evenodd" clip-rule="evenodd" d="M20 40C31.0457 40 40 31.0457 40 20C40 8.9543 31.0457 0 20 0C8.9543 0 0 8.9543 0 20C0 31.0457 8.9543 40 20 40Z" fill="url(#paint0_linear)"/>
<path fill-rule="evenodd" clip-rule="evenodd" d="M28.8167 17.1506C29.2148 14.4893 27.1885 13.0587 24.4179 12.1043L25.3167 8.49934L23.1223 7.95247L22.2473 11.4625C21.6704 11.3187 21.0779 11.1831 20.4892 11.0487L21.3704 7.51559L19.1773 6.96872L18.2779 10.5725L16.8792 10.2318L13.8529 9.47622L13.2692 11.82C13.2692 11.82 14.8973 12.1931 14.8629 12.2162C15.7517 12.4381 15.9123 13.0262 15.8854 13.4925L14.8617 17.5993L14.8579 17.615L13.4229 23.3681C13.3142 23.6381 13.0385 24.0431 12.4173 23.8893C12.4392 23.9212 10.8223 23.4912 10.8223 23.4912L9.73291 26.0031L12.5885 26.715C13.1198 26.8481 13.6404 26.9875 14.1529 27.1187L13.2448 30.765L15.4367 31.3118L16.336 27.7043C16.9348 27.8668 17.516 28.0168 18.0848 28.1581L17.1885 31.7487L19.3829 32.2956L20.291 28.6562C24.0329 29.3643 26.8467 29.0787 28.031 25.6943C28.9854 22.9693 27.9835 21.3975 26.0148 20.3725C27.4485 20.0418 28.5285 19.0987 28.8167 17.1506ZM18.2542 20.2331L17.0492 25.0637C17.1719 25.0942 17.3159 25.1322 17.477 25.1748C19.2675 25.6477 23.1808 26.6813 23.8029 24.1812C24.4404 21.625 20.6452 20.7734 18.7933 20.3578C18.5863 20.3114 18.4037 20.2704 18.2542 20.2331ZM18.8054 18.0218C20.0442 18.3306 23.8629 19.59 24.4817 17.1112C25.126 14.5256 21.1367 13.9493 19.8979 13.6406L18.8054 18.0218Z" fill="white"/>
<defs>
<linearGradient id="paint0_linear" x1="-5.36442e-05" y1="0" x2="-5.36442e-05" y2="40" gradientUnits="userSpaceOnUse">
<stop stop-color="#02D396"/>
<stop offset="1" stop-color="#9669ED"/>
</linearGradient>
</defs>
</svg>
