<svg width="40" height="40" viewBox="0 0 40 40" fill="none" xmlns="http://www.w3.org/2000/svg">
<path fill-rule="evenodd" clip-rule="evenodd" d="M20 40C31.0457 40 40 31.0457 40 20C40 8.9543 31.0457 0 20 0C8.9543 0 0 8.9543 0 20C0 31.0457 8.9543 40 20 40Z" fill="url(#paint0_linear)"/>
<path fill-rule="evenodd" clip-rule="evenodd" d="M20.8117 5.01804L20.6364 5H20.6351H19.3505C19.3318 5.0035 19.313 5.00734 19.2941 5.01119C19.2469 5.02084 19.1991 5.03058 19.1514 5.03546C18.9589 5.05802 18.7659 5.07699 18.5729 5.09596C18.171 5.13547 17.7693 5.17497 17.3731 5.24683C14.328 5.79912 11.7002 7.17235 9.48692 9.33107C9.25799 9.55448 9.04084 9.79029 8.81959 10.0306L8.81956 10.0306L8.81955 10.0306L8.81951 10.0306C8.71261 10.1467 8.60476 10.2638 8.49415 10.3811L11.8597 14.8649L11.9961 14.6604C12.945 13.2476 14.2474 12.1079 15.7735 11.3548C15.9017 11.2907 15.9794 11.3016 16.0817 11.4025C16.5742 11.8898 17.0708 12.373 17.567 12.8559L17.567 12.8559L17.567 12.8559C17.7152 13.0001 17.8633 13.1443 18.0113 13.2885C18.1006 13.3756 18.1906 13.4604 18.2827 13.547L18.2828 13.547L18.3659 13.6253L27.5271 7.05371C27.513 7.04347 27.5011 7.03456 27.4905 7.02666C27.4672 7.0093 27.4504 6.99677 27.4317 6.98553C25.5593 5.91776 23.5492 5.28092 21.4001 5.07637C21.2038 5.05852 21.0075 5.03825 20.8118 5.01805L20.8118 5.01804L20.8117 5.01804ZM18.9821 34.9675C19.0926 34.9785 19.2031 34.9896 19.3136 35.0011H20.7114C20.7285 34.9976 20.7456 34.9938 20.7628 34.99L20.7629 34.99C20.8063 34.9803 20.8502 34.9705 20.8942 34.9656C21.0479 34.9489 21.202 34.9346 21.356 34.9204L21.3562 34.9204H21.3562C21.6651 34.8919 21.9739 34.8634 22.2797 34.8143C25.9221 34.232 28.944 32.5301 31.3754 29.7673C31.4723 29.6582 31.4832 29.5873 31.3918 29.4673C30.4869 28.2697 29.586 27.0691 28.6848 25.868L28.2512 25.2903C28.2303 25.2624 28.2065 25.2361 28.1811 25.2079L28.1811 25.2079L28.181 25.2079C28.1667 25.1921 28.1519 25.1757 28.1367 25.158L27.9908 25.3735C27.0515 26.7616 25.7702 27.8841 24.2706 28.6327C24.1275 28.7063 24.0388 28.7077 23.9161 28.585C23.5452 28.21 23.1674 27.8419 22.7891 27.4733L22.7889 27.4731L22.7887 27.4729C22.6622 27.3496 22.5356 27.2263 22.4092 27.1026L21.5024 26.2203L18.8865 28.1748C16.7535 29.7685 14.6244 31.3593 12.4884 32.9569C12.5091 32.9709 12.5253 32.9827 12.5389 32.9925L12.5389 32.9926L12.539 32.9926C12.5584 33.0067 12.5727 33.0171 12.5879 33.0251C14.3176 34.0165 16.2294 34.6491 18.2091 34.8852C18.4667 34.9157 18.7244 34.9416 18.9821 34.9675ZM6.98864 12.5466L6.98944 12.5477C5.16936 15.8475 4.56818 19.3082 5.30995 22.9707C6.0027 26.3921 7.72776 29.2136 10.387 31.5032L14.8339 28.1677C14.8257 28.1522 14.8198 28.1404 14.8153 28.1313C14.8062 28.1131 14.8026 28.1058 14.7971 28.1022C14.7521 28.0681 14.7044 28.0368 14.6567 28.0068C13.2438 27.0583 12.1045 25.7558 11.3524 24.2293C11.2924 24.1093 11.2965 24.0343 11.3947 23.9361C11.6522 23.6817 11.9044 23.4221 12.1564 23.1628C12.2461 23.0704 12.3358 22.9781 12.4257 22.8861L13.8003 21.4761L6.98944 12.5477L6.99001 12.5466H6.98864ZM27.5708 17.2064L26.3189 18.5059L33.0323 27.374C34.7015 24.5703 35.5606 20.5883 34.5965 16.5627C33.8246 13.3376 32.1432 10.6648 29.6108 8.49649L25.1393 11.8512C25.1701 11.8731 25.1961 11.892 25.2192 11.9086C25.2606 11.9385 25.2924 11.9616 25.3248 11.9834C26.7561 12.9377 27.9089 14.2543 28.6658 15.799C28.7313 15.9299 28.7326 16.0131 28.6208 16.1236C28.3564 16.385 28.0994 16.6539 27.8422 16.923C27.7518 17.0175 27.6615 17.1121 27.5708 17.2064Z" fill="white"/>
<defs>
<linearGradient id="paint0_linear" x1="-5.36442e-05" y1="0" x2="-5.36442e-05" y2="40" gradientUnits="userSpaceOnUse">
<stop stop-color="#02D396"/>
<stop offset="1" stop-color="#9669ED"/>
</linearGradient>
</defs>
</svg>
