<svg width="40" height="40" viewBox="0 0 40 40" fill="none" xmlns="http://www.w3.org/2000/svg">
<path fill-rule="evenodd" clip-rule="evenodd" d="M20 40C31.0457 40 40 31.0457 40 20C40 8.9543 31.0457 0 20 0C8.9543 0 0 8.9543 0 20C0 31.0457 8.9543 40 20 40Z" fill="#E1AA3F"/>
<path fill-rule="evenodd" clip-rule="evenodd" d="M14.9219 16.6438H7.5V14.3H14.9219V16.6438ZM19.2188 14.3V25.2375H7.5V18.4488H16.875V14.3H19.2188ZM16.875 22.8938V20.7925H9.84375V22.8938H16.875ZM20.7812 14.3H32.5V16.6438H23.125V22.8938H30.1562V20.7925H25.0781V18.4488H32.5V25.2375H20.7812V14.3Z" fill="white"/>
</svg>
