<svg width="40" height="40" viewBox="0 0 40 40" fill="none" xmlns="http://www.w3.org/2000/svg">
<path fill-rule="evenodd" clip-rule="evenodd" d="M20 40C31.0457 40 40 31.0457 40 20C40 8.9543 31.0457 0 20 0C8.9543 0 0 8.9543 0 20C0 31.0457 8.9543 40 20 40Z" fill="#E1AA3F"/>
<path fill-rule="evenodd" clip-rule="evenodd" d="M6.5 19.9L20 6.39999L33.5 19.9L28.5906 24.8094L20 16.2176L11.4081 24.8094L6.5 19.9ZM20 18.673L12.6365 26.0365L20 33.4L27.3635 26.0365L20 18.673ZM20 21.6225L24.4152 26.0365L20 30.4439L15.5861 26.0365L20 21.6225Z" fill="white"/>
</svg>
