<svg width="40" height="40" viewBox="0 0 40 40" fill="none" xmlns="http://www.w3.org/2000/svg">
<path fill-rule="evenodd" clip-rule="evenodd" d="M20 40C31.0457 40 40 31.0457 40 20C40 8.9543 31.0457 0 20 0C8.9543 0 0 8.9543 0 20C0 31.0457 8.9543 40 20 40Z" fill="#8150E6"/>
<path d="M39.2525 25.3823L25.0136 11.3216L16.8998 9.80133L12.1511 27.7321L24.1331 39.5693C31.4229 38.0321 37.2513 32.5122 39.2525 25.3823Z" fill="#3C176B"/>
<path d="M18.2735 26.1603V15.0651H21.0679C22.0072 15.0651 22.8697 15.1847 23.6557 15.424C24.4412 15.6633 25.1216 16.0355 25.6967 16.5406C25.7756 16.6098 25.8515 16.6826 25.9258 16.7578C25.9354 15.2539 25.3926 13.7551 24.6245 12.3998C23.7721 12.1578 22.8947 12.0346 21.9912 12.0346H15.2118V26.1464C16.2421 26.1582 17.2483 26.2422 18.2735 26.1603Z" fill="#6B42BD"/>
<path d="M30.0098 17.2849C29.5237 16.1065 28.8756 15.1274 28.0658 14.3474C27.2556 13.5678 26.3243 12.9876 25.2714 12.6062C25.0576 12.5288 24.8416 12.4614 24.6244 12.3998C25.3926 13.7551 25.9354 15.2539 25.9257 16.7579C26.392 17.2304 26.6899 19.0628 26.9696 19.7659L18.2734 27.7325V26.1603C17.2482 26.2423 16.2421 26.1582 15.2119 26.1464V30.7628H21.6267C22.6632 30.7628 23.7201 30.5727 24.7976 30.1914C25.8748 29.8104 26.8547 29.2343 27.7377 28.4634C28.6205 27.6925 29.3415 26.718 29.9004 25.5393C30.4593 24.3609 30.7387 22.9653 30.7387 21.3524C30.7387 19.7574 30.4958 18.4636 30.0098 17.2849Z" fill="#9B74EC"/>
<path d="M17.4964 24.6977C18.452 24.6977 19.3553 24.5781 20.2056 24.3388C21.0561 24.0995 21.7972 23.7273 22.429 23.2224C23.0607 22.7173 23.5589 22.0618 23.9234 21.2551C24.2878 20.449 24.4701 19.4699 24.4701 18.3176C24.4701 17.1838 24.308 16.3017 23.9841 15.4863C23.6599 14.6713 23.2104 14.0109 22.6355 13.5058C22.0603 13.0007 21.38 12.6285 20.5944 12.3894C19.8085 12.1501 18.9459 12.0305 18.0066 12.0305H15.2123V24.6977H17.4964ZM12.1506 8.99997H18.9299C20.0636 8.99997 21.1571 9.19056 22.2104 9.57146C23.2631 9.95279 24.1944 10.533 25.0046 11.3128C25.8146 12.0928 26.4627 13.0717 26.9485 14.2501C27.4346 15.4289 27.6775 16.7227 27.6775 18.3176C27.6775 19.9305 27.3981 21.3261 26.8392 22.5045C26.2803 23.6834 25.5593 24.6577 24.6767 25.4288C23.7936 26.1997 22.8136 26.7757 21.7365 27.1566C20.6589 27.5379 19.602 27.7282 18.5655 27.7282H12.1506V8.99997Z" fill="white"/>
</svg>
