<svg width="40" height="40" viewBox="0 0 40 40" fill="none" xmlns="http://www.w3.org/2000/svg">
<path fill-rule="evenodd" clip-rule="evenodd" d="M20 40C31.0457 40 40 31.0457 40 20C40 8.9543 31.0457 0 20 0C8.9543 0 0 8.9543 0 20C0 31.0457 8.9543 40 20 40Z" fill="#7866D5"/>
<path d="M27.2156 11.4C27.8194 11.4697 28.4305 11.5075 29.0269 11.6151C30.2088 11.8388 30.595 12.401 30.3946 13.5413C30.3139 14.0033 30.0157 14.2881 29.5415 14.3651C29.2589 14.4049 28.9738 14.4253 28.6884 14.4262C24.8103 14.4347 20.9237 14.4421 17.0457 14.458C16.459 14.458 15.8785 14.5117 15.3077 14.6046C13.3839 14.9053 12.6604 15.6679 12.4991 17.5232C12.4257 18.3947 12.4257 18.3947 13.3363 18.3947H29.2592C29.5097 18.402 29.7505 18.4485 29.9595 18.578C30.6684 19.0107 30.4912 19.6878 30.4508 20.3123C30.419 20.8134 30.1049 21.0896 29.5659 21.1899C29.3395 21.2245 29.1106 21.2401 28.8815 21.2363H13.0051C12.4184 21.2363 12.4269 21.2363 12.4746 21.7912C12.5149 22.2996 12.5479 22.8007 12.6763 23.2933C12.9171 24.2099 13.5049 24.7795 14.4546 25.0337C15.5081 25.3185 16.5947 25.3808 17.6812 25.3881C21.4701 25.4114 25.2528 25.404 29.0428 25.404C29.5256 25.404 29.9754 25.4651 30.2577 25.8892C30.8053 26.7057 30.3787 27.8448 29.4205 28.1381C28.6004 28.3923 27.7387 28.4534 26.8856 28.462C23.329 28.5231 19.7724 28.5317 16.2158 28.462C15.119 28.4337 14.0265 28.3127 12.9501 28.1002C10.4152 27.5991 9.15144 26.3671 8.72489 23.9325C8.62833 23.3703 8.57211 22.8007 8.5 22.2373V17.7934C8.54889 17.3534 8.588 16.9158 8.64544 16.4844C8.98277 13.7259 10.271 12.3704 13.1028 11.7703C14.1087 11.554 15.1378 11.5075 16.1522 11.4073C19.8298 11.4 23.5209 11.4 27.2156 11.4Z" fill="white"/>
</svg>
