<svg width="40" height="40" viewBox="0 0 40 40" fill="none" xmlns="http://www.w3.org/2000/svg">
<path fill-rule="evenodd" clip-rule="evenodd" d="M20 40C31.0457 40 40 31.0457 40 20C40 8.9543 31.0457 0 20 0C8.9543 0 0 8.9543 0 20C0 31.0457 8.9543 40 20 40Z" fill="#25292E"/>
<path d="M9.5 22.0509L20 28.2629L30.498 22.0509L20 36.8491L9.5 22.0509Z" fill="url(#paint0_linear)"/>
<path d="M20 25.949L9.5 19.737L20 3.20001L30.5 19.737L20 25.949Z" fill="url(#paint1_linear)"/>
<path d="M11.9558 26H18.5964C19.3684 26 19.8166 25.5269 19.8166 24.8296C19.8166 24.1157 19.3684 23.6592 18.5964 23.6592H14.4543V23.6011L16.8366 21.4263C18.7375 19.708 19.5178 18.8281 19.5178 17.2925C19.5178 15.1758 17.7248 13.7231 14.9938 13.7231C12.8107 13.7231 11.217 14.7773 10.694 16.1553C10.6027 16.3711 10.5695 16.5869 10.5695 16.8193C10.5695 17.5664 11.0427 18.0229 11.8313 18.0229C12.4455 18.0229 12.8024 17.7822 13.1843 17.1929C13.6242 16.396 14.1638 16.0142 14.9523 16.0142C15.9069 16.0142 16.571 16.6284 16.571 17.4917C16.571 18.272 16.1892 18.8198 14.7863 20.0981L11.3664 23.2026C10.7688 23.7173 10.528 24.124 10.528 24.6968C10.528 25.4521 10.9763 26 11.9558 26Z" fill="#C1D9EE"/>
<path d="M11.9558 26H18.5964C19.3684 26 19.8166 25.5269 19.8166 24.8296C19.8166 24.1157 19.3684 23.6592 18.5964 23.6592H14.4543V23.6011L16.8366 21.4263C18.7375 19.708 19.5178 18.8281 19.5178 17.2925C19.5178 15.1758 17.7248 13.7231 14.9938 13.7231C12.8107 13.7231 11.217 14.7773 10.694 16.1553C10.6027 16.3711 10.5695 16.5869 10.5695 16.8193C10.5695 17.5664 11.0427 18.0229 11.8313 18.0229C12.4455 18.0229 12.8024 17.7822 13.1843 17.1929C13.6242 16.396 14.1638 16.0142 14.9523 16.0142C15.9069 16.0142 16.571 16.6284 16.571 17.4917C16.571 18.272 16.1892 18.8198 14.7863 20.0981L11.3664 23.2026C10.7688 23.7173 10.528 24.124 10.528 24.6968C10.528 25.4521 10.9763 26 11.9558 26Z" fill="url(#paint2_linear)"/>
<path d="M22.6155 26.1909C23.1468 26.1909 23.4207 26.0249 23.8689 25.3359L25.3797 23.02H25.4378L27.0066 25.4023C27.3553 25.9336 27.6126 26.1909 28.2103 26.1909C29.0071 26.1909 29.6131 25.7012 29.6131 24.8877C29.6131 24.5557 29.5052 24.2734 29.2811 23.9746L27.4051 21.4429L29.2146 19.0771C29.5301 18.6787 29.638 18.3882 29.638 18.0146C29.638 17.2593 29.0984 16.7695 28.2767 16.7695C27.7205 16.7695 27.4051 17.0103 26.9983 17.666L25.6121 19.8491H25.554L24.1429 17.6577C23.7278 16.9937 23.4124 16.7695 22.7898 16.7695C21.993 16.7695 21.3953 17.3174 21.3953 18.0645C21.3953 18.4131 21.4949 18.7036 21.7107 18.9858L23.5867 21.5093L21.719 23.9663C21.4119 24.3647 21.2957 24.6387 21.2957 25.0039C21.2957 25.7095 21.8436 26.1909 22.6155 26.1909Z" fill="#C1D9EE"/>
<path d="M22.6155 26.1909C23.1468 26.1909 23.4207 26.0249 23.8689 25.3359L25.3797 23.02H25.4378L27.0066 25.4023C27.3553 25.9336 27.6126 26.1909 28.2103 26.1909C29.0071 26.1909 29.6131 25.7012 29.6131 24.8877C29.6131 24.5557 29.5052 24.2734 29.2811 23.9746L27.4051 21.4429L29.2146 19.0771C29.5301 18.6787 29.638 18.3882 29.638 18.0146C29.638 17.2593 29.0984 16.7695 28.2767 16.7695C27.7205 16.7695 27.4051 17.0103 26.9983 17.666L25.6121 19.8491H25.554L24.1429 17.6577C23.7278 16.9937 23.4124 16.7695 22.7898 16.7695C21.993 16.7695 21.3953 17.3174 21.3953 18.0645C21.3953 18.4131 21.4949 18.7036 21.7107 18.9858L23.5867 21.5093L21.719 23.9663C21.4119 24.3647 21.2957 24.6387 21.2957 25.0039C21.2957 25.7095 21.8436 26.1909 22.6155 26.1909Z" fill="url(#paint3_linear)"/>
<defs>
<linearGradient id="paint0_linear" x1="27.875" y1="28.5574" x2="9.46453" y2="10.3148" gradientUnits="userSpaceOnUse">
<stop stop-color="#292E33"/>
<stop offset="1" stop-color="#83959F"/>
</linearGradient>
<linearGradient id="paint1_linear" x1="27.875" y1="28.5574" x2="9.46453" y2="10.3148" gradientUnits="userSpaceOnUse">
<stop stop-color="#292E33"/>
<stop offset="1" stop-color="#83959F"/>
</linearGradient>
<linearGradient id="paint2_linear" x1="20" y1="30" x2="5.09555" y2="25.8612" gradientUnits="userSpaceOnUse">
<stop stop-color="white" stop-opacity="0.5"/>
<stop offset="0.103261" stop-color="white"/>
<stop offset="0.842391" stop-color="white" stop-opacity="0"/>
<stop offset="1" stop-color="white" stop-opacity="0"/>
</linearGradient>
<linearGradient id="paint3_linear" x1="20" y1="30" x2="5.09555" y2="25.8612" gradientUnits="userSpaceOnUse">
<stop stop-color="white" stop-opacity="0.5"/>
<stop offset="0.103261" stop-color="white"/>
<stop offset="0.842391" stop-color="white" stop-opacity="0"/>
<stop offset="1" stop-color="white" stop-opacity="0"/>
</linearGradient>
</defs>
</svg>
