<svg width="40" height="40" viewBox="0 0 40 40" fill="none" xmlns="http://www.w3.org/2000/svg">
<path fill-rule="evenodd" clip-rule="evenodd" d="M20 40C31.0457 40 40 31.0457 40 20C40 8.9543 31.0457 0 20 0C8.9543 0 0 8.9543 0 20C0 31.0457 8.9543 40 20 40Z" fill="#22996E"/>
<path d="M9.97082 28.4893C8.61249 28.4893 7.79138 26.9874 8.52458 25.8439L14.2306 16.9447C14.6518 16.2877 15.3785 15.8904 16.1589 15.8904H23.8411C24.6215 15.8904 25.3482 16.2877 25.7694 16.9447L31.4754 25.8439C32.2086 26.9874 31.3875 28.4893 30.0292 28.4893H9.97082Z" fill="white"/>
<path d="M21.0249 8.01817L23.4214 11.68C23.9199 12.4418 23.3734 13.4526 22.463 13.4526H17.5805C16.6614 13.4526 16.1166 12.4244 16.6329 11.6639L19.1189 8.00202C19.5781 7.32579 20.5774 7.33426 21.0249 8.01817Z" fill="white"/>
</svg>
