<svg width="40" height="40" viewBox="0 0 40 40" fill="none" xmlns="http://www.w3.org/2000/svg">
<path fill-rule="evenodd" clip-rule="evenodd" d="M20 40C31.0457 40 40 31.0457 40 20C40 8.9543 31.0457 0 20 0C8.9543 0 0 8.9543 0 20C0 31.0457 8.9543 40 20 40Z" fill="#F0D1CC"/>
<path d="M16 12L20 10L24 12V15H16V12Z" fill="#846A67"/>
<path d="M16 12L20 14L21 17.5L20 21L16 19V12Z" fill="#83605B"/>
<path d="M24 12L20 14V21L24 19V12Z" fill="#654A49"/>
<path d="M16 21L20 19L24 21V24H16V21Z" fill="#846A67"/>
<path d="M16 21L20 23L21 26.5L20 30L16 28V21Z" fill="#664F4E"/>
<path d="M24 21L20 23V30L24 28V21Z" fill="#55403F"/>
<path d="M8 21L12 19L16 21V24H8V21Z" fill="#432F30"/>
<path d="M8 21L12 23L13 26.5L12 30L8 28V21Z" fill="#CC9C95"/>
<path d="M16 21L12 23V30L16 28V21Z" fill="#513C3C"/>
<path d="M8 12L12 10L16 12V15H8V12Z" fill="#7C6462"/>
<path d="M8 12L12 14L13 17.5L12 21L8 19V12Z" fill="#C3958E"/>
<path d="M16 12L12 14V17.6235V21L16 19V12Z" fill="#554142"/>
<path d="M16 8L20 6L24 8V11H16V8Z" fill="#846A67"/>
<path d="M16 8L20 10L21 13.5L20 17L16 15V8Z" fill="#6B4944"/>
<path d="M24 8L20 10V17L24 15V8Z" fill="#4F3B3B"/>
<path d="M24 21L28 19L32 21V24H24V21Z" fill="#442F2F"/>
<path d="M24 21L28 23L29 26.5L28 30L24 28V21Z" fill="#93645E"/>
<path d="M32 21L28 23V30L32 28V21Z" fill="#6F5555"/>
<path d="M24 12L28 10L32 12V15H24V12Z" fill="#836867"/>
<path d="M24 12L28 14L29 17.5L28 21L24 19V12Z" fill="#93645E"/>
<path d="M32 12L28 14V21L32 19V12Z" fill="#6E5655"/>
<path d="M16 25L20 23L24 25V28H16V25Z" fill="#453333"/>
<path d="M16 25L20 27L21 30.5L20 34L16 32V25Z" fill="#D79C93"/>
<path d="M24 25L20 27V34L24 32V25Z" fill="#705655"/>
<path d="M16 16L20 14L24 16V19H16V16Z" fill="#7B6362"/>
<path d="M16 16L20 18L21 21.5L20 25L16 23V16Z" fill="#EFAC9E"/>
<path d="M24 16L20 18V25L24 23V16Z" fill="#745757"/>
</svg>
