<svg width="40" height="40" viewBox="0 0 40 40" fill="none" xmlns="http://www.w3.org/2000/svg">
<path fill-rule="evenodd" clip-rule="evenodd" d="M20 40C31.0457 40 40 31.0457 40 20C40 8.9543 31.0457 0 20 0C8.9543 0 0 8.9543 0 20C0 31.0457 8.9543 40 20 40Z" fill="white"/>
<path fill-rule="evenodd" clip-rule="evenodd" d="M23.7354 3.99715L24.5435 0.518348L24.5435 0.518326C26.7054 1.02053 28.7328 1.87332 30.5626 3.01354L28.6739 6.04462C30.812 7.377 32.6229 9.18802 33.9554 11.3262L36.9865 9.43739C38.1267 11.2672 38.9795 13.2946 39.4817 15.4565L36.0028 16.2646C36.2808 17.4611 36.4286 18.7111 36.4286 20C36.4286 21.2889 36.2808 22.5389 36.0028 23.7354L39.4817 24.5435C38.9795 26.7054 38.1267 28.7329 36.9865 30.5626L33.9554 28.6739C32.6229 30.812 30.812 32.6229 28.6739 33.9554L30.5626 36.9865C28.7329 38.1267 26.7054 38.9794 24.5435 39.4817L23.7354 36.0028C22.5389 36.2808 21.2889 36.4286 20 36.4286C18.7111 36.4286 17.4611 36.2808 16.2646 36.0028L15.4565 39.4816C13.2946 38.9794 11.2672 38.1267 9.43742 36.9865L11.3262 33.9554C9.18805 32.6229 7.37703 30.812 6.04465 28.6739L3.01356 30.5626C1.87334 28.7328 1.02055 26.7054 0.518347 24.5435L0.518364 24.5435L3.99716 23.7354C3.71919 22.5389 3.57144 21.2889 3.57144 20C3.57144 18.7111 3.71919 17.4611 3.99716 16.2646L0.518365 15.4565L0.518341 15.4565C1.02055 13.2946 1.87334 11.2671 3.01356 9.43736L3.01356 9.43739L6.04465 11.3262C7.37703 9.18802 9.18805 7.377 11.3262 6.04462L9.43742 3.01353L9.4374 3.01353C11.2672 1.87332 13.2946 1.02054 15.4565 0.518332L15.4565 0.51835L16.2646 3.99715C17.4611 3.71918 18.7111 3.57142 20 3.57142C21.2889 3.57142 22.5389 3.71918 23.7354 3.99715ZM21.5311 10.3344L21.81 8.57062C20.6008 8.37937 19.3791 8.38434 18.1903 8.57334L18.4708 10.3369C19.4771 10.1769 20.51 10.1729 21.5311 10.3344ZM27.2817 11.0083L26.1597 12.3975C25.7671 12.0804 25.3442 11.789 24.8915 11.5277C24.4388 11.2663 23.9751 11.0457 23.5042 10.8643L24.1462 9.19801C24.7034 9.41264 25.2511 9.67328 25.7843 9.98122C26.3177 10.2892 26.8172 10.6331 27.2817 11.0083ZM29.1331 16.4929L30.8006 15.8538C30.37 14.7299 29.7634 13.6694 28.9931 12.7178L27.6051 13.8413C28.2555 14.6449 28.7686 15.5414 29.1331 16.4929ZM31.4294 21.81L29.6655 21.5311C29.8271 20.5098 29.8231 19.4769 29.6631 18.4706L31.4266 18.1903C31.6157 19.3791 31.6206 20.6008 31.4294 21.81ZM28.9917 27.2817L27.6026 26.1595C27.9197 25.7671 28.2109 25.3441 28.4723 24.8914C28.7337 24.4388 28.9543 23.9751 29.1357 23.5041L30.802 24.1461C30.5874 24.7032 30.3268 25.2509 30.0188 25.7843C29.7109 26.3177 29.3669 26.8172 28.9917 27.2817ZM15.854 9.19938L16.4929 10.8669C15.5415 11.2314 14.6449 11.7444 13.8413 12.3949L12.7178 11.0069C13.6695 10.2366 14.73 9.63007 15.854 9.19938ZM9.98128 14.2156C10.2892 13.6823 10.6332 13.1827 11.0084 12.7183L12.3975 13.8404C12.0805 14.2329 11.7891 14.6558 11.5278 15.1085C11.2664 15.5612 11.0458 16.0249 10.8644 16.4958L9.19807 15.8538C9.41271 15.2967 9.67336 14.749 9.98128 14.2156ZM8.5707 18.19L10.3345 18.4689C10.173 19.4901 10.177 20.5231 10.337 21.5292L8.57342 21.8097C8.38442 20.6209 8.37945 19.3992 8.5707 18.19ZM10.8669 23.5071L9.19945 24.146C9.63013 25.27 10.2367 26.3306 11.0069 27.2821L12.395 26.1588C11.7445 25.3551 11.2315 24.4586 10.8669 23.5071ZM12.7183 28.9917L13.8405 27.6025C14.233 27.9195 14.6559 28.2109 15.1086 28.4723C15.5612 28.7337 16.0251 28.9541 16.4958 29.1355L15.8539 30.802C15.2968 30.5874 14.7491 30.3266 14.2157 30.0188C13.6824 29.7108 13.1828 29.3668 12.7183 28.9917ZM18.4689 29.6655L18.19 31.4294C19.3992 31.6206 20.6209 31.6155 21.8097 31.4266L21.5294 29.6631C20.5231 29.8231 19.4902 29.8271 18.4689 29.6655ZM24.1462 30.8006L23.5072 29.1331C24.4586 28.7685 25.3551 28.2555 26.1588 27.6051L27.2822 28.9931C26.3306 29.7634 25.2702 30.3698 24.1462 30.8006Z" fill="#E40057"/>
</svg>
