<svg width="40" height="40" viewBox="0 0 40 40" fill="none" xmlns="http://www.w3.org/2000/svg">
<path fill-rule="evenodd" clip-rule="evenodd" d="M20 40C31.0457 40 40 31.0457 40 20C40 8.9543 31.0457 0 20 0C8.9543 0 0 8.9543 0 20C0 31.0457 8.9543 40 20 40Z" fill="#25292E"/>
<path fill-rule="evenodd" clip-rule="evenodd" d="M14.1964 19.6964L13.0989 18.5989L11.9959 19.7012L13.0938 20.7991L14.1964 19.6964ZM15.0694 20.5694L13.9667 21.6721L20 27.7053L26.0333 21.6721L24.9306 20.5694L20 25.5L15.0694 20.5694ZM24.0577 19.6964L20 23.7541L15.9423 19.6964L20 15.6388L24.0577 19.6964ZM24.9306 18.8235L20 13.8929L15.0694 18.8235L13.9721 17.7262L20 11.702L26.0279 17.7262L24.9306 18.8235ZM25.8036 19.6964L26.9062 20.7991L28.0041 19.7012L26.9011 18.5989L25.8036 19.6964ZM27.7792 21.6721L29.75 19.7012L27.7739 17.7261L29.75 15.75L20 6L10.25 15.75L12.2261 17.7261L10.25 19.7012L12.2208 21.6721L10.25 23.6429L20 33.388L29.75 23.6429L27.7792 21.6721ZM26.9062 22.545L20 29.4512L13.0938 22.545L11.9959 23.6429L20 31.6325L28.0041 23.6429L26.9062 22.545ZM11.9959 15.75L13.0993 16.8534L20 9.95608L26.9007 16.8534L28.0041 15.75L20 7.74591L11.9959 15.75Z" fill="white"/>
</svg>
