<svg width="40" height="40" viewBox="0 0 40 40" fill="none" xmlns="http://www.w3.org/2000/svg">
<path fill-rule="evenodd" clip-rule="evenodd" d="M20 40C31.0457 40 40 31.0457 40 20C40 8.9543 31.0457 0 20 0C8.9543 0 0 8.9543 0 20C0 31.0457 8.9543 40 20 40Z" fill="#00A6C4"/>
<path fill-rule="evenodd" clip-rule="evenodd" d="M20.0009 4.75C24.1013 4.75 28.023 6.4292 30.8536 9.39696C31.226 9.78672 31.5775 10.196 31.9066 10.6229L20.0009 22.5316L8.09824 10.6259C8.42629 10.198 8.77679 9.78777 9.14826 9.39696C11.9789 6.4292 15.9005 4.75 20.0009 4.75ZM32.8321 11.9765C36.6436 18.2688 35.3264 26.4015 29.7226 31.1724C24.1188 35.9432 15.8831 35.9432 10.2792 31.1724C4.74915 26.4643 3.39371 18.4822 7.02194 12.2215L7.16973 11.972L8.34575 13.1484L9.58927 14.3969C7.75796 16.5865 7.90102 19.8125 9.91895 21.8312C11.8888 23.8018 15.0088 23.9851 17.1923 22.2885L17.3504 22.161L20.0009 24.8125L22.6515 22.161C24.8402 23.993 28.065 23.8499 30.0829 21.8312C32.0528 19.8605 32.236 16.7394 30.54 14.5551L30.4126 14.3969L32.8321 11.9765ZM30.0826 17.9278C30.0826 17.0663 29.7954 16.2293 29.2666 15.5494L23.796 21.016L23.9452 21.126C25.1053 21.9391 26.6214 22.0612 27.9016 21.4323C29.2374 20.7761 30.0835 19.4166 30.0826 17.9278ZM10.7353 15.5494L16.2059 21.016C15.5759 21.5044 14.8124 21.7863 14.0196 21.826L13.8208 21.8309C12.3334 21.8368 10.9756 20.9904 10.3201 19.6547C9.66467 18.319 9.82569 16.7267 10.7353 15.5494ZM10.7788 10.5299C13.2146 8.06808 16.5384 6.69058 20.0009 6.70791C23.4634 6.69058 26.7872 8.06808 29.2231 10.5299L20.0009 19.751L10.7788 10.5299Z" fill="white"/>
</svg>
