<svg width="40" height="40" viewBox="0 0 40 40" fill="none" xmlns="http://www.w3.org/2000/svg">
<path fill-rule="evenodd" clip-rule="evenodd" d="M20 40C31.0457 40 40 31.0457 40 20C40 8.9543 31.0457 0 20 0C8.9543 0 0 8.9543 0 20C0 31.0457 8.9543 40 20 40Z" fill="#002D64"/>
<path fill-rule="evenodd" clip-rule="evenodd" d="M25.9987 5.71733L27.6027 7.32266L24.5667 10.4427C25.2067 11.416 25.5507 12.564 25.5507 13.748C25.5616 15.3058 24.959 16.8054 23.8733 17.9227C23.0807 18.76 22.0479 19.3311 20.9173 19.5573V22.276C22.028 22.5 23.052 23.0653 23.868 23.9027C24.9569 25.0209 25.5615 26.5232 25.5507 28.084C25.5611 29.6444 24.9566 31.1461 23.868 32.264C22.796 33.3746 21.3183 34.0013 19.7747 34C18.2304 34.0047 16.7514 33.3775 15.6813 32.264C14.596 31.144 13.9925 29.6435 14 28.084C14 26.5107 14.5973 25.0187 15.6773 23.908C16.4702 23.0711 17.5029 22.5005 18.6333 22.2747V19.5547C17.5083 19.3222 16.4798 18.7552 15.6827 17.928C14.5965 16.8079 13.9925 15.3069 14 13.7467C14 12.1733 14.5973 10.6813 15.6827 9.56666C16.7545 8.45558 18.2322 7.82839 19.776 7.82933C20.9227 7.82933 22.0253 8.17866 22.9693 8.828L26 5.71733H25.9987ZM19.776 24.46C18.8403 24.4525 17.9435 24.834 17.3 25.5133C16.6327 26.2022 16.2618 27.125 16.2667 28.084C16.2667 29.0507 16.6333 29.9533 17.3 30.6533C17.96 31.3307 18.8413 31.7067 19.776 31.7067C20.7112 31.7138 21.6075 31.3323 22.2507 30.6533C22.9176 29.9648 23.2885 29.0426 23.284 28.084C23.284 27.1173 22.9173 26.2147 22.2467 25.5093C21.604 24.8324 20.7093 24.4525 19.776 24.46ZM22.2467 16.34C22.916 15.6506 23.2884 14.7262 23.284 13.7653C23.2963 12.8049 22.9242 11.8794 22.2507 11.1947C21.6031 10.522 20.7097 10.1418 19.776 10.1413C18.8403 10.1338 17.9435 10.5153 17.3 11.1947C16.6327 11.8835 16.2618 12.8063 16.2667 13.7653C16.2667 14.732 16.6333 15.6347 17.3 16.3347C17.96 17.012 18.8413 17.388 19.776 17.388C20.724 17.388 21.5987 17.02 22.2467 16.34Z" fill="white"/>
</svg>
