<svg width="40" height="40" viewBox="0 0 40 40" fill="none" xmlns="http://www.w3.org/2000/svg">
<path fill-rule="evenodd" clip-rule="evenodd" d="M20 40C31.0457 40 40 31.0457 40 20C40 8.9543 31.0457 0 20 0C8.9543 0 0 8.9543 0 20C0 31.0457 8.9543 40 20 40Z" fill="#53B7E8"/>
<path fill-rule="evenodd" clip-rule="evenodd" d="M33.3104 15.9396V14.25H32.0605V15.9396H30.3709V17.1895H32.0605V18.8792H33.3104V17.1895H35V15.9396H33.3104ZM20.7078 18.6603C20.7078 16.9578 19.4716 15.9058 17.6172 15.9058H14.8953V23.5294H16.3918V21.3497H17.7039L19.1896 23.5294H20.9573L19.2114 21.0135L19.3075 20.9662C20.1923 20.5118 20.7078 19.7073 20.7078 18.6603ZM12.5056 16.619C12.2087 16.4248 11.4319 15.9314 9.99403 15.9314C7.65446 15.9314 6 17.5964 6 19.7356C6 21.8749 7.65446 23.5294 9.96239 23.5294C11.5115 23.5294 12.3861 22.9709 12.7866 22.6653V19.7462H11.4166V21.9381L11.3273 21.9791C10.9909 22.1252 10.5587 22.2227 10.0467 22.2227C8.64511 22.2227 7.50694 21.211 7.50694 19.7356C7.50694 18.2603 8.59242 17.2908 10.0572 17.2908C11.0794 17.2908 11.7012 17.6702 11.8908 17.7966L12.5337 16.6374L12.5056 16.619ZM24.2805 15.9058V23.5294H22.784V15.9058H24.2805ZM29.4551 17.2289V15.9058H26.5741V23.5294H29.5129C31.6247 23.5294 33.1641 22.3752 33.3314 20.5193C33.3479 20.3356 33.3314 19.7815 33.3314 19.7815H31.9353C31.9353 19.7815 31.9205 20.3365 31.896 20.5193C31.753 21.5857 30.7407 22.2064 29.4478 22.2064H28.0706V17.2289H29.4551ZM17.498 17.218H16.3918V20.0375H17.4871C18.4956 20.0375 19.1571 19.4953 19.1571 18.6603C19.1571 17.7494 18.4848 17.218 17.498 17.218Z" fill="white"/>
</svg>
