<svg width="40" height="40" viewBox="0 0 40 40" fill="none" xmlns="http://www.w3.org/2000/svg">
<path fill-rule="evenodd" clip-rule="evenodd" d="M20 40C31.0457 40 40 31.0457 40 20C40 8.9543 31.0457 0 20 0C8.9543 0 0 8.9543 0 20C0 31.0457 8.9543 40 20 40Z" fill="url(#paint0_linear)"/>
<path d="M12.8459 31.3448L11.0178 28.1678C10.9895 28.1099 10.9747 28.0462 10.9747 27.9817C10.9747 27.9172 10.9895 27.8536 11.0178 27.7957L13.0469 24.269C13.083 24.2147 13.131 24.1695 13.1874 24.1369C13.2437 24.1043 13.3067 24.0851 13.3716 24.0809H17.4307C17.4956 24.085 17.5587 24.1041 17.6151 24.1367C17.6714 24.1693 17.7194 24.2146 17.7554 24.269L19.7853 27.7957C19.8141 27.8542 19.829 27.9185 19.829 27.9837C19.829 28.0489 19.8141 28.1133 19.7853 28.1718L17.7554 31.6985C17.7199 31.752 17.6728 31.7967 17.6175 31.8292C17.5622 31.8616 17.5002 31.881 17.4363 31.8857H13.7832C13.5962 31.8733 13.4145 31.818 13.252 31.7243C13.0896 31.6305 12.9507 31.5007 12.8459 31.3448V31.3448ZM26.0284 24.0873L21.9844 17.0604C21.9353 16.9861 21.8697 16.9242 21.7927 16.8797C21.7158 16.8351 21.6296 16.809 21.5409 16.8035H13.4529C13.3642 16.8091 13.2779 16.8352 13.2008 16.8797C13.1238 16.9243 13.058 16.9861 13.0087 17.0604L8.96546 24.0873C8.92572 24.1672 8.90503 24.2553 8.90503 24.3446C8.90503 24.4339 8.92572 24.522 8.96546 24.6019L10.1507 26.6625L12.2246 23.0614C12.2809 22.975 12.3566 22.9031 12.4457 22.8516C12.5348 22.8 12.6348 22.7702 12.7375 22.7645H18.0648C18.1675 22.7703 18.2674 22.8002 18.3565 22.8517C18.4456 22.9033 18.5213 22.9751 18.5777 23.0614L21.2426 27.6924C21.289 27.7846 21.3132 27.8864 21.3132 27.9897C21.3132 28.093 21.289 28.1948 21.2426 28.287L19.1688 31.8841H21.5377C21.6264 31.8786 21.7126 31.8525 21.7895 31.8079C21.8665 31.7634 21.9321 31.7015 21.9812 31.6272L26.0284 24.6019C26.0682 24.522 26.0888 24.4339 26.0888 24.3446C26.0888 24.2553 26.0682 24.1672 26.0284 24.0873V24.0873ZM33.3666 19.4387L27.161 8.65458C27.0559 8.4934 26.9145 8.35925 26.7483 8.26293C26.582 8.1666 26.3956 8.1108 26.2039 8.10001H13.7975C13.6058 8.1108 13.4194 8.1666 13.2531 8.26293C13.0869 8.35925 12.9455 8.4934 12.8404 8.65458L6.63159 19.4387C6.54507 19.6107 6.5 19.8006 6.5 19.9933C6.5 20.1859 6.54507 20.3759 6.63159 20.5478L8.05457 23.0182L12.1783 15.852C12.2477 15.7452 12.3413 15.6563 12.4513 15.5925C12.5613 15.5287 12.6848 15.4917 12.8116 15.4847H22.1727C22.2995 15.4917 22.423 15.5287 22.533 15.5925C22.643 15.6563 22.7366 15.7452 22.806 15.852L27.4889 23.9889C27.5463 24.1025 27.5762 24.228 27.5762 24.3554C27.5762 24.4828 27.5463 24.6083 27.4889 24.7219L23.3691 31.8841H26.2063C26.398 31.8733 26.5844 31.8175 26.7507 31.7212C26.9169 31.6249 27.0583 31.4907 27.1634 31.3295L33.369 20.5454C33.4551 20.3738 33.5 20.1842 33.5 19.9921C33.5 19.7999 33.4551 19.6104 33.369 19.4387H33.3666Z" fill="white"/>
<defs>
<linearGradient id="paint0_linear" x1="10.0005" y1="39.7268" x2="34.1474" y2="3.00119" gradientUnits="userSpaceOnUse">
<stop stop-color="#FFDC00"/>
<stop offset="1" stop-color="#FF00FF"/>
</linearGradient>
</defs>
</svg>
