<svg width="40" height="40" viewBox="0 0 40 40" fill="none" xmlns="http://www.w3.org/2000/svg">
<path fill-rule="evenodd" clip-rule="evenodd" d="M20 40C31.0457 40 40 31.0457 40 20C40 8.9543 31.0457 0 20 0C8.9543 0 0 8.9543 0 20C0 31.0457 8.9543 40 20 40Z" fill="#8834FF"/>
<path d="M9.2 25.9257C9.4292 25.9257 9.6704 25.9377 9.8996 25.9257C10.3352 25.8933 10.772 25.8057 11.198 25.6977C12.0381 25.4683 12.8245 25.0747 13.5116 24.5397C13.7084 24.3873 13.904 24.2241 14.09 24.0489C14.4824 23.6565 14.822 23.2089 15.0944 22.7289C15.3344 22.3029 15.5084 21.8445 15.6404 21.3753C15.6512 21.3429 15.6512 21.2985 15.662 21.2661H13.9484C13.5923 21.2645 13.2374 21.2243 12.89 21.1461C12.8587 21.1334 12.8254 21.1261 12.7916 21.1245C12.7749 21.116 12.7599 21.1047 12.7472 21.0909C12.8456 20.8737 12.9332 20.6661 13.0208 20.4477L13.6868 18.9081C13.7081 18.8346 13.7409 18.7649 13.784 18.7017C13.8316 18.6577 13.8944 18.634 13.9592 18.6357C14.4944 18.6249 15.0176 18.6357 15.5528 18.6357H15.6944C15.6728 18.5481 15.6728 18.4833 15.6512 18.4077C15.4579 17.6693 15.1161 16.978 14.6468 16.3761C14.416 16.0822 14.1641 15.8055 13.8932 15.5481C13.5543 15.2293 13.177 14.954 12.77 14.7285C12.3459 14.49 11.8998 14.2927 11.438 14.1393C11.0533 14.0188 10.6591 13.9313 10.2596 13.8777C9.9428 13.8441 9.6368 13.8333 9.3212 13.8117C9.2444 13.8117 9.1676 13.8009 9.092 13.7901C9.0603 13.7806 9.0355 13.7558 9.026 13.7241C8.9168 13.4733 8.8076 13.2333 8.6984 12.9825C8.5664 12.6873 8.4464 12.3933 8.3168 12.1089C8.2184 11.8689 8.1092 11.6409 8 11.3889L8.2292 11.3229C8.7092 11.2581 9.2012 11.2365 9.692 11.2581C10.4734 11.2843 11.2494 11.3978 12.0056 11.5965C12.4856 11.7273 12.9656 11.8905 13.424 12.0873C14.0684 12.3597 14.6792 12.6993 15.248 13.1025C15.4976 13.2873 15.7484 13.4841 15.9896 13.6809C16.0976 13.7685 16.2068 13.8669 16.316 13.9641C16.862 14.4885 17.342 15.0885 17.7464 15.7329C18.1496 16.3761 18.4448 17.0745 18.6416 17.8065C18.7064 18.0465 18.7496 18.2985 18.8048 18.5385C18.8177 18.5762 18.8526 18.602 18.8924 18.6033H21.1076C21.152 18.4281 21.1844 18.2541 21.2168 18.0789C21.3488 17.5665 21.5228 17.0745 21.7412 16.6053C21.9152 16.2129 22.1336 15.8313 22.3844 15.4821C22.6136 15.1653 22.8536 14.8485 23.1164 14.5545C23.3094 14.3264 23.517 14.1112 23.738 13.9101C24.197 13.4934 24.694 13.1206 25.2224 12.7965C25.7684 12.4581 26.336 12.1845 26.936 11.9673C27.3512 11.8257 27.7652 11.6949 28.1804 11.5857C28.496 11.5089 28.802 11.4537 29.1296 11.4105C29.3912 11.3673 29.6648 11.3457 29.9372 11.3229C30.1124 11.3121 30.2756 11.3013 30.4508 11.3013C30.7124 11.3013 30.9632 11.2905 31.214 11.3013C31.466 11.3133 31.7168 11.3673 31.9676 11.4105C31.9784 11.4105 31.9784 11.4225 32 11.4429L31.814 11.8797C31.6184 12.3381 31.4216 12.7965 31.214 13.2657C31.1347 13.4304 31.0619 13.5981 30.9956 13.7685C30.9524 13.8765 30.8432 13.8333 30.7676 13.8549C30.7016 13.8669 30.6476 13.8669 30.5816 13.8549C29.466 13.8658 28.3666 14.1231 27.362 14.6085C26.8921 14.838 26.4521 15.1242 26.0516 15.4605C25.8884 15.6021 25.7036 15.7437 25.55 15.9069C25.1564 16.3005 24.818 16.7469 24.5456 17.2389C24.3267 17.6449 24.1513 18.0728 24.0224 18.5157C24.0104 18.5481 24.0104 18.5925 23.9996 18.6249H24.1196C24.6872 18.6249 25.2656 18.6129 25.8332 18.6249C26.1716 18.6249 26.51 18.6789 26.8376 18.7881C26.8496 18.8001 26.8592 18.8001 26.87 18.8109L26.5544 19.5309C26.336 20.0433 26.1068 20.5569 25.8884 21.0801C25.8224 21.2337 25.7792 21.2661 25.604 21.2661H24.0104C24.0548 21.4185 24.0872 21.5493 24.1304 21.6813C24.284 22.1397 24.5024 22.5753 24.7748 22.9797C24.9392 23.2197 25.1132 23.4381 25.2992 23.6565C25.4072 23.7873 25.5272 23.9181 25.6472 24.0273C26.0516 24.4197 26.5112 24.7593 27.0008 25.0317C27.416 25.2717 27.8636 25.4685 28.322 25.6197C28.7588 25.7733 29.2172 25.8717 29.6864 25.9149L30.548 25.9809C30.6572 25.9929 30.7664 25.9929 30.8756 26.0025C30.8972 26.0145 30.92 26.0241 30.9308 26.0469C31.1156 26.4825 31.3016 26.9193 31.4984 27.3561L31.9664 28.4253C31.814 28.4589 31.6724 28.4913 31.52 28.5021C31.148 28.5237 30.7664 28.5453 30.3956 28.5453C30.0572 28.5453 29.7188 28.5129 29.3912 28.4697C28.9373 28.4056 28.4858 28.3256 28.0376 28.2297C27.5003 28.0978 26.9745 27.9224 26.4656 27.7053C25.8595 27.4458 25.282 27.1241 24.7424 26.7453C24.4612 26.5368 24.1847 26.3219 23.9132 26.1009C23.7353 25.956 23.5673 25.7992 23.4104 25.6317C22.721 24.9305 22.1533 24.1194 21.7304 23.2317C21.4831 22.7059 21.2998 22.1524 21.1844 21.5829C21.1628 21.5277 21.152 21.4629 21.14 21.4077C21.14 21.2997 21.086 21.2769 20.9876 21.2769H18.7832C18.6735 21.8695 18.4976 22.4479 18.2588 23.0013C18.0652 23.471 17.8201 23.9177 17.528 24.3333C17.2996 24.6545 17.0553 24.964 16.796 25.2609C16.6093 25.4874 16.4051 25.6989 16.1852 25.8933C15.8468 26.1885 15.4868 26.4609 15.1268 26.7333C14.6938 27.0409 14.2335 27.308 13.7516 27.5313C12.8545 27.9579 11.8974 28.2448 10.9136 28.3821C10.5752 28.4361 10.2368 28.4697 9.8996 28.5021C9.70695 28.513 9.51385 28.513 9.3212 28.5021C9.0368 28.5021 8.7536 28.4901 8.4812 28.4805C8.3816 28.4685 8.2832 28.4589 8.186 28.4361C8.1308 28.4253 8.1092 28.4037 8.1416 28.3389C8.36 27.8361 8.5892 27.3345 8.8076 26.8317C8.9396 26.5269 9.0596 26.2437 9.2 25.9269V25.9257Z" fill="white"/>
</svg>
