<svg width="40" height="40" viewBox="0 0 40 40" fill="none" xmlns="http://www.w3.org/2000/svg">
<path fill-rule="evenodd" clip-rule="evenodd" d="M20 40C31.0457 40 40 31.0457 40 20C40 8.9543 31.0457 0 20 0C8.9543 0 0 8.9543 0 20C0 31.0457 8.9543 40 20 40Z" fill="#005FFF"/>
<path fill-rule="evenodd" clip-rule="evenodd" d="M20 5.5C20.2386 5.5 20.4324 5.68982 20.4324 5.92314C20.4324 6.15645 20.2386 6.34627 20 6.34627C19.7614 6.34627 19.5676 6.15645 19.5676 5.92445C19.5676 5.68982 19.7614 5.5 20 5.5ZM19.9122 9.61273C19.8305 9.53334 19.7839 9.42472 19.7825 9.31086C19.7825 9.07623 19.9776 8.88641 20.2175 8.88641C20.4548 8.88641 20.6499 9.07623 20.6499 9.31086C20.6462 9.54696 20.4523 9.73562 20.2162 9.73268C20.1036 9.73576 19.9938 9.69212 19.9122 9.61273ZM17.5602 11.6073C17.6371 11.4253 17.6375 11.22 17.5614 11.0377C17.3948 10.6583 16.9564 10.4806 16.5714 10.637C16.3877 10.7095 16.2408 10.8529 16.1639 11.0349C16.0871 11.2169 16.0867 11.4222 16.1628 11.6045C16.3293 11.9846 16.7687 12.1625 17.1527 12.0052C17.3365 11.9327 17.4833 11.7892 17.5602 11.6073ZM19.9684 14.1789C19.7493 14.1814 19.5382 14.0966 19.3817 13.9433C19.2252 13.79 19.136 13.5807 19.134 13.3616V12.8779C19.134 12.427 19.5083 12.0619 19.9684 12.0619H20.464C20.9254 12.0619 21.2984 12.427 21.2984 12.8792V13.363C21.296 13.5818 21.2067 13.7907 21.0502 13.9438C20.8937 14.0968 20.6829 14.1814 20.464 14.1789H19.9684ZM23.4615 16.0837V14.784C23.4615 14.3331 23.8359 13.9667 24.2973 13.9667H24.7929C25.2543 13.9667 25.6273 14.3331 25.6273 14.784V15.2677C25.6273 15.7185 25.253 16.085 24.7929 16.085L23.4615 16.0837ZM16.9695 22.6456V16.2959H18.4525C18.7728 16.2959 19.0325 16.5516 19.0325 16.8667V17.415C19.0325 18.0109 19.5492 18.5223 20.1516 18.5223C20.754 18.5223 21.2114 18.0109 21.2114 17.415V16.8878C21.2114 16.5609 21.479 16.2946 21.8112 16.2946H23.4629V17.9001C23.4629 18.227 23.194 18.4933 22.8631 18.4933H22.3029C21.7045 18.4904 21.2165 18.9719 21.2114 19.5703C21.2114 20.1648 21.7703 20.6472 22.3727 20.6472H22.867C23.1966 20.6472 23.4629 20.9109 23.4629 21.2351V22.6456H24.7929C25.2543 22.6456 25.6273 23.012 25.6273 23.4629V23.9466C25.6273 24.3975 25.253 24.7639 24.7929 24.7639H24.2973C24.0782 24.7664 23.8671 24.6816 23.7106 24.5283C23.5541 24.375 23.465 24.1657 23.4629 23.9466V22.8578H21.8059C21.4764 22.8578 21.2114 22.5942 21.2114 22.2699V21.7268C21.2 21.1203 20.7081 20.6331 20.1015 20.6275C19.4991 20.6275 19.0311 21.1547 19.0311 21.7809V22.2739C19.0311 22.5968 18.7675 22.8578 18.4406 22.8578H16.9695V23.9466C16.9695 24.3975 16.5965 24.7639 16.1351 24.7639H15.6408C15.4217 24.7664 15.2106 24.6816 15.0541 24.5283C14.8976 24.375 14.8084 24.1657 14.8064 23.9466V23.4629C14.8064 23.012 15.1794 22.6456 15.6408 22.6456H16.9695ZM15.6408 16.0837H16.9695V14.784C16.9695 14.3331 16.5965 13.9667 16.1351 13.9667H15.6408C15.1794 13.9667 14.8064 14.3331 14.8064 14.784V15.2677C14.8088 15.4866 14.8981 15.6955 15.0546 15.8485C15.211 16.0016 15.4219 16.0861 15.6408 16.0837ZM19.3817 26.8562C19.5382 27.0095 19.7493 27.0943 19.9684 27.0918H20.464C20.6829 27.0943 20.8937 27.0097 21.0502 26.8567C21.2067 26.7036 21.296 26.4947 21.2984 26.2759V25.7908C21.2984 25.34 20.9254 24.9735 20.464 24.9735H19.9684C19.5083 24.9735 19.134 25.34 19.134 25.7908V26.2745C19.136 26.4936 19.2252 26.7029 19.3817 26.8562ZM26.4617 20.5286C26.2429 20.5311 26.032 20.4465 25.8755 20.2934C25.719 20.1404 25.6298 19.9315 25.6273 19.7126V19.2289C25.6273 18.778 26.0004 18.4116 26.4617 18.4116H26.956C27.4174 18.4116 27.7905 18.778 27.7905 19.2289V19.7126C27.7905 20.1635 27.4174 20.5299 26.956 20.5299L26.4617 20.5286ZM12.6739 20.2934C12.8304 20.4465 13.0413 20.5311 13.2601 20.5286L13.7545 20.5299C14.2158 20.5299 14.5902 20.1635 14.5902 19.7126V19.2289C14.5902 18.778 14.2158 18.4116 13.7545 18.4116H13.2601C12.7988 18.4116 12.4257 18.778 12.4257 19.2289V19.7126C12.4282 19.9315 12.5174 20.1404 12.6739 20.2934ZM24.4858 27.5492C24.5623 27.7315 24.562 27.9369 24.4851 28.119C24.4082 28.3011 24.2611 28.4445 24.0771 28.5168C23.6934 28.6732 23.255 28.4954 23.0885 28.116C23.012 27.9336 23.0122 27.728 23.0891 27.5457C23.1659 27.3634 23.313 27.2197 23.4971 27.1472C23.8812 26.991 24.3197 27.1693 24.4858 27.5492ZM27.8495 15.9032C27.9267 15.7208 28.0741 15.5773 28.2584 15.505C28.6421 15.3486 29.0805 15.5263 29.247 15.9057C29.3236 16.0882 29.3234 16.2938 29.2465 16.4761C29.1696 16.6584 29.0225 16.8021 28.8384 16.8746C28.4547 17.031 28.0163 16.8533 27.8498 16.4739C27.772 16.2912 27.7724 16.0855 27.8495 15.9032ZM11.594 22.2791C11.41 22.3514 11.2628 22.4947 11.1857 22.6768C11.1086 22.8588 11.108 23.0642 11.184 23.2467C11.3506 23.6275 11.7909 23.8055 12.1753 23.6474C12.359 23.5749 12.5059 23.4314 12.5827 23.2494C12.6596 23.0674 12.66 22.8622 12.5839 22.6799C12.4179 22.2992 11.978 22.1211 11.594 22.2791ZM11.184 15.9057C11.3505 15.5256 11.7899 15.3478 12.174 15.505C12.3583 15.5773 12.5057 15.7208 12.5828 15.9032C12.66 16.0855 12.6604 16.2912 12.5839 16.4739C12.4174 16.8533 11.979 17.031 11.5953 16.8746C11.4107 16.8026 11.263 16.6591 11.1856 16.4768C11.1082 16.2944 11.1076 16.0885 11.184 15.9057ZM22.8723 11.0377C22.7962 11.22 22.7966 11.4253 22.8735 11.6073C22.9504 11.7892 23.0972 11.9327 23.281 12.0052C23.6646 12.1616 24.1031 11.9839 24.2696 11.6045C24.3457 11.4222 24.3453 11.2169 24.2684 11.0349C24.1916 10.8529 24.0447 10.7095 23.861 10.637C23.4773 10.4806 23.0388 10.6583 22.8723 11.0377ZM28.8371 22.2791C29.0213 22.3512 29.1688 22.4944 29.2462 22.6764C29.3235 22.8585 29.3243 23.064 29.2484 23.2467C29.0818 23.6261 28.6434 23.8038 28.2597 23.6474C28.0755 23.5754 27.928 23.4322 27.8507 23.2501C27.7733 23.0681 27.7725 22.8625 27.8485 22.6799C28.0145 22.2999 28.4534 22.122 28.8371 22.2791ZM15.7304 27.7601C15.6539 27.9424 15.6541 28.1478 15.7311 28.3299C15.808 28.512 15.9551 28.6554 16.139 28.7277C16.5227 28.8841 16.9612 28.7064 17.1277 28.327C17.2038 28.1446 17.2034 27.9394 17.1265 27.7574C17.0496 27.5754 16.9028 27.432 16.719 27.3594C16.3354 27.203 15.8969 27.3807 15.7304 27.7601ZM27.8801 26.579C28.0501 26.7451 28.0501 27.014 27.8801 27.1788C27.71 27.3436 27.4385 27.3436 27.2685 27.1788C27.1874 27.1004 27.1417 26.9924 27.1417 26.8796C27.1417 26.7668 27.1874 26.6588 27.2685 26.5804C27.4391 26.4143 27.7095 26.4143 27.8801 26.579ZM13.1639 12.5747C13.3326 12.4099 13.3326 12.1397 13.1639 11.9749C12.9952 11.8101 12.721 11.8101 12.5523 11.9762C12.4712 12.0547 12.4255 12.1627 12.4255 12.2755C12.4255 12.3882 12.4712 12.4962 12.5523 12.5747C12.7229 12.7394 12.9933 12.7394 13.1639 12.5747ZM27.1417 12.2755C27.1417 12.1627 27.1874 12.0547 27.2685 11.9762C27.4385 11.8101 27.7114 11.8101 27.8801 11.9762C28.0488 12.1423 28.0501 12.4086 27.8801 12.5747C27.7095 12.7394 27.4391 12.7394 27.2685 12.5747C27.1874 12.4962 27.1417 12.3882 27.1417 12.2755ZM12.4255 26.8796C12.4255 26.9924 12.4712 27.1004 12.5523 27.1788C12.721 27.3436 12.9952 27.3436 13.1639 27.1788C13.3326 27.014 13.3326 26.7451 13.1639 26.5804C12.9933 26.4156 12.7229 26.4156 12.5523 26.5804C12.4712 26.6588 12.4255 26.7668 12.4255 26.8796ZM30.821 19.047C31.0595 19.047 31.2533 19.2368 31.2533 19.4714C31.2497 19.707 31.0565 19.8954 30.821 19.8932C30.5854 19.8954 30.3922 19.707 30.3886 19.4714C30.3873 19.2368 30.5824 19.047 30.821 19.047ZM10.2613 19.4714C10.2613 19.2368 10.0662 19.047 9.82891 19.047C9.589 19.047 9.39523 19.2368 9.39523 19.4714C9.39884 19.7075 9.59281 19.8962 9.82891 19.8932C10.0645 19.8954 10.2577 19.707 10.2613 19.4714ZM19.7825 29.8442C19.7842 29.9578 19.831 30.0661 19.9126 30.1452C19.9942 30.2243 20.1039 30.2678 20.2162 30.266C20.3298 30.2674 20.4393 30.2236 20.5207 30.1443C20.602 30.0649 20.6485 29.9565 20.6499 29.8429C20.6499 29.6095 20.4548 29.4197 20.2175 29.4197C19.9776 29.4197 19.7825 29.6095 19.7825 29.8442ZM34.0676 19.0483C34.3049 19.0483 34.5 19.2368 34.5 19.4701C34.499 19.5837 34.4528 19.6923 34.3717 19.7719C34.2906 19.8515 34.1813 19.8956 34.0676 19.8945C33.954 19.896 33.8445 19.8522 33.7632 19.7728C33.6818 19.6934 33.6353 19.585 33.634 19.4714C33.634 19.2368 33.829 19.0483 34.0676 19.0483ZM5.82427 19.8945C6.00486 19.8945 6.14986 19.7495 6.14986 19.5755C6.14986 19.4015 6.00355 19.2592 5.82427 19.2592C5.645 19.2592 5.5 19.4015 5.5 19.5769C5.5 19.7522 5.645 19.8945 5.82427 19.8945ZM33.5851 24.5212C33.5199 24.3646 33.3946 24.2407 33.2372 24.1773C32.9088 24.0407 32.5314 24.1911 32.387 24.5161C32.3209 24.672 32.3203 24.848 32.3853 25.0044C32.4502 25.1608 32.5753 25.2845 32.7323 25.3479C33.0607 25.4878 33.4405 25.3373 33.5839 25.0104C33.6499 24.8541 33.6503 24.6778 33.5851 24.5212ZM25.5944 31.5895C25.6378 31.6928 25.6374 31.8094 25.593 31.9124C25.5223 32.0704 25.365 32.1716 25.1919 32.1705C25.0189 32.1693 24.8628 32.066 24.7942 31.9071C24.7503 31.804 24.7503 31.6874 24.7942 31.5842C24.8396 31.4794 24.925 31.3973 25.0315 31.3561C25.1376 31.3147 25.2556 31.3157 25.361 31.3588C25.4668 31.4003 25.5509 31.4839 25.5944 31.5895ZM7.6315 14.345C7.67618 14.2416 7.67665 14.1245 7.63282 14.0207C7.58932 13.9166 7.50627 13.8349 7.40082 13.79C7.29484 13.7469 7.17627 13.7464 7.06995 13.7887C6.96416 13.8297 6.87919 13.9114 6.834 14.0155C6.78932 14.1188 6.78885 14.236 6.83268 14.3397C6.90129 14.4986 7.05731 14.6019 7.23037 14.6031C7.40343 14.6042 7.5608 14.503 7.6315 14.345ZM6.90255 24.383C7.03369 24.4355 7.13812 24.5386 7.1922 24.6691C7.24629 24.7996 7.24546 24.9464 7.18991 25.0763C7.06901 25.347 6.75414 25.4717 6.48073 25.3571C6.34958 25.3046 6.24516 25.2014 6.19107 25.0709C6.13698 24.9404 6.13781 24.7936 6.19336 24.6637C6.31376 24.3939 6.62877 24.2686 6.90255 24.383ZM24.8035 6.457C24.748 6.58705 24.7473 6.73399 24.8017 6.86452C24.856 6.99505 24.9608 7.09811 25.0921 7.15036C25.3655 7.2639 25.6796 7.13874 25.8 6.86827C25.8556 6.73839 25.8564 6.59159 25.8023 6.46109C25.7482 6.33059 25.6438 6.22742 25.5126 6.17491C25.2389 6.06051 24.9239 6.18581 24.8035 6.457ZM33.4362 13.5673C33.5554 13.6164 33.6329 13.733 33.632 13.8619C33.6312 13.9908 33.5521 14.1063 33.4323 14.1539C33.2674 14.2199 33.0799 14.1428 33.0091 13.9799C32.9761 13.9018 32.9765 13.8137 33.0105 13.736C33.0443 13.6581 33.1079 13.5968 33.1871 13.566C33.2671 13.5339 33.3565 13.5344 33.4362 13.5673ZM14.8054 6.87819C14.8062 6.74859 14.7277 6.63167 14.6073 6.58355C14.4435 6.51447 14.2546 6.58958 14.1829 6.75227C14.1498 6.83034 14.1495 6.9184 14.182 6.99671C14.2144 7.07502 14.277 7.13702 14.3555 7.16882C14.4348 7.20148 14.5237 7.20196 14.6034 7.17014C14.7243 7.12364 14.8045 7.00779 14.8054 6.87819ZM14.3911 31.774C14.4696 31.8055 14.5321 31.8673 14.5646 31.9454C14.5971 32.0235 14.5968 32.1113 14.5638 32.1892C14.4916 32.3514 14.3032 32.4263 14.1394 32.358C14.0609 32.3264 13.9983 32.2647 13.9656 32.1867C13.9329 32.1087 13.9328 32.0208 13.9654 31.9427C14.0175 31.8235 14.1357 31.7467 14.2659 31.7476C14.3081 31.7476 14.3503 31.7569 14.3911 31.774ZM28.8725 29.2075C28.8725 29.3203 28.9182 29.4283 28.9992 29.5067C29.17 29.6723 29.4414 29.6723 29.6122 29.508C29.6936 29.4295 29.7396 29.3213 29.7396 29.2082C29.7396 29.095 29.6936 28.9868 29.6122 28.9083C29.5305 28.8284 29.4206 28.7839 29.3064 28.7844C29.1917 28.7836 29.0813 28.8281 28.9992 28.9083C28.9182 28.9867 28.8725 29.0947 28.8725 29.2075ZM10.2876 9.49805C10.4088 9.61593 10.4772 9.77781 10.4772 9.94689C10.4772 10.116 10.4088 10.2778 10.2876 10.3957C10.0327 10.6465 9.6238 10.6465 9.36886 10.3957C9.24767 10.2778 9.17929 10.116 9.17929 9.94689C9.17929 9.77781 9.24767 9.61593 9.36886 9.49805C9.62494 9.2501 10.0316 9.2501 10.2876 9.49805ZM30.3865 9.84077C30.3865 9.75646 30.3526 9.67569 30.2924 9.61668C30.1651 9.49139 29.9609 9.49139 29.8336 9.61668C29.7727 9.67532 29.7383 9.75623 29.7383 9.84077C29.7383 9.92532 29.7727 10.0062 29.8336 10.0649C29.9615 10.1888 30.1645 10.1888 30.2924 10.0649C30.3526 10.0059 30.3865 9.92509 30.3865 9.84077ZM9.94886 28.878C10.0094 28.9368 10.0436 29.0176 10.0436 29.102C10.0436 29.1865 10.0094 29.2673 9.94886 29.3261C9.82105 29.45 9.61795 29.45 9.49014 29.3261C9.42958 29.2673 9.3954 29.1865 9.3954 29.102C9.3954 29.0176 9.42958 28.9368 9.49014 28.878C9.61738 28.7527 9.82162 28.7527 9.94886 28.878ZM19.5676 33.9714C19.5713 34.2665 19.813 34.5029 20.1081 34.5C20.4032 34.5029 20.6449 34.2665 20.6485 33.9714C20.6485 33.6788 20.4073 33.4415 20.1081 33.4415C19.8089 33.4415 19.5676 33.6788 19.5676 33.9714Z" fill="white"/>
</svg>
