<svg width="40" height="40" viewBox="0 0 40 40" fill="none" xmlns="http://www.w3.org/2000/svg">
<path fill-rule="evenodd" clip-rule="evenodd" d="M20 40C31.0457 40 40 31.0457 40 20C40 8.9543 31.0457 0 20 0C8.9543 0 0 8.9543 0 20C0 31.0457 8.9543 40 20 40Z" fill="#31CB9E"/>
<path fill-rule="evenodd" clip-rule="evenodd" d="M19.1013 5.05837L10.583 11.5678C10.2133 11.8487 9.99734 12.2872 10 12.7516V26.5504C10 27.0108 10.2132 27.4546 10.583 27.7342L19.1009 34.2355C19.6323 34.6384 20.3669 34.6384 20.8984 34.2355L29.4171 27.7261C29.7867 27.4452 30.0026 27.0069 30.0001 26.5427V12.7431C30.0008 12.2793 29.7853 11.8417 29.4171 11.5597L20.8992 5.05837C20.3706 4.64721 19.6304 4.64721 19.1018 5.05837H19.1013ZM17.5256 20.7563L28.4737 27.044L20.2256 33.3397L17.5256 20.7567V20.7563ZM28.4737 12.2499L20.2341 5.95454L17.5256 18.5376L28.4737 12.2499ZM17.8375 19.6469L28.8843 13.2937V25.9916L17.8375 19.6469ZM18.9618 6.57071L11.1162 12.5622V26.7316L18.9618 32.7231L16.1554 19.6474L18.9618 6.57071Z" fill="white"/>
</svg>
