<svg width="40" height="40" viewBox="0 0 40 40" fill="none" xmlns="http://www.w3.org/2000/svg">
<path fill-rule="evenodd" clip-rule="evenodd" d="M20 40C31.0457 40 40 31.0457 40 20C40 8.9543 31.0457 0 20 0C8.9543 0 0 8.9543 0 20C0 31.0457 8.9543 40 20 40Z" fill="#1A56F0"/>
<path fill-rule="evenodd" clip-rule="evenodd" d="M17.5661 7.89947L20 6.5L22.4339 7.89947L29.0661 11.7328L31.5 13.1323V26.3968L29.0661 27.7963L22.4947 31.6296L20.0608 33.0291L17.627 31.6296L10.9339 27.7963L8.5 26.3968V13.1323L10.9339 11.7328L17.5661 7.89947ZM13.3677 15.9312V23.5979L20 27.4312L26.6323 23.5979V15.9312L20 12.0979L13.3677 15.9312Z" fill="white"/>
</svg>
