<svg width="40" height="40" viewBox="0 0 40 40" fill="none" xmlns="http://www.w3.org/2000/svg">
<path fill-rule="evenodd" clip-rule="evenodd" d="M20 40C31.0457 40 40 31.0457 40 20C40 8.9543 31.0457 0 20 0C8.9543 0 0 8.9543 0 20C0 31.0457 8.9543 40 20 40Z" fill="#4BC0C8"/>
<path fill-rule="evenodd" clip-rule="evenodd" d="M27.9352 18.8076L13.5263 8.7L9.38609 11.6107C8.20448 12.4398 7.50104 13.7927 7.50104 15.2362C7.50104 16.6797 8.20448 18.0327 9.38609 18.8618L10.6881 19.7754L9.38505 20.6869C8.20343 21.516 7.5 22.8689 7.5 24.3124C7.5 25.7559 8.20343 27.1089 9.38505 27.938L13.5117 30.8362L18.6187 27.2601L17.2484 26.2944L13.5086 28.9079L10.2861 26.648C9.52457 26.1155 9.07095 25.2448 9.07095 24.3156L9.07784 24.1174C9.13732 23.2637 9.57897 22.4776 10.2861 21.9832L12.0636 20.7411L26.4726 30.8497L30.615 27.938C31.7966 27.1089 32.5 25.7559 32.5 24.3124C32.5 22.8689 31.7966 21.516 30.615 20.6869L29.3056 19.7691L30.6118 18.8576C31.7934 18.0285 32.4969 16.6756 32.4969 15.2321C32.4969 13.7886 31.7934 12.4356 30.6118 11.6065L30.6202 11.6169H30.6191L26.4893 8.72085L21.3792 12.2969L22.7496 13.2616L26.4831 10.6491L29.7056 12.9091C30.4671 13.4415 30.9207 14.3122 30.9207 15.2415L30.9138 15.4396C30.8543 16.2933 30.4127 17.0794 29.7056 17.5739L27.9352 18.8076ZM10.2965 12.8997L13.5222 10.6429L26.5482 19.7754L21.3625 23.3952L22.7339 24.3609L27.9196 20.7369L29.7024 21.9863C30.464 22.5188 30.9176 23.3895 30.9176 24.3187C30.9176 25.2479 30.464 26.1186 29.7024 26.6511L26.4758 28.9079L13.4486 19.7743L18.6291 16.1608L17.2525 15.193L12.072 18.8097L10.2965 17.5645C9.535 17.032 9.08137 16.1613 9.08137 15.2321C9.08137 14.3029 9.535 13.4321 10.2965 12.8997Z" fill="white"/>
</svg>
