<svg width="40" height="40" viewBox="0 0 40 40" fill="none" xmlns="http://www.w3.org/2000/svg">
<path fill-rule="evenodd" clip-rule="evenodd" d="M20 40C31.0457 40 40 31.0457 40 20C40 8.9543 31.0457 0 20 0C8.9543 0 0 8.9543 0 20C0 31.0457 8.9543 40 20 40Z" fill="#03EB88"/>
<path fill-rule="evenodd" clip-rule="evenodd" d="M11.5 26.3149V30H15.1851V26.3149H11.5ZM11.5 17.6827V21.3678H15.1851V17.6827H11.5ZM27.7548 17.6827V21.3678H31.4399V17.6827H27.7548ZM11.5 12.6851V9H15.1851L15.1851 12.6851H11.5ZM19.6274 17.0264V13.3413H23.3125V17.0264H19.6274ZM19.6274 22.024V25.7091H23.3125V22.024H19.6274Z" fill="white"/>
</svg>
