<svg width="40" height="40" viewBox="0 0 40 40" fill="none" xmlns="http://www.w3.org/2000/svg">
<path fill-rule="evenodd" clip-rule="evenodd" d="M20 40C31.0457 40 40 31.0457 40 20C40 8.9543 31.0457 0 20 0C8.9543 0 0 8.9543 0 20C0 31.0457 8.9543 40 20 40Z" fill="url(#paint0_linear)"/>
<mask id="mask0" mask-type="alpha" maskUnits="userSpaceOnUse" x="0" y="0" width="40" height="40">
<path fill-rule="evenodd" clip-rule="evenodd" d="M20 40C31.0457 40 40 31.0457 40 20C40 8.9543 31.0457 0 20 0C8.9543 0 0 8.9543 0 20C0 31.0457 8.9543 40 20 40Z" fill="white"/>
</mask>
<g mask="url(#mask0)">
<path d="M14.17 13L12.56 28H26.67L14.17 13Z" fill="url(#paint1_linear)"/>
<path d="M1.66998 28H14.17V13L1.66998 28Z" fill="white"/>
<path d="M2 32C3.35375 33.51 4.95687 34.86 6.75 36H35.25C37.0431 34.86 38.6463 33.51 40 32H2Z" fill="#FC9965"/>
<path d="M5 36C9.31417 39.1375 14.6875 41 20.5 41C26.3125 41 31.6858 39.1375 36 36H5Z" fill="#FF2D55"/>
<path d="M26.83 21L25.2682 32H36L26.83 21Z" fill="url(#paint2_linear)"/>
<path d="M25.8289 28H-2.15997C-1.47026 29.43 -0.591439 30.77 0.432001 32H25.84V28H25.8289Z" fill="#FFBC5B"/>
<path d="M17.67 32H26.83V21L17.67 32Z" fill="white"/>
<path d="M26.83 18C29.5914 18 31.83 15.7614 31.83 13C31.83 10.2386 29.5914 8 26.83 8C24.0686 8 21.83 10.2386 21.83 13C21.83 15.7614 24.0686 18 26.83 18Z" fill="#FFC95B"/>
<path d="M14.17 10C15.5507 10 16.67 8.88071 16.67 7.5C16.67 6.11929 15.5507 5 14.17 5C12.7893 5 11.67 6.11929 11.67 7.5C11.67 8.88071 12.7893 10 14.17 10Z" fill="#FFC95B"/>
</g>
<defs>
<linearGradient id="paint0_linear" x1="20" y1="-8.284" x2="-8.284" y2="20" gradientUnits="userSpaceOnUse">
<stop stop-color="#FF2D55"/>
<stop offset="1" stop-color="#FFBC5B"/>
</linearGradient>
<linearGradient id="paint1_linear" x1="12.5552" y1="13" x2="12.5552" y2="28" gradientUnits="userSpaceOnUse">
<stop stop-color="#A524B3"/>
<stop offset="1" stop-color="#FF2D55"/>
</linearGradient>
<linearGradient id="paint2_linear" x1="25.2645" y1="21" x2="25.2645" y2="32" gradientUnits="userSpaceOnUse">
<stop stop-color="#A524B3"/>
<stop offset="1" stop-color="#FF2D55"/>
</linearGradient>
</defs>
</svg>
