<svg width="40" height="40" viewBox="0 0 40 40" fill="none" xmlns="http://www.w3.org/2000/svg">
<path fill-rule="evenodd" clip-rule="evenodd" d="M20 40C31.0457 40 40 31.0457 40 20C40 8.9543 31.0457 0 20 0C8.9543 0 0 8.9543 0 20C0 31.0457 8.9543 40 20 40Z" fill="#CFE7FF"/>
<path d="M17.313 18.129L19.9981 24.0839L23.9945 21.7801L23.9975 17.1678L17.313 18.129Z" fill="#2BBDF7"/>
<path d="M29.1584 13.7104L26.664 12.7709L23.9981 12.5555V26.8851L27.9975 29.19L31.1542 22.7299L29.1632 16.4833L29.1584 13.7104Z" fill="#2891F9"/>
<path d="M28.9244 12.5567L27.9981 14.8611L27.9969 29.1888L31.9969 26.8845V12.5567H28.9244Z" fill="#2BBDF7"/>
<path d="M27.9975 10.2506L23.9975 12.5567L27.9975 14.8623L31.9974 12.5567L27.9975 10.2506Z" fill="#2891F9"/>
<path d="M27.9975 10.2506L23.9975 12.5567L27.9975 14.8623L31.9974 12.5567L27.9975 10.2506Z" fill="#2B6DEF"/>
<path d="M16.0006 14.9946L8.00122 12.5549V26.8827L12 29.1882L13.1428 21.2593L16.0006 21.7783L20.0005 24.0809V19.471L16.0006 14.9946Z" fill="#2891F9"/>
<path d="M12.0012 10.25L8 12.5555L19.9975 19.474L21.8104 18.4292L23.9969 17.1679L12.0012 10.25Z" fill="#2891F9"/>
<path d="M12.0012 10.25L8 12.5555L19.9975 19.474L21.8104 18.4292L23.9969 17.1679L12.0012 10.25Z" fill="#2B6DEF"/>
<path d="M12.0012 19.4716H12.0005V29.1882L16.0005 26.8833V21.7772L12.0012 19.4716Z" fill="#2BBDF7"/>
</svg>
