<svg width="40" height="40" viewBox="0 0 40 40" fill="none" xmlns="http://www.w3.org/2000/svg">
<path fill-rule="evenodd" clip-rule="evenodd" d="M20 40C31.0457 40 40 31.0457 40 20C40 8.9543 31.0457 0 20 0C8.9543 0 0 8.9543 0 20C0 31.0457 8.9543 40 20 40Z" fill="#1AAB9B"/>
<path d="M18.5778 19.9518L9.31779 12.9872C8.56929 12.4169 7.5 12.9515 7.5 13.8925V25.5834H9.44611V15.5178L17.0808 21.2635V25.5834H19.0269V20.8571C19.0341 20.5007 18.863 20.1657 18.5778 19.9518ZM30.6893 12.98L21.4293 19.9518C21.1441 20.1657 20.973 20.5007 20.973 20.8571V25.5834H22.9191V21.2635L30.5539 15.5178V25.5834H32.5V13.8925C32.5071 12.9515 31.4378 12.4169 30.6893 12.98Z" fill="white"/>
</svg>
