<svg width="40" height="40" viewBox="0 0 40 40" fill="none" xmlns="http://www.w3.org/2000/svg">
<path fill-rule="evenodd" clip-rule="evenodd" d="M20 40C31.0457 40 40 31.0457 40 20C40 8.9543 31.0457 0 20 0C8.9543 0 0 8.9543 0 20C0 31.0457 8.9543 40 20 40Z" fill="#30BD9F"/>
<path fill-rule="evenodd" clip-rule="evenodd" d="M22.964 18.6876L30.9369 13.3945L30.9327 26.2184C30.9327 26.65 31.2826 26.9999 31.7142 26.9999C32.1458 26.9999 32.4957 26.65 32.4957 26.2184L32.5 13.2619C32.4999 12.7121 32.1976 12.207 31.7132 11.9472C31.2288 11.6874 30.6408 11.7149 30.1829 12.0189L22.0996 17.3853C21.4849 17.7933 21.1152 18.4821 21.1151 19.2199L21.1137 26.2184C21.1137 26.65 21.4636 26.9999 21.8952 26.9999C22.3269 26.9999 22.6768 26.65 22.6768 26.2184L22.6782 19.2201C22.6782 19.006 22.7855 18.806 22.964 18.6876ZM17.0359 18.6875C17.214 18.8058 17.3211 19.0058 17.3211 19.22L17.3197 26.2184C17.3197 26.65 17.6696 26.9999 18.1012 26.9999C18.5328 26.9999 18.8828 26.65 18.8828 26.2184L18.8842 19.2201C18.8843 18.4825 18.5151 17.7938 17.9008 17.3855L9.81719 12.019C9.35916 11.7149 8.77116 11.6874 8.28678 11.9472C7.8024 12.207 7.5001 12.7121 7.5 13.2618L7.50071 26.2184C7.50071 26.65 7.85062 26.9999 8.28225 26.9999C8.71388 26.9999 9.06379 26.65 9.06379 26.2184L9.06308 13.3945L17.0359 18.6875Z" fill="white"/>
</svg>
