<svg width="40" height="40" viewBox="0 0 40 40" fill="none" xmlns="http://www.w3.org/2000/svg">
<path fill-rule="evenodd" clip-rule="evenodd" d="M20 40C31.0457 40 40 31.0457 40 20C40 8.9543 31.0457 0 20 0C8.9543 0 0 8.9543 0 20C0 31.0457 8.9543 40 20 40Z" fill="#00224D"/>
<path fill-rule="evenodd" clip-rule="evenodd" d="M17.3737 28.77L10.7838 24.905L12.4838 23.9237L12.2613 23.5362L10.5838 24.505V14.6912L19.1075 19.7437V34.1938L20 34.75L20.8912 34.1938V19.7437L29.4163 14.6912V24.5063L27.7375 23.5362L27.515 23.9225L29.215 24.905L22.6263 28.7687V30.9312L31.25 25.8563V12.6188L20 6L8.75 12.6188V25.8563L17.3737 30.9312V28.77ZM11.475 13.1238L19.7525 8.2675V10.2438H20.1987V8.23875L28.525 13.1238L20 18.1775L11.475 13.1238ZM19.7525 11.5075H20.1987V13.5788H19.7525V11.5075ZM20.1987 14.8425H19.7525V16.915L19.975 17.015L20.1987 16.9137V14.8425ZM26.7025 22.905L26.702 22.9059L24.9088 21.8687L24.685 22.255L26.48 23.2925L26.702 22.9059L26.7025 22.9062V22.905ZM23.6475 21.625L23.8713 21.2375L22.0763 20.2025L21.8787 20.345L21.8538 20.5875L23.6475 21.625ZM13.2962 22.905L15.09 21.8687L15.3137 22.2563L13.52 23.2913L13.2962 22.905ZM17.9225 20.2025L16.1287 21.2375L16.3512 21.6238L18.145 20.5887L18.1225 20.345L17.9225 20.2025Z" fill="white"/>
</svg>
