<svg width="40" height="40" viewBox="0 0 40 40" fill="none" xmlns="http://www.w3.org/2000/svg">
<path fill-rule="evenodd" clip-rule="evenodd" d="M20 40C31.0457 40 40 31.0457 40 20C40 8.9543 31.0457 0 20 0C8.9543 0 0 8.9543 0 20C0 31.0457 8.9543 40 20 40Z" fill="#25292E"/>
<path d="M10.25 11.2666C10.323 12.043 10.3716 12.7951 10.3716 13.5705V23.3104H13.9852V16.3164C13.9852 15.4873 13.9852 13.5462 16.2405 13.5462C18.2292 13.5462 18.2535 15.2927 18.2535 16.2384V23.3104H21.8671V17.3838C21.8671 15.5643 21.9157 13.5513 24.0747 13.5513C25.9418 13.5513 26.1354 15.0068 26.1354 16.3164V23.3104H29.747V16.6023C29.747 16.5371 29.7471 16.4704 29.7473 16.4023C29.75 15.3558 29.7536 13.9909 29.1388 12.9887C28.8722 12.5042 27.8778 11.0243 25.4046 11.0243C24.1427 11.0243 22.4884 11.3396 21.4748 13.304C21.2366 12.7232 20.4369 11 17.6231 11C15.1772 11 14.2336 12.3052 13.8462 12.8411L13.8443 12.8438L13.7237 11.2666H10.25Z" fill="white"/>
<path d="M29.75 26.0046H10.25V28.9867H29.75V26.0046Z" fill="white"/>
</svg>
