<svg width="40" height="40" viewBox="0 0 40 40" fill="none" xmlns="http://www.w3.org/2000/svg">
<path fill-rule="evenodd" clip-rule="evenodd" d="M20 40C31.0457 40 40 31.0457 40 20C40 8.9543 31.0457 0 20 0C8.9543 0 0 8.9543 0 20C0 31.0457 8.9543 40 20 40Z" fill="#2891F9"/>
<path d="M20 12.7231L14 16.1831L13 22.4221L14 30.0401L20 26.5751V12.7231Z" fill="#D8EBFD"/>
<path d="M26 9.26308L20 12.7231V26.5801L26 23.1151L27 16.949L26 9.26308Z" fill="#BEDEFD"/>
<path d="M13.25 9.69198C13.7141 9.42403 14.2859 9.42403 14.75 9.69197L26 16.187L28 19.1497L27 24.115L16.289 20.0859L8 12.7231L13.25 9.69198Z" fill="#D8EBFD"/>
<path d="M26 9.26308L31.2493 12.2902C31.7138 12.558 32 13.0534 32 13.5896V26.5801L27.532 25.5773L26 23.1151V9.26308Z" fill="#A9D3FC"/>
<path d="M14 16.188L32 26.5801L26.7492 29.6109C26.2851 29.8787 25.7134 29.8787 25.2493 29.6108L14 23.116L13 20.1179L14 16.188Z" fill="#BEDEFD"/>
<path d="M8 12.7231L14 16.1831V30.0401L8.74985 27.0081C8.28584 26.7401 8 26.245 8 25.7092V12.7231Z" fill="white"/>
</svg>
