<svg width="40" height="40" viewBox="0 0 40 40" fill="none" xmlns="http://www.w3.org/2000/svg">
<path fill-rule="evenodd" clip-rule="evenodd" d="M20 40C31.0457 40 40 31.0457 40 20C40 8.9543 31.0457 0 20 0C8.9543 0 0 8.9543 0 20C0 31.0457 8.9543 40 20 40Z" fill="#25292E"/>
<path fill-rule="evenodd" clip-rule="evenodd" d="M18.5699 5.73686L18.5699 5.73687L18.5699 5.73688L18.5699 5.73689L18.5699 5.73689C18.5493 5.76247 18.5291 5.78744 18.5091 5.81019C18.4807 6.005 18.4867 6.203 18.4928 6.40043L18.4928 6.40049C18.4955 6.48971 18.4982 6.57881 18.4978 6.66746C18.7123 6.66909 18.9267 6.66909 19.1404 6.66909L19.1419 6.48925V6.48918V6.48911V6.48904V6.48897V6.48891V6.48884V6.48877V6.48871V6.48864V6.48858V6.48851V6.48845V6.48839V6.48832V6.48826V6.4882V6.48814V6.48808V6.48802V6.48796V6.4879V6.48785V6.48779V6.48773V6.48768V6.48762V6.48756V6.48751V6.48745V6.4874V6.48735V6.48729V6.48724V6.48719V6.48714V6.48708V6.48703V6.48698V6.48693V6.48688V6.48683V6.48678V6.48673V6.48668V6.48663V6.48658V6.48653V6.48648V6.48643V6.48638V6.48633V6.48628V6.48623V6.48618V6.48613V6.48608V6.48604V6.48599C19.1428 6.36767 19.1437 6.24921 19.1453 6.13117C19.6522 6.13205 20.1594 6.13205 20.6668 6.13117C20.6963 6.48329 20.686 6.83605 20.6756 7.18885V7.18887C20.6704 7.36846 20.6651 7.54806 20.6651 7.72759C20.6741 7.76526 20.6902 7.83036 20.703 7.88182L20.7142 7.92718C20.8737 7.9381 21.0336 7.93502 21.1933 7.93195H21.1933L21.1933 7.93195C21.2394 7.93107 21.2854 7.93018 21.3313 7.92963C21.3288 7.21677 21.3288 6.50396 21.3313 5.79121C21.3019 5.76365 21.2733 5.73479 21.2447 5.70589C21.174 5.63442 21.103 5.56271 21.0179 5.50982C20.5793 5.49828 20.14 5.50008 19.7009 5.50188C19.4487 5.50292 19.1966 5.50395 18.9447 5.50246C18.777 5.48002 18.6679 5.61534 18.5699 5.73686ZM17.4885 6.67645C17.2542 6.67073 17.0208 6.67073 16.7873 6.67973C16.7933 7.0361 16.7893 7.39301 16.7853 7.74991C16.7783 8.3795 16.7713 9.00908 16.8186 9.63566C17.0406 9.63729 17.2632 9.63729 17.4861 9.63238C17.4953 8.70226 17.4922 7.77213 17.4891 6.84132L17.4885 6.67645ZM22.726 7.73904C23.3477 7.73086 23.9684 7.73331 24.5898 7.7374C24.593 7.96513 24.593 8.19205 24.5906 8.41962C23.9689 8.42616 23.3472 8.42861 22.7255 8.41798C22.7232 8.19188 22.7232 7.96432 22.726 7.73904ZM19.6253 8.06982C19.4022 8.06974 19.1793 8.06966 18.9563 8.07475C19.2161 8.54411 19.4802 9.01136 19.7537 9.4732L19.8025 9.47304C20.0165 9.47233 20.2312 9.47162 20.4451 9.46159C20.3215 9.1516 20.1553 8.8631 19.989 8.57452C19.8929 8.40771 19.7968 8.24087 19.7089 8.06984L19.6253 8.06982ZM21.517 8.89569C21.7339 8.89078 21.9509 8.8916 22.1688 8.89487C22.4336 9.30551 22.695 9.71832 22.9565 10.1312C23.2783 10.6394 23.6003 11.1477 23.9285 11.652C23.9283 11.7216 23.9282 11.7911 23.9282 11.8607C23.928 12.0692 23.9279 12.2778 23.9236 12.4864C23.8593 12.4748 23.7322 12.4525 23.6687 12.4419C23.3979 12.0382 23.1386 11.6268 22.8795 11.2154C22.6555 10.8599 22.4316 10.5045 22.2002 10.1541C22.1961 10.5795 22.1967 11.0048 22.1973 11.4302C22.198 11.8555 22.1986 12.2809 22.1945 12.7063C21.9684 12.7104 21.7418 12.7104 21.5147 12.7063L21.5139 12.3217C21.5114 11.18 21.5089 10.0378 21.517 8.89569ZM24.907 9.41283C24.676 9.40629 24.4442 9.40629 24.2131 9.4112C24.2121 9.63097 24.2123 9.85019 24.214 10.0689C24.4442 10.073 24.676 10.073 24.907 10.0672C24.9086 9.84932 24.9086 9.63058 24.907 9.41283ZM12.7927 9.62649C12.975 9.62322 13.1574 9.62404 13.3396 9.62568C13.8263 9.59296 14.3122 9.60261 14.7991 9.63058C14.8007 9.84179 14.7999 10.0538 14.7975 10.265C14.496 10.446 14.1995 10.6353 13.903 10.8246L13.9029 10.8246L13.9029 10.8246C13.4915 11.0872 13.0801 11.3498 12.6558 11.5902C12.4884 11.5266 12.3518 11.4083 12.2168 11.2913C12.1781 11.2578 12.1396 11.2244 12.1005 11.1925C12.2906 11.0766 12.479 10.9583 12.6675 10.84L12.6675 10.84L12.6675 10.84L12.6675 10.8399L12.6675 10.8399L12.6675 10.8399L12.6675 10.8399L12.6675 10.8399L12.6675 10.8399L12.6675 10.8399L12.6675 10.8399L12.6675 10.8399L12.6676 10.8399L12.6676 10.8399L12.6676 10.8399L12.6676 10.8399L12.6676 10.8399L12.6676 10.8399L12.6676 10.8399L12.6676 10.8399L12.6676 10.8399L12.6676 10.8399L12.6676 10.8399L12.6676 10.8399L12.6676 10.8399L12.6676 10.8399L12.6676 10.8399L12.6676 10.8399L12.6676 10.8399L12.6676 10.8399L12.6676 10.8399L12.6676 10.8399L12.6676 10.8399L12.6676 10.8399L12.6676 10.8399L12.6676 10.8399L12.6677 10.8399L12.6677 10.8399L12.6677 10.8398L12.6677 10.8398L12.6677 10.8398L12.6677 10.8398L12.6677 10.8398L12.6677 10.8398L12.6677 10.8398L12.6677 10.8398L12.6677 10.8398L12.6677 10.8398L12.6677 10.8398L12.6677 10.8398L12.6677 10.8398L12.6677 10.8398L12.6677 10.8398L12.6677 10.8398C12.9529 10.6607 13.238 10.4817 13.5286 10.3113C13.3394 10.3017 13.1498 10.3005 12.9604 10.2993C12.9053 10.299 12.8502 10.2986 12.7952 10.2981C12.791 10.0737 12.7902 9.84986 12.7927 9.62649ZM19.222 9.87729C18.9992 9.87157 18.7749 9.87075 18.5513 9.87729C18.5466 10.1018 18.5469 10.3262 18.5521 10.5505C18.7757 10.5566 18.9993 10.5563 19.2228 10.5497C19.2278 10.3252 19.2278 10.1018 19.222 9.87729ZM15.7062 11.2043L15.7063 11.2045C15.9149 11.5265 16.1236 11.8485 16.3376 12.1667C16.497 11.9264 16.654 11.6845 16.8109 11.4426C17.0107 11.1348 17.2104 10.827 17.4151 10.5225C17.4151 10.6312 17.4172 10.7402 17.4194 10.8494C17.4245 11.1017 17.4295 11.3547 17.4077 11.6057C17.1874 11.9833 16.9441 12.3471 16.7009 12.7109L16.7008 12.7109L16.7008 12.7109L16.7008 12.711L16.7008 12.711L16.7007 12.7111L16.7007 12.7111L16.7007 12.7112L16.7006 12.7112L16.7006 12.7113L16.7006 12.7113L16.7006 12.7113L16.7005 12.7114L16.7005 12.7114L16.7005 12.7115L16.7004 12.7115L16.7004 12.7116L16.7004 12.7116L16.7004 12.7117L16.7003 12.7117L16.7003 12.7117L16.7003 12.7118L16.7002 12.7118L16.7002 12.7119L16.7002 12.7119L16.7002 12.712L16.7001 12.712L16.7001 12.7121L16.7001 12.7121L16.7 12.7121L16.7 12.7122L16.7 12.7122L16.7 12.7123L16.6999 12.7123L16.6999 12.7124L16.6999 12.7124L16.6998 12.7125L16.6998 12.7125L16.6998 12.7125L16.6998 12.7126L16.6997 12.7126L16.6997 12.7127L16.6997 12.7127L16.6996 12.7128L16.6996 12.7128L16.6996 12.7129L16.6996 12.7129L16.6995 12.7129L16.6995 12.713L16.6995 12.713L16.6994 12.7131L16.6994 12.7131C16.577 12.8962 16.4546 13.0792 16.3351 13.264C16.2135 13.0758 16.0894 12.889 15.9652 12.7022L15.9652 12.7021C15.7307 12.3492 15.4962 11.9963 15.2783 11.6339C15.2511 11.3721 15.2575 11.1082 15.2638 10.8448V10.8448V10.8447V10.8447V10.8447V10.8447V10.8447V10.8447V10.8447V10.8447V10.8447V10.8447V10.8446V10.8446V10.8446V10.8446V10.8446V10.8446V10.8446V10.8446V10.8446V10.8446V10.8445V10.8445V10.8445V10.8445V10.8445V10.8445V10.8445V10.8445V10.8445V10.8445V10.8444V10.8444V10.8444V10.8444V10.8444V10.8444V10.8444V10.8444V10.8444V10.8444V10.8443V10.8443V10.8443V10.8443V10.8443V10.8443V10.8443V10.8443V10.8443V10.8442V10.8442V10.8441V10.8441V10.844V10.844V10.8439V10.8439V10.8439V10.8438V10.8438V10.8437V10.8437V10.8436V10.8436V10.8435V10.8435V10.8434V10.8434V10.8433V10.8433V10.8432V10.8432V10.8431V10.8431V10.843V10.843V10.843V10.8429V10.8429V10.8428V10.8428V10.8427V10.8427V10.8426V10.8426V10.8426V10.8425V10.8425V10.8424V10.8424V10.8423V10.8423V10.8422V10.8422V10.8422V10.8421V10.8421V10.842V10.842V10.8419V10.8419C15.2663 10.7392 15.2688 10.6365 15.2693 10.534C15.4161 10.7565 15.5611 10.9804 15.7061 11.2042L15.7062 11.2042L15.7062 11.2042L15.7062 11.2043ZM28.4082 10.6264C27.3332 10.621 26.2583 10.6207 25.1833 10.6256C25.1817 10.8437 25.1825 11.0629 25.1833 11.2816C26.2585 11.2836 27.3332 11.2833 28.4074 11.2808C28.409 11.0629 28.409 10.8442 28.4082 10.6264ZM19.4933 11.477C19.7094 11.4729 19.9263 11.4729 20.1434 11.4753C20.1494 12.0021 20.1485 12.5292 20.1476 13.0564C20.1469 13.4837 20.1462 13.911 20.1492 14.3383C20.0485 14.4341 19.9487 14.5314 19.8506 14.6287C19.4082 14.6336 18.9658 14.633 18.5237 14.6323H18.5236H18.5236H18.5235H18.5234H18.5234H18.5233H18.5233H18.5232H18.5232H18.5231H18.5231H18.523H18.523H18.5229H18.5229H18.5228H18.5227H18.5227H18.5226H18.5226H18.5225H18.5225H18.5224H18.5224H18.5223H18.5223H18.5222H18.5221H18.5221H18.522H18.522H18.5219H18.5219H18.5218H18.5218H18.5217H18.5217H18.5216H18.5215H18.5215H18.5214H18.5214H18.5213H18.5213H18.5212H18.5212H18.5211H18.5211H18.521C18.2194 14.6319 17.9179 14.6315 17.6165 14.6328C17.5951 14.6124 17.5736 14.5921 17.5522 14.5718L17.5522 14.5718C17.4751 14.4991 17.3985 14.4267 17.3293 14.3473C17.3029 14.1441 17.3084 13.938 17.314 13.7326V13.7326V13.7326V13.7326V13.7325V13.7325V13.7325V13.7325V13.7325V13.7325V13.7325V13.7325V13.7325V13.7325V13.7325V13.7325V13.7324V13.7324V13.7324V13.7324V13.7324V13.7324V13.7324V13.7324V13.7324V13.7324V13.7324V13.7324V13.7323V13.7323V13.7323V13.7323V13.7323V13.7323V13.7323V13.7323V13.7323V13.7323V13.7323V13.7322V13.7322V13.7322V13.7322V13.7322V13.7322V13.7322V13.7322V13.7322V13.7322V13.7322C17.3164 13.6425 17.3188 13.553 17.3185 13.4639C17.5264 13.4623 17.7343 13.4623 17.9422 13.4639C17.9479 13.6322 17.9471 13.8004 17.9446 13.9688C18.2766 14.0062 18.6102 14.002 18.9439 13.9978H18.944H18.944H18.944H18.944H18.944H18.944H18.944H18.944H18.944H18.944H18.944H18.944H18.9441H18.9441H18.9441H18.9441H18.9441H18.9441H18.9441H18.9441H18.9441H18.9441H18.9441H18.9441H18.9442H18.9442H18.9442H18.9442H18.9442H18.9442H18.9442H18.9442H18.9442H18.9442H18.9442H18.9443H18.9443H18.9443H18.9443H18.9443H18.9443H18.9443H18.9443H18.9443H18.9443H18.9443H18.9443H18.9444H18.9444C19.1257 13.9955 19.307 13.9932 19.4882 13.9976C19.4892 13.6912 19.4887 13.3847 19.4882 13.0782C19.4874 12.5442 19.4865 12.0101 19.4933 11.477ZM29.8858 12.135C29.8792 12.8556 29.8792 13.5758 29.8858 14.2956C30.1111 14.2994 30.3362 14.3002 30.5615 14.2965C30.5695 13.5753 30.5697 12.8548 30.5623 12.135C30.3362 12.1293 30.1111 12.1301 29.8858 12.135ZM26.6758 12.6791C26.8099 12.6778 26.9443 12.6704 27.0786 12.6629C27.3704 12.6467 27.6622 12.6305 27.9519 12.6775C28.0939 13.1404 28.2256 13.6069 28.3573 14.0736C28.4826 14.5177 28.6079 14.9619 28.7423 15.4032C28.5245 15.4049 28.3058 15.4049 28.0879 15.4049C27.994 15.0881 27.9065 14.7697 27.8189 14.4512L27.8189 14.4511L27.8189 14.4511L27.8188 14.4511L27.8188 14.451L27.8188 14.451L27.8188 14.4509L27.8188 14.4509L27.8188 14.4509L27.8188 14.4508L27.8188 14.4508L27.8187 14.4507L27.8187 14.4507L27.8187 14.4507L27.8187 14.4506L27.8187 14.4506L27.8187 14.4505L27.8187 14.4505L27.8187 14.4505L27.8187 14.4504L27.8186 14.4504L27.8186 14.4503L27.8186 14.4503L27.8186 14.4503L27.8186 14.4502L27.8186 14.4502L27.8186 14.4501L27.8186 14.4501L27.8186 14.4501L27.8185 14.45L27.8185 14.45L27.8185 14.4499L27.8185 14.4499L27.8185 14.4499L27.8185 14.4498L27.8185 14.4498L27.8185 14.4497L27.8185 14.4497L27.8184 14.4497L27.8184 14.4496L27.8184 14.4496L27.8184 14.4495L27.8184 14.4495L27.8184 14.4495L27.8184 14.4494L27.8184 14.4494L27.8183 14.4493L27.8183 14.449C27.7119 14.0624 27.6056 13.6757 27.4881 13.292C27.3685 13.2936 27.2489 13.2952 27.1292 13.296C27.0319 13.682 26.9238 14.0648 26.8158 14.4474L26.8158 14.4475L26.8157 14.4476L26.8157 14.4477C26.7259 14.7659 26.636 15.0841 26.5525 15.4039C26.333 15.4047 26.1136 15.4045 25.8941 15.4031C26.1 14.7133 26.2962 14.02 26.4922 13.3271L26.4924 13.3265C26.5534 13.1106 26.6145 12.8948 26.6758 12.6791ZM11.4314 13.0248C10.4514 13.0158 9.47047 13.0183 8.49034 13.024C8.48625 13.2486 8.48625 13.4752 8.48936 13.7005C9.47031 13.7062 10.4506 13.7086 11.4322 13.6996C11.4371 13.4744 11.4371 13.2501 11.4314 13.0248ZM11.8936 13.0248C12.1164 13.0232 12.339 13.0223 12.5627 13.024C12.5676 13.2501 12.5676 13.4768 12.5627 13.7029C12.339 13.7054 12.1164 13.7046 11.8936 13.7021C11.8909 13.476 11.8909 13.2507 11.8936 13.0248ZM15.0136 13.0539C14.795 13.0515 14.5755 13.0506 14.3569 13.0523C14.3453 13.4833 14.3479 13.9145 14.3505 14.3452L14.352 14.6273C14.573 14.6289 14.7948 14.6281 15.0168 14.6264C15.0168 14.4961 15.0171 14.3657 15.0173 14.2352V14.2351V14.2351V14.235V14.2349V14.2349V14.2348V14.2347V14.2347V14.2346V14.2345V14.2345V14.2344V14.2343V14.2343V14.2342V14.2341V14.234V14.234V14.2339V14.2338V14.2338V14.2337V14.2336V14.2336V14.2335V14.2334V14.2334C15.0179 13.8401 15.0185 13.4466 15.0136 13.0539ZM31.4896 13.523C31.6853 13.5191 31.8814 13.5188 32.0773 13.5184L32.2453 13.5181C32.3229 13.662 32.4057 13.8035 32.4885 13.9451C32.6717 14.2582 32.855 14.5716 32.9828 14.9114C32.7588 14.9194 32.5335 14.9204 32.3092 14.9214L32.2939 14.9214C32.1751 14.7181 32.0589 14.5134 31.9427 14.3086L31.9426 14.3085L31.9425 14.3084L31.9424 14.3082L31.9423 14.3081L31.9422 14.3079L31.9422 14.3078L31.9421 14.3076L31.942 14.3075L31.9419 14.3073L31.9418 14.3072L31.9417 14.307L31.9416 14.3069L31.9415 14.3068L31.9415 14.3066L31.9414 14.3065L31.9413 14.3063L31.9412 14.3062L31.9411 14.306L31.941 14.3059L31.9409 14.3057L31.9409 14.3056L31.9408 14.3054L31.9407 14.3053L31.9406 14.3051L31.9405 14.305L31.9404 14.3049L31.9403 14.3047L31.9403 14.3046L31.9402 14.3044L31.9401 14.3043L31.94 14.3041L31.9399 14.304L31.9398 14.3038L31.9397 14.3037L31.9397 14.3035L31.9396 14.3034L31.9395 14.3032L31.9394 14.3031L31.9393 14.303L31.9392 14.3028L31.9391 14.3027L31.9391 14.3025L31.939 14.3024C31.7909 14.0414 31.6428 13.7806 31.4896 13.523ZM22.2243 14.0838C22.0061 14.0816 21.788 14.0813 21.5699 14.083C21.5683 14.5438 21.5684 15.0048 21.5685 15.4657V15.4657V15.4658V15.4658V15.4658V15.4659V15.4659V15.4659V15.466V15.466V15.466V15.4661V15.4661V15.4661V15.4662V15.4662V15.4662V15.4663V15.4663V15.4664V15.4664C21.5686 15.7242 21.5686 15.9819 21.5684 16.2395C21.7878 16.2395 22.0065 16.2387 22.2259 16.2371C22.2259 16.032 22.2262 15.8269 22.2264 15.6218V15.6218V15.6217V15.6217V15.6217V15.6217V15.6216V15.6216V15.6216V15.6215V15.6215V15.6215V15.6215V15.6214V15.6214V15.6214V15.6213V15.6213V15.6213V15.6213V15.6212V15.6212V15.6212V15.6211V15.6211V15.6211V15.6211V15.621V15.621V15.621V15.6209V15.6209V15.6209V15.6209V15.6208V15.6208V15.6208V15.6207V15.6207V15.6207V15.6207V15.6206V15.6206C22.2271 15.1083 22.2278 14.596 22.2243 14.0838ZM23.8712 14.9561C23.8687 14.7317 23.869 14.5068 23.872 14.2812C24.0922 14.278 24.3138 14.278 24.5345 14.2837V14.2838V14.2839V14.284V14.2841V14.2842V14.2843V14.2844V14.2845V14.2846V14.2847V14.2848V14.2849V14.285V14.2851V14.2852V14.2853V14.2854V14.2855V14.2856V14.2856V14.2857V14.2858V14.2859V14.286V14.2861V14.2862V14.2863V14.2864V14.2865V14.2866V14.2867V14.2868V14.2869V14.287V14.2871V14.2872V14.2873V14.2874V14.2875V14.2876V14.2877V14.2878C24.5353 14.5109 24.5361 14.7338 24.5328 14.9569C24.3129 14.9577 24.0919 14.9569 23.8712 14.9561ZM12.4494 15.2601L12.4494 15.2601L12.4494 15.2601L12.4494 15.2601L12.4494 15.2601L12.4494 15.2602L12.4494 15.2602L12.4493 15.2602L12.4493 15.2602L12.4493 15.2602L12.4493 15.2602L12.4493 15.2602L12.4493 15.2602L12.4493 15.2602L12.4493 15.2602L12.4493 15.2602L12.4493 15.2602L12.4493 15.2602L12.4493 15.2602L12.4493 15.2602L12.4493 15.2602L12.4492 15.2602L12.4492 15.2603L12.4492 15.2603L12.4492 15.2603L12.4492 15.2603L12.4492 15.2603L12.4492 15.2603L12.4492 15.2603L12.4492 15.2603L12.4492 15.2603L12.4492 15.2603L12.4492 15.2603L12.4492 15.2603L12.4492 15.2603L12.4491 15.2603L12.4491 15.2603L12.4491 15.2603L12.4491 15.2603L12.4491 15.2603L12.4491 15.2604C12.1014 15.4838 11.7536 15.7073 11.4199 15.951C11.7274 16.17 12.0447 16.3752 12.3621 16.5804C12.5855 16.7248 12.8089 16.8692 13.0288 17.0184C13.1452 17.0182 13.2617 17.0184 13.3781 17.0187C13.6304 17.0192 13.8827 17.0197 14.135 17.0152C13.8975 16.8635 13.6612 16.7092 13.4249 16.555C13.1165 16.3536 12.8079 16.1521 12.4958 15.9559C12.7502 15.7774 13.0114 15.6096 13.2727 15.4417C13.5622 15.2557 13.8516 15.0697 14.1318 14.8694C13.9374 14.8663 13.7432 14.8663 13.5491 14.8663C13.3848 14.8663 13.2205 14.8664 13.0559 14.8645C12.8558 14.999 12.6527 15.1295 12.4495 15.2601L12.4495 15.2601L12.4494 15.2601ZM29.8866 15.3249C30.1127 15.3199 30.3387 15.3191 30.5656 15.324C30.5713 15.5501 30.5705 15.7752 30.5639 16.0013C30.3387 16.0063 30.1127 16.0054 29.8875 16.0005C29.8826 15.7753 29.8823 15.5501 29.8866 15.3249ZM10.0678 15.4189C8.93746 15.4083 7.80666 15.4107 6.67782 15.4173C6.67422 15.6438 6.67405 15.8701 6.67732 16.0962C7.09863 16.1011 7.51958 16.1005 7.94043 16.0998H7.94047H7.94051H7.94054H7.94058H7.94061H7.94065H7.94069H7.94072H7.94076H7.94079H7.94083H7.94087H7.9409H7.94094H7.94097H7.94101H7.94105H7.94108H7.94112H7.94116H7.94119H7.94123H7.94126H7.9413H7.94134H7.94137H7.94141H7.94144H7.94148H7.94152H7.94155H7.94159H7.94163H7.94166H7.9417H7.94173H7.94177H7.94181C8.22927 16.0994 8.51669 16.099 8.80413 16.1003C8.59882 16.2435 8.3861 16.3763 8.17342 16.509L8.17341 16.509L8.17325 16.5091C8.10534 16.5515 8.03743 16.5939 7.96977 16.6366C8.02818 16.6782 8.08452 16.7245 8.14104 16.7709C8.26576 16.8734 8.3914 16.9766 8.54237 17.0317C9.03789 16.7386 9.52058 16.4223 10.0027 16.1064L10.0027 16.1064L10.0027 16.1063L10.0027 16.1063L10.0027 16.1063L10.0027 16.1063L10.0027 16.1063L10.0027 16.1063L10.0028 16.1063L10.0028 16.1063L10.0028 16.1063L10.0028 16.1063L10.0028 16.1063L10.0028 16.1063L10.0028 16.1063L10.0028 16.1063L10.0028 16.1063L10.0028 16.1063L10.0028 16.1063L10.0028 16.1063L10.0028 16.1062L10.0029 16.1062L10.0029 16.1062L10.0029 16.1062L10.0029 16.1062L10.0029 16.1062L10.003 16.1062L10.071 16.0615L10.0705 15.9008C10.0701 15.74 10.0696 15.5792 10.0678 15.4189ZM16.3435 16.0723C16.7551 16.0741 17.1668 16.0735 17.5783 16.0729C18.1442 16.072 18.71 16.0712 19.2755 16.0764C19.2994 16.2988 19.2963 16.5231 19.2665 16.7447C18.6401 16.7474 18.0141 16.747 17.3882 16.7465C17.0406 16.7463 16.6929 16.7461 16.3453 16.7464C16.3435 16.521 16.3429 16.2964 16.3435 16.0723ZM20.6187 16.0797C20.3834 16.0715 20.1492 16.0715 19.9141 16.0764C19.9121 16.2975 19.9121 16.5178 19.9144 16.7389C20.1485 16.7429 20.3836 16.7429 20.6179 16.7364C20.6193 16.518 20.6196 16.2991 20.6187 16.0797ZM22.9889 17.0219C22.9672 16.8573 23.0807 16.7497 23.1921 16.6441C23.2376 16.601 23.2827 16.5583 23.3181 16.5121C23.4001 16.5123 23.4822 16.5123 23.5642 16.5123C23.7693 16.5122 23.9744 16.5121 24.1794 16.5162C24.186 16.7323 24.186 16.9484 24.1827 17.1655C24.0791 17.1674 23.9752 17.1682 23.8713 17.169H23.8712L23.8708 17.169C23.7929 17.1696 23.7151 17.1702 23.6374 17.1712V18.7107C24.0269 18.7134 24.4163 18.7129 24.8057 18.7124H24.806C25.2604 18.7118 25.7148 18.7112 26.1693 18.7156C26.1718 18.9342 26.1718 19.1529 26.166 19.37C25.5959 19.374 25.0255 19.3735 24.4551 19.373H24.4547H24.4547H24.4547H24.4547H24.4546H24.4546H24.4546H24.4546H24.4545H24.4545H24.4545H24.4545H24.4544H24.4544H24.4544H24.4544H24.4544H24.4543H24.4543H24.4543H24.4543H24.4542H24.4542H24.4542H24.4542H24.4541H24.4541H24.4541H24.4541H24.4541H24.454H24.454H24.454H24.454H24.4539H24.4539C24.0739 19.3727 23.6939 19.3723 23.314 19.3733C23.2794 19.328 23.2356 19.2859 23.1914 19.2435L23.1914 19.2435L23.1914 19.2435L23.1914 19.2434L23.1914 19.2434L23.1914 19.2434L23.1914 19.2434L23.1913 19.2434L23.1913 19.2434L23.1913 19.2434L23.1913 19.2434L23.1913 19.2433L23.1913 19.2433L23.1913 19.2433L23.1913 19.2433L23.1913 19.2433L23.1912 19.2433L23.1912 19.2433L23.1912 19.2433L23.1912 19.2433L23.1912 19.2432L23.1912 19.2432L23.1912 19.2432L23.1912 19.2432L23.1912 19.2432L23.1911 19.2432L23.1911 19.2432L23.1911 19.2432L23.1911 19.2432L23.1911 19.2431L23.1911 19.2431L23.1911 19.2431L23.1911 19.2431L23.191 19.2431L23.191 19.2431L23.191 19.2431C23.0809 19.1372 22.9686 19.0292 22.9897 18.8652C22.9856 18.251 22.9853 17.6366 22.9889 17.0219ZM26.8893 16.818C26.6559 16.809 26.4216 16.809 26.1889 16.8172C26.1865 17.0409 26.1865 17.2635 26.1889 17.4872C26.4224 17.4945 26.655 17.4945 26.8885 17.4863C26.8916 17.2635 26.8918 17.0407 26.8893 16.818ZM30.453 16.8112H30.4531C30.756 16.8119 31.0589 16.8126 31.3618 16.8123C31.3635 17.0392 31.3635 17.267 31.361 17.4937C31.0803 17.4937 30.7995 17.4944 30.5188 17.495C29.8169 17.4967 29.1151 17.4984 28.4133 17.4896C28.41 17.2653 28.4097 17.0411 28.4124 16.8172C29.0922 16.808 29.7715 16.8096 30.451 16.8112H30.4511H30.4512H30.4512H30.4513H30.4513H30.4514H30.4515H30.4515H30.4516H30.4517H30.4517H30.4518H30.4518H30.4519H30.452H30.452H30.4521H30.4522H30.4522H30.4523H30.4523H30.4524H30.4525H30.4525H30.4526H30.4527H30.4527H30.4528H30.4529H30.4529H30.453H30.453ZM15.6163 17.6014C15.341 17.6014 15.0657 17.6014 14.7901 17.6018C14.7815 17.8299 14.782 18.0587 14.7916 18.2881C15.3414 18.289 15.8914 18.289 16.4416 18.2881C16.4474 18.0591 16.4474 17.8301 16.4425 17.601C16.167 17.6014 15.8917 17.6014 15.6163 17.6014ZM19.3943 17.6016H19.397C19.9373 17.6017 20.4776 17.6017 21.0179 17.6002C21.3321 17.5511 21.6466 17.8773 21.6068 18.1875C21.6052 18.8227 21.6049 19.4585 21.606 20.0949C21.5194 20.1886 21.4324 20.2813 21.3452 20.3741L21.3451 20.3742L21.2728 20.4513L21.15 20.4513H21.15H21.15H21.1499H21.1499H21.1499H21.1498H21.1498H21.1498H21.1497H21.1497H21.1496H21.1496H21.1496H21.1495H21.1495H21.1495H21.1494H21.1494H21.1493H21.1493H21.1493H21.1492H21.1492H21.1492H21.1491H21.1491H21.149H21.149H21.149H21.1489H21.1489C20.9041 20.4514 20.6597 20.4515 20.4148 20.448C20.4123 20.2299 20.4121 20.0121 20.414 19.7946C20.5031 19.7934 20.5922 19.7923 20.6813 19.7913L20.6826 19.7913H20.6826C20.7721 19.7903 20.8616 19.7893 20.9511 19.788C20.9514 19.6006 20.9514 19.413 20.9514 19.2254C20.9513 18.9127 20.9512 18.5998 20.9528 18.2873C20.4331 18.2409 19.9111 18.2471 19.389 18.2534C19.0672 18.2573 18.7454 18.2611 18.4242 18.2526C18.422 18.0349 18.422 17.818 18.4242 17.6018C18.7475 17.6015 19.0709 17.6016 19.3943 17.6016ZM12.3312 17.8031L12.3307 17.8031C12.1053 18.574 11.8853 19.3469 11.6655 20.1193L11.6654 20.1194L11.5451 20.5421C11.6899 20.5432 11.8354 20.5435 11.9811 20.5439H11.9814L12.1995 20.5445C12.2764 20.2352 12.3638 19.9289 12.4511 19.6226C12.5622 19.2327 12.6733 18.8429 12.7629 18.4473C12.8835 18.4382 13.0039 18.4292 13.1243 18.4218C13.2437 18.796 13.347 19.1749 13.4505 19.554C13.5408 19.8853 13.6313 20.2167 13.7324 20.5453C13.944 20.5437 14.1566 20.5437 14.3693 20.5437C14.2157 19.9608 14.0488 19.3816 13.8819 18.8026C13.7862 18.4701 13.6904 18.1377 13.5971 17.8047C13.1749 17.7982 12.7535 17.8006 12.3312 17.8031ZM30.7588 18.6281L30.7724 18.628C31.5041 18.6207 32.2367 18.6133 32.9674 18.6306C33.1531 18.7451 33.3625 18.9309 33.3221 19.175C33.3221 19.3491 33.3217 19.5233 33.3214 19.6976V19.6979V19.6981V19.6983V19.6985V19.6987C33.3206 20.0483 33.3199 20.3981 33.3221 20.7476C33.3189 20.8706 33.32 20.9936 33.3211 21.1166C33.3222 21.2452 33.3234 21.3738 33.3196 21.5024C33.3254 21.605 33.3144 21.7066 33.3033 21.8084C33.2921 21.9106 33.281 22.0129 33.2869 22.1162C33.2178 22.116 33.1487 22.1159 33.0797 22.1158H33.0775C32.9377 22.1156 32.798 22.1154 32.6582 22.1138C32.6595 21.5981 32.6594 21.0821 32.6593 20.5662C32.6592 20.1363 32.6591 19.7064 32.6598 19.2766C32.3383 19.2678 32.0168 19.2687 31.6954 19.2697C31.5029 19.2702 31.3104 19.2708 31.1179 19.2693L31.1175 19.3748V19.3749V19.375V19.375V19.3751V19.3752V19.3753V19.3754V19.3754V19.3755V19.3756V19.3757V19.3757V19.3758V19.3759V19.376V19.3761V19.3761V19.3762V19.3763V19.3764V19.3764V19.3765V19.3766V19.3767V19.3767V19.3768V19.3769V19.377V19.3771C31.1169 19.5169 31.1164 19.6568 31.1138 19.7972C30.8976 19.8005 30.6815 19.8016 30.4653 19.8005C30.4612 19.5109 30.462 19.2205 30.4628 18.9309C30.5625 18.8311 30.6606 18.7304 30.7588 18.6281ZM10.4925 18.6544H9.80863C9.80795 18.9536 9.80798 19.2528 9.80801 19.552C9.80805 19.971 9.80809 20.3899 9.80618 20.8086H10.4933C10.493 20.5012 10.4931 20.1939 10.4932 19.8865V19.8865V19.8865V19.8864V19.8864V19.8864V19.8863V19.8863V19.8863V19.8862V19.8862V19.8862V19.8861V19.8861V19.8861V19.886V19.886V19.886V19.8859V19.8859V19.8859V19.8859V19.8858V19.8858V19.8858V19.8857V19.8857V19.8857V19.8856C10.4933 19.4754 10.4934 19.065 10.4925 18.6544ZM7.66285 19.2552C7.88731 19.2519 8.11161 19.2585 8.33525 19.2733C8.33776 19.4862 8.33776 19.6994 8.33525 19.9127C8.10915 19.9152 7.88322 19.916 7.65713 19.9119C7.65467 19.6923 7.65549 19.4738 7.66285 19.2552ZM15.6976 19.381C15.6924 20.6517 15.6926 21.9224 15.6984 23.1929C15.9235 23.1986 16.1493 23.1986 16.3759 23.1963C16.3864 22.8693 16.3826 22.5418 16.3788 22.2142V22.2142V22.2142V22.2142V22.2141V22.2141V22.2141V22.2141V22.214V22.214V22.214V22.214V22.214V22.2139V22.2139V22.2139V22.2139V22.2138V22.2138V22.2138V22.2138V22.2138V22.2137V22.2137V22.2137V22.2137V22.2136C16.3728 21.6934 16.3668 21.1734 16.4179 20.6561C16.7216 21.1677 17.0435 21.6685 17.3655 22.1694L17.3656 22.1694L17.3657 22.1695L17.3657 22.1696L17.3658 22.1697L17.3658 22.1698L17.3659 22.1699L17.3659 22.17L17.366 22.1701L17.3661 22.1702L17.3661 22.1703L17.3662 22.1704L17.3662 22.1705L17.3663 22.1705L17.3663 22.1706L17.3664 22.1707L17.3665 22.1708L17.3665 22.1709L17.3666 22.171L17.3666 22.1711L17.3667 22.1712L17.3667 22.1713L17.3668 22.1714L17.3669 22.1715L17.3669 22.1716L17.367 22.1716L17.367 22.1717C17.5327 22.4295 17.6985 22.6872 17.8617 22.9465C17.9384 22.9449 18.016 22.944 18.0935 22.9432C18.0816 22.8317 18.0878 22.7147 18.0941 22.5973C18.1073 22.3501 18.1206 22.1015 17.9639 21.8996C17.8314 21.6918 17.6984 21.4841 17.5655 21.2765L17.5655 21.2764L17.5655 21.2764L17.5654 21.2764L17.5654 21.2763L17.5654 21.2763L17.5654 21.2763L17.5654 21.2763C17.1625 20.6468 16.7596 20.0173 16.3659 19.3826C16.1431 19.3777 15.9204 19.3777 15.6976 19.381ZM18.6687 19.8697C18.8956 19.8648 19.1225 19.8642 19.3493 19.868C19.3526 20.4233 19.3518 20.9786 19.3501 21.5336C19.1224 21.5377 18.8955 21.5377 18.6679 21.532C18.6642 20.9777 18.6633 20.4233 18.6687 19.8697ZM23.4493 20.6123C23.2265 20.6098 23.0038 20.6106 22.7818 20.6123C22.7793 20.8386 22.7793 21.0643 22.7818 21.2896C23.0041 21.291 23.2266 21.2912 23.4493 21.2904C23.4534 21.0644 23.4534 20.8383 23.4493 20.6123ZM26.6249 20.6382H26.625L27.0207 20.6394C27.0487 20.8415 27.066 21.0469 27.0462 21.2516C26.9977 21.35 26.8993 21.3465 26.8039 21.3432C26.7705 21.342 26.7374 21.3408 26.7071 21.344C26.4904 21.3377 26.2734 21.3406 26.0566 21.3435C25.6842 21.3484 25.3122 21.3534 24.9425 21.3113C24.9384 21.0873 24.9384 20.8647 24.9458 20.6419C25.5047 20.6346 26.0636 20.6364 26.623 20.6382H26.6231H26.6232H26.6232H26.6233H26.6234H26.6235H26.6236H26.6237H26.6238H26.6238H26.6239H26.624H26.6241H26.6242H26.6243H26.6244H26.6244H26.6245H26.6246H26.6247H26.6248H26.6249ZM27.8622 20.7349C27.8198 20.7359 27.7774 20.7369 27.7351 20.7376C27.7277 21.5244 27.7277 22.3111 27.7351 23.0978C27.9598 23.1025 28.1848 23.1028 28.41 23.0986C28.4108 22.9445 28.4119 22.7903 28.4131 22.6361V22.6357V22.6354C28.4177 22.008 28.4223 21.3801 28.4051 20.7539C28.2252 20.726 28.0433 20.7304 27.8622 20.7349ZM21.5699 21.1996C21.7876 21.1988 22.0063 21.1979 22.2243 21.2004C22.2267 21.4249 22.2275 21.65 22.2243 21.8761C22.0061 21.8793 21.788 21.8793 21.5699 21.8761C21.5682 21.651 21.5682 21.4249 21.5699 21.1996ZM12.538 21.6396C12.0513 21.6335 11.5646 21.6274 11.0808 21.6797C11.0792 21.9009 11.0792 22.122 11.0849 22.343C11.7134 22.3482 12.3418 22.3474 12.9706 22.3466H12.9708H12.971H12.9712H12.9714H12.9716H12.9718H12.972H12.9722H12.9724H12.9726H12.9728H12.973H12.9732H12.9734H12.9736H12.9738H12.974H12.9742H12.9744H12.9746C13.3248 22.3461 13.6752 22.3457 14.0259 22.3463C14.0276 22.1195 14.0284 21.8918 14.0251 21.6649C13.8251 21.6443 13.624 21.6352 13.4229 21.6377C13.1284 21.647 12.8332 21.6433 12.5381 21.6396H12.538ZM6.67863 22.1812L6.75261 22.109C6.8347 22.0288 6.91711 21.9484 6.99962 21.8685C7.28346 21.8669 7.56715 21.8661 7.85034 21.8718C7.85361 22.0863 7.85361 22.3016 7.85197 22.5161C7.71059 22.5193 7.56974 22.5205 7.42857 22.5217L7.32322 22.5226C7.32505 22.7519 7.32475 22.9812 7.32445 23.2105V23.2105C7.32407 23.4927 7.3237 23.7749 7.32731 24.0572C7.63727 24.0581 7.94726 24.0575 8.25725 24.057H8.25846C8.78381 24.056 9.30918 24.0551 9.83448 24.0613C9.83857 24.2725 9.83857 24.4829 9.83694 24.6941C9.62982 24.6949 9.42188 24.6957 9.21526 24.6957C8.92075 24.6928 8.62609 24.6942 8.3314 24.6955C7.88402 24.6976 7.43657 24.6996 6.98947 24.6867C6.86579 24.6165 6.74113 24.501 6.68501 24.37C6.6727 23.9086 6.67505 23.4468 6.6774 22.985C6.67877 22.717 6.68014 22.4491 6.67863 22.1812ZM24.3543 22.2947C24.2397 22.397 24.1274 22.5018 24.016 22.6065L24.0158 22.6836V22.6838C24.015 22.9547 24.0142 23.2252 24.0206 23.4959C24.2369 23.4967 24.4538 23.4967 24.6707 23.4934C24.6748 23.3103 24.6756 23.1271 24.6748 22.944C24.9278 22.9445 25.1805 22.9445 25.4334 22.9445C25.6862 22.9445 25.9393 22.9445 26.1929 22.9449C26.1871 23.4126 26.1883 23.8798 26.1896 24.3473C26.1899 24.4809 26.1902 24.6146 26.1904 24.7482C26.4098 24.7548 26.6302 24.7556 26.8504 24.754C26.8507 24.0392 26.8504 23.3243 26.8496 22.609C26.7751 22.5388 26.7009 22.4679 26.6267 22.3969L26.6267 22.3969L26.5224 22.2972C26.2471 22.2965 25.9718 22.2969 25.6964 22.2972C25.2491 22.2977 24.8017 22.2983 24.3543 22.2947ZM30.7617 22.5262L30.762 22.5261L31.0754 22.3283C31.2684 22.457 31.4582 22.5923 31.6463 22.7276C31.0647 23.0984 30.4833 23.4683 29.9023 23.8373C30.3697 23.8422 30.837 23.8415 31.3045 23.8408H31.3045H31.3046H31.3046H31.3047H31.3047H31.3048H31.3048H31.3049H31.3049H31.305H31.305H31.305H31.3051H31.3051H31.3052H31.3052H31.3053C31.6917 23.8402 32.0782 23.8396 32.4648 23.8422C32.4665 24.0691 32.4665 24.2969 32.464 24.5236C31.1951 24.5278 29.9263 24.528 28.6575 24.5244C28.6541 24.3057 28.6541 24.0871 28.6557 23.8694C29.3537 23.4147 30.0577 22.9704 30.7617 22.5262ZM20.8033 23.2145L20.8032 23.2146L20.8031 23.2147L20.803 23.2148L20.8029 23.2148L20.8028 23.2149L20.8027 23.215L20.8026 23.215L20.8025 23.2151L20.8024 23.2151L20.8023 23.2152L20.8022 23.2153L20.8021 23.2153L20.802 23.2154L20.8019 23.2155L20.8018 23.2155L20.8017 23.2156C20.3935 23.4734 19.9852 23.7312 19.5833 23.9988L19.5835 24.0299C19.585 24.2358 19.5865 24.4423 19.6175 24.6461C19.9806 24.6461 20.3436 24.6465 20.7067 24.6469H20.7067H20.7068H20.7068H20.7069H20.707H20.707H20.7071H20.7071H20.7072H20.7072H20.7073H20.7074H20.7074H20.7075H20.7075H20.7076C21.6149 24.6479 22.5221 24.6489 23.4293 24.6437C23.4359 24.4102 23.4359 24.176 23.4302 23.9425C23.0365 23.9376 22.6429 23.9385 22.2493 23.9394C21.794 23.9404 21.3387 23.9415 20.8834 23.9335C21.1185 23.7772 21.3577 23.6271 21.5967 23.477L21.5968 23.4769L21.5969 23.4769L21.597 23.4769L21.597 23.4768L21.5971 23.4768L21.5972 23.4767L21.5973 23.4767L21.5973 23.4766L21.5974 23.4766L21.5975 23.4765L21.5976 23.4765L21.5976 23.4764L21.5977 23.4764L21.5978 23.4764L21.5979 23.4763L21.5979 23.4763L21.598 23.4762L21.598 23.4762L21.598 23.4762L21.598 23.4762L21.5981 23.4762L21.5981 23.4762L21.5981 23.4761L21.5982 23.4761L21.5982 23.4761L21.5982 23.4761L21.5982 23.4761L21.5983 23.4761L21.5983 23.476L21.5983 23.476L21.5984 23.476L21.5984 23.476C21.9352 23.2646 22.2719 23.0533 22.5969 22.8248C22.454 22.7315 22.3141 22.6343 22.174 22.5369C22.1234 22.5016 22.0727 22.4664 22.0219 22.4313C21.6201 22.6988 21.2119 22.9566 20.8036 23.2144L20.8036 23.2144L20.8036 23.2144L20.8036 23.2144L20.8035 23.2144L20.8035 23.2144L20.8035 23.2144L20.8035 23.2144L20.8035 23.2145L20.8035 23.2145L20.8034 23.2145L20.8034 23.2145L20.8034 23.2145L20.8034 23.2145L20.8034 23.2145L20.8034 23.2145L20.8033 23.2145ZM11.2326 23.4213L11.3809 23.6479L11.3809 23.648C11.6847 24.1123 11.9885 24.5768 12.2887 25.0424C12.4846 24.7626 12.6698 24.4754 12.8551 24.1882C13.0237 23.9266 13.1925 23.665 13.3694 23.4088C13.3738 23.6245 13.3735 23.8404 13.3733 24.0562C13.3731 24.2046 13.373 24.353 13.3743 24.5012C13.2152 24.7341 13.0619 24.9711 12.9087 25.208C12.7059 25.5214 12.5031 25.8348 12.287 26.1388C12.1834 25.9807 12.0807 25.822 11.9781 25.6633L11.978 25.6631L11.9779 25.663L11.9778 25.6628C11.7323 25.2833 11.4867 24.9037 11.2285 24.5326L11.2284 24.5213C11.2248 24.1547 11.2213 23.7873 11.2326 23.4213ZM15.1063 24.1143C15.0933 24.3445 15.0941 24.5755 15.1022 24.8065C15.3262 24.8089 15.5499 24.8081 15.773 24.8063C15.7785 24.5811 15.7787 24.3559 15.7738 24.1306C15.5518 24.1126 15.3283 24.1118 15.1063 24.1143ZM18.2476 25.1399C18.4729 25.1374 18.6988 25.1366 18.9241 25.1391C18.9273 25.6089 18.9269 26.0787 18.9266 26.5486C18.9262 26.9178 18.9259 27.2869 18.9274 27.6561C18.7674 27.6626 18.6072 27.6701 18.4472 27.6849C18.4059 27.6768 18.3313 27.6635 18.2772 27.6539L18.2768 27.6538L18.2426 27.6477C18.2448 27.2824 18.2443 26.9169 18.2438 26.5514C18.2431 26.0808 18.2425 25.6102 18.2476 25.1399ZM23.7106 25.6614C23.4432 25.6611 23.1757 25.6607 22.9079 25.6659C22.6622 26.5802 22.3965 27.4894 22.1294 28.3985C22.2932 28.4003 22.4572 28.4008 22.6215 28.4012H22.6218L22.7861 28.4018C22.9813 27.6977 23.1771 26.9934 23.3734 26.2889L23.4525 26.2926L23.4529 26.2926C23.5452 26.297 23.6374 26.3013 23.7297 26.307C23.8134 26.6143 23.8994 26.921 23.9855 27.2276L23.9855 27.2277L23.9855 27.2278L23.9856 27.2279L23.9856 27.228L23.9856 27.2281L23.9856 27.2282L23.9857 27.2284L23.9857 27.2285L23.9857 27.2286L23.9858 27.2287L23.9858 27.2288L23.9858 27.2289L23.9859 27.2294L23.986 27.2294C24.0949 27.6178 24.2039 28.0062 24.308 28.3959C24.5266 28.4016 24.7462 28.4016 24.9655 28.4008C24.7042 27.4876 24.4432 26.5743 24.1826 25.661C24.0252 25.6619 23.8679 25.6617 23.7106 25.6614ZM13.2761 27.1792L13.5918 26.9763C14.2958 26.5237 14.9999 26.071 15.7138 25.634C15.7796 25.6802 15.8456 25.726 15.9116 25.7718L15.9117 25.7719L15.9119 25.772L15.912 25.7721L15.9122 25.7722L15.9123 25.7723L15.9123 25.7723L15.9124 25.7723L15.9124 25.7724L15.9124 25.7724L15.9125 25.7724L15.9125 25.7724L15.9125 25.7724L15.9126 25.7725L15.9126 25.7725L15.9126 25.7725L15.9127 25.7725C16.0358 25.858 16.1589 25.9433 16.2805 26.0317C16.0477 26.1766 15.8166 26.3244 15.5856 26.4723L15.5856 26.4723L15.5855 26.4723L15.5855 26.4723L15.5855 26.4724L15.5855 26.4724L15.5855 26.4724L15.5854 26.4724L15.5854 26.4724L15.5854 26.4724L15.5854 26.4724L15.5853 26.4724C15.2337 26.6975 14.882 26.9226 14.5241 27.1371C14.9792 27.1458 15.4345 27.1446 15.8899 27.1434H15.8899H15.89H15.89H15.8901H15.8901H15.8901H15.8902H15.8902H15.8903H15.8903H15.8903C16.2951 27.1423 16.6999 27.1413 17.1047 27.1471C17.1088 27.3732 17.1096 27.5991 17.1031 27.8252L16.7613 27.8264C15.6006 27.8302 14.4399 27.8341 13.2793 27.8228C13.2729 27.6081 13.2737 27.3937 13.2761 27.1792ZM20.6699 25.757C20.435 25.7882 20.1981 25.8025 19.9612 25.7999C20.2287 26.2624 20.493 26.7271 20.7541 27.1941C20.8648 27.1932 20.9756 27.1928 21.0866 27.1924H21.0869H21.0872C21.1977 27.192 21.3084 27.1916 21.419 27.1908C21.3029 26.767 21.0644 26.3876 20.8299 26.0144L20.8298 26.0143C20.7758 25.9283 20.722 25.8427 20.6699 25.757ZM29.3306 26.0794C29.5624 26.0721 29.795 26.0721 30.0277 26.077C30.0285 26.2989 30.0285 26.5212 30.0277 26.7437C29.795 26.7494 29.5632 26.7494 29.3314 26.7396C29.3273 26.5192 29.3273 26.2998 29.3306 26.0794ZM28.0704 27.158C27.9192 27.3891 27.768 27.6202 27.6221 27.8548C27.6066 27.8758 27.5922 27.8984 27.5776 27.9211L27.5776 27.9211L27.5776 27.9211C27.5331 27.9904 27.4877 28.0611 27.4102 28.0939C27.1971 27.7849 26.9936 27.4694 26.7901 27.154C26.6453 26.9297 26.5006 26.7054 26.3525 26.4835C26.3446 26.8059 26.3462 27.1289 26.3478 27.452V27.452V27.452V27.4521V27.4521V27.4522V27.4522V27.4522V27.4523L26.3485 27.5816C26.4842 27.7877 26.6189 27.9941 26.7535 28.2004C26.979 28.5458 27.2043 28.8911 27.4341 29.234C27.5473 29.0625 27.6595 28.8901 27.7717 28.7177L27.7717 28.7176L27.7717 28.7176L27.7718 28.7176L27.7718 28.7175L27.7718 28.7175L27.7718 28.7175L27.7719 28.7175L27.7719 28.7174C27.9622 28.425 28.1527 28.1324 28.3481 27.8434C28.3617 27.8199 28.377 27.7967 28.3924 27.7732C28.4437 27.6954 28.4963 27.6156 28.49 27.5191C28.4983 27.1842 28.4933 26.8492 28.4851 26.5151C28.3497 26.7312 28.2101 26.9445 28.0706 27.1577L28.0706 27.1578L28.0705 27.1578L28.0705 27.1578L28.0705 27.1578L28.0705 27.1579L28.0705 27.1579L28.0705 27.1579L28.0704 27.158ZM11.86 27.1976H11.8601L12.1427 27.1999C12.1434 27.2447 12.1445 27.2896 12.1456 27.3344C12.15 27.5102 12.1543 27.6864 12.1319 27.8615C11.5808 27.8884 11.0277 27.8781 10.4763 27.8678H10.4762L10.3573 27.8656C10.3549 27.6454 10.3549 27.4259 10.3565 27.2057C10.8572 27.189 11.3584 27.1933 11.8597 27.1976H11.8597H11.8598H11.8599H11.8599H11.86H11.86ZM19.2668 28.6373C18.714 28.6363 18.1612 28.6352 17.6083 28.6434C17.6052 28.8566 17.605 29.0701 17.6075 29.2837C18.1367 29.2956 18.6666 29.2939 19.1966 29.2921H19.1966H19.1966H19.1966H19.1967H19.1967H19.1967C19.5118 29.2911 19.8268 29.2901 20.1418 29.2919C20.1414 29.5103 20.1415 29.7287 20.1416 29.9472V29.9472V29.9473V29.9473V29.9474V29.9474V29.9481C20.1418 30.2394 20.1419 30.5307 20.141 30.8222C20.0977 30.8226 20.0544 30.8225 20.0112 30.8224C19.8807 30.8221 19.7508 30.8218 19.6212 30.8355C19.586 30.9796 19.5893 31.128 19.5926 31.2762C19.5939 31.3357 19.5952 31.3951 19.5941 31.4542C19.8997 31.4632 20.2049 31.4624 20.5102 31.4558C20.6038 31.3538 20.6984 31.2528 20.7941 31.153L20.7937 30.8787C20.7929 30.2403 20.7921 29.6024 20.7957 28.9652C20.6866 28.8548 20.5776 28.7451 20.4685 28.636C20.0678 28.6388 19.6673 28.638 19.2668 28.6373ZM13.027 28.8862C13.2497 28.8829 13.4727 28.8834 13.6961 28.8878C13.6994 29.1105 13.6996 29.3338 13.6969 29.5578C13.4726 29.561 13.249 29.5613 13.0262 29.5586C13.0231 29.3341 13.0234 29.11 13.027 28.8862ZM25.3318 29.358C25.1725 29.2302 25.0052 29.0958 24.8262 29.2466C24.5179 29.4488 24.2059 29.6451 23.8939 29.8414L23.8938 29.8415L23.8936 29.8415L23.8935 29.8416L23.8933 29.8417L23.8932 29.8418C23.4448 30.124 22.9964 30.4061 22.5591 30.7056C22.5609 30.9151 22.5632 31.1264 22.5773 31.3367C23.272 31.3425 23.9666 31.3451 24.6612 31.3351C24.6645 31.1123 24.6645 30.8888 24.6629 30.666C24.4918 30.6622 24.3212 30.6603 24.1513 30.6603L23.8311 30.6627C24.1959 30.4097 24.5719 30.1736 24.9478 29.9376L24.9479 29.9375L24.948 29.9375L24.948 29.9374L24.9481 29.9374C25.1409 29.8163 25.3337 29.6953 25.5249 29.572C25.5249 29.5608 25.5246 29.5429 25.5244 29.5259L25.5241 29.492C25.4612 29.4619 25.3972 29.4105 25.3318 29.358ZM14.2802 29.8653L14.5375 29.8644C15.3536 29.8613 16.1703 29.8582 16.9861 29.8678C16.9877 30.0897 16.9877 30.3119 16.9861 30.5344C16.1614 30.5466 15.3373 30.5427 14.5128 30.5388H14.5128H14.5127H14.5124L14.2793 30.5377C14.2752 30.3134 14.2761 30.089 14.2802 29.8653ZM17.4458 31.5797C17.1916 31.5748 16.9375 31.5756 16.6834 31.5781C16.7853 31.7543 16.8857 31.9317 16.986 32.109C17.1523 32.4028 17.3186 32.6967 17.4921 32.9863L17.5714 32.9858C17.7724 32.9845 17.973 32.9832 18.1743 32.9723C18.0604 32.661 17.8942 32.3748 17.728 32.0887C17.6304 31.9207 17.5328 31.7527 17.4458 31.5797ZM21.187 32.2892C21.409 32.2876 21.6309 32.2909 21.8519 32.3056C21.856 32.5276 21.8544 32.7502 21.8264 32.9714C21.6144 32.9723 21.4029 32.9723 21.1919 32.9714C21.1838 32.743 21.1838 32.5161 21.187 32.2892ZM19.6387 34.044C19.6395 34.1951 19.6404 34.3461 19.6402 34.497C19.8665 34.5008 20.0928 34.501 20.3191 34.4975C20.3216 33.9896 20.3216 33.4819 20.3191 32.9745C20.0963 32.9543 19.872 32.9426 19.6484 32.9418C19.6343 33.309 19.6365 33.6766 19.6387 34.044Z" fill="white"/>
</svg>
