<svg width="40" height="40" viewBox="0 0 40 40" fill="none" xmlns="http://www.w3.org/2000/svg">
<path fill-rule="evenodd" clip-rule="evenodd" d="M20 40C31.0457 40 40 31.0457 40 20C40 8.9543 31.0457 0 20 0C8.9543 0 0 8.9543 0 20C0 31.0457 8.9543 40 20 40Z" fill="#25292E"/>
<path fill-rule="evenodd" clip-rule="evenodd" d="M11.4418 19.5588C11.4418 20.242 10.8885 20.7961 10.205 20.7961C9.52195 20.7961 8.96803 20.242 8.96803 19.5589C8.96803 18.8758 9.52195 18.3222 10.205 18.3222C10.8885 18.3222 11.4418 18.8758 11.4418 19.5588ZM31.0988 19.5588C31.0988 20.242 30.5448 20.7961 29.8622 20.7961C29.179 20.7961 28.625 20.242 28.625 19.5589C28.625 18.8758 29.179 18.3222 29.8622 18.3222C30.5448 18.3222 31.0988 18.8758 31.0988 19.5588ZM21.2704 24.4398C21.2704 25.1228 20.7164 25.6769 20.0336 25.6769C19.3504 25.6769 18.7965 25.1228 18.7965 24.4398C18.7965 23.7568 19.3504 23.2031 20.0336 23.2031C20.7164 23.2031 21.2704 23.7568 21.2704 24.4398ZM16.3227 22.033C16.3227 22.7158 15.769 23.2699 15.0856 23.2699C14.4024 23.2699 13.8488 22.7158 13.8488 22.033C13.8488 21.3496 14.4025 20.7961 15.0856 20.7961C15.7691 20.7961 16.3227 21.3496 16.3227 22.033ZM26.1511 22.033C26.1511 22.7158 25.5973 23.2699 24.9144 23.2699C24.2309 23.2699 23.6773 22.7158 23.6773 22.033C23.6773 21.3496 24.231 20.7961 24.9144 20.7961C25.5973 20.7961 26.1511 21.3496 26.1511 22.033ZM11.0407 23.3036C11.0407 23.7644 10.6668 24.1391 10.2054 24.1391C9.74335 24.1391 9.3692 23.7644 9.3692 23.3036C9.3692 22.8417 9.74335 22.4676 10.2054 22.4676C10.6669 22.4676 11.0407 22.8417 11.0407 23.3036ZM30.6976 23.3036C30.6976 23.7644 30.3233 24.1391 29.8618 24.1391C29.4002 24.1391 29.0262 23.7644 29.0262 23.3036C29.0262 22.8417 29.4002 22.4676 29.8619 22.4676C30.3233 22.4676 30.6977 22.8417 30.6977 23.3036H30.6976ZM20.8692 28.2504C20.8692 28.7121 20.4947 29.0868 20.0337 29.0868C19.5725 29.0868 19.1977 28.7121 19.1977 28.2504C19.1977 27.7891 19.5725 27.4153 20.0337 27.4153C20.4946 27.4153 20.8692 27.789 20.8692 28.2504ZM15.9215 25.7775C15.9215 26.239 15.5474 26.6129 15.086 26.6129C14.6244 26.6129 14.25 26.239 14.25 25.7775C14.25 25.3156 14.6244 24.9414 15.086 24.9414C15.5474 24.9414 15.9215 25.3156 15.9215 25.7775ZM25.75 25.7775C25.75 26.239 25.3754 26.6129 24.9147 26.6129C24.4528 26.6129 24.0785 26.239 24.0785 25.7775C24.0785 25.3156 24.4528 24.9414 24.9147 24.9414C25.3754 24.9414 25.75 25.3156 25.75 25.7775ZM10.6395 26.2448C10.6395 26.36 10.5937 26.4706 10.5122 26.5521C10.4307 26.6336 10.3202 26.6794 10.2049 26.6794C10.0897 26.6794 9.97911 26.6336 9.89761 26.5521C9.81611 26.4706 9.77032 26.36 9.77032 26.2448C9.77033 26.1877 9.7816 26.1312 9.80346 26.0785C9.82532 26.0258 9.85735 25.9779 9.89773 25.9376C9.93811 25.8973 9.98603 25.8653 10.0388 25.8435C10.0915 25.8217 10.148 25.8106 10.2051 25.8106C10.2621 25.8106 10.3186 25.8218 10.3713 25.8436C10.424 25.8654 10.4719 25.8974 10.5122 25.9377C10.5526 25.978 10.5846 26.0259 10.6064 26.0786C10.6283 26.1312 10.6395 26.1877 10.6395 26.2448ZM30.2965 26.2448C30.2965 26.36 30.2507 26.4706 30.1692 26.5521C30.0877 26.6336 29.9771 26.6794 29.8619 26.6794C29.7466 26.6794 29.6361 26.6336 29.5546 26.5521C29.4731 26.4706 29.4273 26.36 29.4273 26.2448C29.4273 26.1877 29.4385 26.1312 29.4604 26.0785C29.4822 26.0258 29.5143 25.9779 29.5546 25.9376C29.595 25.8972 29.643 25.8653 29.6957 25.8435C29.7484 25.8217 29.805 25.8105 29.862 25.8106C30.1016 25.8106 30.2965 26.0049 30.2965 26.2448ZM20.468 31.1926C20.468 31.4326 20.2731 31.6275 20.0336 31.6275C19.9182 31.6274 19.8077 31.5816 19.7262 31.5C19.6446 31.4185 19.5989 31.3079 19.5989 31.1926C19.5989 31.1355 19.6101 31.079 19.632 31.0263C19.6538 30.9736 19.6858 30.9257 19.7262 30.8853C19.7666 30.845 19.8145 30.813 19.8672 30.7912C19.92 30.7694 19.9765 30.7582 20.0336 30.7583C20.1488 30.7583 20.2592 30.804 20.3407 30.8855C20.4222 30.9669 20.468 31.0774 20.468 31.1926ZM15.5204 28.719C15.5203 28.8343 15.4744 28.9448 15.3929 29.0263C15.3114 29.1078 15.2009 29.1536 15.0856 29.1536C14.9704 29.1535 14.8599 29.1077 14.7785 29.0262C14.697 28.9447 14.6512 28.8343 14.6512 28.719C14.6511 28.662 14.6624 28.6055 14.6842 28.5527C14.706 28.5 14.738 28.4521 14.7784 28.4118C14.8187 28.3714 14.8666 28.3394 14.9193 28.3175C14.972 28.2957 15.0285 28.2845 15.0856 28.2845C15.1427 28.2844 15.1992 28.2957 15.252 28.3175C15.3047 28.3393 15.3527 28.3713 15.393 28.4117C15.4334 28.452 15.4654 28.4999 15.4873 28.5527C15.5091 28.6054 15.5204 28.662 15.5204 28.719ZM25.3488 28.719C25.3488 28.9588 25.1539 29.1536 24.9144 29.1536C24.8573 29.1537 24.8008 29.1424 24.748 29.1206C24.6953 29.0988 24.6473 29.0668 24.6069 29.0264C24.5666 28.9861 24.5345 28.9381 24.5127 28.8854C24.4909 28.8327 24.4796 28.7761 24.4796 28.719C24.4796 28.6619 24.4908 28.6054 24.5126 28.5526C24.5344 28.4998 24.5664 28.4519 24.6068 28.4115C24.6472 28.3711 24.6952 28.3391 24.7479 28.3173C24.8007 28.2955 24.8573 28.2844 24.9144 28.2845C24.9715 28.2845 25.028 28.2957 25.0807 28.3176C25.1334 28.3394 25.1813 28.3714 25.2216 28.4118C25.262 28.4521 25.294 28.5 25.3158 28.5528C25.3376 28.6055 25.3488 28.662 25.3488 28.719ZM21.6715 10.0316C21.6715 10.9549 20.923 11.703 20.0005 11.703C19.077 11.703 18.3285 10.9549 18.3285 10.0316C18.3285 9.10841 19.077 8.35999 20.0005 8.35999C20.923 8.35999 21.6715 9.10841 21.6715 10.0315L21.6715 10.0316ZM21.6715 14.9792C21.6715 15.9024 20.923 16.6507 20.0005 16.6507C19.077 16.6507 18.3285 15.9024 18.3285 14.9792C18.3285 14.0562 19.077 13.3077 20.0005 13.3077C20.923 13.3077 21.6715 14.0562 21.6715 14.9792ZM21.6715 19.8603C21.6715 20.7831 20.923 21.5315 20.0005 21.5315C19.077 21.5315 18.3285 20.7831 18.3285 19.8603C18.3285 18.9369 19.077 18.1885 20.0005 18.1885C20.923 18.1885 21.6715 18.9369 21.6715 19.8603ZM31.5 14.9792C31.5 15.9024 30.7516 16.6507 29.8286 16.6507C28.9053 16.6507 28.157 15.9024 28.157 14.9792C28.157 14.0562 28.9053 13.3077 29.8286 13.3077C30.7516 13.3077 31.5 14.0562 31.5 14.9792ZM11.843 14.9792C11.843 15.9024 11.0948 16.6507 10.1717 16.6507C9.24842 16.6507 8.5 15.9024 8.5 14.9792C8.5 14.0562 9.24848 13.3077 10.1716 13.3077C11.0948 13.3077 11.843 14.0562 11.843 14.9792ZM16.7907 12.5053C16.7907 13.4284 16.0425 14.1768 15.1192 14.1768C14.1959 14.1768 13.4477 13.4284 13.4477 12.5053C13.4477 11.5816 14.1959 10.8338 15.1192 10.8338C16.0424 10.8338 16.7907 11.5816 16.7907 12.5053ZM16.7907 17.386C16.7907 18.3092 16.0425 19.0576 15.1192 19.0576C14.1959 19.0576 13.4477 18.3092 13.4477 17.386C13.4477 16.4631 14.1959 15.7146 15.1192 15.7146C16.0424 15.7146 16.7907 16.4631 16.7907 17.386ZM26.6192 12.5053C26.6192 13.4284 25.8707 14.1768 24.9475 14.1768C24.0243 14.1768 23.2762 13.4284 23.2762 12.5053C23.2762 11.5816 24.0243 10.8338 24.9475 10.8338C25.8707 10.8338 26.6192 11.5816 26.6192 12.5053ZM26.6192 17.386C26.6192 18.3092 25.8707 19.0576 24.9475 19.0576C24.0243 19.0576 23.2762 18.3092 23.2762 17.386C23.2762 16.4631 24.0243 15.7146 24.9475 15.7146C25.8707 15.7146 26.6192 16.4631 26.6192 17.386Z" fill="white"/>
</svg>
