<svg width="40" height="40" viewBox="0 0 40 40" fill="none" xmlns="http://www.w3.org/2000/svg">
<path fill-rule="evenodd" clip-rule="evenodd" d="M20 40C31.0457 40 40 31.0457 40 20C40 8.9543 31.0457 0 20 0C8.9543 0 0 8.9543 0 20C0 31.0457 8.9543 40 20 40Z" fill="#1A56F0"/>
<path fill-rule="evenodd" clip-rule="evenodd" d="M15.0811 10.05C12.6641 10.0492 10.5814 11.7518 10.1016 14.1207C9.62178 16.4896 10.8778 18.8684 13.1046 19.8082C15.3314 20.748 17.912 19.9883 19.2745 17.9919C20.6369 15.9956 20.4038 13.3156 18.7171 11.5845H20.1571V10.05H15.0811ZM25.9236 10.05C23.12 10.05 20.8473 12.3228 20.8473 15.1264C20.8473 17.93 23.12 20.2027 25.9236 20.2027C28.7272 20.2027 31 17.93 31 15.1264C31 12.3228 28.7272 10.05 25.9236 10.05ZM10.0047 25.9544C10.0047 23.1508 12.2775 20.878 15.0811 20.878C17.8847 20.878 20.1574 23.1508 20.1574 25.9544C20.1574 28.758 17.8847 31.0308 15.0811 31.0308C12.2775 31.0308 10.0047 28.758 10.0047 25.9544ZM11.5399 25.9537C11.5399 27.9094 13.1254 29.4948 15.0811 29.4948V29.4963C17.0372 29.4963 18.6229 27.9105 18.6229 25.9544C18.6229 23.9983 17.0372 22.4125 15.0811 22.4125C13.1254 22.4125 11.5399 23.998 11.5399 25.9537ZM22.3836 15.1267C22.3836 17.0818 23.9685 18.6668 25.9236 18.6668C27.8776 18.664 29.4609 17.0807 29.4637 15.1267C29.4637 13.1716 27.8787 11.5867 25.9236 11.5867C23.9685 11.5867 22.3836 13.1716 22.3836 15.1267ZM15.0816 18.6646C17.0365 18.6651 18.6218 17.0809 18.6226 15.126C18.6206 13.1715 17.037 11.5873 15.0825 11.5845C13.1276 11.5845 11.5427 13.1691 11.5425 15.1241C11.5422 17.079 13.1266 18.6641 15.0816 18.6646Z" fill="white"/>
</svg>
