<svg width="40" height="40" viewBox="0 0 40 40" fill="none" xmlns="http://www.w3.org/2000/svg">
<path fill-rule="evenodd" clip-rule="evenodd" d="M20 40C31.0457 40 40 31.0457 40 20C40 8.9543 31.0457 0 20 0C8.9543 0 0 8.9543 0 20C0 31.0457 8.9543 40 20 40Z" fill="white"/>
<path fill-rule="evenodd" clip-rule="evenodd" d="M23.4292 26.113C20.0182 28.305 15.4694 27.3272 13.2691 23.9289C11.0688 20.5306 12.1571 16.1555 15.4612 13.8065C19.1552 11.1801 23.894 12.2162 25.6213 15.9906C27.3054 19.6702 26.8401 23.9209 23.4292 26.113ZM10.7263 27.1406C11.1503 28.1352 11.7072 29.0571 12.3901 29.8628C12.3901 29.8628 14.5652 30.9471 16.0919 30.9471C18.8203 30.9471 21.2135 30.4728 21.2135 30.4728C21.2135 30.4728 27.5883 26.6551 28.4458 25.2255C29.3969 23.6396 29.9328 20.9765 29.9432 19.029C29.9493 17.9053 29.0547 13.8065 29.0547 13.8065L24.994 11.0038L23.9265 10.6306L22.5518 10.1524H15.4612L11.6821 14.365L9.6737 19.029L9.34418 23.0899L10.2747 26.3901L10.7263 27.1406Z" fill="#CCA727"/>
<path fill-rule="evenodd" clip-rule="evenodd" d="M26.8667 10.6678L23.9265 10.6306C26.9475 12.2255 28.9584 14.9054 28.9355 19.1739C28.9156 22.877 27.0025 26.1501 23.9286 28.1422L26.5677 27.4986L33.0782 19.6895L32.7426 17.2902L32.3201 13.7978L26.8667 10.6678Z" fill="#E5CB22"/>
<path fill-rule="evenodd" clip-rule="evenodd" d="M10.7263 27.1406C9.2922 23.7764 9.39207 19.5793 11.4125 16.2288C14.1029 11.7672 19.498 9.82285 23.9265 10.6306L23.626 9.18612L19.8502 7.6564L15.2712 8.63417C15.2712 8.63417 13.4647 9.44533 12.9292 10.0508C9.55779 13.8613 6.77237 25.4357 6.77237 25.4357L10.7263 27.1406Z" fill="#DEC21C"/>
<path fill-rule="evenodd" clip-rule="evenodd" d="M32.7425 17.2902C32.0091 19.3553 30.664 21.6718 28.7615 23.9524C27.2789 25.7297 25.63 27.1293 23.9286 28.1422C21.962 29.4166 19.522 30.1683 16.7936 30.1683C15.2669 30.1683 13.7654 30.0837 12.3901 29.8628C13.2028 30.8208 14.1902 31.6159 15.3391 32.1713C22.4637 35.6158 22.9133 29.2163 30.4503 25.9695C34.683 24.1459 34.6987 20.5812 32.7425 17.2902Z" fill="#EDE70A"/>
<path fill-rule="evenodd" clip-rule="evenodd" d="M15.2712 8.63418C7.39226 8.37998 9.6855 14.0759 7.11818 19.864C4.16118 26.5303 7.46607 29.071 12.3901 29.8628C11.7072 29.0571 11.1503 28.1352 10.7263 27.1406C7.53394 23.1214 8.81837 15.7991 13.7819 10.1891C14.3174 9.58363 14.8054 9.06671 15.2712 8.63418Z" fill="#EFE812"/>
<path fill-rule="evenodd" clip-rule="evenodd" d="M23.9265 10.6306C24.9771 10.8224 25.9741 11.1674 26.8667 11.6725C29.2596 13.0253 31.4388 15.0968 32.7426 17.2902C34.026 13.6756 33.4285 10.8335 30.6199 10.3197C27.5344 9.75499 25.1214 9.57382 22.8029 7.95518C19.9473 5.96105 17.4437 6.61862 15.2712 8.63418C15.4251 8.63934 15.5814 8.64579 15.7427 8.65534C18.756 8.83289 21.6322 9.41923 23.9265 10.6306Z" fill="#EDE70A"/>
</svg>
