<svg width="40" height="40" viewBox="0 0 40 40" fill="none" xmlns="http://www.w3.org/2000/svg">
<path fill-rule="evenodd" clip-rule="evenodd" d="M20 40C31.0457 40 40 31.0457 40 20C40 8.9543 31.0457 0 20 0C8.9543 0 0 8.9543 0 20C0 31.0457 8.9543 40 20 40Z" fill="#00BFFF"/>
<path d="M11.901 24.6422H11.7932V29.15H9.25V13.8875H11.736V14.5915H11.8339C12.7018 13.7599 13.8073 13.7368 14.4277 13.7368C17.0281 13.7368 18.7331 16.2151 18.7331 19.525V19.954C18.7331 23.3981 16.7597 25.4507 14.3837 25.4507C13.2716 25.454 12.4477 25.1999 11.901 24.6422ZM16.3714 20.1586V19.4073C16.3714 17.2513 15.5497 15.8092 14.0856 15.8092C12.5038 15.8092 11.6557 17.4856 11.6557 19.4073V20.1553C11.6557 21.9868 12.4906 23.3893 14.1296 23.3893C15.4199 23.3849 16.3714 22.3795 16.3714 20.1586ZM19.964 9.35001H22.5105V25.3836H19.964V9.35001ZM29.7859 16.3999C28.3581 16.3999 26.9402 17.5329 26.9402 18.9651V25.3935H24.408V13.9953H26.7543V14.696H26.85C27.4198 14.0954 28.8135 13.8138 29.9597 13.8303C30.0741 13.8303 29.9795 13.8336 30.0906 13.8336L30.1038 16.3999H29.7859ZM28.7167 22.6545H31.25V25.3836H28.7167V22.6545Z" fill="white"/>
</svg>
