<svg width="40" height="40" viewBox="0 0 40 40" fill="none" xmlns="http://www.w3.org/2000/svg">
<path fill-rule="evenodd" clip-rule="evenodd" d="M20 40C31.0457 40 40 31.0457 40 20C40 8.9543 31.0457 0 20 0C8.9543 0 0 8.9543 0 20C0 31.0457 8.9543 40 20 40Z" fill="#A2A1A3"/>
<path d="M26.2144 12.415L28.8742 11.8095L28.5281 7.75147L13.9757 7.10202L18.6829 11.8095L26.2144 12.415Z" fill="#757578"/>
<path opacity="0.7" d="M26.9254 8.28931L25.425 11.0341L18.3576 7.94144L26.9254 8.28931Z" fill="#36383F"/>
<path d="M28.5281 7.75146L34.5043 20.8216L28.8742 19.6384L26.2144 12.4149L28.5281 7.75146Z" fill="#6C6D70"/>
<path opacity="0.7" d="M28.5585 9.57761L32.1268 17.2316L27.2478 12.2697L28.5585 9.57761Z" fill="#34363D"/>
<path d="M34.5043 20.8216L26.1377 32.721L23.6825 31.1485L24.0341 28.5415L28.3764 20.1617L34.5043 20.8216Z" fill="#6C6D70"/>
<path opacity="0.7" d="M31.7508 23.662L25.002 28.6918L26.343 31.3136L31.7508 23.662Z" fill="#34363D"/>
<path d="M26.1378 32.721L11.4398 31.8312L15.7558 26.6054L24.0341 28.5415L26.1378 32.721Z" fill="#55565A"/>
<path opacity="0.7" d="M23.4656 29.3709L24.8225 31.9678L15.7558 31.387L23.4656 29.3709Z" fill="#43444B"/>
<path d="M13.9757 7.10202L5.50267 17.6861L8.89075 20.6543L11.1513 18.9308L17.5927 12.5164L13.9757 7.10202Z" fill="#55565A"/>
<path opacity="0.7" d="M12.7744 9.53433L10.7855 17.9657L6.77321 17.1155L12.7744 9.53433Z" fill="#3B3C43"/>
<path d="M5.50267 17.6861L11.4398 31.8312L15.3276 26.7713L11.1513 18.9307L5.50267 17.6861Z" fill="#656569"/>
<path opacity="0.7" d="M10.5435 19.4528L10.7186 28.5136L6.51192 18.5989L10.5435 19.4528Z" fill="#45464D"/>
<path d="M34.5043 20.8216L26.2144 12.4149L20.4943 19.6863L24.0341 28.5414L34.5043 20.8216Z" fill="#656569"/>
<path opacity="0.7" d="M32.9683 20.7927L26.7387 14.4686L25.0944 26.6297L32.9683 20.7927Z" fill="#23262E"/>
<path d="M26.2144 12.415L13.9757 7.10202L11.1513 18.9308L20.2891 19.3695L26.2144 12.415Z" fill="url(#paint0_linear)"/>
<path opacity="0.7" d="M23.4543 12.3307L15.0428 8.70728L13.2759 16.3256L23.4543 12.3307Z" fill="#151A22"/>
<path d="M11.1513 18.9308L11.4398 31.8312L24.0341 28.5415L20.4943 19.3696L11.1513 18.9308Z" fill="url(#paint1_linear)"/>
<path opacity="0.7" d="M21.3223 27.9486L12.1806 21.418L12.4017 30.2672L21.3223 27.9486Z" fill="#23262E"/>
<path d="M11.1513 18.9308L26.2144 12.4149L24.0341 28.5414L11.1513 18.9308Z" fill="url(#paint2_linear)"/>
<path opacity="0.7" d="M24.6728 14.636L23.1461 26.1971L14.1475 19.2366L24.6728 14.636Z" fill="#151A22"/>
<defs>
<linearGradient id="paint0_linear" x1="17.8006" y1="23.5036" x2="25.9599" y2="10.8685" gradientUnits="userSpaceOnUse">
<stop stop-color="#969598"/>
<stop offset="0.3396" stop-color="#908F92"/>
<stop offset="0.7917" stop-color="#7F7F82"/>
<stop offset="1" stop-color="#757578"/>
</linearGradient>
<linearGradient id="paint1_linear" x1="6.21556" y1="21.4276" x2="11.9453" y2="32.759" gradientUnits="userSpaceOnUse">
<stop stop-color="#9E9EA0"/>
<stop offset="0.2759" stop-color="#9B9B9D"/>
<stop offset="0.494" stop-color="#919194"/>
<stop offset="0.6923" stop-color="#808083"/>
<stop offset="0.8777" stop-color="#69696D"/>
<stop offset="1" stop-color="#55565A"/>
</linearGradient>
<linearGradient id="paint2_linear" x1="11.1513" y1="28.5414" x2="26.2144" y2="28.5414" gradientUnits="userSpaceOnUse">
<stop stop-color="#A3A2A5"/>
<stop offset="0.2705" stop-color="#9F9EA0"/>
<stop offset="0.5607" stop-color="#929194"/>
<stop offset="0.8592" stop-color="#7C7C80"/>
<stop offset="1" stop-color="#707073"/>
</linearGradient>
</defs>
</svg>
