<svg width="40" height="40" viewBox="0 0 40 40" fill="none" xmlns="http://www.w3.org/2000/svg">
<path fill-rule="evenodd" clip-rule="evenodd" d="M20 40C31.0457 40 40 31.0457 40 20C40 8.9543 31.0457 0 20 0C8.9543 0 0 8.9543 0 20C0 31.0457 8.9543 40 20 40Z" fill="#5332A0"/>
<path fill-rule="evenodd" clip-rule="evenodd" d="M11.6411 21.7152H11.2188V22.8299C11.2188 23.0459 11.0297 23.2214 10.7964 23.2214H7.42139C7.189 23.2214 7 23.0459 7 22.8299V15.9295H7.0135C7.01254 15.9179 7 15.9102 7 15.8987C7 15.6827 7.189 15.5072 7.42139 15.5072H11.6411C13.5041 15.5072 15.0161 16.8967 15.0161 18.6112C15.0161 20.3247 13.5041 21.7152 11.6411 21.7152ZM20.0776 15.5072C22.4083 15.5072 24.2964 17.2342 24.2964 19.3643C24.2964 21.4944 22.4083 23.2214 20.0776 23.2214C17.7479 23.2214 15.8599 21.4944 15.8599 19.3643C15.8599 17.2342 17.7479 15.5072 20.0776 15.5072ZM34 22.9775C34 23.1086 33.8833 23.2157 33.7387 23.2157H24.1469C24.1411 23.2157 24.1373 23.2214 24.1315 23.2214C23.9897 23.2214 23.875 23.1134 23.875 22.9804C23.875 22.9302 23.9039 22.8897 23.9319 22.8512L23.9232 22.8348L28.6742 15.6942H28.6955C28.7194 15.581 28.8194 15.5 28.9351 15.5C29.0508 15.5 29.1508 15.581 29.1747 15.6942H29.1959L34 22.882L33.973 22.9167C33.9797 22.9379 34 22.9534 34 22.9775Z" fill="white"/>
</svg>
