<svg width="40" height="40" viewBox="0 0 40 40" fill="none" xmlns="http://www.w3.org/2000/svg">
<path fill-rule="evenodd" clip-rule="evenodd" d="M20 40C31.0457 40 40 31.0457 40 20C40 8.9543 31.0457 0 20 0C8.9543 0 0 8.9543 0 20C0 31.0457 8.9543 40 20 40Z" fill="url(#paint0_radial)"/>
<path d="M26.3341 19.878C27.3839 19.6052 28.3181 18.8199 28.3181 17.2408C28.3181 14.6118 26.0859 14 23.2255 14H11.8333V25.8386H16.6283V21.8208H22.3161C23.1925 21.8208 23.705 22.168 23.705 23.0278V25.8386H28.5V22.8789C28.5 21.2669 27.5906 20.25 26.3341 19.878ZM22.3988 18.6297H16.6283V17.4722H22.3988C23.0272 17.4722 23.4073 17.5549 23.4073 18.051C23.4073 18.5471 23.0272 18.6297 22.3988 18.6297Z" fill="white"/>
<defs>
<radialGradient id="paint0_radial" cx="0" cy="0" r="1" gradientUnits="userSpaceOnUse" gradientTransform="translate(9.35439 13.3566) rotate(57.6582) scale(24.3216 25.4403)">
<stop stop-color="#0C50FF"/>
<stop offset="0.557292" stop-color="#5B9DFF"/>
<stop offset="1" stop-color="#FF74F1"/>
</radialGradient>
</defs>
</svg>
