<svg width="40" height="40" viewBox="0 0 40 40" fill="none" xmlns="http://www.w3.org/2000/svg">
<path fill-rule="evenodd" clip-rule="evenodd" d="M20 40C31.0457 40 40 31.0457 40 20C40 8.9543 31.0457 0 20 0C8.9543 0 0 8.9543 0 20C0 31.0457 8.9543 40 20 40Z" fill="#25292E"/>
<path fill-rule="evenodd" clip-rule="evenodd" d="M22.4825 7.85737H12.5C12.565 7.8934 12.6335 7.92245 12.702 7.9515C12.7411 7.9681 12.7803 7.9847 12.8188 8.0026C14.7264 8.84196 16.5577 9.88069 18.1847 11.1963C19.6788 12.4037 20.9933 13.8572 21.9348 15.542C22.8147 17.1149 23.3735 18.8909 23.4264 20.7013C23.4334 20.9576 23.4244 21.2141 23.3993 21.4692H28.4884C28.5623 19.5493 28.2817 17.6171 27.6884 15.7907C27.1207 14.0621 26.303 12.426 25.2614 10.9342C24.5284 9.86749 23.6843 8.88149 22.7434 7.99275C22.7242 7.97778 22.7061 7.95989 22.6878 7.94193C22.6312 7.88606 22.5737 7.82943 22.4825 7.85737ZM21.3083 26.146C19.6066 23.0541 17.902 19.9637 16.1947 16.8749H16.1922V32.4646C17.1805 31.8308 18.1678 31.1946 19.1551 30.5583C20.2825 29.8318 21.4099 29.1053 22.5391 28.3823C22.2836 27.9123 22.0247 27.4438 21.7657 26.9752C21.613 26.6989 21.4603 26.4227 21.3083 26.146Z" fill="white"/>
</svg>
