<svg width="40" height="40" viewBox="0 0 40 40" fill="none" xmlns="http://www.w3.org/2000/svg">
<path fill-rule="evenodd" clip-rule="evenodd" d="M20 40C31.0457 40 40 31.0457 40 20C40 8.9543 31.0457 0 20 0C8.9543 0 0 8.9543 0 20C0 31.0457 8.9543 40 20 40Z" fill="#00224D"/>
<path fill-rule="evenodd" clip-rule="evenodd" d="M11.6025 11.895L11.3175 11.4275L7.82001 13.44V13.135L19.9988 6.10001L20.2613 6.26251L20.8138 6.56751L21.3613 6.89251L13.8988 11.2025L13.615 10.735L11.6025 11.895ZM11.6025 16.3263L11.3175 15.8588L7.82001 17.8713V17.545L23.84 8.31626L24.1075 8.47876L24.655 8.78251L25.2038 9.10751L17.72 13.42L17.4575 12.9513L11.6025 16.3263ZM11.3175 18.0563L11.6025 18.5413L19.3688 14.0513L19.6313 14.5175L27.115 10.2088L26.5675 9.90126L26.015 9.57501L25.7525 9.41251L7.82001 19.7638V20.0863L11.3175 18.0563ZM11.6025 20.7388L11.3175 20.2713L7.82001 22.2838V21.98L27.6638 10.5313L27.9263 10.675L28.4763 10.9988L29.0263 11.305L21.6063 15.5963L21.34 15.1263L11.6025 20.7388ZM11.3175 22.4875L11.6025 22.9538L23.2513 16.2263L23.5175 16.715L30.9388 12.4238L30.3863 12.0988L29.8613 11.7913L29.575 11.6325L7.82001 24.195V24.5L11.3175 22.4875ZM31.7688 12.8913L32.1763 13.135V13.9288L23.5175 18.9088L23.2513 18.4413L11.6025 25.17L11.3175 24.7025L7.82001 26.715V26.4113L31.4875 12.7288L31.7688 12.8913ZM9.06126 27.8963L9.32376 28.0588L11.2763 26.94L11.5625 27.4075L23.1913 20.6788L23.4738 21.165L32.1763 16.1225V14.5588L9.06126 27.8963ZM23.1913 22.895L13.5113 28.485L13.2288 28.0188L11.2363 29.1775L10.9738 29.015L32.1763 16.7738V18.3413L23.4738 23.3838L23.1913 22.895ZM12.8813 30.1125L13.1475 30.275L15.16 29.1163L15.4225 29.6038L23.1913 25.11L23.4738 25.5775L32.1763 20.5563V18.9713L12.8813 30.1125ZM15.0775 31.3713L14.7925 31.2313L32.1763 21.1863V22.7725L23.4738 27.7925L23.1913 27.3263L17.335 30.7013L17.0713 30.2338L15.0775 31.3713ZM32.1763 23.4025L16.705 32.3275L16.99 32.49L18.9838 31.3313L19.2463 31.82L23.1913 29.5413L23.4738 30.0125L32.1763 24.9875V23.4025ZM18.9013 33.5875L18.635 33.4463L32.1763 25.6175V27.2038L23.4738 32.2275L23.1913 31.7388L21.1763 32.9163L20.895 32.45L18.9013 33.5875ZM15.8113 12.3025L23.2925 7.99001V7.98876L22.7438 7.68501L22.195 7.35751L21.91 7.19501L7.82001 15.35V15.6563L11.3175 13.6438L11.6025 14.11L15.545 11.835L15.8113 12.3025Z" fill="white"/>
</svg>
