<svg width="40" height="40" viewBox="0 0 40 40" fill="none" xmlns="http://www.w3.org/2000/svg">
<path fill-rule="evenodd" clip-rule="evenodd" d="M20 40C31.0457 40 40 31.0457 40 20C40 8.9543 31.0457 0 20 0C8.9543 0 0 8.9543 0 20C0 31.0457 8.9543 40 20 40Z" fill="#25292E"/>
<path d="M31.4128 24.5275L28.978 20.4598C28.8862 20.3094 28.6899 20.2635 28.5395 20.3554L26.9567 21.3703C26.8147 21.4621 26.7687 21.6501 26.8565 21.7962L28.2472 24.1183C28.2889 24.1893 28.2681 24.2853 28.197 24.3313L20.0866 29.5308C20.0365 29.5642 19.9697 29.5642 19.9196 29.5308L11.805 24.3313C11.734 24.2853 11.7131 24.1934 11.7548 24.1183L13.1456 21.7962C13.2333 21.6501 13.1873 21.4621 13.0453 21.3703L11.4625 20.3554C11.3122 20.2593 11.1159 20.3053 11.024 20.4598L8.58919 24.5275C8.41379 24.8199 8.50566 25.1957 8.78965 25.3753L19.6607 32.3415C19.8653 32.4751 20.1326 32.4751 20.3372 32.3415L31.2082 25.3753C31.4964 25.1957 31.5841 24.8199 31.4128 24.5275Z" fill="white"/>
<path d="M12.7322 18.1962L14.3151 19.211C14.4654 19.307 14.6617 19.2611 14.7536 19.1066L19.8654 10.5577C19.9281 10.4574 20.0742 10.4574 20.1327 10.5577L25.2487 19.1066C25.3406 19.257 25.5369 19.3029 25.6872 19.211L27.2701 18.1962C27.412 18.1043 27.458 17.9163 27.3703 17.7702L21.2603 7.55487C21.1434 7.36694 20.9429 7.25 20.7215 7.25H19.2807C19.0593 7.25 18.8547 7.36694 18.742 7.55487L12.632 17.7702C12.5443 17.9163 12.5902 18.1043 12.7322 18.1962Z" fill="#2AE7A8"/>
</svg>
