<svg width="40" height="40" viewBox="0 0 40 40" fill="none" xmlns="http://www.w3.org/2000/svg">
<path fill-rule="evenodd" clip-rule="evenodd" d="M20 40C31.0457 40 40 31.0457 40 20C40 8.9543 31.0457 0 20 0C8.9543 0 0 8.9543 0 20C0 31.0457 8.9543 40 20 40Z" fill="#602A52"/>
<path opacity="0.9" fill-rule="evenodd" clip-rule="evenodd" d="M20.9412 6.14621L31.7648 25.2203H31.7673L31.7648 25.2278C32.047 25.7284 31.8732 26.3629 31.3752 26.6497L20.5566 33.0086C20.213 33.2094 19.7878 33.2094 19.4442 33.0086L8.62433 26.6447C8.12609 26.3574 7.95272 25.7221 8.23599 25.2216L19.0471 6.14621C19.2412 5.80735 19.6023 5.5988 19.9929 5.60002C20.3843 5.5979 20.7466 5.80656 20.9412 6.14621ZM23.3214 17.3206C24.1421 17.9478 24.7642 18.7986 25.1128 19.7709L25.1228 19.7759C25.2171 20.0431 25.2891 20.3175 25.3383 20.5965L25.4711 21.1164C25.5913 21.5598 26.0599 22.7963 26.7464 23.147C27.949 23.7584 29.4898 24.5038 30.3668 24.9259L20.5466 7.61316V15.1383C20.5466 16.6065 18.3819 17.5974 18.1351 17.7064L17.6741 17.9194C17.3396 18.1299 17.0364 18.3842 16.7721 18.6748L16.7408 18.7124C16.6832 18.7775 16.6268 18.8439 16.5729 18.9128L16.5629 18.9253C16.5482 18.9456 16.5337 18.9654 16.5194 18.9849C16.4791 19.04 16.4405 19.0928 16.4025 19.1483L16.3712 19.1947C16.328 19.2603 16.2867 19.3272 16.2472 19.3951L16.2234 19.4339C16.1796 19.5129 16.137 19.5918 16.0981 19.6732L16.0743 19.7258C16.043 19.7947 16.0129 19.8636 15.9854 19.9325L15.9603 19.9889C15.9278 20.0728 15.8964 20.1568 15.8714 20.2432L15.8564 20.2908C15.8326 20.3647 15.8138 20.4374 15.795 20.5125L15.7799 20.5814C15.7586 20.6691 15.7399 20.7593 15.7273 20.8508V20.8859C15.7247 20.9046 15.7219 20.9235 15.719 20.9423C15.7094 21.0053 15.6998 21.0687 15.6998 21.1314V21.2066C15.6885 21.3068 15.6885 21.4007 15.6885 21.4959V21.4959V21.5673C15.6951 21.9635 15.7584 22.3567 15.8764 22.7349C15.4921 22.5377 15.0859 22.3863 14.6663 22.2839C14.6262 22.0221 14.6061 21.759 14.6061 21.4959V21.3769C14.6061 21.365 14.6051 21.3559 14.6041 21.3469C14.6022 21.3293 14.6003 21.3123 14.6061 21.2767C14.6122 21.2402 14.6129 21.2038 14.6135 21.1669C14.6138 21.1505 14.6141 21.1341 14.6149 21.1176C14.6182 21.0645 14.6228 21.0114 14.6287 20.9585L14.6412 20.842C14.6735 20.5824 14.7259 20.3256 14.7978 20.0741C14.8028 20.0532 14.8089 20.0334 14.8151 20.0137C14.8181 20.0038 14.8212 19.9939 14.8241 19.9839C14.84 19.9291 14.8576 19.8748 14.8767 19.821L14.9018 19.7459C14.912 19.7195 14.9223 19.6919 14.9327 19.6639C14.949 19.6203 14.9656 19.5757 14.9832 19.5329L15.0145 19.4577C15.0433 19.3901 15.0734 19.3237 15.106 19.2573L15.1223 19.2235C15.1465 19.1801 15.1707 19.1322 15.1949 19.0843C15.207 19.0603 15.2191 19.0364 15.2312 19.013L15.2601 18.9617C15.3001 18.8878 15.3427 18.8163 15.3866 18.7449L15.4016 18.7236C15.4453 18.6543 15.4905 18.5858 15.5369 18.5182L15.5544 18.4931C15.6061 18.4215 15.6591 18.3509 15.7135 18.2814L15.7273 18.2626C15.8401 18.1201 15.9601 17.9833 16.0869 17.853L16.0994 17.8405C16.4337 17.498 16.812 17.2014 17.2243 16.9585L17.2494 16.946C17.3734 16.8734 17.4999 16.8057 17.6302 16.7431L17.7229 16.693C19.0621 16.1017 19.463 15.4052 19.463 15.1383V7.61316L9.71922 24.7969C10.6062 24.2858 12.0593 23.5116 13.3496 23.1132C13.9685 22.9228 14.7752 23.0982 15.7399 23.6369C16.1497 23.868 16.5358 24.1391 16.8924 24.4461L17.2807 24.7919C17.5305 24.9906 17.8015 25.1612 18.0887 25.3005L18.2127 25.3581L18.2779 25.3857L18.4057 25.437L18.4721 25.4621C18.8589 25.6061 19.2642 25.6947 19.6759 25.7252C19.3665 26.002 19.1047 26.3277 18.9043 26.6873C18.6474 26.6347 18.3931 26.5645 18.1464 26.4743L18.0962 26.4543L18.0211 26.4254C17.8495 26.359 17.6816 26.2839 17.5175 26.2012L17.4837 26.1837L17.3145 26.0922C17.0627 25.9494 16.8222 25.7878 16.5967 25.6074L16.5616 25.5761C16.4589 25.4972 16.36 25.4132 16.266 25.3255L16.2234 25.288C15.5131 24.7205 14.2604 23.9475 13.6703 24.1279C12.1621 24.5977 10.3281 25.665 9.70043 26.0484L19.4592 31.7709V27.8548C19.4592 26.3879 21.634 25.4233 21.8807 25.3143L21.9722 25.2679C22.4534 25.0304 22.8863 24.7054 23.2487 24.3096L23.2788 24.2745C23.3346 24.2126 23.3881 24.1487 23.4391 24.0828L23.4842 24.0252C23.5355 23.9577 23.5848 23.8888 23.6321 23.8185L23.6546 23.7847C23.7047 23.702 23.7548 23.6168 23.8024 23.5291C23.9152 23.3274 24.0129 23.117 24.0906 22.9003C24.2805 23.2834 24.5143 23.6433 24.7871 23.9726C24.7804 23.9842 24.7738 23.9957 24.7672 24.0072C24.7017 24.1214 24.6384 24.2318 24.5679 24.3421L24.5478 24.3672C24.4902 24.4536 24.4326 24.5388 24.3699 24.6215L24.3248 24.6779C24.2735 24.7455 24.2209 24.8119 24.1657 24.8771L24.1043 24.9472C24.0477 25.0224 23.9845 25.0852 23.9203 25.1489C23.9107 25.1585 23.901 25.1681 23.8914 25.1777L23.8563 25.2115C23.7891 25.2784 23.7201 25.3436 23.6496 25.407L23.5807 25.4684L23.5206 25.5222C23.2976 25.7101 23.0571 25.8805 22.8065 26.0321L22.7577 26.0571C22.6449 26.1248 22.5259 26.1887 22.4069 26.2476L22.3731 26.2663C21.7931 26.5207 20.5403 27.2435 20.5403 27.8611V31.7759L30.269 26.0634C30.2023 26.0313 30.1263 25.9948 30.0422 25.9543C29.197 25.5481 27.5315 24.7475 26.2453 24.0878C25.0113 23.4602 24.4789 21.5962 24.4213 21.3857L24.2847 20.8796C24.2371 20.5636 24.1531 20.2542 24.0342 19.9576C24.0129 19.9012 23.9853 19.8348 23.9665 19.7897C23.9558 19.7655 23.9443 19.7428 23.9325 19.7195C23.9235 19.7019 23.9143 19.6839 23.9052 19.6644C23.8985 19.6511 23.8921 19.6377 23.8857 19.6243C23.8703 19.5924 23.8552 19.5608 23.8375 19.5317C23.8233 19.5049 23.8072 19.4771 23.7915 19.4502C23.7823 19.4343 23.7732 19.4187 23.7649 19.4039L23.6922 19.2836C23.6659 19.2398 23.6333 19.1922 23.6083 19.1558C23.6026 19.1476 23.597 19.1395 23.5915 19.1314C23.573 19.1042 23.5548 19.0775 23.5306 19.0456L23.4366 18.9203L23.3552 18.8189L23.2512 18.6973L23.166 18.6059L23.0495 18.4881L22.9644 18.4067C22.9218 18.3679 22.8804 18.3303 22.8353 18.2927L22.7514 18.2251C22.722 18.2036 22.6943 18.1821 22.6666 18.1606C22.6458 18.1445 22.6251 18.1284 22.6036 18.1123L22.5284 18.0597L22.363 17.947L22.3292 17.9269C21.7313 17.5526 21.0519 17.3278 20.3487 17.2717C20.6481 16.9954 20.9011 16.6727 21.0978 16.3159C21.4392 16.3856 21.7731 16.488 22.095 16.6216L22.1275 16.6341C22.227 16.6759 22.3255 16.7198 22.4232 16.7656L22.4507 16.7807C22.5462 16.8241 22.6394 16.8722 22.7301 16.9247L22.7552 16.9398C22.8477 16.9937 22.9387 17.0501 23.0282 17.1089L23.0458 17.1214C23.1367 17.1817 23.2257 17.2448 23.3126 17.3106L23.3214 17.3206Z" fill="white"/>
</svg>
