<svg width="40" height="40" viewBox="0 0 40 40" fill="none" xmlns="http://www.w3.org/2000/svg">
<path fill-rule="evenodd" clip-rule="evenodd" d="M20 40C31.0457 40 40 31.0457 40 20C40 8.9543 31.0457 0 20 0C8.9543 0 0 8.9543 0 20C0 31.0457 8.9543 40 20 40Z" fill="#FED347"/>
<path fill-rule="evenodd" clip-rule="evenodd" d="M17.9945 11.0723C17.9945 12.9347 16.4847 14.4445 14.6223 14.4445C12.7598 14.4445 11.25 12.9347 11.25 11.0723C11.25 9.20983 12.7598 7.70001 14.6223 7.70001C16.4847 7.70001 17.9945 9.20983 17.9945 11.0723ZM14.6223 23.0285C12.7445 22.9902 11.25 21.4573 11.2883 19.5796C11.3266 17.8934 12.5529 16.4756 14.2391 16.284C14.2965 16.284 14.3636 16.2744 14.4307 16.2648C14.4977 16.2552 14.5648 16.2456 14.6223 16.2456C15.2737 16.2456 15.8869 16.4372 16.4234 16.7821C16.615 16.8971 16.8449 16.9737 17.0748 16.9737C17.3047 16.9737 17.5347 16.8971 17.7646 16.7821C18.1861 16.5522 18.4161 16.0923 18.3777 15.5942C18.2628 13.7548 19.604 12.1453 21.4434 11.992H21.7883C23.6661 11.992 25.1606 13.5248 25.1606 15.4026C25.1606 17.0887 23.896 18.5066 22.2099 18.7365C22.1524 18.7365 22.0853 18.7461 22.0182 18.7557C21.9512 18.7652 21.8841 18.7748 21.8266 18.7748C21.1752 18.7748 20.562 18.5832 20.0255 18.2383C19.8339 18.1234 19.604 18.0467 19.3741 18.0467C19.1442 18.0467 18.9142 18.1234 18.6843 18.2383C18.2628 18.4683 18.0328 18.9281 18.0712 19.4263V19.9628C17.9179 21.5723 16.6533 22.8752 15.0438 23.0285C14.9729 23.0285 14.9126 23.0337 14.8588 23.0384C14.7672 23.0463 14.6947 23.0526 14.6223 23.0285ZM14.6223 31.6124C12.7445 31.6124 11.25 30.0796 11.25 28.2018C11.25 26.5157 12.5146 25.0978 14.2007 24.8679C14.2582 24.8679 14.3252 24.8583 14.3923 24.8487L14.3923 24.8487C14.4594 24.8392 14.5265 24.8296 14.5839 24.8296C15.2354 24.8296 15.8485 25.0212 16.385 25.3661C16.5766 25.481 16.8066 25.5577 17.0365 25.5577C17.2664 25.5577 17.4964 25.481 17.7263 25.3661C18.1478 25.1361 18.3777 24.6763 18.3394 24.1781C18.2245 22.377 19.5274 20.7675 21.3285 20.5759C21.3818 20.5759 21.4352 20.5677 21.4924 20.5588H21.4924C21.5584 20.5486 21.6295 20.5376 21.7117 20.5376C22.3631 20.5376 22.9763 20.7292 23.5128 21.0741C23.7044 21.1891 23.9343 21.2657 24.1642 21.2657C24.3942 21.2657 24.6241 21.1891 24.854 21.0741C25.2755 20.8442 25.5055 20.3843 25.4672 19.9245C25.3522 18.085 26.6934 16.4756 28.5328 16.3223H28.8777C30.7555 16.3223 32.25 17.8551 32.25 19.7329C32.25 21.419 30.9854 22.8369 29.2993 23.0668C29.2418 23.0668 29.1747 23.0764 29.1077 23.086L29.1077 23.086L29.1076 23.086C29.0406 23.0955 28.9735 23.1051 28.9161 23.1051C28.2646 23.1051 27.6515 22.9135 27.115 22.5686C26.9234 22.4537 26.6934 22.377 26.4635 22.377C26.2336 22.377 26.0036 22.4537 25.7737 22.5686C25.3522 22.7986 25.1223 23.2584 25.1606 23.7566V24.2931C25.0073 25.9026 23.7427 27.2055 22.1715 27.3588C22.1141 27.3588 22.047 27.3684 21.9799 27.3779L21.9799 27.3779C21.9128 27.3875 21.8458 27.3971 21.7883 27.3971C21.1369 27.3971 20.5237 27.2055 19.9872 26.8606C19.7956 26.7456 19.5657 26.669 19.3358 26.669C19.1058 26.669 18.8759 26.7456 18.646 26.8606C18.2245 27.0905 17.9945 27.5504 18.0328 28.0486V28.585C17.8796 30.1945 16.615 31.4975 15.0055 31.6507C14.8522 31.6124 14.7372 31.6124 14.6223 31.6124Z" fill="white"/>
</svg>
