<svg width="40" height="40" viewBox="0 0 40 40" fill="none" xmlns="http://www.w3.org/2000/svg">
<path fill-rule="evenodd" clip-rule="evenodd" d="M20 40C31.0457 40 40 31.0457 40 20C40 8.9543 31.0457 0 20 0C8.9543 0 0 8.9543 0 20C0 31.0457 8.9543 40 20 40Z" fill="#FED044"/>
<path fill-rule="evenodd" clip-rule="evenodd" d="M17.7233 11.3117C17.7233 13.0854 16.2854 14.5234 14.5117 14.5234C12.7379 14.5234 11.3 13.0854 11.3 11.3117C11.3 9.53792 12.7379 8.10001 14.5117 8.10001C16.2854 8.10001 17.7233 9.53792 17.7233 11.3117ZM14.5117 22.6985C12.7233 22.662 11.3 21.2022 11.3365 19.4139C11.373 17.808 12.5409 16.4577 14.1467 16.2752C14.2014 16.2752 14.2653 16.2661 14.3292 16.2569L14.3292 16.2569C14.3931 16.2478 14.4569 16.2387 14.5117 16.2387C15.1321 16.2387 15.716 16.4212 16.227 16.7496C16.4095 16.8591 16.6285 16.9321 16.8474 16.9321C17.0664 16.9321 17.2854 16.8591 17.5044 16.7496C17.9058 16.5307 18.1248 16.0927 18.0883 15.6182C17.9788 13.8664 19.2562 12.3336 21.008 12.1876H21.3365C23.1248 12.1876 24.5482 13.6474 24.5482 15.4358C24.5482 17.0416 23.3438 18.392 21.7379 18.6109C21.6832 18.6109 21.6193 18.6201 21.5555 18.6292L21.5554 18.6292C21.4916 18.6383 21.4277 18.6474 21.373 18.6474C20.7525 18.6474 20.1686 18.465 19.6576 18.1365C19.4752 18.027 19.2562 17.954 19.0372 17.954C18.8182 17.954 18.5993 18.027 18.3803 18.1365C17.9788 18.3555 17.7598 18.7934 17.7963 19.2679V19.7788C17.6504 21.3117 16.446 22.5526 14.9131 22.6985C14.8456 22.6985 14.7881 22.7035 14.7369 22.708C14.6497 22.7155 14.5807 22.7215 14.5117 22.6985ZM14.5117 30.8737C12.7233 30.8737 11.3 29.4139 11.3 27.6255C11.3 26.0197 12.5044 24.6693 14.1102 24.4504C14.165 24.4504 14.2288 24.4412 14.2927 24.4321C14.3566 24.423 14.4204 24.4139 14.4752 24.4139C15.0956 24.4139 15.6795 24.5963 16.1905 24.9248C16.373 25.0343 16.592 25.1073 16.8109 25.1073C17.0299 25.1073 17.2489 25.0343 17.4679 24.9248C17.8693 24.7058 18.0883 24.2679 18.0518 23.7934C17.9423 22.0781 19.1832 20.5453 20.8985 20.3628C20.9493 20.3628 21.0002 20.3549 21.0546 20.3465C21.1175 20.3368 21.1853 20.3263 21.2635 20.3263C21.8839 20.3263 22.4679 20.5088 22.9788 20.8372C23.1613 20.9467 23.3803 21.0197 23.5993 21.0197C23.8182 21.0197 24.0372 20.9467 24.2562 20.8372C24.6577 20.6182 24.8766 20.1803 24.8401 19.7423C24.7306 17.9905 26.008 16.4577 27.7598 16.3117H28.0883C29.8766 16.3117 31.3 17.7715 31.3 19.5599C31.3 21.1657 30.0956 22.5161 28.4898 22.735C28.435 22.735 28.3712 22.7442 28.3073 22.7533L28.3073 22.7533C28.2434 22.7624 28.1795 22.7715 28.1248 22.7715C27.5044 22.7715 26.9204 22.589 26.4095 22.2606C26.227 22.1511 26.008 22.0781 25.789 22.0781C25.5701 22.0781 25.3511 22.1511 25.1321 22.2606C24.7306 22.4796 24.5117 22.9175 24.5482 23.392V23.9029C24.4022 25.4358 23.1978 26.6766 21.7014 26.8226C21.6467 26.8226 21.5828 26.8317 21.519 26.8409C21.4551 26.85 21.3912 26.8591 21.3365 26.8591C20.716 26.8591 20.1321 26.6766 19.6212 26.3482C19.4387 26.2387 19.2197 26.1657 19.0007 26.1657C18.7817 26.1657 18.5628 26.2387 18.3438 26.3482C17.9423 26.5672 17.7233 27.0051 17.7598 27.4796V27.9905C17.6139 29.5234 16.4095 30.7642 14.8766 30.9102C14.7306 30.8737 14.6212 30.8737 14.5117 30.8737Z" fill="white"/>
</svg>
