<svg width="40" height="40" viewBox="0 0 40 40" fill="none" xmlns="http://www.w3.org/2000/svg">
<path fill-rule="evenodd" clip-rule="evenodd" d="M20 40C31.0457 40 40 31.0457 40 20C40 8.9543 31.0457 0 20 0C8.9543 0 0 8.9543 0 20C0 31.0457 8.9543 40 20 40Z" fill="#FF626D"/>
<path fill-rule="evenodd" clip-rule="evenodd" d="M11.6754 18.4897L14.1509 19.5162C13.8718 20.2209 13.6492 20.9466 13.4851 21.6865L13.3912 22.1134L16.9401 25.6644L17.367 25.5727C18.1069 25.4086 18.8326 25.186 19.5373 24.9068L20.5638 27.3824C20.5842 27.4322 20.6284 27.4684 20.6812 27.4787C20.7341 27.4891 20.7886 27.4721 20.8263 27.4336L22.3777 25.8821C22.8898 25.3702 23.1611 24.6654 23.1247 23.9423L23.0692 22.9456C25.9416 20.8244 28.8482 17.1047 29.64 10.6129C29.6855 10.2829 29.5743 9.95068 29.3395 9.71455C29.1046 9.47841 28.7729 9.3655 28.4428 9.40925C21.9531 10.2074 18.2312 13.1161 16.11 15.98L15.1155 15.9288C14.394 15.8896 13.6894 16.157 13.1756 16.6651L11.6242 18.2165C11.5804 18.2537 11.5599 18.3115 11.5705 18.368C11.5811 18.4244 11.6211 18.4709 11.6754 18.4897ZM21.6287 14.7081C22.3794 13.96 23.5943 13.9614 24.3433 14.7113C25.0924 15.4612 25.0924 16.6761 24.3433 17.4259C23.5943 18.1758 22.3794 18.1772 21.6287 17.4291C21.267 17.0687 21.0638 16.5792 21.0638 16.0686C21.0638 15.5581 21.267 15.0685 21.6287 14.7081ZM9.93186 25.8458C10.3604 25.7688 10.8015 25.8041 11.2123 25.9483C9.25323 27.5189 9.62456 29.3414 9.86357 30.1567C9.88742 30.2391 9.9547 30.3017 10.0386 30.3195C10.1225 30.3374 10.2094 30.3076 10.2648 30.242C10.9413 29.4695 12.5973 29.1771 13.4936 29.0811C14.1213 29.019 14.6993 28.7123 15.1027 28.2275C16.0268 27.09 15.1923 25.912 14.8893 25.5513C14.8686 25.526 14.8377 25.5113 14.805 25.5113C14.7723 25.5113 14.7414 25.526 14.7207 25.5513C14.2501 26.1372 13.5295 26.465 12.7787 26.4348C12.6882 26.4315 12.6155 26.3589 12.6123 26.2684C12.587 25.5143 12.9222 24.7932 13.515 24.3264C13.538 24.3057 13.5512 24.2762 13.5512 24.2453C13.5512 24.2143 13.538 24.1848 13.515 24.1642C11.3318 22.5764 10.1261 24.5419 9.67151 25.5193C9.63047 25.608 9.64923 25.7129 9.71846 25.7818C9.77387 25.8384 9.85445 25.8626 9.93186 25.8458Z" fill="white"/>
</svg>
