<svg width="40" height="40" viewBox="0 0 40 40" fill="none" xmlns="http://www.w3.org/2000/svg">
<path fill-rule="evenodd" clip-rule="evenodd" d="M20 40C31.0457 40 40 31.0457 40 20C40 8.9543 31.0457 0 20 0C8.9543 0 0 8.9543 0 20C0 31.0457 8.9543 40 20 40Z" fill="#FEBE44"/>
<path fill-rule="evenodd" clip-rule="evenodd" d="M35 19.8987L20 4.89999L5 19.8987L20 34.8977L35 19.8987ZM10.7263 18.918C10.5185 18.918 10.4081 18.6726 10.546 18.517L19.7059 8.18624C19.8008 8.07923 19.9674 8.07787 20.064 8.18327L29.5293 18.5141C29.671 18.6687 29.5613 18.918 29.3516 18.918H23.2149C23.1505 18.918 23.0888 18.8922 23.0436 18.8465L20.0638 15.8369C19.9661 15.7382 19.8051 15.7424 19.7127 15.8462L17.0473 18.8373C17.0016 18.8886 16.9362 18.918 16.8675 18.918H10.7263Z" fill="white"/>
</svg>
