<svg width="40" height="40" viewBox="0 0 40 40" fill="none" xmlns="http://www.w3.org/2000/svg">
<path d="M20 40C31.0457 40 40 31.0457 40 20C40 8.95431 31.0457 0 20 0C8.95431 0 0 8.95431 0 20C0 31.0457 8.95431 40 20 40Z" fill="#3100FF"/>
<path d="M28.8601 15.6617C28.8601 10.7675 25.0544 6.8 20.3599 6.8C15.6654 6.8 11.8598 10.7675 11.8598 15.6617C11.8598 20.556 15.6654 24.5235 20.3599 24.5235C25.0544 24.5235 28.8601 20.556 28.8601 15.6617Z" fill="url(#paint0_linear)"/>
<path d="M11.5033 23.7282C11.5033 28.6224 15.3089 32.59 20.0034 32.59C24.6979 32.59 28.5035 28.6224 28.5035 23.7282C28.5035 18.834 24.6979 14.8665 20.0034 14.8665C15.3089 14.8665 11.5033 18.834 11.5033 23.7282Z" fill="url(#paint1_linear)"/>
<defs>
<linearGradient id="paint0_linear" x1="11.8598" y1="15.6617" x2="28.8601" y2="15.6617" gradientUnits="userSpaceOnUse">
<stop stop-color="white"/>
<stop offset="1" stop-color="white" stop-opacity="0"/>
</linearGradient>
<linearGradient id="paint1_linear" x1="28.5035" y1="23.7282" x2="11.5033" y2="23.7282" gradientUnits="userSpaceOnUse">
<stop stop-color="white"/>
<stop offset="1" stop-color="white" stop-opacity="0"/>
</linearGradient>
</defs>
</svg>
