<svg width="40" height="40" viewBox="0 0 40 40" fill="none" xmlns="http://www.w3.org/2000/svg">
<path fill-rule="evenodd" clip-rule="evenodd" d="M20 40C31.0457 40 40 31.0457 40 20C40 8.9543 31.0457 0 20 0C8.9543 0 0 8.9543 0 20C0 31.0457 8.9543 40 20 40Z" fill="#53B267"/>
<path d="M11.3787 27.6336L9.67261 26.426L20.4033 11.6336L22.1094 12.8412L11.3787 27.6336Z" fill="white" fill-opacity="0.5"/>
<path d="M14.2771 20.6875C11.6388 20.6875 9.5 18.5749 9.5 15.9688C9.5 13.3627 11.6388 11.25 14.2771 11.25H21.3022C21.8818 11.25 22.3517 11.7141 22.3517 12.2866C22.3517 12.8591 21.8818 13.3233 21.3022 13.3233H14.2771C12.798 13.3233 11.5989 14.5077 11.5989 15.9688C11.5989 17.4298 12.798 18.6143 14.2771 18.6143L14.8506 18.6143H17.5746C20.2129 18.6143 22.3517 20.7269 22.3517 23.333C22.3517 25.9391 20.2129 28.0518 17.5746 28.0518H10.5494C9.96985 28.0518 9.5 27.5877 9.5 27.0151C9.5 26.4426 9.96985 25.9785 10.5494 25.9785H17.5746C19.0537 25.9785 20.2528 24.7941 20.2528 23.333C20.2528 21.872 19.0537 20.6875 17.5746 20.6875H14.8506L14.2771 20.6875Z" fill="white"/>
<path fill-rule="evenodd" clip-rule="evenodd" d="M24.098 27.5486V23.3369H25.2775V26.2045H26.713V23.8745H27.8376V26.2045L29.3188 26.2045V23.2383L30.4982 23.2383V27.5486L24.098 27.5486ZM24.098 22.7723V17.8078H25.2775V19.618L30.4982 19.618V20.9622L25.2775 20.9622L25.2775 22.7723H24.098ZM24.098 15.7288V17.073H30.4982V15.7288H27.8559L27.8559 13.2376H30.4982V11.8934L24.098 11.8934V13.2376L26.6673 13.2376L26.6673 15.7288L24.098 15.7288Z" fill="white"/>
</svg>
