<svg width="40" height="40" viewBox="0 0 40 40" fill="none" xmlns="http://www.w3.org/2000/svg">
<path fill-rule="evenodd" clip-rule="evenodd" d="M20 40C31.0457 40 40 31.0457 40 20C40 8.9543 31.0457 0 20 0C8.9543 0 0 8.9543 0 20C0 31.0457 8.9543 40 20 40Z" fill="#4360DF"/>
<path fill-rule="evenodd" clip-rule="evenodd" d="M14.545 18.7825C15.2314 18.6592 15.9276 18.5989 16.625 18.6025V18.6038C18.0312 18.6038 19.0669 18.7394 20.1025 18.875C21.1381 19.0106 22.1737 19.1463 23.58 19.1463C27.3888 19.1463 30 17.5913 30 14.3725C30 11.155 27.825 9.60001 24.65 9.60001C19.465 9.60001 15.11 13.5575 14.545 18.7825ZM10 25.2825C10 22.065 12.6113 20.5088 16.42 20.5088C17.8255 20.5088 18.861 20.6447 19.8967 20.7806C20.9326 20.9165 21.9686 21.0525 23.375 21.0525C24.0724 21.0561 24.7686 20.9958 25.455 20.8725C24.89 26.0988 20.535 30.055 15.35 30.055C12.175 30.055 10 28.5 10 25.2825Z" fill="white"/>
</svg>
