<svg width="40" height="40" viewBox="0 0 40 40" fill="none" xmlns="http://www.w3.org/2000/svg">
<path fill-rule="evenodd" clip-rule="evenodd" d="M20 40C31.0457 40 40 31.0457 40 20C40 8.9543 31.0457 0 20 0C8.9543 0 0 8.9543 0 20C0 31.0457 8.9543 40 20 40Z" fill="#211580"/>
<path d="M14.3675 15.6972C14.2154 15.5247 14.0271 15.4382 13.8046 15.4382H9.23693C9.19665 15.4382 9.16342 15.4255 9.13825 15.4001C9.11308 15.3751 9.09998 15.3468 9.09998 15.3165V12.2717C9.09998 12.2414 9.11308 12.2135 9.13825 12.1881C9.16342 12.1631 9.19665 12.15 9.23693 12.15H14.0634C15.2808 12.15 16.3311 12.6425 17.2142 13.6267L18.3863 15.0424L16.1035 17.7979L14.3675 15.6972ZM22.8009 13.6116C23.684 12.6372 24.7393 12.15 25.9678 12.15H30.7781C30.8194 12.15 30.8496 12.1602 30.8698 12.1803C30.8899 12.2008 30.9 12.2311 30.9 12.2717V15.3165C30.9 15.3468 30.8899 15.3751 30.8698 15.4001C30.8496 15.4255 30.8194 15.4382 30.7781 15.4382H26.2115C25.988 15.4382 25.8007 15.5247 25.6486 15.6972L22.2833 19.7467L25.6637 23.8265C25.8158 23.9892 25.998 24.0703 26.2115 24.0703H30.7781C30.8194 24.0703 30.8496 24.083 30.8698 24.1084C30.8899 24.1338 30.9 24.167 30.9 24.2072V27.252C30.9 27.2823 30.8899 27.3106 30.8698 27.3356C30.8496 27.3609 30.8194 27.3736 30.7781 27.3736H25.9678C24.7403 27.3736 23.69 26.8815 22.817 25.8969L20.0156 22.5174L17.2142 25.8969C16.3311 26.8815 15.2758 27.3736 14.0483 27.3736H9.23693C9.19665 27.3736 9.16544 27.3609 9.1453 27.3356C9.12516 27.3102 9.11509 27.2774 9.11509 27.2364V24.1916C9.11509 24.1613 9.12516 24.1334 9.1453 24.108C9.16544 24.0826 9.19665 24.0698 9.23693 24.0698H13.8046C14.017 24.0698 14.2053 23.9838 14.3675 23.811L17.6714 19.8225L22.8009 13.6116Z" fill="#00D1FF"/>
</svg>
