<svg width="40" height="40" viewBox="0 0 40 40" fill="none" xmlns="http://www.w3.org/2000/svg">
<path fill-rule="evenodd" clip-rule="evenodd" d="M20 40C31.0457 40 40 31.0457 40 20C40 8.9543 31.0457 0 20 0C8.9543 0 0 8.9543 0 20C0 31.0457 8.9543 40 20 40Z" fill="#25292E"/>
<path d="M17.9447 20.9484C14.6597 20.9484 11.9967 18.2854 11.9967 15.0004C11.9967 11.7154 14.6597 9.05237 17.9447 9.05237H26.6919C27.4135 9.05237 27.9986 9.63739 27.9986 10.359C27.9986 11.0807 27.4135 11.6657 26.6919 11.6657H17.9447C16.103 11.6657 14.6101 13.1587 14.6101 15.0004C14.6101 16.8421 16.103 18.3351 17.9447 18.3351H18.6588H22.0505C25.3355 18.3351 27.9986 20.9981 27.9986 24.2831C27.9986 27.5681 25.3355 30.2311 22.0505 30.2311H13.3034C12.5817 30.2311 11.9967 29.6461 11.9967 28.9244C11.9967 28.2028 12.5817 27.6178 13.3034 27.6178H22.0505C23.8922 27.6178 25.3852 26.1248 25.3852 24.2831C25.3852 22.4414 23.8922 20.9484 22.0505 20.9484H18.6588H17.9447Z" fill="white"/>
<path d="M14.3359 29.704L12.2116 28.1818L25.5726 9.53589L27.6969 11.0581L14.3359 29.704Z" fill="white" fill-opacity="0.5"/>
</svg>
