<svg width="40" height="40" viewBox="0 0 40 40" fill="none" xmlns="http://www.w3.org/2000/svg">
<path d="M20 40C31.0457 40 40 31.0457 40 20C40 8.9543 31.0457 0 20 0C8.9543 0 0 8.9543 0 20C0 31.0457 8.9543 40 20 40Z" fill="url(#paint0_linear)"/>
<path opacity="0.8" d="M22.333 6.93547L22.775 7.08217L29.3633 9.14186C29.4422 9.16655 29.4874 9.24933 29.4656 9.32912L28.9773 11.1095C28.961 11.1686 28.9112 11.2124 28.8505 11.2209L28.7713 11.2321C28.7132 11.2403 28.6648 11.2809 28.6467 11.3368L25.7625 20.2269C25.7553 20.2492 25.7533 20.2727 25.7564 20.2957C25.8078 20.6851 25.8865 21.6631 25.8226 22.7482C25.7401 24.1475 24.4455 24.885 23.6611 25.2731C22.8766 25.6611 22.3281 25.7386 21.7797 25.8158C21.1664 25.9023 20.4467 26.2813 19.9366 26.6307C18.3806 27.4975 15.1116 29.3089 14.4841 29.6194C13.8566 29.9298 12.76 29.955 12.2901 29.9287C11.3631 29.9668 9.33043 29.5688 8.61544 27.6716C7.90365 25.7828 9.04619 24.2009 9.71493 23.6376C9.7211 23.6324 9.72711 23.6283 9.73404 23.6241C11.9744 22.2889 16.6931 19.4834 17.7272 18.8943C18.7628 18.3043 19.1278 17.5868 19.1809 17.3017L21.8743 8.97403C21.8945 8.91148 21.8727 8.843 21.82 8.80368L21.6848 8.70274C21.6316 8.66294 21.61 8.59335 21.6313 8.53036L22.1392 7.03196C22.1662 6.95196 22.2528 6.90887 22.333 6.93547Z" fill="url(#paint1_linear)"/>
<path d="M21.9389 7.74411L22.3954 7.83604L29.1851 9.08033C29.2664 9.09524 29.3214 9.17193 29.3094 9.25377L29.0409 11.0802C29.032 11.1409 28.9879 11.1904 28.9286 11.2063L28.8513 11.227C28.7946 11.2422 28.7515 11.2884 28.7403 11.346L26.9573 20.5206C26.9529 20.5435 26.9536 20.5672 26.9595 20.5897C27.0579 20.9699 27.2547 21.9312 27.3231 23.016C27.4111 24.4149 26.2157 25.3042 25.4844 25.7847C24.7529 26.2652 24.2177 26.4085 23.6827 26.552C23.0845 26.7122 22.4161 27.1758 21.9522 27.5845C20.5131 28.634 17.4883 30.8289 16.9031 31.2134C16.318 31.5977 15.2325 31.7558 14.7629 31.7868C13.8474 31.9374 11.7814 31.7891 10.8413 29.9928C9.90539 28.2043 10.8474 26.4956 11.4427 25.8552C11.4482 25.8492 11.4537 25.8443 11.46 25.8394C13.5216 24.242 17.8647 20.8841 18.8195 20.1738C19.7759 19.4622 20.051 18.7059 20.0691 18.4165L21.7312 9.82329C21.7436 9.75876 21.7137 9.69343 21.6565 9.66079L21.5102 9.57703C21.4524 9.54398 21.4224 9.47755 21.4361 9.41242L21.7581 7.86343C21.7753 7.78074 21.8561 7.72744 21.9389 7.74411Z" fill="url(#paint2_linear)"/>
<defs>
<linearGradient id="paint0_linear" x1="5.21739" y1="4.34782" x2="30.4348" y2="40" gradientUnits="userSpaceOnUse">
<stop stop-color="#EAE4D7"/>
<stop offset="1" stop-color="#DB16EB"/>
</linearGradient>
<linearGradient id="paint1_linear" x1="17.4829" y1="7.55067" x2="20.4919" y2="28.8951" gradientUnits="userSpaceOnUse">
<stop stop-color="white"/>
<stop offset="1" stop-color="white" stop-opacity="0.56"/>
</linearGradient>
<linearGradient id="paint2_linear" x1="17.1994" y1="8.94382" x2="22.7784" y2="29.7647" gradientUnits="userSpaceOnUse">
<stop stop-color="white"/>
<stop offset="1" stop-color="white" stop-opacity="0.8"/>
</linearGradient>
</defs>
</svg>
