<svg width="40" height="40" viewBox="0 0 40 40" fill="none" xmlns="http://www.w3.org/2000/svg">
<path fill-rule="evenodd" clip-rule="evenodd" d="M20 40C31.0457 40 40 31.0457 40 20C40 8.9543 31.0457 0 20 0C8.9543 0 0 8.9543 0 20C0 31.0457 8.9543 40 20 40Z" fill="#FF3B81"/>
<path fill-rule="evenodd" clip-rule="evenodd" d="M9.71703 28.3752V28.5674H7.70285V24.9305L7.64012 25.1323L5.71594 24.5513L6.80281 21.0466L6.66917 21.243L5 20.1343L7.08646 17.0878L6.88736 17.246L5.61912 15.705L8.62062 13.3104L8.23878 13.4563L7.51602 11.6044L11.1012 10.2489L10.6812 10.2761L10.5421 8.29879L14.295 8.03968L13.9554 7.96332L14.4082 6.03096L17.9947 6.84645L17.7683 6.71826L18.7734 5L21.9003 6.77826L21.7776 6.65007L23.2504 5.29729L25.6859 7.86922L25.6341 7.76558L27.4437 6.89554L29.0065 10.0511L28.9929 9.9625L30.9798 9.65158L31.5662 13.2967L31.6071 13.0376L33.5968 13.3472L33.0022 17.0455L33.1481 16.7483L34.9577 17.6183L33.2831 21.0016L33.5286 20.7425L35 22.0967L32.3967 24.8459L32.7117 24.6673L33.7181 26.3855L30.4466 28.2456L30.7753 28.1706L31.2294 30.103L27.6128 30.9253L27.8924 30.9444L27.7519 32.9231L24.1327 32.6735L24.3168 32.7431L23.594 34.595L20.1302 33.2858L20.3498 33.4604L19.0829 35.0014L16.2232 32.7199L16.3651 32.9258L14.6959 34.0359L12.6503 31.0494L12.7117 31.2457L10.7862 31.8267L9.71703 28.3752ZM9.71703 26.0187L10.9744 25.6396L11.9508 28.7897L13.039 28.067L14.8964 30.7807L15.7269 29.7716L18.3015 31.8253L18.7624 30.643L21.8662 31.8158L21.9562 30.5353L25.2782 30.7644L24.9782 29.4893L28.2347 28.7488L27.5597 27.5978L30.4657 25.945L29.4702 25.0314L31.7653 22.6067L30.5407 22.0176L32.0176 19.0365L30.6784 18.8265L31.2048 15.5537L29.923 15.7528L29.3979 12.4799L28.2442 13.0335L26.7783 10.0743L25.8373 10.9375L23.5708 8.54152L22.9217 9.64885L20.0511 8.0165L19.7539 9.28201L16.5246 8.54698L16.6187 9.8684L13.3036 10.0961L13.7931 11.3548L10.6703 12.5358L11.5117 13.5572L8.89063 15.6478L9.99659 16.3828L8.10923 19.1416L9.38156 19.5261L8.39561 22.7049H9.7184L9.71703 26.0187ZM19.0734 21.1516C19.4266 21.4176 19.6038 21.8008 19.6038 22.3026C19.6204 22.729 19.421 23.1351 19.0734 23.3827C18.7202 23.6377 18.2279 23.7645 17.5978 23.7645C15.9028 23.7645 15.0545 23.0526 15.0545 21.6303H12.3953C12.3953 22.4622 12.6081 23.1945 13.0322 23.8259C13.4617 24.4572 14.0836 24.9564 14.895 25.3232C15.7479 25.6915 16.6689 25.8755 17.5978 25.8632C19.0229 25.8632 20.1561 25.5468 20.9989 24.9155C21.8403 24.2772 22.2617 23.4017 22.2617 22.2849C22.2617 21.2826 21.918 20.4439 21.228 19.7702C20.5393 19.0979 19.4416 18.5333 17.9333 18.0792C17.1151 17.831 16.4932 17.5651 16.0705 17.2828C15.6518 16.9992 15.4432 16.6473 15.4432 16.2287C15.4327 15.8017 15.6344 15.3971 15.9819 15.1486C16.3405 14.8704 16.8451 14.7327 17.4928 14.7327C18.1638 14.7327 18.6847 14.8977 19.0556 15.2277C19.4266 15.5523 19.612 16.0105 19.612 16.601H22.2617C22.2732 15.8656 22.0642 15.1437 21.6617 14.5282C21.2662 13.92 20.7098 13.4508 19.9911 13.1208C19.2738 12.784 18.4556 12.6163 17.5365 12.6163C16.6242 12.6163 15.7991 12.769 15.0627 13.0758C14.3332 13.3827 13.7713 13.8109 13.3758 14.3604C12.9872 14.9032 12.7935 15.5237 12.7935 16.2205C12.7935 17.561 13.5245 18.6247 14.9836 19.4157C15.5196 19.7061 16.2464 20.002 17.1656 20.3021C18.0847 20.5966 18.7188 20.8803 19.0734 21.1516ZM27.6906 14.3959L25.1364 23.7399L23.0322 23.5927L24.6236 13.9595L27.6906 14.3959ZM24.7982 28.0151L25.4623 24.7136L22.6422 24.0318L21.9999 27.1983L24.7982 28.0151Z" fill="white"/>
</svg>
