<svg width="40" height="40" viewBox="0 0 40 40" fill="none" xmlns="http://www.w3.org/2000/svg">
<path fill-rule="evenodd" clip-rule="evenodd" d="M20 40C31.0457 40 40 31.0457 40 20C40 8.9543 31.0457 0 20 0C8.9543 0 0 8.9543 0 20C0 31.0457 8.9543 40 20 40Z" fill="url(#paint0_radial)"/>
<path fill-rule="evenodd" clip-rule="evenodd" d="M20 40C31.0457 40 40 31.0457 40 20C40 8.9543 31.0457 0 20 0C8.9543 0 0 8.9543 0 20C0 31.0457 8.9543 40 20 40Z" fill="url(#paint1_radial)" fill-opacity="0.75"/>
<path d="M11.7 21.1012L20 26.0116L28.2984 21.1012L20 32.7989L11.7 21.1012Z" fill="url(#paint2_linear)"/>
<path d="M20 24.1826L11.7 19.2721L20 6.20001L28.3 19.2721L20 24.1826Z" fill="url(#paint3_linear)"/>
<defs>
<radialGradient id="paint0_radial" cx="0" cy="0" r="1" gradientUnits="userSpaceOnUse" gradientTransform="translate(20 40) rotate(-90) scale(40)">
<stop stop-color="#FFD098"/>
<stop offset="1" stop-color="#F58E8E"/>
</radialGradient>
<radialGradient id="paint1_radial" cx="0" cy="0" r="1" gradientUnits="userSpaceOnUse" gradientTransform="translate(20 20) rotate(90) scale(20)">
<stop stop-color="white"/>
<stop offset="1" stop-color="white" stop-opacity="0"/>
</radialGradient>
<linearGradient id="paint2_linear" x1="19.9992" y1="21.1012" x2="19.9992" y2="32.7989" gradientUnits="userSpaceOnUse">
<stop stop-color="#5FBCFF"/>
<stop offset="1" stop-color="#629DE3"/>
</linearGradient>
<linearGradient id="paint3_linear" x1="20" y1="6.20001" x2="20" y2="24.1826" gradientUnits="userSpaceOnUse">
<stop stop-color="#FF9898"/>
<stop offset="1" stop-color="#00A3FF"/>
</linearGradient>
</defs>
</svg>
