<svg width="40" height="40" viewBox="0 0 40 40" fill="none" xmlns="http://www.w3.org/2000/svg">
<path fill-rule="evenodd" clip-rule="evenodd" d="M20 40C31.0457 40 40 31.0457 40 20C40 8.9543 31.0457 0 20 0C8.9543 0 0 8.9543 0 20C0 31.0457 8.9543 40 20 40Z" fill="#2683FF"/>
<path fill-rule="evenodd" clip-rule="evenodd" d="M31.671 23.8623C32.8052 24.5427 33.1928 26.0016 32.5459 27.1552C31.8777 28.3278 30.3593 28.7438 29.1646 28.0886C29.0565 28.0297 28.9617 27.9609 28.8659 27.8913L28.8422 27.8741L22.4384 31.4933C22.454 31.6103 22.4631 31.7286 22.4644 31.8469C22.4644 31.986 22.4644 32.1121 22.4384 32.2499C22.22 33.5759 20.9473 34.4833 19.5966 34.2688C18.2472 34.0543 17.3216 32.805 17.54 31.4816L11.0959 27.8364C10.9962 27.9079 10.8934 27.9752 10.7878 28.0379C10.7585 28.0522 10.7292 28.0675 10.6997 28.0828L10.6997 28.0828L10.6997 28.0828C10.6248 28.1219 10.5485 28.1617 10.4654 28.1887C9.20151 28.6952 7.76494 28.0946 7.23753 26.8393C6.72403 25.5913 7.34153 24.1782 8.61423 23.6738V16.3834C8.49737 16.3458 8.38526 16.2947 8.28013 16.2313C8.18371 16.1715 8.0892 16.1086 7.99673 16.0428C7.28317 15.5244 6.90852 14.6585 7.01913 13.7834C7.1363 12.9065 7.71795 12.1613 8.54013 11.8347C9.36735 11.5012 10.3091 11.6287 11.0179 12.1701L17.5257 8.47421L17.5221 8.44282C17.5104 8.34228 17.4997 8.25032 17.4997 8.14661C17.4997 6.81021 18.6437 5.70001 20.0074 5.70001C21.3698 5.70001 22.4878 6.78421 22.4891 8.13361C22.4891 8.23644 22.4786 8.32771 22.4671 8.4282L22.4671 8.42823L22.4631 8.46251L29.0216 12.1831C29.5981 11.7607 30.3269 11.6033 31.0263 11.7501C31.7257 11.8969 32.3297 12.3342 32.6876 12.9527C33.3545 14.1253 32.9177 15.6138 31.7217 16.2703C31.6807 16.2878 31.6396 16.3072 31.5986 16.3265C31.5239 16.3616 31.4493 16.3968 31.3746 16.4211V23.7245C31.4773 23.7635 31.5761 23.809 31.6697 23.8623H31.671ZM32.1221 26.9147C32.3787 26.4912 32.4538 25.9821 32.3302 25.5025C32.2066 25.023 31.895 24.6135 31.4656 24.3667C30.7472 23.9526 29.8436 24.0498 29.2296 24.6072L26.2838 22.9302C27.0134 21.4563 26.528 19.6697 25.1528 18.7676C25.0701 18.4893 24.9622 18.2191 24.8304 17.9603L29.2803 15.4877C29.7431 15.9167 30.3944 16.0922 31.0158 15.9557C31.5047 15.8502 31.931 15.5531 32.1992 15.131C32.4675 14.7088 32.5554 14.1968 32.4432 13.7093C32.2118 12.7005 31.1822 12.083 30.1552 12.3092C29.6664 12.4145 29.24 12.7112 28.9716 13.1331C28.7031 13.555 28.6148 14.0669 28.7265 14.5543L24.2259 17.0646C23.3523 16.0428 20.5742 15.3616 20.5742 15.3616V9.79891C21.1389 9.6366 21.5837 9.20061 21.7572 8.63931C21.8926 8.19451 21.8435 7.71398 21.621 7.30572C21.3986 6.89746 21.0214 6.59572 20.5742 6.46831C19.6356 6.19141 18.645 6.69581 18.3616 7.61751C18.2267 8.06214 18.276 8.54234 18.4984 8.95029C18.7208 9.35825 19.0978 9.65979 19.5446 9.78721V15.463C19.5446 15.463 18.0288 15.9544 17.4373 16.4328C16.809 16.4473 16.1927 16.6075 15.6368 16.9008L11.4053 14.5166C11.5502 13.9112 11.3757 13.2737 10.9425 12.8266C10.2254 12.0705 9.03388 12.0312 8.26843 12.7382C7.90041 13.0721 7.68311 13.5406 7.66596 14.0372C7.64882 14.5338 7.83331 15.0162 8.17743 15.3746C8.89496 16.1308 10.0869 16.1702 10.8528 15.463L14.6722 17.6067C13.2874 18.9536 13.1014 21.1128 14.2354 22.6767L10.8788 24.5812C10.4065 24.1508 9.75232 23.9811 9.13033 24.1275C8.64164 24.2365 8.21696 24.5366 7.95118 24.9609C7.68539 25.3853 7.60067 25.8984 7.71593 26.3856C7.96163 27.3918 8.99123 28.0119 10.0169 27.7714C10.5053 27.6624 10.9298 27.3625 11.1955 26.9385C11.4613 26.5144 11.5462 26.0017 11.4313 25.5146L15.0193 23.484C15.9423 24.2159 17.1474 24.5071 18.3109 24.2783C18.6697 24.4421 19.0389 24.5812 19.4159 24.6943V29.9931C18.901 30.1527 18.471 30.5111 18.2212 30.9889C17.9851 31.4535 17.9462 31.9937 18.1133 32.4874C18.2804 32.9811 18.6394 33.3866 19.1091 33.6123C19.1871 33.6513 19.2638 33.6877 19.3535 33.7137C19.36 33.7137 19.3665 33.717 19.373 33.7202C19.3795 33.7235 19.386 33.7267 19.3925 33.7267C20.4455 34.0413 21.5661 33.4732 21.8872 32.4397C22.0425 31.941 21.9908 31.4008 21.7439 30.9405C21.497 30.4802 21.0756 30.1384 20.5742 29.9918V24.797C20.5742 24.797 21.5388 24.7086 21.9886 24.5695C23.2431 25.0635 24.6783 24.771 25.6286 23.8259L28.6368 25.5549C28.447 26.354 28.8092 27.1823 29.5247 27.5855C30.4292 28.1006 31.5793 27.8042 32.1221 26.916V26.9147ZM10.2743 25.5393C10.1287 25.2988 9.86613 25.1506 9.58013 25.1493C9.13943 25.1493 8.78193 25.499 8.78193 25.9319C8.78693 26.3679 9.1441 26.7175 9.58013 26.7132C10.0157 26.7168 10.372 26.3674 10.377 25.9319C10.3752 25.7946 10.3399 25.6599 10.2743 25.5393ZM20.8446 8.13491C20.8375 8.57003 20.4816 8.91841 20.0464 8.91621C19.6109 8.91982 19.2545 8.57042 19.2495 8.13491C19.2495 7.70201 19.607 7.35231 20.0464 7.35231C20.4884 7.35231 20.8446 7.70331 20.8446 8.13491ZM29.7691 14.1383C29.7776 14.5725 30.1317 14.9203 30.566 14.9209V14.9196C31.0021 14.9239 31.3592 14.5743 31.3642 14.1383C31.3642 13.7067 31.008 13.3557 30.566 13.3557C30.1266 13.3557 29.7691 13.7067 29.7691 14.1383ZM9.95193 13.4181C10.1345 13.5166 10.2692 13.6851 10.3251 13.8849C10.381 14.0847 10.3533 14.2987 10.2483 14.4776C10.0293 14.855 9.54656 14.9845 9.16803 14.7675C8.98489 14.6695 8.84968 14.501 8.79372 14.301C8.73777 14.101 8.76591 13.8868 8.87163 13.708C9.09065 13.3306 9.5734 13.2011 9.95193 13.4181ZM31.2597 25.7664C31.2038 25.5669 31.0694 25.3986 30.8871 25.3001V25.2988C30.7654 25.229 30.6283 25.1902 30.488 25.1857C30.2025 25.1809 29.936 25.3285 29.7886 25.5731C29.6435 25.8161 29.6435 26.1192 29.7886 26.3622C29.936 26.6068 30.2025 26.7544 30.488 26.7496C30.7714 26.7464 31.0336 26.5989 31.1835 26.3583C31.2881 26.1795 31.3156 25.9659 31.2597 25.7664ZM19.2495 31.8196C19.2508 31.8097 19.2554 31.8006 19.2625 31.7936C19.3355 31.3685 19.7358 31.0804 20.1621 31.1462C20.5889 31.2034 20.8886 31.5956 20.8316 32.0224C20.7521 32.4131 20.4074 32.693 20.0087 32.6906C19.7905 32.6812 19.5857 32.5827 19.4422 32.4181C19.2987 32.2534 19.229 32.0371 19.2495 31.8196ZM25.1398 21.5405C25.1468 20.719 24.6134 19.9905 23.8281 19.7491L23.7891 19.4592C23.7774 19.3916 23.7592 19.3227 23.7384 19.2577C23.7384 19.2455 23.7353 19.2333 23.7321 19.221C23.7288 19.2083 23.7254 19.1955 23.7254 19.1823C23.7124 19.1446 23.6994 19.1037 23.6864 19.0627C23.6734 19.0218 23.6604 18.9808 23.6474 18.9431V18.9301C23.4446 18.4063 23.1129 17.9421 22.6828 17.5807L22.6698 17.5677C22.5931 17.504 22.5164 17.4416 22.4267 17.3909L22.4137 17.3779C22.3931 17.3648 22.3716 17.3508 22.3498 17.3366C22.2891 17.2971 22.2257 17.2558 22.1693 17.2271L22.1563 17.2141C22.0731 17.1673 21.9873 17.1257 21.8989 17.0893L21.8729 17.0763C21.7832 17.0373 21.6935 16.9996 21.5908 16.9632L21.5778 16.9502C21.5392 16.9409 21.5025 16.9296 21.4661 16.9184C21.4057 16.8999 21.3464 16.8816 21.2814 16.8735H21.2684C21.167 16.8501 21.0643 16.8345 20.9603 16.8241H20.9473C20.4002 16.7476 19.8425 16.8125 19.3275 17.0126L19.2625 17.0633C19.1858 17.088 19.0571 17.1504 18.9804 17.1894C18.9401 17.2152 18.8969 17.2362 18.8517 17.2518C18.8244 17.2609 18.7849 17.2886 18.7503 17.3128C18.7356 17.3231 18.7217 17.3328 18.71 17.3402C18.671 17.3662 18.5813 17.4286 18.5306 17.4663L18.4916 17.4923C18.4365 17.5282 18.3885 17.5699 18.338 17.6137C18.3171 17.6319 18.2957 17.6505 18.2732 17.6691L18.2082 17.7315L18.2047 17.7349C18.1296 17.8088 18.0668 17.8705 18.0028 17.9473C17.8494 17.9213 17.6947 17.9083 17.54 17.9083C17.488 17.9083 17.449 17.9083 17.41 17.9213C16.5145 17.9642 15.7061 18.4706 15.2767 19.2577L15.2637 19.2837C15.2237 19.3568 15.1894 19.4329 15.161 19.5112C15.1544 19.5239 15.1511 19.5332 15.1478 19.5427C15.1446 19.5517 15.1414 19.561 15.135 19.5736C15.108 19.6388 15.0867 19.7062 15.0713 19.7751C15.0648 19.7881 15.0616 19.8037 15.0583 19.8193C15.0551 19.8349 15.0518 19.8505 15.0453 19.8635L15.0418 19.8809C15.03 19.9387 15.0181 19.9965 15.0063 20.065C15.0063 20.0768 15.0037 20.0883 15.0007 20.1009C14.9972 20.1161 14.9933 20.1328 14.9933 20.1534C14.9832 20.2497 14.9788 20.3465 14.9803 20.4433C14.9782 20.5237 14.9825 20.6041 14.9933 20.6838C14.9933 20.6948 14.9959 20.7057 14.9987 20.7179C15.0023 20.7332 15.0063 20.7505 15.0063 20.7722C15.0119 20.7962 15.0148 20.8199 15.0177 20.8436C15.0209 20.87 15.0242 20.8963 15.031 20.923C15.0363 20.943 15.0394 20.957 15.0421 20.9691C15.0461 20.9871 15.0493 21.0012 15.057 21.0244C15.0717 21.0605 15.0805 21.0987 15.083 21.1375C15.083 21.1631 15.0944 21.1887 15.1058 21.2143C15.1112 21.2264 15.1166 21.2385 15.1207 21.2506C15.1314 21.2811 15.1444 21.3106 15.1597 21.339C15.1793 21.3801 15.1966 21.4222 15.2117 21.4651C15.215 21.4713 15.2183 21.4768 15.2213 21.4819C15.2305 21.4972 15.2377 21.5094 15.2377 21.5288C15.4202 21.9461 15.7253 22.298 16.1126 22.5376C16.2982 22.6528 16.4968 22.7457 16.7041 22.8145C16.7835 22.8416 16.8648 22.8629 16.9472 22.8782L16.9732 22.8912L17.2046 22.9276L17.2566 22.9406C17.3463 22.9536 17.436 22.9536 17.54 22.9536C17.8804 22.9574 18.2176 22.8887 18.5293 22.7521C18.5676 22.777 18.6025 22.8019 18.6371 22.8266C18.673 22.8523 18.7087 22.8778 18.7477 22.9029L18.7737 22.9159C18.8387 22.9536 18.9154 22.9913 18.9921 23.029L18.9921 23.029H19.0051C19.7422 23.397 20.5884 23.4825 21.3841 23.2695H21.3971C21.5128 23.2448 21.6246 23.2071 21.7312 23.1551L22.0796 23.0043C22.4098 23.2578 22.8167 23.3956 23.2366 23.3956C23.2815 23.3956 23.3231 23.3924 23.3647 23.3891C23.4063 23.3859 23.4479 23.3826 23.4927 23.3826L23.5577 23.3709C23.7224 23.3487 23.8828 23.3018 24.0335 23.2318L24.0725 23.2188C24.1099 23.2001 24.1447 23.1814 24.1798 23.1626C24.2156 23.1434 24.2516 23.1241 24.2909 23.1044C24.6077 22.9022 24.8542 22.6071 24.9968 22.2594C25.0488 22.1463 25.0748 22.0332 25.1008 21.9201L25.1008 21.9201V21.8811C25.1074 21.8563 25.1106 21.8311 25.1139 21.8057C25.1171 21.7807 25.1204 21.7555 25.1268 21.7303C25.1268 21.6993 25.13 21.6679 25.1333 21.6364C25.1365 21.6045 25.1398 21.5725 25.1398 21.5405Z" fill="white"/>
</svg>
