<svg width="40" height="40" viewBox="0 0 40 40" fill="none" xmlns="http://www.w3.org/2000/svg">
<path fill-rule="evenodd" clip-rule="evenodd" d="M20 40C31.0457 40 40 31.0457 40 20C40 8.9543 31.0457 0 20 0C8.9543 0 0 8.9543 0 20C0 31.0457 8.9543 40 20 40Z" fill="#2683FF"/>
<path fill-rule="evenodd" clip-rule="evenodd" d="M31.671 23.7623C32.8052 24.4427 33.1928 25.9016 32.5459 27.0552C31.8777 28.2278 30.3593 28.6438 29.1646 27.9886C29.0565 27.9297 28.9617 27.8609 28.8659 27.7913L28.8422 27.7741L22.4384 31.3933C22.454 31.5103 22.4631 31.6286 22.4644 31.7469C22.4644 31.886 22.4644 32.0121 22.4384 32.1499C22.22 33.4759 20.9473 34.3833 19.5966 34.1688C18.2472 33.9543 17.3216 32.705 17.54 31.3816L11.0959 27.7364C10.9962 27.8079 10.8934 27.8752 10.7878 27.9379C10.7585 27.9522 10.7292 27.9675 10.6997 27.9828L10.6997 27.9828L10.6997 27.9828C10.6248 28.0219 10.5485 28.0617 10.4654 28.0887C9.20151 28.5952 7.76494 27.9946 7.23753 26.7393C6.72403 25.4913 7.34153 24.0782 8.61423 23.5738V16.2834C8.49737 16.2458 8.38526 16.1947 8.28013 16.1313C8.18371 16.0715 8.0892 16.0086 7.99673 15.9428C7.28317 15.4243 6.90852 14.5585 7.01913 13.6834C7.1363 12.8065 7.71795 12.0613 8.54013 11.7347C9.36735 11.4012 10.3091 11.5287 11.0179 12.0701L17.5257 8.37421L17.5221 8.34282C17.5104 8.24227 17.4997 8.15032 17.4997 8.04661C17.4997 6.71021 18.6437 5.60001 20.0074 5.60001C21.3698 5.60001 22.4878 6.68421 22.4891 8.03361C22.4891 8.13643 22.4786 8.2277 22.4671 8.32819L22.4671 8.32823L22.4631 8.36251L29.0216 12.0831C29.5981 11.6607 30.3269 11.5033 31.0263 11.6501C31.7257 11.7969 32.3297 12.2342 32.6876 12.8527C33.3545 14.0253 32.9177 15.5138 31.7217 16.1703C31.6807 16.1878 31.6396 16.2072 31.5986 16.2265C31.5239 16.2616 31.4493 16.2968 31.3746 16.3211V23.6245C31.4773 23.6635 31.5761 23.709 31.6697 23.7623H31.671ZM32.1221 26.8147C32.3787 26.3912 32.4538 25.8821 32.3302 25.4025C32.2066 24.923 31.895 24.5135 31.4656 24.2667C30.7472 23.8526 29.8436 23.9498 29.2296 24.5072L26.2838 22.8302C27.0134 21.3563 26.528 19.5697 25.1528 18.6676C25.0701 18.3893 24.9622 18.1191 24.8304 17.8603L29.2803 15.3877C29.7431 15.8167 30.3944 15.9922 31.0158 15.8557C31.5047 15.7502 31.931 15.4531 32.1992 15.031C32.4675 14.6088 32.5554 14.0967 32.4432 13.6093C32.2118 12.6005 31.1822 11.983 30.1552 12.2092C29.6664 12.3145 29.24 12.6112 28.9716 13.0331C28.7031 13.455 28.6148 13.9669 28.7265 14.4543L24.2259 16.9646C23.3523 15.9428 20.5742 15.2616 20.5742 15.2616V9.69891C21.1389 9.5366 21.5837 9.1006 21.7572 8.53931C21.8926 8.0945 21.8435 7.61397 21.621 7.20571C21.3986 6.79745 21.0214 6.49571 20.5742 6.36831C19.6356 6.09141 18.645 6.59581 18.3616 7.51751C18.2267 7.96214 18.276 8.44233 18.4984 8.85029C18.7208 9.25824 19.0978 9.55978 19.5446 9.68721V15.363C19.5446 15.363 18.0288 15.8544 17.4373 16.3328C16.809 16.3472 16.1927 16.5075 15.6368 16.8008L11.4053 14.4166C11.5502 13.8112 11.3757 13.1737 10.9425 12.7266C10.2254 11.9705 9.03388 11.9312 8.26843 12.6382C7.90041 12.9721 7.68311 13.4406 7.66596 13.9372C7.64882 14.4338 7.83331 14.9162 8.17743 15.2746C8.89496 16.0308 10.0869 16.0702 10.8528 15.363L14.6722 17.5067C13.2874 18.8536 13.1014 21.0128 14.2354 22.5767L10.8788 24.4812C10.4065 24.0508 9.75232 23.8811 9.13033 24.0275C8.64164 24.1364 8.21696 24.4366 7.95118 24.8609C7.68539 25.2853 7.60067 25.7984 7.71593 26.2856C7.96163 27.2918 8.99123 27.9119 10.0169 27.6714C10.5053 27.5624 10.9298 27.2625 11.1955 26.8384C11.4613 26.4144 11.5462 25.9017 11.4313 25.4146L15.0193 23.384C15.9423 24.1159 17.1474 24.4071 18.3109 24.1783C18.6697 24.3421 19.0389 24.4812 19.4159 24.5943V29.8931C18.901 30.0527 18.471 30.4111 18.2212 30.8889C17.9851 31.3535 17.9462 31.8937 18.1133 32.3874C18.2804 32.8811 18.6394 33.2866 19.1091 33.5123C19.1871 33.5513 19.2638 33.5877 19.3535 33.6137C19.36 33.6137 19.3665 33.617 19.373 33.6202C19.3795 33.6235 19.386 33.6267 19.3925 33.6267C20.4455 33.9413 21.5661 33.3732 21.8872 32.3397C22.0425 31.841 21.9908 31.3008 21.7439 30.8405C21.497 30.3802 21.0756 30.0384 20.5742 29.8918V24.697C20.5742 24.697 21.5388 24.6086 21.9886 24.4695C23.2431 24.9635 24.6783 24.671 25.6286 23.7259L28.6368 25.4549C28.447 26.254 28.8092 27.0823 29.5247 27.4855C30.4292 28.0006 31.5793 27.7042 32.1221 26.816V26.8147ZM10.2743 25.4393C10.1287 25.1988 9.86613 25.0506 9.58013 25.0493C9.13943 25.0493 8.78193 25.399 8.78193 25.8319C8.78693 26.2679 9.1441 26.6175 9.58013 26.6132C10.0157 26.6168 10.372 26.2674 10.377 25.8319C10.3752 25.6946 10.3399 25.5599 10.2743 25.4393ZM20.8446 8.03491C20.8375 8.47002 20.4816 8.8184 20.0464 8.81621C19.6109 8.81982 19.2545 8.47042 19.2495 8.03491C19.2495 7.60201 19.607 7.25231 20.0464 7.25231C20.4884 7.25231 20.8446 7.60331 20.8446 8.03491ZM29.7691 14.0383C29.7776 14.4725 30.1317 14.8203 30.566 14.8209V14.8196C31.0021 14.8239 31.3592 14.4743 31.3642 14.0383C31.3642 13.6067 31.008 13.2557 30.566 13.2557C30.1266 13.2557 29.7691 13.6067 29.7691 14.0383ZM9.95193 13.3181C10.1345 13.4166 10.2692 13.5851 10.3251 13.7849C10.381 13.9847 10.3533 14.1986 10.2483 14.3776C10.0293 14.755 9.54656 14.8845 9.16803 14.6675C8.98489 14.5695 8.84968 14.401 8.79372 14.201C8.73777 14.001 8.76591 13.7868 8.87163 13.608C9.09065 13.2306 9.5734 13.1011 9.95193 13.3181ZM31.2597 25.6664C31.2038 25.4669 31.0694 25.2986 30.8871 25.2001V25.1988C30.7654 25.129 30.6283 25.0902 30.488 25.0857C30.2025 25.0809 29.936 25.2285 29.7886 25.4731C29.6435 25.7161 29.6435 26.0192 29.7886 26.2622C29.936 26.5068 30.2025 26.6544 30.488 26.6496C30.7714 26.6464 31.0336 26.4988 31.1835 26.2583C31.2881 26.0795 31.3156 25.8658 31.2597 25.6664ZM19.2495 31.7196C19.2508 31.7097 19.2554 31.7006 19.2625 31.6936C19.3355 31.2685 19.7358 30.9804 20.1621 31.0462C20.5889 31.1034 20.8886 31.4956 20.8316 31.9224C20.7521 32.3131 20.4074 32.593 20.0087 32.5906C19.7905 32.5812 19.5857 32.4827 19.4422 32.3181C19.2987 32.1534 19.229 31.9371 19.2495 31.7196ZM25.1398 21.4405C25.1468 20.619 24.6134 19.8905 23.8281 19.6491L23.7891 19.3592C23.7774 19.2916 23.7592 19.2227 23.7384 19.1577C23.7384 19.1455 23.7353 19.1333 23.7321 19.121C23.7288 19.1083 23.7254 19.0955 23.7254 19.0823C23.7124 19.0446 23.6994 19.0037 23.6864 18.9627C23.6734 18.9218 23.6604 18.8808 23.6474 18.8431V18.8301C23.4446 18.3063 23.1129 17.8421 22.6828 17.4807L22.6698 17.4677C22.5931 17.404 22.5164 17.3416 22.4267 17.2909L22.4137 17.2779C22.3931 17.2648 22.3716 17.2508 22.3498 17.2366C22.2891 17.1971 22.2257 17.1558 22.1693 17.1271L22.1563 17.1141C22.0731 17.0673 21.9873 17.0257 21.8989 16.9893L21.8729 16.9763C21.7832 16.9373 21.6935 16.8996 21.5908 16.8632L21.5778 16.8502C21.5392 16.8409 21.5025 16.8296 21.4661 16.8184C21.4057 16.7999 21.3464 16.7816 21.2814 16.7735H21.2684C21.167 16.7501 21.0643 16.7345 20.9603 16.7241H20.9473C20.4002 16.6476 19.8425 16.7125 19.3275 16.9126L19.2625 16.9633C19.1858 16.988 19.0571 17.0504 18.9804 17.0894C18.9401 17.1152 18.8969 17.1362 18.8517 17.1518C18.8244 17.1609 18.7849 17.1885 18.7503 17.2128C18.7356 17.2231 18.7217 17.2328 18.71 17.2402C18.671 17.2662 18.5813 17.3286 18.5306 17.3663L18.4916 17.3923C18.4365 17.4282 18.3885 17.4699 18.338 17.5137C18.3171 17.5319 18.2957 17.5504 18.2732 17.5691L18.2082 17.6315L18.2047 17.6349C18.1296 17.7088 18.0668 17.7705 18.0028 17.8473C17.8494 17.8213 17.6947 17.8083 17.54 17.8083C17.488 17.8083 17.449 17.8083 17.41 17.8213C16.5145 17.8642 15.7061 18.3706 15.2767 19.1577L15.2637 19.1837C15.2237 19.2568 15.1894 19.3329 15.161 19.4112C15.1544 19.4239 15.1511 19.4332 15.1478 19.4427C15.1446 19.4517 15.1414 19.461 15.135 19.4736C15.108 19.5388 15.0867 19.6062 15.0713 19.6751C15.0648 19.6881 15.0616 19.7037 15.0583 19.7193C15.0551 19.7349 15.0518 19.7505 15.0453 19.7635L15.0418 19.7809C15.03 19.8387 15.0181 19.8965 15.0063 19.965C15.0063 19.9768 15.0037 19.9883 15.0007 20.0009C14.9972 20.0161 14.9933 20.0328 14.9933 20.0534C14.9832 20.1497 14.9788 20.2465 14.9803 20.3433C14.9782 20.4237 14.9825 20.5041 14.9933 20.5838C14.9933 20.5948 14.9959 20.6057 14.9987 20.6179C15.0023 20.6332 15.0063 20.6505 15.0063 20.6722C15.0119 20.6962 15.0148 20.7199 15.0177 20.7436C15.0209 20.77 15.0242 20.7963 15.031 20.823C15.0363 20.8429 15.0394 20.857 15.0421 20.8691C15.0461 20.8871 15.0493 20.9011 15.057 20.9244C15.0717 20.9605 15.0805 20.9987 15.083 21.0375C15.083 21.0631 15.0944 21.0887 15.1058 21.1143C15.1112 21.1264 15.1166 21.1385 15.1207 21.1506C15.1314 21.1811 15.1444 21.2106 15.1597 21.239C15.1793 21.2801 15.1966 21.3222 15.2117 21.3651C15.215 21.3713 15.2183 21.3768 15.2213 21.3819C15.2305 21.3972 15.2377 21.4094 15.2377 21.4288C15.4202 21.8461 15.7253 22.198 16.1126 22.4376C16.2982 22.5528 16.4968 22.6457 16.7041 22.7145C16.7835 22.7416 16.8648 22.7629 16.9472 22.7782L16.9732 22.7912L17.2046 22.8276L17.2566 22.8406C17.3463 22.8536 17.436 22.8536 17.54 22.8536C17.8804 22.8574 18.2176 22.7887 18.5293 22.6521C18.5676 22.677 18.6025 22.7019 18.6371 22.7266C18.673 22.7523 18.7087 22.7778 18.7477 22.8029L18.7737 22.8159C18.8387 22.8536 18.9154 22.8913 18.9921 22.929L18.9921 22.929H19.0051C19.7422 23.2969 20.5884 23.3825 21.3841 23.1695H21.3971C21.5128 23.1448 21.6246 23.1071 21.7312 23.0551L22.0796 22.9043C22.4098 23.1578 22.8167 23.2956 23.2366 23.2956C23.2815 23.2956 23.3231 23.2924 23.3647 23.2891C23.4063 23.2859 23.4479 23.2826 23.4927 23.2826L23.5577 23.2709C23.7224 23.2487 23.8828 23.2018 24.0335 23.1318L24.0725 23.1188C24.1099 23.1001 24.1447 23.0814 24.1798 23.0626C24.2156 23.0434 24.2516 23.0241 24.2909 23.0044C24.6077 22.8022 24.8542 22.5071 24.9968 22.1594C25.0488 22.0463 25.0748 21.9332 25.1008 21.8201L25.1008 21.8201V21.7811C25.1074 21.7562 25.1106 21.7311 25.1139 21.7057C25.1171 21.6807 25.1204 21.6555 25.1268 21.6303C25.1268 21.5993 25.13 21.5679 25.1333 21.5364C25.1365 21.5045 25.1398 21.4725 25.1398 21.4405Z" fill="white"/>
</svg>
