<svg width="40" height="40" viewBox="0 0 40 40" fill="none" xmlns="http://www.w3.org/2000/svg">
<path fill-rule="evenodd" clip-rule="evenodd" d="M20 40C31.0457 40 40 31.0457 40 20C40 8.9543 31.0457 0 20 0C8.9543 0 0 8.9543 0 20C0 31.0457 8.9543 40 20 40Z" fill="#25292E"/>
<path d="M11.3787 27.6336L9.67261 26.426L20.4033 11.6336L22.1094 12.8412L11.3787 27.6336Z" fill="white" fill-opacity="0.5"/>
<path d="M14.2771 20.6875C11.6388 20.6875 9.5 18.5749 9.5 15.9688C9.5 13.3627 11.6388 11.25 14.2771 11.25H21.3022C21.8818 11.25 22.3517 11.7141 22.3517 12.2866C22.3517 12.8591 21.8818 13.3233 21.3022 13.3233H14.2771C12.798 13.3233 11.5989 14.5077 11.5989 15.9688C11.5989 17.4298 12.798 18.6143 14.2771 18.6143L14.8506 18.6143H17.5746C20.2129 18.6143 22.3517 20.7269 22.3517 23.333C22.3517 25.9391 20.2129 28.0518 17.5746 28.0518H10.5494C9.96985 28.0518 9.5 27.5877 9.5 27.0151C9.5 26.4426 9.96985 25.9785 10.5494 25.9785H17.5746C19.0537 25.9785 20.2528 24.7941 20.2528 23.333C20.2528 21.872 19.0537 20.6875 17.5746 20.6875H14.8506L14.2771 20.6875Z" fill="white"/>
<path fill-rule="evenodd" clip-rule="evenodd" d="M29.2068 20.0611C29.0263 20.2787 28.787 20.3988 28.489 20.4214L28.4718 21.6678C28.8558 21.6621 29.2025 21.5547 29.5119 21.3456C29.8214 21.1365 30.0635 20.8468 30.2383 20.4765C30.4131 20.1063 30.5005 19.6838 30.5005 19.209C30.5005 18.7681 30.4174 18.371 30.2512 18.0177C30.085 17.6645 29.8572 17.3889 29.5678 17.1911C29.2784 16.9932 28.9503 16.8943 28.5836 16.8943C28.2053 16.8943 27.903 16.9777 27.6767 17.1444C27.4503 17.3112 27.2812 17.5302 27.1695 17.8015C27.0577 18.0729 26.9646 18.4063 26.8901 18.802C26.8156 19.192 26.7511 19.4803 26.6967 19.6668C26.6422 19.8534 26.5706 19.9975 26.4818 20.0992C26.393 20.201 26.2683 20.2519 26.1078 20.2519C25.8843 20.2519 25.7124 20.1671 25.5921 19.9975C25.4717 19.8279 25.4116 19.6018 25.4116 19.3192C25.4116 19.014 25.4903 18.7681 25.6479 18.5816C25.8055 18.395 26.0133 18.2876 26.2712 18.2594V17.013C25.9101 17.0187 25.5863 17.1218 25.2998 17.3225C25.0133 17.5232 24.7883 17.7973 24.625 18.1449C24.4617 18.4925 24.38 18.884 24.38 19.3192C24.38 19.7431 24.4588 20.1233 24.6164 20.4596C24.774 20.7959 24.9903 21.0587 25.2654 21.2481C25.5405 21.4375 25.8528 21.5321 26.2024 21.5321C26.5864 21.5321 26.8944 21.4488 27.1265 21.282C27.3586 21.1153 27.5334 20.8991 27.6509 20.6334C27.7683 20.3677 27.8643 20.0399 27.9388 19.6499C28.0191 19.2542 28.0864 18.9617 28.1408 18.7723C28.1953 18.583 28.2698 18.436 28.3643 18.3315C28.4589 18.2269 28.5864 18.1746 28.7469 18.1746C28.9761 18.1746 29.1552 18.2693 29.2841 18.4586C29.4131 18.648 29.4776 18.8925 29.4776 19.192C29.4776 19.5538 29.3873 19.8435 29.2068 20.0611ZM27.9216 26.0088H24.4316V27.2806H27.8529C28.7125 27.2806 29.3687 27.0743 29.8214 26.6617C30.2741 26.2491 30.5005 25.6443 30.5005 24.8473C30.5005 24.0503 30.2741 23.4441 29.8214 23.0286C29.3687 22.6132 28.7125 22.4054 27.8529 22.4054H24.4316V23.6772H27.9216C28.4088 23.6772 28.7755 23.7719 29.022 23.9613C29.2684 24.1506 29.3916 24.446 29.3916 24.8473C29.3916 25.2486 29.2684 25.5425 29.022 25.7291C28.7755 25.9156 28.4088 26.0088 27.9216 26.0088ZM24.4316 16.1312V14.0709C24.4316 13.4774 24.5591 12.9532 24.8141 12.4982C25.0691 12.0431 25.4244 11.6927 25.88 11.4468C26.3356 11.2009 26.8557 11.078 27.4403 11.078C28.0248 11.078 28.5449 11.2009 29.0005 11.4468C29.4561 11.6927 29.8114 12.0431 30.0664 12.4982C30.3214 12.9532 30.4489 13.4774 30.4489 14.0709V16.1312H24.4316ZM28.8457 12.8203C29.1982 13.1171 29.3744 13.534 29.3744 14.0709V14.8595H25.5061V14.0709C25.5061 13.534 25.6823 13.1171 26.0348 12.8203C26.3872 12.5236 26.8557 12.3752 27.4403 12.3752C28.0248 12.3752 28.4933 12.5236 28.8457 12.8203Z" fill="white"/>
</svg>
