<svg width="40" height="40" viewBox="0 0 40 40" fill="none" xmlns="http://www.w3.org/2000/svg">
<path fill-rule="evenodd" clip-rule="evenodd" d="M20 40C31.0457 40 40 31.0457 40 20C40 8.9543 31.0457 0 20 0C8.9543 0 0 8.9543 0 20C0 31.0457 8.9543 40 20 40Z" fill="#25292E"/>
<path fill-rule="evenodd" clip-rule="evenodd" d="M17.5803 6.00029L17.553 6C17.3426 6 17.1356 6.05259 16.9503 6.15234L14.669 7.38501C14.2573 7.60584 14.0003 8.03501 14 8.50215V28.2367C14.0006 28.6898 14.2423 29.1084 14.6344 29.3355L21.5557 33.333C21.9476 33.5582 22.4297 33.5582 22.8215 33.333L25.362 31.8788C25.7571 31.6518 26.0005 31.2306 26 30.7749V11.5231C25.9989 11.0751 25.7629 10.6606 25.3781 10.431L18.1999 6.17736C18.012 6.06586 17.7985 6.00498 17.5803 6.00029ZM17.1225 6.47614C17.2548 6.40482 17.4028 6.36764 17.553 6.36796C17.7146 6.36796 17.8733 6.41136 18.0123 6.49381L25.1905 10.7475C25.4643 10.9099 25.6321 11.2047 25.632 11.5231V30.7793C25.632 31.1025 25.4591 31.401 25.1787 31.5616L22.6383 33.0158C22.3601 33.1757 22.0179 33.1757 21.7397 33.0158L14.822 29.0183C14.5415 28.858 14.3682 28.5598 14.368 28.2367V8.50215C14.3681 8.17089 14.5498 7.86634 14.8412 7.70882L17.1225 6.47614ZM15.6396 9.51919V9.51993L21.7029 13.0067C21.9824 13.1678 22.1547 13.4657 22.1548 13.7883V31.7221C22.1548 31.8185 22.1033 31.9075 22.0199 31.9558C21.9364 32.004 21.8336 32.0042 21.75 31.9561L15.3887 28.2985C15.2767 28.2339 15.2077 28.1144 15.2077 27.985L15.2341 9.75322C15.2345 9.65678 15.2861 9.5678 15.3696 9.5196C15.4531 9.47139 15.556 9.47124 15.6396 9.51919ZM15.6345 10.3589C15.6348 10.2947 15.6691 10.2354 15.7247 10.2032C15.7802 10.1709 15.8487 10.1705 15.9046 10.2021L21.3894 13.3526C21.6133 13.481 21.7511 13.7194 21.7508 13.9774V24.3849C21.751 24.4175 21.7335 24.4476 21.7051 24.4636L15.7633 27.8393C15.7425 27.8512 15.7179 27.8543 15.6948 27.848C15.6717 27.8416 15.6521 27.8263 15.6404 27.8055C15.6325 27.7921 15.6284 27.7768 15.6286 27.7613L15.6345 10.3589Z" fill="white"/>
</svg>
