<svg width="40" height="40" viewBox="0 0 40 40" fill="none" xmlns="http://www.w3.org/2000/svg">
<path fill-rule="evenodd" clip-rule="evenodd" d="M20 40C31.0457 40 40 31.0457 40 20C40 8.9543 31.0457 0 20 0C8.9543 0 0 8.9543 0 20C0 31.0457 8.9543 40 20 40Z" fill="#178DD0"/>
<path d="M10.7343 20.2524C10.8253 19.441 10.8707 19.0354 11.2254 18.7508C11.58 18.4663 11.9848 18.5097 12.7944 18.5964C13.1598 18.6355 13.5839 18.6863 14.0695 18.752C14.4961 18.8096 14.8848 18.8989 15.2335 19.0048C15.945 19.2207 16.3006 19.3287 16.8424 20.0593C17.3841 20.7899 17.3841 21.3774 17.3841 22.5523C17.3841 23.2756 17.3841 24.1934 17.3841 25.3478C17.3841 26.9698 17.3841 28.1246 17.3841 28.9292C17.3841 29.7069 17.3841 30.0958 17.1421 30.3378C16.9001 30.5797 16.5109 30.5797 15.7323 30.5797C15.1356 30.5797 14.4499 30.5797 13.8043 30.5797C13.7597 30.5797 13.7154 30.5797 13.6714 30.5797C12.3915 30.5792 11.7516 30.5789 11.2781 30.1449C10.8047 29.7109 10.7521 29.1111 10.647 27.9114C10.5647 26.9709 10.5 25.8195 10.5 24.5217C10.5 22.7882 10.6153 21.313 10.7343 20.2524Z" fill="white"/>
<path d="M29.2657 20.2524C29.1747 19.441 29.1293 19.0354 28.7746 18.7508C28.42 18.4663 28.0152 18.5097 27.2056 18.5964C26.8402 18.6355 26.4161 18.6863 25.9305 18.752C25.5039 18.8096 25.1152 18.8989 24.7665 19.0048C24.055 19.2207 23.6994 19.3287 23.1576 20.0593C22.6159 20.7899 22.6159 21.3774 22.6159 22.5523C22.6159 23.2756 22.6159 24.1934 22.6159 25.3478C22.6159 26.9698 22.6159 28.1246 22.6159 28.9292C22.6159 29.7069 22.6159 30.0958 22.8579 30.3378C23.0999 30.5797 23.4891 30.5797 24.2677 30.5797C24.8644 30.5797 25.5501 30.5797 26.1957 30.5797C26.2403 30.5797 26.2847 30.5797 26.3286 30.5797C27.6085 30.5792 28.2484 30.5789 28.7219 30.1449C29.1953 29.7109 29.2479 29.1111 29.353 27.9114C29.4353 26.9709 29.5 25.8195 29.5 24.5217C29.5 22.7882 29.3847 21.313 29.2657 20.2524Z" fill="white"/>
<path d="M10.7754 11.3159C10.7754 10.0476 10.7754 9.41354 11.1419 8.95942C11.1886 8.9017 11.2434 8.84261 11.2976 8.79189C11.7233 8.39272 12.3391 8.34701 13.5708 8.2557C15.2916 8.1281 17.6409 8 20.1377 8C22.6344 8 24.9838 8.1281 26.7045 8.2557C27.9362 8.34701 28.552 8.39272 28.9778 8.79189C29.0319 8.84261 29.0868 8.9017 29.1334 8.95942C29.5 9.41354 29.5 10.0476 29.5 11.3159C29.5 12.5734 29.5 13.2023 29.1337 13.6563C29.0874 13.7137 29.032 13.7734 28.9782 13.8239C28.5528 14.223 27.9449 14.2685 26.729 14.3594C25.0517 14.4848 22.7373 14.6087 20.1377 14.6087C17.5381 14.6087 15.2237 14.4848 13.5463 14.3594C12.3305 14.2685 11.7226 14.223 11.2971 13.8239C11.2433 13.7734 11.188 13.7137 11.1416 13.6563C10.7754 13.2023 10.7754 12.5734 10.7754 11.3159Z" fill="white"/>
</svg>
