<svg width="40" height="40" viewBox="0 0 40 40" fill="none" xmlns="http://www.w3.org/2000/svg">
<path fill-rule="evenodd" clip-rule="evenodd" d="M20 40C31.0457 40 40 31.0457 40 20C40 8.9543 31.0457 0 20 0C8.9543 0 0 8.9543 0 20C0 31.0457 8.9543 40 20 40Z" fill="#002868"/>
<path d="M23.07 12.0017C24.3733 12.182 25.6546 12.573 26.8256 13.1737C28.4795 14.0227 29.8728 15.3096 30.8227 16.9098C32.4765 19.6894 32.4247 22.3997 32.0435 24.2774C31.7313 25.8124 31.1997 26.7898 31.1997 26.7898C30.8912 27.342 29.7287 29.3226 27.4319 30.9476C26.3706 31.6996 25.1962 32.2789 23.9531 32.6636C23.2091 32.8966 22.4453 33.0597 21.671 33.1505C21.6582 33.152 21.6455 33.1535 21.6327 33.155C21.6047 33.1583 21.5765 33.1616 21.5483 33.1645L21.4938 33.1701C21.0602 33.2147 20.6241 33.2366 20.188 33.2358H20.1601C20.0141 33.2358 19.8681 33.2337 19.7223 33.229C19.1591 33.2108 18.5976 33.1573 18.0411 33.0685C16.9584 32.8961 15.9012 32.59 14.8941 32.1576C14.6464 32.0511 14.4021 31.9375 14.1611 31.8163C14.0968 31.7839 14.0321 31.752 13.9674 31.72C13.781 31.6278 13.5944 31.5355 13.4136 31.4326C13.2524 31.3393 13.0969 31.2365 12.948 31.1247C12.9453 31.1228 12.9427 31.1209 12.9401 31.119C12.9223 31.1062 12.9045 31.0933 12.8867 31.0796C13.5171 31.3349 14.1681 31.536 14.8328 31.6809C15.558 31.8088 16.2897 31.8983 17.0244 31.9498C20.7899 32.1961 25.1805 30.9702 27.8411 28.1867C28.9866 26.9885 29.8117 25.5018 30.1281 23.7191C30.2677 22.933 30.6125 20.8224 29.5605 18.6182C28.144 15.6486 25.0628 14.0741 21.8623 14.0741H15.5445V17.9432H19.8902V19.8318C19.8954 20.6004 19.8865 21.5482 19.8459 22.5665C19.743 25.0957 17.898 25.6345 17.898 25.6345V20.0364H13.239V11.9532L19.3599 11.922C19.6451 11.9206 19.9324 11.915 20.2208 11.9094C21.1727 11.8909 22.1358 11.8722 23.07 12.0017Z" fill="#94D6FF"/>
<path d="M16.5339 29.5563C17.3848 29.5629 18.2323 29.4502 19.051 29.2218C21.3314 28.5868 22.7165 27.2402 23.0704 26.8791C23.8695 26.0675 24.5 25.1084 24.9255 24.0561C25.4045 22.8619 25.5393 21.5032 25.5625 20.227C25.5632 20.1888 25.5648 20.0441 25.567 19.8431C25.5688 19.6829 25.5709 19.487 25.5733 19.2809C25.5733 18.6785 25.5733 18.124 25.5721 17.8221H23.5895V19.9337C23.5895 22.2295 22.836 24.7663 20.9269 26.2168C18.548 28.0248 14.7556 27.8136 12.2358 26.0516C9.05178 23.8258 8.45411 19.2937 9.53774 15.8203C10.5711 12.5056 13.3328 10.1106 16.6178 9.06447C19.5548 8.12866 22.8408 8.21042 25.7149 9.32962C28.7917 10.5271 31.2683 12.8659 33 15.628C32.7223 14.8188 32.3703 14.0364 31.9487 13.2902C31.6951 12.8394 31.4176 12.4023 31.1172 11.9807C31.0875 11.9338 30.9053 11.6618 30.5503 11.2423C30.382 11.0402 30.2801 10.9335 30.2801 10.9335C30.2077 10.8536 30.1306 10.7706 30.049 10.6844C29.4434 10.0464 28.7779 9.46696 28.0614 8.95385C21.3135 4.14386 11.528 6.68527 8.03389 14.1327C8.03084 14.1388 8.02779 14.1449 8.02474 14.1509C8.00724 14.1858 7.98982 14.2205 7.97334 14.2551C7.76161 14.7028 7.58253 15.1646 7.43742 15.6375C7.03439 16.9884 6.95167 18.3323 7.02304 19.5294C7.02463 19.5558 7.02624 19.5824 7.02786 19.6094C7.08921 20.6291 7.17995 22.1375 7.97236 23.842C8.24314 24.4248 9.72146 27.4528 13.1152 28.8502C14.7343 29.5159 16.1613 29.5527 16.5339 29.5563Z" fill="#94D6FF"/>
</svg>
