<svg width="40" height="40" viewBox="0 0 40 40" fill="none" xmlns="http://www.w3.org/2000/svg">
<path fill-rule="evenodd" clip-rule="evenodd" d="M20 40C31.0457 40 40 31.0457 40 20C40 8.9543 31.0457 0 20 0C8.9543 0 0 8.9543 0 20C0 31.0457 8.9543 40 20 40Z" fill="#002868"/>
<path fill-rule="evenodd" clip-rule="evenodd" d="M21.227 6.79999H18.773C15.5711 6.79999 13.7454 7.26412 12.1158 8.13565C10.4861 9.00719 9.2072 10.2861 8.33566 11.9158C7.46413 13.5454 7 15.3711 7 18.573V21.027C7 24.2289 7.46413 26.0546 8.33566 27.6842C9.2072 29.3138 10.4861 30.5928 12.1158 31.4643C13.7454 32.3359 15.5711 32.8 18.773 32.8H21.227C24.4289 32.8 26.2546 32.3359 27.8842 31.4643C29.5139 30.5928 30.7928 29.3138 31.6643 27.6842C32.5359 26.0546 33 24.2289 33 21.027V18.573C33 15.3711 32.5359 13.5454 31.6643 11.9158C30.7928 10.2861 29.5139 9.00719 27.8842 8.13565C26.2546 7.26412 24.4289 6.79999 21.227 6.79999ZM12.8232 9.45837C14.3355 8.64959 15.9832 8.29999 18.773 8.29999H21.227C24.0168 8.29999 25.6645 8.64959 27.1768 9.45837C28.5451 10.1901 29.6099 11.2549 30.3416 12.6232C31.1504 14.1354 31.5 15.7832 31.5 18.573V21.027C31.5 23.8167 31.1504 25.4645 30.3416 26.9768C29.6099 28.345 28.5451 29.4099 27.1768 30.1416C25.6645 30.9504 24.0168 31.3 21.227 31.3H18.773C15.9832 31.3 14.3355 30.9504 12.8232 30.1416C11.4549 29.4099 10.3901 28.345 9.65838 26.9768C8.8496 25.4645 8.5 23.8167 8.5 21.027V18.573C8.5 15.7832 8.8496 14.1354 9.65838 12.6232C10.3901 11.2549 11.4549 10.1901 12.8232 9.45837Z" fill="white"/>
<path d="M25.7097 14.185C25.8694 14.185 26 14.3156 26 14.4753V16.9914C26 17.1511 25.8694 17.2818 25.7097 17.2818H21.7158V25.1205C21.7158 25.2802 21.5852 25.4108 21.4255 25.4108H18.9094C18.7497 25.4108 18.619 25.2802 18.619 25.1205V17.2818H14.2903C14.1306 17.2818 14 17.1511 14 16.9914V14.4753C14 14.3156 14.1306 14.185 14.2903 14.185H25.7097Z" fill="white"/>
</svg>
