<svg width="40" height="40" viewBox="0 0 40 40" fill="none" xmlns="http://www.w3.org/2000/svg">
<path fill-rule="evenodd" clip-rule="evenodd" d="M20 40C31.0457 40 40 31.0457 40 20C40 8.9543 31.0457 0 20 0C8.9543 0 0 8.9543 0 20C0 31.0457 8.9543 40 20 40Z" fill="#FF4A4A"/>
<path d="M24.1007 23.2638H22.8743C22.8196 23.2638 22.7654 23.2532 22.7148 23.2323C22.6643 23.2114 22.6183 23.1808 22.5796 23.1422C22.5408 23.1036 22.5101 23.0577 22.489 23.0072C22.468 22.9567 22.4572 22.9025 22.4571 22.8478V19.6158L20.3044 20.9618C20.2158 21.0172 20.1134 21.0466 20.0089 21.0466C19.9044 21.0466 19.802 21.0172 19.7134 20.9618L17.5603 19.6156V22.8478C17.5602 22.9025 17.5493 22.9567 17.5283 23.0072C17.5073 23.0577 17.4765 23.1036 17.4378 23.1422C17.3991 23.1808 17.3531 23.2114 17.3025 23.2323C17.2519 23.2532 17.1978 23.2638 17.1431 23.2638H15.9166C15.8619 23.2638 15.8077 23.2532 15.7572 23.2323C15.7066 23.2114 15.6606 23.1808 15.6219 23.1422C15.5831 23.1036 15.5524 23.0577 15.5314 23.0072C15.5104 22.9567 15.4995 22.9025 15.4994 22.8478V16.6183C15.4997 16.5172 15.5276 16.4181 15.58 16.3316C15.6324 16.2451 15.7074 16.1746 15.7969 16.1276C15.8864 16.0805 15.987 16.0588 16.088 16.0646C16.1889 16.0705 16.2864 16.1038 16.3698 16.1609L19.7731 18.4852C19.8426 18.5327 19.9247 18.5581 20.0089 18.5581C20.093 18.5581 20.1752 18.5327 20.2447 18.4852L23.6473 16.1609C23.7308 16.1037 23.8282 16.0703 23.9292 16.0643C24.0302 16.0584 24.1309 16.0801 24.2204 16.1271C24.31 16.1742 24.385 16.2447 24.4374 16.3312C24.4899 16.4178 24.5177 16.5169 24.5179 16.6181V22.8478C24.5179 22.9025 24.507 22.9567 24.486 23.0072C24.465 23.0577 24.4342 23.1036 24.3955 23.1422C24.3567 23.1808 24.3108 23.2114 24.2602 23.2323C24.2096 23.2532 24.1554 23.2638 24.1007 23.2638Z" fill="white"/>
<path d="M13.6517 23.2083H6.05352C5.9809 23.2084 5.90897 23.1942 5.84185 23.1664C5.77472 23.1387 5.71371 23.098 5.66231 23.0467C5.61091 22.9954 5.57012 22.9345 5.54227 22.8674C5.51442 22.8004 5.50006 22.7285 5.5 22.6558V16.4142C5.50006 16.3598 5.51084 16.3059 5.53173 16.2556C5.55262 16.2053 5.58321 16.1596 5.62175 16.1212C5.6603 16.0827 5.70604 16.0522 5.75637 16.0314C5.8067 16.0106 5.86064 15.9999 5.91509 16H7.13581C7.19026 15.9999 7.24419 16.0106 7.29452 16.0314C7.34486 16.0522 7.3906 16.0827 7.42914 16.1212C7.46769 16.1596 7.49828 16.2053 7.51917 16.2556C7.54006 16.3059 7.55084 16.3598 7.5509 16.4142V21.1621H12.1544V16.4142C12.1544 16.3597 12.1652 16.3058 12.1861 16.2555C12.207 16.2051 12.2376 16.1594 12.2762 16.1209C12.3148 16.0825 12.3606 16.052 12.411 16.0312C12.4614 16.0105 12.5154 15.9999 12.5699 16H13.7906C13.845 15.9999 13.899 16.0106 13.9493 16.0314C13.9996 16.0522 14.0454 16.0827 14.0839 16.1212C14.1225 16.1596 14.1531 16.2053 14.1739 16.2556C14.1948 16.3059 14.2056 16.3598 14.2057 16.4142V22.656C14.2056 22.7287 14.1912 22.8005 14.1633 22.8676C14.1355 22.9346 14.0947 22.9955 14.0433 23.0468C13.9919 23.0981 13.9309 23.1388 13.8638 23.1665C13.7967 23.1942 13.7248 23.2084 13.6521 23.2083" fill="white"/>
<path d="M26.3474 16H33.9465C34.0191 15.9999 34.091 16.0141 34.1581 16.0418C34.2252 16.0696 34.2862 16.1102 34.3376 16.1615C34.389 16.2128 34.4298 16.2737 34.4577 16.3407C34.4855 16.4078 34.4999 16.4796 34.5 16.5523V22.7947C34.4999 22.8491 34.4892 22.9031 34.4683 22.9533C34.4474 23.0036 34.4168 23.0493 34.3782 23.0878C34.3397 23.1262 34.294 23.1567 34.2436 23.1775C34.1933 23.1983 34.1394 23.209 34.0849 23.2089H32.8638C32.8093 23.209 32.7553 23.1984 32.7049 23.1777C32.6545 23.1569 32.6087 23.1264 32.5702 23.0879C32.5316 23.0495 32.5009 23.0038 32.48 22.9534C32.4591 22.9031 32.4483 22.8492 32.4483 22.7947V18.3223C32.4479 18.2491 32.4186 18.179 32.3667 18.1275C32.3148 18.0759 32.2446 18.047 32.1714 18.0471H28.1223C28.0491 18.047 27.9789 18.0759 27.927 18.1275C27.8751 18.179 27.8458 18.2491 27.8454 18.3223V22.7947C27.8454 22.8491 27.8346 22.9031 27.8137 22.9533C27.7928 23.0036 27.7622 23.0493 27.7237 23.0878C27.6851 23.1262 27.6394 23.1567 27.5891 23.1775C27.5387 23.1983 27.4848 23.209 27.4303 23.2089H26.209C26.1545 23.209 26.1006 23.1983 26.0503 23.1775C25.9999 23.1567 25.9542 23.1262 25.9157 23.0878C25.8771 23.0493 25.8465 23.0036 25.8256 22.9533C25.8047 22.9031 25.794 22.8491 25.7939 22.7947V16.5523C25.794 16.4796 25.8084 16.4078 25.8362 16.3407C25.8641 16.2737 25.9049 16.2128 25.9563 16.1615C26.0077 16.1102 26.0687 16.0696 26.1358 16.0418C26.2029 16.0141 26.2748 15.9999 26.3474 16Z" fill="white"/>
<path d="M29.1208 19.7936V21.0226C29.121 21.0769 29.132 21.1306 29.153 21.1806C29.1741 21.2307 29.2048 21.2761 29.2433 21.3143C29.2819 21.3525 29.3277 21.3827 29.3779 21.4032C29.4282 21.4237 29.482 21.4341 29.5363 21.4339H30.7568C30.8111 21.4341 30.8649 21.4237 30.9151 21.4032C30.9654 21.3827 31.0111 21.3525 31.0497 21.3143C31.0883 21.2761 31.119 21.2307 31.14 21.1806C31.1611 21.1306 31.172 21.0769 31.1723 21.0226V19.7936C31.172 19.7393 31.1611 19.6856 31.14 19.6356C31.119 19.5855 31.0883 19.5401 31.0497 19.5019C31.0111 19.4637 30.9654 19.4335 30.9151 19.413C30.8649 19.3925 30.8111 19.382 30.7568 19.3823H29.5363C29.482 19.382 29.4282 19.3925 29.3779 19.413C29.3277 19.4335 29.2819 19.4637 29.2433 19.5019C29.2048 19.5401 29.1741 19.5855 29.153 19.6356C29.132 19.6856 29.121 19.7393 29.1208 19.7936Z" fill="white"/>
</svg>
