<svg width="40" height="40" viewBox="0 0 40 40" fill="none" xmlns="http://www.w3.org/2000/svg">
<path fill-rule="evenodd" clip-rule="evenodd" d="M20 40C31.0457 40 40 31.0457 40 20C40 8.9543 31.0457 0 20 0C8.9543 0 0 8.9543 0 20C0 31.0457 8.9543 40 20 40Z" fill="url(#paint0_linear)"/>
<path d="M32.4061 15.9351H29.9079C28.5324 12.1175 24.8342 9.5 19.957 9.5H11.936V15.9351H9.14999V18.2439H11.936V20.6649H9.14999V22.9737H11.936V29.3316H19.957C24.7781 29.3316 28.4482 26.7351 29.8588 22.9737H32.4061V20.6649H30.4202C30.4693 20.2579 30.4974 19.8368 30.4974 19.4158V19.3596C30.4974 18.9807 30.4763 18.6088 30.4412 18.2439H32.4132V15.9351H32.4061ZM14.1816 11.5561H19.957C23.536 11.5561 26.1956 13.3175 27.4237 15.9281H14.1816V11.5561ZM19.957 27.2544H14.1816V22.9667H27.4096C26.1746 25.5351 23.5219 27.2544 19.957 27.2544ZM28.1746 19.4649C28.1746 19.8719 28.1465 20.2719 28.0903 20.6579H14.1816V18.2368H28.0974C28.1465 18.6158 28.1746 19.0088 28.1746 19.4088V19.4649Z" fill="white"/>
<defs>
<linearGradient id="paint0_linear" x1="5.21739" y1="4.34782" x2="30.4348" y2="40" gradientUnits="userSpaceOnUse">
<stop stop-color="#EAE4D7"/>
<stop offset="1" stop-color="#DB16EB"/>
</linearGradient>
</defs>
</svg>
