<svg width="40" height="40" viewBox="0 0 40 40" fill="none" xmlns="http://www.w3.org/2000/svg">
<path fill-rule="evenodd" clip-rule="evenodd" d="M20 40C31.0457 40 40 31.0457 40 20C40 8.9543 31.0457 0 20 0C8.9543 0 0 8.9543 0 20C0 31.0457 8.9543 40 20 40Z" fill="#2775CA"/>
<path fill-rule="evenodd" clip-rule="evenodd" d="M15.7136 31.7434C10.9263 29.9911 7.50095 25.3879 7.50095 20.0006C7.50095 14.6133 10.9263 10.0133 15.7136 8.25773C16.0121 8.1498 16.2502 7.78789 16.2502 7.47043V6.30535C16.2502 5.83234 15.8819 5.56567 15.4311 5.70853C9.38031 7.64504 4.99936 13.3117 4.99936 20.0038C4.99936 26.6958 9.38031 32.3625 15.4311 34.2958C15.8819 34.4387 16.2502 34.172 16.2502 33.699V32.5339C16.2502 32.2133 16.0121 31.8546 15.7136 31.7434ZM25.4819 22.9752C25.4819 20.0546 23.7041 19.0704 20.2692 18.6006C17.7359 18.2323 17.2438 17.6387 17.2438 16.4546C17.2438 15.3308 18.1009 14.5339 19.7581 14.5339C21.2565 14.5339 22.1168 15.0577 22.4724 16.2609C22.5517 16.5308 22.793 16.7212 23.0724 16.7212H24.3867C24.7517 16.7212 25.0375 16.3847 24.9613 16.026C24.5454 14.1212 23.2629 12.9784 21.2502 12.6196V10.6292C21.2502 10.2831 20.9708 10.0038 20.6248 10.0038H19.374C19.0279 10.0038 18.7486 10.2831 18.7486 10.6292V12.5657C16.2692 12.9181 14.6692 14.5657 14.6692 16.6831C14.6692 19.4228 16.3232 20.4831 19.8184 20.953C22.1898 21.3403 22.8629 21.8514 22.8629 23.2006C22.8629 24.5498 21.7168 25.4482 20.1041 25.4482C17.9232 25.4482 17.2025 24.4927 16.939 23.2577C16.8755 22.9657 16.6248 22.7498 16.3263 22.7498H14.9009C14.5422 22.7498 14.2597 23.0736 14.3232 23.426C14.6851 25.5054 16.0216 27.0323 18.7486 27.4038V29.3784C18.7486 29.7244 19.0279 30.0038 19.374 30.0038H20.6248C20.9708 30.0038 21.2502 29.7244 21.2502 29.3784V27.4038C23.8311 26.9942 25.4819 25.1974 25.4819 22.9752ZM23.7517 6.30853C23.7517 5.83551 24.12 5.56885 24.5708 5.7117C30.6184 7.64504 35.0025 13.3117 35.0025 20.0038C35.0025 26.6958 30.6216 32.3625 24.5708 34.2958C24.12 34.4387 23.7517 34.172 23.7517 33.699V32.5339C23.7517 32.1879 23.9613 31.8673 24.2882 31.7466C29.0755 29.9911 32.5009 25.3911 32.5009 20.0038C32.5009 14.6165 29.0755 10.0133 24.2882 8.26091C23.9898 8.15297 23.7517 7.79107 23.7517 7.47361V6.30853Z" fill="white"/>
</svg>
