<svg width="40" height="40" viewBox="0 0 40 40" fill="none" xmlns="http://www.w3.org/2000/svg">
<path fill-rule="evenodd" clip-rule="evenodd" d="M20 40C31.0457 40 40 31.0457 40 20C40 8.9543 31.0457 0 20 0C8.9543 0 0 8.9543 0 20C0 31.0457 8.9543 40 20 40Z" fill="#22A079"/>
<path fill-rule="evenodd" clip-rule="evenodd" d="M22.4684 14.36V17.3352L22.47 17.336C27.99 17.5908 32.1396 18.6852 32.1396 19.996C32.1396 21.3068 27.99 22.4012 22.47 22.656V32.1868H17.55V22.6568C12.022 22.4012 7.862 21.306 7.862 19.994C7.862 18.682 12.02 17.5868 17.55 17.3328V14.36H10.7456V9.8268H29.272V14.36H22.4684ZM22.47 21.8464V21.8488L22.4708 21.8468C27.3452 21.6296 30.9852 20.7776 30.9852 19.7632C30.9852 18.7488 27.3468 17.8972 22.4708 17.68V21.002C22.3308 21.0148 21.568 21.078 20.0508 21.078C18.7876 21.078 17.8724 21.024 17.5524 21.002V17.68C12.6672 17.8968 9.02 18.7464 9.02 19.7644C9.02 20.7824 12.6668 21.6332 17.5524 21.8496V21.8456C17.8672 21.862 18.7604 21.898 20.03 21.898C21.618 21.898 22.3312 21.8552 22.47 21.8464Z" fill="white"/>
</svg>
