<svg width="40" height="40" viewBox="0 0 40 40" fill="none" xmlns="http://www.w3.org/2000/svg">
<path fill-rule="evenodd" clip-rule="evenodd" d="M20 40C31.0457 40 40 31.0457 40 20C40 8.9543 31.0457 0 20 0C8.9543 0 0 8.9543 0 20C0 31.0457 8.9543 40 20 40Z" fill="#FF9900"/>
<path fill-rule="evenodd" clip-rule="evenodd" d="M21.9781 12.7231C24.4497 12.9547 26.4039 13.7146 26.621 15.98C26.7875 17.6375 26.0891 18.6326 24.9781 19.1972C26.8056 19.6351 27.9492 20.7207 27.7212 23.1526C27.4389 26.1743 25.188 26.9705 21.96 27.1659V30.3215H20.0456V27.1912H18.5184V30.336H16.6077V27.1442H15.2398H12.75L13.13 24.8607C13.13 24.8607 14.5449 24.8824 14.5196 24.8607C14.5218 24.861 14.524 24.861 14.5261 24.861C14.8992 24.8838 15.2202 24.6005 15.2434 24.2274V15.6254C15.1667 15.0988 14.6868 14.7276 14.1577 14.7858C14.1794 14.7605 12.7681 14.7858 12.7681 14.7858V12.7412H15.4243H16.6403V9.60001H18.5402V12.6796C19.0504 12.6616 19.5643 12.6616 20.0673 12.6616H20.0673V9.60001H21.9781V12.7231ZM23.0565 16.8377C23.0565 18.8226 20.2198 18.7722 18.9089 18.749C18.7858 18.7468 18.6762 18.7448 18.5836 18.7448V14.9197C18.6918 14.9197 18.8232 14.9163 18.9722 14.9124L18.9723 14.9124C20.3089 14.8776 23.0565 14.8061 23.0565 16.8377ZM23.9431 22.7762C23.9431 24.9556 20.5151 24.9055 18.9507 24.8826C18.811 24.8806 18.6862 24.8788 18.58 24.8788V20.6664C18.7126 20.6668 18.8743 20.6632 19.0577 20.6592L19.0578 20.6592C20.6659 20.6236 23.9431 20.5512 23.9431 22.7762Z" fill="white"/>
<path fill-rule="evenodd" clip-rule="evenodd" d="M30.8915 6.94666C27.9417 4.48275 24.144 3 20 3C15.856 3 12.0583 4.48275 9.10851 6.94666C8.88776 7.13105 8.87845 7.46424 9.08184 7.66763L9.43808 8.02387C9.62454 8.21033 9.92321 8.21924 10.1264 8.05116C12.8078 5.83297 16.2482 4.5 20 4.5C23.7518 4.5 27.1922 5.83297 29.8736 8.05116C30.0768 8.21924 30.3755 8.21033 30.5619 8.02387L30.9182 7.66763C31.1215 7.46424 31.1122 7.13105 30.8915 6.94666ZM8.02387 9.43808C8.21033 9.62454 8.21924 9.92321 8.05116 10.1264C5.83297 12.8078 4.5 16.2482 4.5 20C4.5 23.7518 5.83297 27.1922 8.05116 29.8736C8.21924 30.0768 8.21033 30.3755 8.02387 30.5619L7.66763 30.9182C7.46424 31.1215 7.13105 31.1122 6.94666 30.8915C4.48275 27.9417 3 24.144 3 20C3 15.856 4.48275 12.0583 6.94666 9.10851C7.13105 8.88776 7.46424 8.87845 7.66763 9.08184L8.02387 9.43808ZM31.9488 29.8736C31.7808 30.0768 31.7897 30.3755 31.9761 30.5619L32.3324 30.9182C32.5358 31.1215 32.8689 31.1122 33.0533 30.8915C35.5172 27.9417 37 24.144 37 20C37 15.856 35.5172 12.0583 33.0533 9.10851C32.8689 8.88776 32.5358 8.87845 32.3324 9.08184L31.9761 9.43808C31.7897 9.62454 31.7808 9.92321 31.9488 10.1264C34.167 12.8078 35.5 16.2482 35.5 20C35.5 23.7518 34.167 27.1922 31.9488 29.8736ZM9.10851 33.0533C12.0583 35.5172 15.856 37 20 37C24.144 37 27.9417 35.5172 30.8915 33.0533C31.1122 32.8689 31.1215 32.5358 30.9182 32.3324L30.5619 31.9761C30.3755 31.7897 30.0768 31.7808 29.8736 31.9488C27.1922 34.167 23.7518 35.5 20 35.5C16.2482 35.5 12.8078 34.167 10.1264 31.9488C9.92321 31.7808 9.62454 31.7897 9.43808 31.9761L9.08184 32.3324C8.87845 32.5358 8.88776 32.8689 9.10851 33.0533Z" fill="white"/>
</svg>
