<svg width="40" height="40" viewBox="0 0 40 40" fill="none" xmlns="http://www.w3.org/2000/svg">
<path fill-rule="evenodd" clip-rule="evenodd" d="M20 40C31.0457 40 40 31.0457 40 20C40 8.9543 31.0457 0 20 0C8.9543 0 0 8.9543 0 20C0 31.0457 8.9543 40 20 40Z" fill="#FCC8F0"/>
<mask id="mask0" mask-type="alpha" maskUnits="userSpaceOnUse" x="0" y="0" width="40" height="40">
<path fill-rule="evenodd" clip-rule="evenodd" d="M20 40C31.0457 40 40 31.0457 40 20C40 8.9543 31.0457 0 20 0C8.9543 0 0 8.9543 0 20C0 31.0457 8.9543 40 20 40Z" fill="white"/>
</mask>
<g mask="url(#mask0)">
<path d="M14.6389 10.8745L14.5571 10.2374L15.2147 9.38405L16.7863 8.60628L18.9232 8.23642L20.8774 8.44142L21.8352 8.9341L22.1855 9.55545L22.0669 10.2876L21.2632 9.74588L20.2109 9.55545H19.0612L17.6064 9.74588L16.5876 10.0323L15.7743 10.4465L15.0808 11.0656H14.7969L14.6389 10.8745Z" fill="#F3AE35"/>
<path fill-rule="evenodd" clip-rule="evenodd" d="M17.5019 8.48243C17.4147 8.68889 17.2679 9.17462 17.5512 9.65103C17.5705 9.68347 17.5795 9.71773 17.5793 9.75352L17.6064 9.74588L19.0612 9.55545H20.2109L21.2632 9.74588L22.0669 10.2876L22.1855 9.55545L21.8352 8.9341L20.8774 8.44142L18.9232 8.23642L17.5019 8.48243Z" fill="white"/>
<path d="M18.8127 13.2967C20.9312 12.999 22.5303 11.9165 22.3845 10.8789C22.2386 9.84125 20.4031 9.24146 18.2846 9.53919C16.1661 9.83692 14.567 10.9194 14.7128 11.957C14.8587 12.9947 16.6942 13.5945 18.8127 13.2967Z" fill="#FFE453"/>
<path d="M16.0545 10.2876C16.0545 10.2876 15.6418 11.1758 15.7794 11.6829C15.9169 12.19 16.7789 12.8285 19.4023 13.034C22.0258 13.2396 16.7187 13.3127 16.7187 13.3127L15.5018 12.8298L14.8084 12.2268L14.6868 11.5833L14.9874 10.97L16.0545 10.2876Z" fill="#F8A915"/>
<path fill-rule="evenodd" clip-rule="evenodd" d="M18.2296 9.14778C20.5369 8.8235 22.589 9.49403 22.7759 10.8239L21.9931 10.9339C21.8883 10.1885 20.2692 9.65942 18.3396 9.9306C16.41 10.2018 14.9995 11.1566 15.1042 11.902L14.3214 12.0121C14.1345 10.6822 15.9222 9.47206 18.2296 9.14778Z" fill="#301D37"/>
<path fill-rule="evenodd" clip-rule="evenodd" d="M22.6186 9.56501L22.6178 9.55903C22.4309 8.2292 20.3789 7.55867 18.0715 7.88295C15.7641 8.20723 13.9764 9.41739 14.1633 10.7472L14.3206 12.0061C14.5083 13.3419 16.5604 14.0124 18.8677 13.6881C21.1751 13.3639 22.9628 12.1537 22.7759 10.8239L22.6186 9.56501ZM14.9469 10.6432C14.8414 9.89181 16.252 8.93695 18.1815 8.66577C20.1089 8.3949 21.7265 8.92243 21.8346 9.66646L21.9923 10.9279C22.0978 11.6793 20.6873 12.6341 18.7577 12.9053C16.8281 13.1765 15.209 12.6474 15.1043 11.902L14.9469 10.6432Z" fill="#301D37"/>
<path d="M17.7483 15.917L17.5464 15.2281L18.1242 14.171L19.7254 13.0373L22.0228 12.2549L24.2189 12.139L25.3637 12.5152L25.8596 13.1398L25.8565 13.9687L24.8734 13.5114L23.6769 13.4855L22.4061 13.6867L20.8312 14.1517L19.7551 14.6462L18.9285 15.2458L18.2702 16.0507L17.9563 16.1004L17.7483 15.917Z" fill="#F3AE35"/>
<path fill-rule="evenodd" clip-rule="evenodd" d="M20.4386 12.7079C20.3799 12.9588 20.3061 13.5391 20.7043 14.0337C20.7314 14.0674 20.7476 14.105 20.7537 14.1459L20.7823 14.1324L22.35 13.6612L23.6161 13.4607L24.8095 13.4946L25.7926 13.973L25.7908 13.1163L25.2926 12.4678L24.1487 12.0722L21.9594 12.179L20.4386 12.7079Z" fill="white"/>
<path d="M22.8032 17.4811C25.0994 16.7791 26.6821 15.2982 26.3382 14.1736C25.9944 13.0489 23.8542 12.7063 21.558 13.4083C19.2618 14.1103 17.6791 15.5911 18.0229 16.7158C18.3668 17.8405 20.507 18.1831 22.8032 17.4811Z" fill="#FFE453"/>
<path d="M23.6857 13.1627C23.6857 13.1627 27.2535 14.7229 22.3724 17.2031C21.8017 17.456 20.7647 17.7837 20.7647 17.7837L23.4496 17.456L25.1004 16.4819L26.297 15.2366L26.4836 14.3397L26.1486 13.8404L25.3365 13.3016L23.6857 13.1627Z" fill="white"/>
<path d="M19.2709 14.5929C19.2709 14.5929 18.1079 17.5004 22.0087 17.5064L20.5289 17.8251L19.111 17.5019L18.2456 16.955L17.9995 16.2641L18.2214 15.5332L19.2709 14.5929Z" fill="#F8A915"/>
<path fill-rule="evenodd" clip-rule="evenodd" d="M21.403 12.9547C23.9181 12.1858 26.3281 12.5716 26.7755 14.0349L25.8683 14.3122C25.628 13.5262 23.7576 13.2268 21.6803 13.8619C19.603 14.497 18.2198 15.7911 18.4602 16.5771L17.553 16.8545C17.1056 15.3912 18.8879 13.7237 21.403 12.9547Z" fill="#301D37"/>
<path fill-rule="evenodd" clip-rule="evenodd" d="M22.9396 17.9776C25.4524 17.2063 27.2317 15.5294 26.7839 14.0592L26.384 12.8327C25.932 11.3652 23.5238 10.9752 21.0131 11.7458C18.5003 12.517 16.721 14.1939 17.1688 15.6641L17.5701 16.8947C18.0154 18.3573 20.4262 18.749 22.9396 17.9776ZM25.478 13.1139L25.4808 13.1228L25.8793 14.3445C26.1189 15.1315 24.7375 16.4335 22.6613 17.0707C20.5857 17.7077 18.7168 17.4041 18.4747 16.6094L18.0734 15.3789C17.8338 14.5918 19.2152 13.2899 21.2915 12.6526C23.3671 12.0156 25.236 12.3192 25.478 13.1139Z" fill="#301D37"/>
<path d="M17.2259 19.9604L17.354 19.0363L18.5701 18.0787L21.002 17.5604L24.05 17.8207L26.6333 18.8213L27.7518 19.8621L27.9951 20.8619L27.5583 21.8461L26.6679 20.7927L25.307 20.1416L23.742 19.7223L21.6899 19.4589L20.1953 19.4893L18.9324 19.7738L17.7555 20.3898L17.369 20.2862L17.2259 19.9604Z" fill="#F1A922"/>
<path fill-rule="evenodd" clip-rule="evenodd" d="M21.6156 17.5712C21.5147 17.7919 21.218 18.5788 21.9419 18.9069C22.1514 19.0019 21.9369 19.1568 21.4956 19.3361L21.652 19.3346L23.6895 19.607L25.2457 20.024L26.6016 20.6608L27.495 21.6783L27.9184 20.7401L27.6673 19.7804L26.5479 18.7727L23.9763 17.7892L21.6156 17.5712Z" fill="white"/>
<path d="M22.154 24.4396C25.1581 24.8111 27.7379 23.9265 27.9162 22.4637C28.0945 21.001 25.8038 19.514 22.7997 19.1425C19.7957 18.771 17.2159 19.6557 17.0376 21.1184C16.8593 22.5811 19.15 24.0681 22.154 24.4396Z" fill="#E99C0B"/>
<path d="M23.2412 20.3952C23.73 20.5796 24.4181 20.8765 24.6641 20.8878C24.9328 20.8878 26.4221 20.8812 26.9454 20.9957C27.6881 21.1581 27.8006 22.2388 27.8006 22.2388L26.9454 22.7509L26.0238 22.4894L25.4418 22.6124L24.8894 22.6116L24.1407 22.6105L22.8989 22.9398L21.2034 23.0822L20.167 23.0885L19.3176 22.9233L18.1324 22.6921C18.1324 22.6921 17.4579 22.3898 17.4293 22.0375C17.3154 20.6324 20.9361 19.5257 23.2412 20.3952Z" fill="#D47B00"/>
<path fill-rule="evenodd" clip-rule="evenodd" d="M22.0959 24.9103C25.3275 25.31 28.1657 24.3367 28.387 22.5211C28.6082 20.7066 26.0891 19.0714 22.858 18.6718C19.6263 18.2722 16.7881 19.2454 16.5668 21.061C16.3456 22.8755 18.8647 24.5107 22.0959 24.9103ZM22.2123 23.9689C19.4353 23.6255 17.373 22.2868 17.5084 21.1758C17.6437 20.0659 19.9651 19.2699 22.7415 19.6133C25.5185 19.9567 27.5808 21.2954 27.4454 22.4063C27.3101 23.5162 24.9887 24.3122 22.2123 23.9689Z" fill="#301D37"/>
<path fill-rule="evenodd" clip-rule="evenodd" d="M28.4265 22.4702L28.4292 22.4403L28.5122 21.0284C28.72 19.2051 26.1954 17.5653 22.9578 17.1674C19.7108 16.7684 16.8574 17.7553 16.6329 19.5851L16.6302 19.615L16.5472 21.0269C16.3394 22.8502 18.864 24.49 22.1015 24.8879C25.3486 25.2868 28.2019 24.3 28.4265 22.4702ZM27.5687 20.9288L27.566 20.9588L27.4832 22.368C27.3283 23.4876 24.9988 24.2881 22.2172 23.9463C19.4246 23.6032 17.3524 22.2531 17.4906 21.1264L17.4933 21.0965L17.5762 19.6873C17.7311 18.5677 20.0605 17.7672 22.8421 18.109C25.6348 18.4521 27.707 19.8021 27.5687 20.9288Z" fill="#301D37"/>
<path d="M14.8546 22.2215L14.325 23.5838L14.019 25.0792L14.1669 27.1827L14.8546 29.1569L15.5568 30.2578L16.9251 31.9381L17.7257 32.4461L21.9264 32.7759H23.935L26.7266 32.1558L28.8136 30.8404L30.1033 28.7736L30.6295 27.1887V26.084L30.1033 25.3488L29.1094 25.0792L28.5853 23.8507L27.2899 22.7782L25.3185 22.4249L23.935 22.5675L23.0776 21.7198L21.9264 21.3627L19.9619 21.5617L17.7257 22.2215H14.8546Z" fill="white"/>
<path d="M29.8739 26.0183C29.8739 26.0183 29.1666 27.7293 28.4911 27.5582C27.8157 27.3871 28.8513 25.6176 28.8513 25.6176L29.5875 25.3346L29.8739 26.0183Z" fill="#DBD7DA"/>
<path d="M22.5643 25.9786C22.5643 25.9786 22.645 26.5386 23.2913 26.258C24.299 25.8205 25.4064 24.5533 25.2815 22.9545L24.2249 22.4249L24.1589 23.3758L22.5643 25.9786Z" fill="#DBD7DA"/>
<path d="M15.2299 29.9625C15.2299 29.9625 20.3588 31.3501 23.6094 31.0868C26.8599 30.8236 27.9435 30.3425 30.2762 28.5019L29.1095 30.2863L27.9652 31.6225L25.9049 32.454L22.7531 32.7759L18.2228 32.454L16.9251 32.1559L15.2299 29.9625Z" fill="#D7D9D7"/>
<path d="M16.5755 32.1558L15.5568 30.2578L14.4828 28.2462L14.019 26.1151L14.2557 24.0279L14.8546 22.2215H-0.955872L2.24617 33.6791L3.85592 32.9689L6.38494 32.4754L9.10017 32.1558H13.3144H16.5755Z" fill="#FFEE8A"/>
<path d="M15.1095 29.7488C15.1095 29.7488 7.77529 29.1479 1.41397 30.5199C-4.94735 31.8918 2.24617 33.6791 2.24617 33.6791L4.31077 32.9823L10.0247 32.1558H15.3489H16.9251L15.1095 29.7488Z" fill="#F4C257"/>
<path d="M-0.304443 22.2215L6.85125 21.9727L14.8546 22.2215L14.4572 23.3463C14.4572 23.3463 5.32859 23.1418 -0.0381081 23.5837L-0.304443 22.2215Z" fill="white"/>
<path d="M-1.70788 22.924C2.98404 22.6588 6.48959 22.5436 8.8037 22.578C9.9878 22.5957 11.0414 22.6219 12.2921 22.6616C12.4138 22.6654 14.0208 22.7185 14.4485 22.731C15.1973 22.7529 15.7879 22.7645 16.357 22.7668C17.3724 22.7708 18.4014 22.6173 19.4523 22.3524C19.923 22.2337 20.882 21.9443 20.7876 21.9694C21.4396 21.796 22.4934 21.9576 23.2332 22.6244C23.341 22.7216 23.3891 22.7699 23.4547 22.856C23.6222 23.0762 23.7023 23.3266 23.6609 23.6411C23.5976 24.122 23.2567 24.7116 22.547 25.4105C22.3293 25.625 22.3267 25.9754 22.5411 26.1931C22.7556 26.4108 23.1059 26.4135 23.3237 26.199C24.942 24.6051 25.1241 23.2221 24.3353 22.1857C24.2671 22.0961 24.1954 22.0151 24.1196 21.939C24.0698 21.889 24.0511 21.8717 23.9742 21.8024C22.9266 20.858 21.489 20.6377 20.5032 20.8999C20.5712 20.8818 19.6215 21.1684 19.1818 21.2792C18.2137 21.5233 17.2725 21.6637 16.3614 21.6601C15.8029 21.6578 15.2211 21.6464 14.4809 21.6247C14.0556 21.6123 12.4507 21.5593 12.3271 21.5554C11.0707 21.5156 10.0112 21.4892 8.82018 21.4715C6.47417 21.4365 2.94569 21.5525 -1.77033 21.819C-2.07546 21.8363 -2.30883 22.0976 -2.29158 22.4028C-2.27434 22.7079 -2.013 22.9413 -1.70788 22.924Z" fill="#301D37"/>
<path d="M14.349 21.9964C12.6257 25.8677 13.4285 29.4281 16.7129 32.5565C16.9342 32.7673 17.2845 32.7588 17.4952 32.5375C17.706 32.3162 17.6975 31.9659 17.4762 31.7552C14.5226 28.9418 13.832 25.8792 15.3601 22.4465C15.4844 22.1673 15.3588 21.8402 15.0796 21.7159C14.8004 21.5916 14.4733 21.7172 14.349 21.9964Z" fill="#301D37"/>
<path d="M3.37554 33.7659C6.11297 32.9682 8.99766 32.5692 12.0311 32.5692C13.96 32.5692 15.4091 32.6719 17.714 32.9217C17.7194 32.9223 18.4467 33.0016 18.6527 33.0236C19.007 33.0616 19.2994 33.0916 19.5806 33.1184C20.7181 33.227 21.658 33.2806 22.6359 33.2806C24.7146 33.2806 26.2741 33.023 27.5963 32.3525C29.1843 31.5472 30.3257 30.1654 31.0208 28.0908C31.5471 26.5198 30.7129 24.5258 29.3855 24.5258C29.0799 24.5258 28.8322 24.7736 28.8322 25.0792C28.8322 25.3848 29.0799 25.6326 29.3855 25.6326C29.5251 25.6326 29.7484 25.8383 29.908 26.2196C30.1026 26.6847 30.1344 27.2528 29.9714 27.7392C28.8528 31.0779 26.6915 32.1739 22.6359 32.1739C21.6971 32.1739 20.7909 32.1222 19.6858 32.0167C19.4094 31.9903 19.121 31.9607 18.7705 31.9232C18.5658 31.9013 17.8396 31.8221 17.8332 31.8214C15.4921 31.5677 14.0075 31.4625 12.0311 31.4625C8.89444 31.4625 5.90554 31.8759 3.06594 32.7034C2.77253 32.7889 2.60398 33.096 2.68947 33.3894C2.77497 33.6828 3.08213 33.8514 3.37554 33.7659Z" fill="#301D37"/>
<path d="M24.0249 23.1135C25.5536 22.8616 26.6268 22.9669 27.2427 23.3815C27.7033 23.6916 28.0552 24.0505 28.2897 24.4181C28.4664 24.6951 28.5561 24.9505 28.5561 25.0792C28.5561 25.6247 28.3769 26.2399 28.0052 26.6435C27.7982 26.8683 27.8126 27.2184 28.0374 27.4254C28.2622 27.6324 28.6123 27.618 28.8193 27.3932C29.4073 26.7546 29.6628 25.8777 29.6628 25.0792C29.6628 24.2891 28.9778 23.2154 27.8607 22.4634C26.9635 21.8594 25.6255 21.7281 23.845 22.0215C23.5435 22.0711 23.3393 22.3559 23.389 22.6574C23.4387 22.959 23.7234 23.1631 24.0249 23.1135Z" fill="#301D37"/>
<path fill-rule="evenodd" clip-rule="evenodd" d="M12.7234 13.8322C12.3491 15.6543 11.4517 16.423 11.0633 16.6781C11.4517 16.9332 12.3491 17.7019 12.7233 19.5239C13.0976 17.7019 13.995 16.9332 14.3835 16.6781C13.995 16.423 13.0976 15.6543 12.7234 13.8322Z" fill="white"/>
<path fill-rule="evenodd" clip-rule="evenodd" d="M26.9566 4.26877C26.5467 6.2644 25.5638 7.10621 25.1384 7.38565C25.5638 7.66509 26.5467 8.50698 26.9565 10.5025C27.3664 8.50698 28.3493 7.66509 28.7747 7.38565C28.3493 7.10621 27.3664 6.2644 26.9566 4.26877Z" fill="white"/>
</g>
</svg>
