<svg width="40" height="40" viewBox="0 0 40 40" fill="none" xmlns="http://www.w3.org/2000/svg">
<path fill-rule="evenodd" clip-rule="evenodd" d="M20 40C31.0457 40 40 31.0457 40 20C40 8.9543 31.0457 0 20 0C8.9543 0 0 8.9543 0 20C0 31.0457 8.9543 40 20 40Z" fill="#25292E"/>
<path fill-rule="evenodd" clip-rule="evenodd" d="M15.84 11.16C15.84 8.8625 17.7025 7 20 7C22.2975 7 24.16 8.8625 24.16 11.16C24.16 12.3446 23.6649 13.4135 22.8703 14.1711C22.3758 14.6427 21.976 15.2474 21.976 15.9308V16.1722C21.976 16.6525 22.2342 17.0865 22.5739 17.4261C22.9135 17.7658 23.3475 18.024 23.8278 18.024H24.0692C24.7526 18.024 25.3573 17.6242 25.8289 17.1297C26.5865 16.3351 27.6554 15.84 28.84 15.84C31.1375 15.84 33 17.7025 33 20C33 22.2975 31.1375 24.16 28.84 24.16C27.6554 24.16 26.5865 23.6649 25.8289 22.8703C25.3573 22.3758 24.7526 21.976 24.0693 21.976H23.8279C23.3475 21.976 22.9135 22.2342 22.5739 22.5739C22.2342 22.9135 21.976 23.3475 21.976 23.8279V24.0692C21.976 24.7526 22.3758 25.3573 22.8703 25.8289C23.6649 26.5865 24.16 27.6554 24.16 28.84C24.16 31.1375 22.2975 33 20 33C17.7025 33 15.84 31.1375 15.84 28.84C15.84 27.6554 16.3351 26.5865 17.1297 25.8288C17.6242 25.3573 18.024 24.7526 18.024 24.0693V23.8279C18.024 23.3475 17.7658 22.9136 17.4261 22.5739C17.0864 22.2342 16.6525 21.976 16.1721 21.976H15.9307C15.2474 21.976 14.6427 22.3758 14.1711 22.8703C13.4135 23.6649 12.3446 24.16 11.16 24.16C8.8625 24.16 7 22.2975 7 20C7 17.7025 8.8625 15.84 11.16 15.84C12.3446 15.84 13.4135 16.3351 14.1712 17.1297C14.6427 17.6242 15.2474 18.024 15.9307 18.024H16.1721C16.6525 18.024 17.0864 17.7658 17.4261 17.4261C17.7658 17.0864 18.024 16.6525 18.024 16.1721V15.9307C18.024 15.2474 17.6242 14.6427 17.1297 14.1712C16.3351 13.4135 15.84 12.3446 15.84 11.16ZM17.3134 11.16C17.3134 9.67619 18.5162 8.47333 20 8.47333C21.4838 8.47333 22.6867 9.67619 22.6867 11.16C22.6867 12.6438 21.4838 13.8467 20 13.8467C18.5162 13.8467 17.3134 12.6438 17.3134 11.16ZM20 26.1534C18.5162 26.1534 17.3134 27.3562 17.3134 28.84C17.3134 30.3238 18.5162 31.5267 20 31.5267C21.4838 31.5267 22.6867 30.3238 22.6867 28.84C22.6867 27.3562 21.4838 26.1534 20 26.1534ZM8.47336 20C8.47336 18.5162 9.67622 17.3133 11.16 17.3133C12.6438 17.3133 13.8467 18.5162 13.8467 20C13.8467 21.4838 12.6438 22.6867 11.16 22.6867C9.67622 22.6867 8.47336 21.4838 8.47336 20ZM28.84 17.3133C27.3562 17.3133 26.1534 18.5162 26.1534 20C26.1534 21.4838 27.3562 22.6867 28.84 22.6867C30.3238 22.6867 31.5267 21.4838 31.5267 20C31.5267 18.5162 30.3238 17.3133 28.84 17.3133Z" fill="white"/>
<path d="M18.5555 11.16C18.5555 10.3623 19.2022 9.71555 20 9.71555C20.7977 9.71555 21.4444 10.3623 21.4444 11.16C21.4444 11.9577 20.7977 12.6044 20 12.6044C19.2022 12.6044 18.5555 11.9577 18.5555 11.16Z" fill="white"/>
<path d="M18.5555 28.84C18.5555 28.0422 19.2022 27.3955 20 27.3955C20.7977 27.3955 21.4444 28.0422 21.4444 28.84C21.4444 29.6377 20.7977 30.2844 20 30.2844C19.2022 30.2844 18.5555 29.6377 18.5555 28.84Z" fill="white"/>
<path d="M9.71555 20C9.71555 19.2022 10.3623 18.5555 11.16 18.5555C11.9577 18.5555 12.6044 19.2022 12.6044 20C12.6044 20.7977 11.9577 21.4444 11.16 21.4444C10.3623 21.4444 9.71555 20.7977 9.71555 20Z" fill="white"/>
<path d="M27.3956 20C27.3956 19.2022 28.0423 18.5555 28.8401 18.5555C29.6378 18.5555 30.2845 19.2022 30.2845 20C30.2845 20.7977 29.6378 21.4444 28.8401 21.4444C28.0423 21.4444 27.3956 20.7977 27.3956 20Z" fill="white"/>
</svg>
