<svg width="40" height="40" viewBox="0 0 40 40" fill="none" xmlns="http://www.w3.org/2000/svg">
<path fill-rule="evenodd" clip-rule="evenodd" d="M20 40C31.0457 40 40 31.0457 40 20C40 8.9543 31.0457 0 20 0C8.9543 0 0 8.9543 0 20C0 31.0457 8.9543 40 20 40Z" fill="url(#paint0_linear)"/>
<path fill-rule="evenodd" clip-rule="evenodd" d="M19.0573 11.8609C19.0573 11.7228 19.1692 11.6109 19.3073 11.6109H20.6927C20.8308 11.6109 20.9427 11.7228 20.9427 11.8609V27.8328C20.9427 27.9709 20.8308 28.0828 20.6927 28.0828H19.3073C19.1692 28.0828 19.0573 27.9709 19.0573 27.8328V11.8609Z" fill="white"/>
<path fill-rule="evenodd" clip-rule="evenodd" d="M17.9875 19.3594V17.3909C16.4751 16.647 15.4338 15.0909 15.4338 13.2915C15.4338 10.7706 17.4784 8.72623 20 8.72623C22.8313 8.72623 24.8757 10.7706 24.8757 13.2915C24.8757 13.9269 24.7452 14.5323 24.4316 15.2513L23.7005 12.8739C23.6597 12.7415 23.5191 12.6674 23.3869 12.7088L22.2406 13.0671C22.1131 13.1069 22.0395 13.24 22.0734 13.3692L23.3738 18.3195C23.4113 18.4622 23.5635 18.5415 23.7019 18.4906L28.7537 16.6323C28.8878 16.583 28.9533 16.4316 28.8976 16.3001L28.4156 15.1629C28.3644 15.0422 28.2286 14.9815 28.1045 15.024L26.2526 15.6577C26.6275 14.8445 26.7012 14.2467 26.7012 13.2915C26.7012 9.76172 23.8397 6.89999 20 6.89999C16.4703 6.89999 13.6085 9.76172 13.6085 13.2915C13.6085 16.1182 15.4439 18.516 17.9875 19.3594ZM22.0125 20.3343V22.3028C23.5249 23.0469 24.5662 24.6028 24.5662 26.4023C24.5662 28.9231 22.5216 30.9675 20 30.9675C17.1685 30.9675 15.1243 28.9231 15.1243 26.4023C15.1243 25.7666 15.2548 25.1614 15.5681 24.4424L16.2995 26.8199C16.3403 26.9522 16.4809 27.0263 16.6131 26.985L17.7594 26.6267C17.8869 26.5868 17.9605 26.4537 17.9266 26.3245L16.6262 21.3742C16.5887 21.2316 16.4365 21.1522 16.298 21.2031L11.2463 23.0619C11.1122 23.1112 11.0467 23.2626 11.1024 23.3941L11.5844 24.5308C11.6356 24.6516 11.7714 24.7122 11.8955 24.6698L13.7474 24.036C13.3725 24.8493 13.2988 25.447 13.2988 26.4023C13.2988 29.932 16.1603 32.7937 20 32.7937C23.5297 32.7937 26.3915 29.932 26.3915 26.4023C26.3915 23.5756 24.5558 21.1777 22.0125 20.3343Z" fill="white"/>
<defs>
<linearGradient id="paint0_linear" x1="-20" y1="20" x2="20" y2="60" gradientUnits="userSpaceOnUse">
<stop stop-color="#0077FC"/>
<stop offset="1" stop-color="#095EB5"/>
</linearGradient>
</defs>
</svg>
