<svg width="40" height="40" viewBox="0 0 40 40" fill="none" xmlns="http://www.w3.org/2000/svg">
<path fill-rule="evenodd" clip-rule="evenodd" d="M20 40C31.0457 40 40 31.0457 40 20C40 8.9543 31.0457 0 20 0C8.9543 0 0 8.9543 0 20C0 31.0457 8.9543 40 20 40Z" fill="url(#paint0_radial)"/>
<path d="M19.0542 31.3351C18.3951 31.3319 17.9343 30.8726 17.9335 30.2111C17.9307 28.5737 17.9305 26.9363 17.9327 25.2987H17.9376C17.9376 23.648 17.9376 21.9971 17.9376 20.3461C17.9393 20.1664 17.9909 19.9906 18.0868 19.8385C19.6899 17.1515 21.2471 14.4379 22.818 11.7323C23.2927 10.915 23.7622 10.0946 24.2398 9.27892C24.5416 8.76385 25.0662 8.61235 25.5998 8.88016C26.022 9.09199 26.4511 9.29324 26.8595 9.52986C27.5327 9.91979 27.676 10.4884 27.2858 11.1572C25.9908 13.3765 24.6938 15.5947 23.3948 17.8119C22.9109 18.6395 22.4299 19.4687 21.9432 20.2947C21.8389 20.4735 21.7863 20.6778 21.7911 20.8847C21.7937 23.9859 21.7942 27.0871 21.7926 30.1883C21.7926 30.7609 21.4799 31.1782 20.9544 31.3084C20.8766 31.3265 20.7969 31.3352 20.7171 31.3344C20.3984 31.3357 20.0797 31.3364 19.7611 31.3365C19.5255 31.3366 19.2898 31.3361 19.0542 31.3351ZM14.7592 13.2999C14.4617 13.2993 14.1671 13.24 13.8925 13.1254C13.6179 13.0108 13.3685 12.8432 13.1587 12.6322C12.9488 12.4212 12.7827 12.1709 12.6696 11.8956C12.5566 11.6203 12.499 11.3254 12.5 11.0278C12.5019 10.7302 12.5624 10.4359 12.6781 10.1617C12.7938 9.88754 12.9624 9.6388 13.1742 9.42978C13.386 9.22076 13.637 9.05556 13.9127 8.94357C14.1884 8.83157 14.4835 8.77499 14.7811 8.77709C15.0787 8.77821 15.3731 8.83832 15.6473 8.95391C15.9215 9.0695 16.1701 9.2383 16.3787 9.45055C16.5873 9.66279 16.7517 9.91428 16.8625 10.1905C16.9733 10.4666 17.0283 10.762 17.0242 11.0596C17.0211 11.6556 16.7819 12.2261 16.359 12.646C15.936 13.066 15.3639 13.3012 14.7679 13.3001L14.7592 13.2999Z" fill="url(#paint1_linear)"/>
<defs>
<radialGradient id="paint0_radial" cx="0" cy="0" r="1" gradientUnits="userSpaceOnUse" gradientTransform="translate(20) rotate(90) scale(40)">
<stop stop-color="#F5F4F4"/>
<stop offset="1" stop-color="#EBEAEA"/>
</radialGradient>
<linearGradient id="paint1_linear" x1="20" y1="8.75" x2="20" y2="31.3365" gradientUnits="userSpaceOnUse">
<stop stop-color="#393939"/>
<stop offset="1" stop-color="#070707"/>
</linearGradient>
</defs>
</svg>
